M48
; DRILL file {KiCad 9.0.6} date 2025-11-26T17:33:31+0000
; FORMAT={-:-/ absolute / metric / decimal}
; #@! TF.CreationDate,2025-11-26T17:33:31+00:00
; #@! TF.GenerationSoftware,Kicad,Pcbnew,9.0.6
; #@! TF.FileFunction,Plated,1,2,PTH
FMAT,2
METRIC
; #@! TA.AperFunction,Plated,PTH,ComponentDrill
T1C0.700
; #@! TA.AperFunction,Plated,PTH,ComponentDrill
T2C0.889
; #@! TA.AperFunction,Plated,PTH,ComponentDrill
T3C1.210
; #@! TA.AperFunction,Plated,PTH,ComponentDrill
T4C1.500
%
G90
G05
T1
X91.44Y-45.085
X91.44Y-50.165
X109.855Y-45.085
X109.855Y-50.165
X128.27Y-45.085
X128.27Y-50.165
X146.685Y-45.085
X146.685Y-50.165
T2
X154.305Y-52.07
X154.305Y-54.61
X154.305Y-57.15
X154.305Y-59.69
X154.305Y-62.23
X154.305Y-64.77
X154.305Y-67.31
X169.545Y-52.07
X169.545Y-54.61
X169.545Y-57.15
X169.545Y-59.69
X169.545Y-62.23
X169.545Y-64.77
X169.545Y-67.31
T3
X85.09Y-47.625
X87.63Y-47.625
X103.505Y-47.625
X106.045Y-47.625
X121.92Y-47.625
X124.46Y-47.625
X140.335Y-47.625
X142.875Y-47.625
T4
X82.55Y-58.42
X88.9Y-55.88
X100.965Y-58.42
X107.315Y-55.88
X119.38Y-58.42
X125.73Y-55.88
X137.795Y-58.42
X144.145Y-55.88
M30
