%TF.GenerationSoftware,KiCad,Pcbnew,9.0.6*%
%TF.CreationDate,2025-11-26T17:33:25+00:00*%
%TF.ProjectId,keyfrick,6b657966-7269-4636-9b2e-6b696361645f,rev?*%
%TF.SameCoordinates,Original*%
%TF.FileFunction,Legend,Top*%
%TF.FilePolarity,Positive*%
%FSLAX46Y46*%
G04 Gerber Fmt 4.6, Leading zero omitted, Abs format (unit mm)*
G04 Created by KiCad (PCBNEW 9.0.6) date 2025-11-26 17:33:25*
%MOMM*%
%LPD*%
G01*
G04 APERTURE LIST*
G04 Aperture macros list*
%AMRoundRect*
0 Rectangle with rounded corners*
0 $1 Rounding radius*
0 $2 $3 $4 $5 $6 $7 $8 $9 X,Y pos of 4 corners*
0 Add a 4 corners polygon primitive as box body*
4,1,4,$2,$3,$4,$5,$6,$7,$8,$9,$2,$3,0*
0 Add four circle primitives for the rounded corners*
1,1,$1+$1,$2,$3*
1,1,$1+$1,$4,$5*
1,1,$1+$1,$6,$7*
1,1,$1+$1,$8,$9*
0 Add four rect primitives between the rounded corners*
20,1,$1+$1,$2,$3,$4,$5,0*
20,1,$1+$1,$4,$5,$6,$7,0*
20,1,$1+$1,$6,$7,$8,$9,0*
20,1,$1+$1,$8,$9,$2,$3,0*%
G04 Aperture macros list end*
%ADD10C,0.101600*%
%ADD11C,0.127000*%
%ADD12C,0.120000*%
%ADD13C,0.100000*%
%ADD14C,0.504000*%
%ADD15C,2.019000*%
%ADD16RoundRect,0.102000X-0.907500X-0.907500X0.907500X-0.907500X0.907500X0.907500X-0.907500X0.907500X0*%
%ADD17C,1.400000*%
%ADD18C,1.700000*%
%ADD19C,4.000000*%
%ADD20C,2.200000*%
%ADD21RoundRect,0.152400X1.063600X0.609600X-1.063600X0.609600X-1.063600X-0.609600X1.063600X-0.609600X0*%
%ADD22C,1.524000*%
%ADD23RoundRect,0.152400X-1.063600X-0.609600X1.063600X-0.609600X1.063600X0.609600X-1.063600X0.609600X0*%
G04 APERTURE END LIST*
D10*
X152941190Y-47343479D02*
X152941190Y-47857526D01*
X152941190Y-47857526D02*
X152971428Y-47918002D01*
X152971428Y-47918002D02*
X153001666Y-47948241D01*
X153001666Y-47948241D02*
X153062142Y-47978479D01*
X153062142Y-47978479D02*
X153183095Y-47978479D01*
X153183095Y-47978479D02*
X153243571Y-47948241D01*
X153243571Y-47948241D02*
X153273809Y-47918002D01*
X153273809Y-47918002D02*
X153304047Y-47857526D01*
X153304047Y-47857526D02*
X153304047Y-47343479D01*
X153939047Y-47978479D02*
X153576190Y-47978479D01*
X153757618Y-47978479D02*
X153757618Y-47343479D01*
X153757618Y-47343479D02*
X153697142Y-47434193D01*
X153697142Y-47434193D02*
X153636666Y-47494669D01*
X153636666Y-47494669D02*
X153576190Y-47524907D01*
D11*
%TO.C,D2*%
X102275000Y-46059000D02*
X102275000Y-49191000D01*
X102275000Y-46059000D02*
G75*
G02*
X102275000Y-49191000I2506124J-1566000D01*
G01*
D12*
%TO.C,R4*%
X145765000Y-45705000D02*
X145765000Y-49545000D01*
X147605000Y-45705000D02*
X147605000Y-49545000D01*
%TO.C,SW4*%
X134620000Y-53975000D02*
X148590000Y-53975000D01*
X134620000Y-67945000D02*
X134620000Y-53975000D01*
X148590000Y-53975000D02*
X148590000Y-67945000D01*
X148590000Y-67945000D02*
X134620000Y-67945000D01*
%TO.C,SW2*%
X97790000Y-53975000D02*
X111760000Y-53975000D01*
X97790000Y-67945000D02*
X97790000Y-53975000D01*
X111760000Y-53975000D02*
X111760000Y-67945000D01*
X111760000Y-67945000D02*
X97790000Y-67945000D01*
D11*
%TO.C,D1*%
X83860000Y-46059000D02*
X83860000Y-49191000D01*
X83860000Y-46059000D02*
G75*
G02*
X83860000Y-49191000I2506124J-1566000D01*
G01*
D12*
%TO.C,R2*%
X108935000Y-45705000D02*
X108935000Y-49545000D01*
X110775000Y-45705000D02*
X110775000Y-49545000D01*
%TO.C,R1*%
X90520000Y-45705000D02*
X90520000Y-49545000D01*
X92360000Y-45705000D02*
X92360000Y-49545000D01*
%TO.C,R3*%
X127350000Y-45705000D02*
X127350000Y-49545000D01*
X129190000Y-45705000D02*
X129190000Y-49545000D01*
%TO.C,SW3*%
X116205000Y-53975000D02*
X130175000Y-53975000D01*
X116205000Y-67945000D02*
X116205000Y-53975000D01*
X130175000Y-53975000D02*
X130175000Y-67945000D01*
X130175000Y-67945000D02*
X116205000Y-67945000D01*
D11*
%TO.C,D3*%
X120690000Y-46059000D02*
X120690000Y-49191000D01*
X120690000Y-46059000D02*
G75*
G02*
X120690000Y-49191000I2506124J-1566000D01*
G01*
D12*
%TO.C,SW1*%
X79375000Y-53975000D02*
X93345000Y-53975000D01*
X79375000Y-67945000D02*
X79375000Y-53975000D01*
X93345000Y-53975000D02*
X93345000Y-67945000D01*
X93345000Y-67945000D02*
X79375000Y-67945000D01*
D11*
%TO.C,D4*%
X139105000Y-46059000D02*
X139105000Y-49191000D01*
X139105000Y-46059000D02*
G75*
G02*
X139105000Y-49191000I2506124J-1566000D01*
G01*
%TO.C,U1*%
X153035000Y-68199000D02*
X153035000Y-51054000D01*
X154940000Y-70104000D02*
X168910000Y-70104000D01*
X157430000Y-49149000D02*
X157433728Y-48238728D01*
X157933728Y-47739000D02*
X165929000Y-47739000D01*
X166429000Y-48239000D02*
X166429000Y-49149000D01*
D13*
X168910000Y-49149000D02*
X154940000Y-49149000D01*
D11*
X168910000Y-49149000D02*
X154940000Y-49149000D01*
X170815000Y-68199000D02*
X170815000Y-51054000D01*
X153035000Y-51054000D02*
G75*
G02*
X154940000Y-49149000I1905001J-1D01*
G01*
X154940000Y-70104000D02*
G75*
G02*
X153035000Y-68199000I1J1905001D01*
G01*
X157433728Y-48238728D02*
G75*
G02*
X157933728Y-47739001I500018J-291D01*
G01*
X165929000Y-47739000D02*
G75*
G02*
X166429000Y-48239000I0J-500000D01*
G01*
X168910000Y-49149000D02*
G75*
G02*
X170815000Y-51054000I0J-1905000D01*
G01*
X170815000Y-68199000D02*
G75*
G02*
X168910000Y-70104000I-1905000J0D01*
G01*
D14*
X154370000Y-50270000D02*
G75*
G02*
X153866000Y-50270000I-252000J0D01*
G01*
X153866000Y-50270000D02*
G75*
G02*
X154370000Y-50270000I252000J0D01*
G01*
%TD*%
%LPC*%
D15*
%TO.C,D2*%
X106045000Y-47625000D03*
D16*
X103505000Y-47625000D03*
%TD*%
D17*
%TO.C,R4*%
X146685000Y-45085000D03*
X146685000Y-50165000D03*
%TD*%
D18*
%TO.C,SW4*%
X136525000Y-60960000D03*
D19*
X141605000Y-60960000D03*
D18*
X146685000Y-60960000D03*
D20*
X144145000Y-55880000D03*
X137795000Y-58420000D03*
%TD*%
D18*
%TO.C,SW2*%
X99695000Y-60960000D03*
D19*
X104775000Y-60960000D03*
D18*
X109855000Y-60960000D03*
D20*
X107315000Y-55880000D03*
X100965000Y-58420000D03*
%TD*%
D15*
%TO.C,D1*%
X87630000Y-47625000D03*
D16*
X85090000Y-47625000D03*
%TD*%
D17*
%TO.C,R2*%
X109855000Y-45085000D03*
X109855000Y-50165000D03*
%TD*%
%TO.C,R1*%
X91440000Y-45085000D03*
X91440000Y-50165000D03*
%TD*%
%TO.C,R3*%
X128270000Y-45085000D03*
X128270000Y-50165000D03*
%TD*%
D18*
%TO.C,SW3*%
X118110000Y-60960000D03*
D19*
X123190000Y-60960000D03*
D18*
X128270000Y-60960000D03*
D20*
X125730000Y-55880000D03*
X119380000Y-58420000D03*
%TD*%
D15*
%TO.C,D3*%
X124460000Y-47625000D03*
D16*
X121920000Y-47625000D03*
%TD*%
D18*
%TO.C,SW1*%
X81280000Y-60960000D03*
D19*
X86360000Y-60960000D03*
D18*
X91440000Y-60960000D03*
D20*
X88900000Y-55880000D03*
X82550000Y-58420000D03*
%TD*%
D15*
%TO.C,D4*%
X142875000Y-47625000D03*
D16*
X140335000Y-47625000D03*
%TD*%
D21*
%TO.C,U1*%
X153470000Y-52070000D03*
D22*
X154305000Y-52070000D03*
D21*
X153470000Y-54610000D03*
D22*
X154305000Y-54610000D03*
D21*
X153470000Y-57150000D03*
D22*
X154305000Y-57150000D03*
D21*
X153470000Y-59690000D03*
D22*
X154305000Y-59690000D03*
D21*
X153470000Y-62230000D03*
D22*
X154305000Y-62230000D03*
D21*
X153470000Y-64770000D03*
D22*
X154305000Y-64770000D03*
D21*
X153470000Y-67310000D03*
D22*
X154305000Y-67310000D03*
X169545000Y-67310000D03*
D23*
X170380000Y-67310000D03*
D22*
X169545000Y-64770000D03*
D23*
X170380000Y-64770000D03*
D22*
X169545000Y-62230000D03*
D23*
X170380000Y-62230000D03*
D22*
X169545000Y-59690000D03*
D23*
X170380000Y-59690000D03*
D22*
X169545000Y-57150000D03*
D23*
X170380000Y-57150000D03*
D22*
X169545000Y-54610000D03*
D23*
X170380000Y-54610000D03*
D22*
X169545000Y-52070000D03*
D23*
X170380000Y-52070000D03*
%TD*%
%LPD*%
M02*
