%TF.GenerationSoftware,KiCad,Pcbnew,9.0.6*%
%TF.CreationDate,2025-11-26T17:33:24+00:00*%
%TF.ProjectId,keyfrick,6b657966-7269-4636-9b2e-6b696361645f,rev?*%
%TF.SameCoordinates,Original*%
%TF.FileFunction,Copper,L1,Top*%
%TF.FilePolarity,Positive*%
%FSLAX46Y46*%
G04 Gerber Fmt 4.6, Leading zero omitted, Abs format (unit mm)*
G04 Created by KiCad (PCBNEW 9.0.6) date 2025-11-26 17:33:24*
%MOMM*%
%LPD*%
G01*
G04 APERTURE LIST*
G04 Aperture macros list*
%AMRoundRect*
0 Rectangle with rounded corners*
0 $1 Rounding radius*
0 $2 $3 $4 $5 $6 $7 $8 $9 X,Y pos of 4 corners*
0 Add a 4 corners polygon primitive as box body*
4,1,4,$2,$3,$4,$5,$6,$7,$8,$9,$2,$3,0*
0 Add four circle primitives for the rounded corners*
1,1,$1+$1,$2,$3*
1,1,$1+$1,$4,$5*
1,1,$1+$1,$6,$7*
1,1,$1+$1,$8,$9*
0 Add four rect primitives between the rounded corners*
20,1,$1+$1,$2,$3,$4,$5,0*
20,1,$1+$1,$4,$5,$6,$7,0*
20,1,$1+$1,$6,$7,$8,$9,0*
20,1,$1+$1,$8,$9,$2,$3,0*%
G04 Aperture macros list end*
%ADD10C,0.300000*%
%TA.AperFunction,NonConductor*%
%ADD11C,0.300000*%
%TD*%
%TA.AperFunction,ComponentPad*%
%ADD12C,1.815000*%
%TD*%
%TA.AperFunction,ComponentPad*%
%ADD13R,1.815000X1.815000*%
%TD*%
%TA.AperFunction,ComponentPad*%
%ADD14C,1.400000*%
%TD*%
%TA.AperFunction,ComponentPad*%
%ADD15C,2.200000*%
%TD*%
%TA.AperFunction,SMDPad,CuDef*%
%ADD16RoundRect,0.152400X1.063600X0.609600X-1.063600X0.609600X-1.063600X-0.609600X1.063600X-0.609600X0*%
%TD*%
%TA.AperFunction,ComponentPad*%
%ADD17C,1.524000*%
%TD*%
%TA.AperFunction,SMDPad,CuDef*%
%ADD18RoundRect,0.152400X-1.063600X-0.609600X1.063600X-0.609600X1.063600X0.609600X-1.063600X0.609600X0*%
%TD*%
%TA.AperFunction,Conductor*%
%ADD19C,0.200000*%
%TD*%
G04 APERTURE END LIST*
D10*
D11*
X157272510Y-46028828D02*
X157272510Y-44528828D01*
X157272510Y-45100257D02*
X157415368Y-45028828D01*
X157415368Y-45028828D02*
X157701082Y-45028828D01*
X157701082Y-45028828D02*
X157843939Y-45100257D01*
X157843939Y-45100257D02*
X157915368Y-45171685D01*
X157915368Y-45171685D02*
X157986796Y-45314542D01*
X157986796Y-45314542D02*
X157986796Y-45743114D01*
X157986796Y-45743114D02*
X157915368Y-45885971D01*
X157915368Y-45885971D02*
X157843939Y-45957400D01*
X157843939Y-45957400D02*
X157701082Y-46028828D01*
X157701082Y-46028828D02*
X157415368Y-46028828D01*
X157415368Y-46028828D02*
X157272510Y-45957400D01*
X158843939Y-46028828D02*
X158701082Y-45957400D01*
X158701082Y-45957400D02*
X158629653Y-45885971D01*
X158629653Y-45885971D02*
X158558225Y-45743114D01*
X158558225Y-45743114D02*
X158558225Y-45314542D01*
X158558225Y-45314542D02*
X158629653Y-45171685D01*
X158629653Y-45171685D02*
X158701082Y-45100257D01*
X158701082Y-45100257D02*
X158843939Y-45028828D01*
X158843939Y-45028828D02*
X159058225Y-45028828D01*
X159058225Y-45028828D02*
X159201082Y-45100257D01*
X159201082Y-45100257D02*
X159272511Y-45171685D01*
X159272511Y-45171685D02*
X159343939Y-45314542D01*
X159343939Y-45314542D02*
X159343939Y-45743114D01*
X159343939Y-45743114D02*
X159272511Y-45885971D01*
X159272511Y-45885971D02*
X159201082Y-45957400D01*
X159201082Y-45957400D02*
X159058225Y-46028828D01*
X159058225Y-46028828D02*
X158843939Y-46028828D01*
X160629654Y-46028828D02*
X160629654Y-45243114D01*
X160629654Y-45243114D02*
X160558225Y-45100257D01*
X160558225Y-45100257D02*
X160415368Y-45028828D01*
X160415368Y-45028828D02*
X160129654Y-45028828D01*
X160129654Y-45028828D02*
X159986796Y-45100257D01*
X160629654Y-45957400D02*
X160486796Y-46028828D01*
X160486796Y-46028828D02*
X160129654Y-46028828D01*
X160129654Y-46028828D02*
X159986796Y-45957400D01*
X159986796Y-45957400D02*
X159915368Y-45814542D01*
X159915368Y-45814542D02*
X159915368Y-45671685D01*
X159915368Y-45671685D02*
X159986796Y-45528828D01*
X159986796Y-45528828D02*
X160129654Y-45457400D01*
X160129654Y-45457400D02*
X160486796Y-45457400D01*
X160486796Y-45457400D02*
X160629654Y-45385971D01*
X161343939Y-45457400D02*
X162486797Y-45457400D01*
X163201082Y-45028828D02*
X163201082Y-46528828D01*
X163201082Y-45100257D02*
X163343940Y-45028828D01*
X163343940Y-45028828D02*
X163629654Y-45028828D01*
X163629654Y-45028828D02*
X163772511Y-45100257D01*
X163772511Y-45100257D02*
X163843940Y-45171685D01*
X163843940Y-45171685D02*
X163915368Y-45314542D01*
X163915368Y-45314542D02*
X163915368Y-45743114D01*
X163915368Y-45743114D02*
X163843940Y-45885971D01*
X163843940Y-45885971D02*
X163772511Y-45957400D01*
X163772511Y-45957400D02*
X163629654Y-46028828D01*
X163629654Y-46028828D02*
X163343940Y-46028828D01*
X163343940Y-46028828D02*
X163201082Y-45957400D01*
X165201083Y-45957400D02*
X165058225Y-46028828D01*
X165058225Y-46028828D02*
X164772511Y-46028828D01*
X164772511Y-46028828D02*
X164629654Y-45957400D01*
X164629654Y-45957400D02*
X164558225Y-45885971D01*
X164558225Y-45885971D02*
X164486797Y-45743114D01*
X164486797Y-45743114D02*
X164486797Y-45314542D01*
X164486797Y-45314542D02*
X164558225Y-45171685D01*
X164558225Y-45171685D02*
X164629654Y-45100257D01*
X164629654Y-45100257D02*
X164772511Y-45028828D01*
X164772511Y-45028828D02*
X165058225Y-45028828D01*
X165058225Y-45028828D02*
X165201083Y-45100257D01*
X165843939Y-46028828D02*
X165843939Y-44528828D01*
X165843939Y-45100257D02*
X165986797Y-45028828D01*
X165986797Y-45028828D02*
X166272511Y-45028828D01*
X166272511Y-45028828D02*
X166415368Y-45100257D01*
X166415368Y-45100257D02*
X166486797Y-45171685D01*
X166486797Y-45171685D02*
X166558225Y-45314542D01*
X166558225Y-45314542D02*
X166558225Y-45743114D01*
X166558225Y-45743114D02*
X166486797Y-45885971D01*
X166486797Y-45885971D02*
X166415368Y-45957400D01*
X166415368Y-45957400D02*
X166272511Y-46028828D01*
X166272511Y-46028828D02*
X165986797Y-46028828D01*
X165986797Y-46028828D02*
X165843939Y-45957400D01*
D12*
%TO.P,D2,A*%
%TO.N,Net-(D2-PadA)*%
X106045000Y-47625000D03*
D13*
%TO.P,D2,C*%
%TO.N,GND*%
X103505000Y-47625000D03*
%TD*%
D14*
%TO.P,R4,1*%
%TO.N,Net-(D4-PadA)*%
X146685000Y-45085000D03*
%TO.P,R4,2*%
%TO.N,d4*%
X146685000Y-50165000D03*
%TD*%
D15*
%TO.P,SW4,1,1*%
%TO.N,sw4*%
X144145000Y-55880000D03*
%TO.P,SW4,2,2*%
%TO.N,GND*%
X137795000Y-58420000D03*
%TD*%
%TO.P,SW2,1,1*%
%TO.N,sw2*%
X107315000Y-55880000D03*
%TO.P,SW2,2,2*%
%TO.N,GND*%
X100965000Y-58420000D03*
%TD*%
D12*
%TO.P,D1,A*%
%TO.N,Net-(D1-PadA)*%
X87630000Y-47625000D03*
D13*
%TO.P,D1,C*%
%TO.N,GND*%
X85090000Y-47625000D03*
%TD*%
D14*
%TO.P,R2,1*%
%TO.N,Net-(D2-PadA)*%
X109855000Y-45085000D03*
%TO.P,R2,2*%
%TO.N,d2*%
X109855000Y-50165000D03*
%TD*%
%TO.P,R1,1*%
%TO.N,Net-(D1-PadA)*%
X91440000Y-45085000D03*
%TO.P,R1,2*%
%TO.N,d1*%
X91440000Y-50165000D03*
%TD*%
%TO.P,R3,1*%
%TO.N,Net-(D3-PadA)*%
X128270000Y-45085000D03*
%TO.P,R3,2*%
%TO.N,d3*%
X128270000Y-50165000D03*
%TD*%
D15*
%TO.P,SW3,1,1*%
%TO.N,sw3*%
X125730000Y-55880000D03*
%TO.P,SW3,2,2*%
%TO.N,GND*%
X119380000Y-58420000D03*
%TD*%
D12*
%TO.P,D3,A*%
%TO.N,Net-(D3-PadA)*%
X124460000Y-47625000D03*
D13*
%TO.P,D3,C*%
%TO.N,GND*%
X121920000Y-47625000D03*
%TD*%
D15*
%TO.P,SW1,1,1*%
%TO.N,sw1*%
X88900000Y-55880000D03*
%TO.P,SW1,2,2*%
%TO.N,GND*%
X82550000Y-58420000D03*
%TD*%
D12*
%TO.P,D4,A*%
%TO.N,Net-(D4-PadA)*%
X142875000Y-47625000D03*
D13*
%TO.P,D4,C*%
%TO.N,GND*%
X140335000Y-47625000D03*
%TD*%
D16*
%TO.P,U1,1,GPIO26/ADC0/A0*%
%TO.N,unconnected-(U1-GPIO26{slash}ADC0{slash}A0-Pad1)*%
X153470000Y-52070000D03*
D17*
X154305000Y-52070000D03*
D16*
%TO.P,U1,2,GPIO27/ADC1/A1*%
%TO.N,unconnected-(U1-GPIO27{slash}ADC1{slash}A1-Pad2)*%
X153470000Y-54610000D03*
D17*
X154305000Y-54610000D03*
D16*
%TO.P,U1,3,GPIO28/ADC2/A2*%
%TO.N,unconnected-(U1-GPIO28{slash}ADC2{slash}A2-Pad3)*%
X153470000Y-57150000D03*
D17*
X154305000Y-57150000D03*
D16*
%TO.P,U1,4,GPIO29/ADC3/A3*%
%TO.N,sw1*%
X153470000Y-59690000D03*
D17*
X154305000Y-59690000D03*
D16*
%TO.P,U1,5,GPIO6/SDA*%
%TO.N,sw2*%
X153470000Y-62230000D03*
D17*
X154305000Y-62230000D03*
D16*
%TO.P,U1,6,GPIO7/SCL*%
%TO.N,sw3*%
X153470000Y-64770000D03*
D17*
X154305000Y-64770000D03*
D16*
%TO.P,U1,7,GPIO0/TX*%
%TO.N,sw4*%
X153470000Y-67310000D03*
D17*
X154305000Y-67310000D03*
%TO.P,U1,8,GPIO1/RX*%
%TO.N,d4*%
X169545000Y-67310000D03*
D18*
X170380000Y-67310000D03*
D17*
%TO.P,U1,9,GPIO2/SCK*%
%TO.N,d3*%
X169545000Y-64770000D03*
D18*
X170380000Y-64770000D03*
D17*
%TO.P,U1,10,GPIO4/MISO*%
%TO.N,d2*%
X169545000Y-62230000D03*
D18*
X170380000Y-62230000D03*
D17*
%TO.P,U1,11,GPIO3/MOSI*%
%TO.N,d1*%
X169545000Y-59690000D03*
D18*
X170380000Y-59690000D03*
D17*
%TO.P,U1,12,3V3*%
%TO.N,unconnected-(U1-3V3-Pad12)*%
X169545000Y-57150000D03*
D18*
X170380000Y-57150000D03*
D17*
%TO.P,U1,13,GND*%
%TO.N,GND*%
X169545000Y-54610000D03*
D18*
X170380000Y-54610000D03*
D17*
%TO.P,U1,14,VBUS*%
%TO.N,unconnected-(U1-VBUS-Pad14)*%
X169545000Y-52070000D03*
D18*
X170380000Y-52070000D03*
%TD*%
D19*
%TO.N,GND*%
X100976700Y-58408300D02*
X100965000Y-58420000D01*
X169695500Y-54610000D02*
X169736800Y-54610000D01*
X169545000Y-54610000D02*
X169695500Y-54610000D01*
X169736800Y-54610000D02*
X170380000Y-54610000D01*
X100893700Y-58348700D02*
X100965000Y-58420000D01*
X137783300Y-58408300D02*
X137795000Y-58420000D01*
X119380000Y-58420000D02*
X119368300Y-58408300D01*
X82550000Y-58420000D02*
X82621300Y-58348700D01*
%TO.N,Net-(D1-PadA)*%
X87630000Y-47625000D02*
X90170000Y-45085000D01*
X90170000Y-45085000D02*
X91440000Y-45085000D01*
%TO.N,Net-(D2-PadA)*%
X108585000Y-45085000D02*
X109855000Y-45085000D01*
X106045000Y-47625000D02*
X108585000Y-45085000D01*
%TO.N,Net-(D3-PadA)*%
X127000000Y-45085000D02*
X128270000Y-45085000D01*
X124460000Y-47625000D02*
X127000000Y-45085000D01*
%TO.N,Net-(D4-PadA)*%
X145415000Y-45085000D02*
X146685000Y-45085000D01*
X142875000Y-47625000D02*
X145415000Y-45085000D01*
%TO.N,d1*%
X130139724Y-50472000D02*
X144034648Y-50472000D01*
X108854000Y-49750372D02*
X109440372Y-49164000D01*
X126083510Y-50472000D02*
X127719510Y-48836000D01*
X92075000Y-50800000D02*
X109074372Y-50800000D01*
X128820490Y-48836000D02*
X129599000Y-49614510D01*
X129599000Y-49931276D02*
X130139724Y-50472000D01*
X110269628Y-49164000D02*
X110856000Y-49750372D01*
X129599000Y-49614510D02*
X129599000Y-49931276D01*
X156174724Y-50472000D02*
X158250862Y-50472000D01*
X108854000Y-50579628D02*
X108854000Y-49750372D01*
X154210724Y-48508000D02*
X156174724Y-50472000D01*
X170380000Y-59690000D02*
X169545000Y-59690000D01*
X161490000Y-50800000D02*
X170380000Y-59690000D01*
X144034648Y-50472000D02*
X145998648Y-48508000D01*
X110856000Y-50472000D02*
X126083510Y-50472000D01*
X110856000Y-49750372D02*
X110856000Y-50472000D01*
X127719510Y-48836000D02*
X128820490Y-48836000D01*
X158250862Y-50472000D02*
X158578862Y-50800000D01*
X158578862Y-50800000D02*
X161490000Y-50800000D01*
X145998648Y-48508000D02*
X154210724Y-48508000D01*
X109074372Y-50800000D02*
X108854000Y-50579628D01*
X109440372Y-49164000D02*
X110269628Y-49164000D01*
X91440000Y-50165000D02*
X92075000Y-50800000D01*
%TO.N,d2*%
X158115000Y-50800000D02*
X169545000Y-62230000D01*
X154074862Y-48836000D02*
X156038862Y-50800000D01*
X144170510Y-50800000D02*
X146134510Y-48836000D01*
X110490000Y-50800000D02*
X126219372Y-50800000D01*
X128684628Y-49164000D02*
X129271000Y-49750372D01*
X156038862Y-50800000D02*
X158115000Y-50800000D01*
X170380000Y-62230000D02*
X169545000Y-62230000D01*
X130003862Y-50800000D02*
X144170510Y-50800000D01*
X129271000Y-50067138D02*
X130003862Y-50800000D01*
X129271000Y-49750372D02*
X129271000Y-50067138D01*
X126219372Y-50800000D02*
X127855372Y-49164000D01*
X127855372Y-49164000D02*
X128684628Y-49164000D01*
X146134510Y-48836000D02*
X154074862Y-48836000D01*
X111637500Y-51947600D02*
X111637500Y-51947500D01*
X109855000Y-50165000D02*
X110490000Y-50800000D01*
%TO.N,d3*%
X144306372Y-51128000D02*
X146270372Y-49164000D01*
X128905000Y-50165000D02*
X129868000Y-51128000D01*
X170380000Y-64770000D02*
X169545000Y-64770000D01*
X128270000Y-50165000D02*
X128905000Y-50165000D01*
X153939000Y-49164000D02*
X169545000Y-64770000D01*
X146270372Y-49164000D02*
X153939000Y-49164000D01*
X129868000Y-51128000D02*
X144306372Y-51128000D01*
%TO.N,d4*%
X155448000Y-51308000D02*
X155448000Y-53213000D01*
X147358000Y-49492000D02*
X153632000Y-49492000D01*
X170380000Y-67310000D02*
X169545000Y-67310000D01*
X153632000Y-49492000D02*
X155448000Y-51308000D01*
X146685000Y-50165000D02*
X147358000Y-49492000D01*
X155448000Y-53213000D02*
X169545000Y-67310000D01*
%TO.N,sw1*%
X153479500Y-59690000D02*
X153470000Y-59690000D01*
X154305000Y-59690000D02*
X153724500Y-59690000D01*
X101600000Y-68580000D02*
X119551138Y-68580000D01*
X153724500Y-59690000D02*
X153683200Y-59690000D01*
X156231000Y-61616000D02*
X154305000Y-59690000D01*
X155017034Y-69029000D02*
X156231000Y-67815034D01*
X153683200Y-59690000D02*
X153479500Y-59690000D01*
X88900000Y-55880000D02*
X101600000Y-68580000D01*
X120000138Y-69029000D02*
X155017034Y-69029000D01*
X119551138Y-68580000D02*
X120000138Y-69029000D01*
X156231000Y-67815034D02*
X156231000Y-61616000D01*
%TO.N,sw2*%
X107315000Y-55880000D02*
X120136000Y-68701000D01*
X120136000Y-68701000D02*
X154881172Y-68701000D01*
X154881172Y-68701000D02*
X155903000Y-67679172D01*
X155903000Y-67679172D02*
X155903000Y-63828000D01*
X154305000Y-62230000D02*
X153470000Y-62230000D01*
X155903000Y-63828000D02*
X154305000Y-62230000D01*
%TO.N,sw3*%
X138223000Y-68373000D02*
X154745310Y-68373000D01*
X155575000Y-67543310D02*
X155575000Y-66040000D01*
X154305000Y-64770000D02*
X153470000Y-64770000D01*
X155575000Y-66040000D02*
X154305000Y-64770000D01*
X125730000Y-55880000D02*
X138223000Y-68373000D01*
X154745310Y-68373000D02*
X155575000Y-67543310D01*
%TO.N,sw4*%
X153227370Y-67310000D02*
X154305000Y-67310000D01*
X152119000Y-67310000D02*
X153470000Y-67310000D01*
X154305000Y-67310000D02*
X153470000Y-67310000D01*
X147828000Y-68045000D02*
X151384000Y-68045000D01*
X151384000Y-68045000D02*
X152119000Y-67310000D01*
X144145000Y-64362000D02*
X147828000Y-68045000D01*
X144145000Y-55880000D02*
X144145000Y-64362000D01*
%TO.N,unconnected-(U1-GPIO28{slash}ADC2{slash}A2-Pad3)*%
X153470000Y-57150000D02*
X154305000Y-57150000D01*
%TO.N,unconnected-(U1-VBUS-Pad14)*%
X169545000Y-52070000D02*
X170380000Y-52070000D01*
%TO.N,unconnected-(U1-GPIO26{slash}ADC0{slash}A0-Pad1)*%
X154305000Y-52070000D02*
X153470000Y-52070000D01*
%TO.N,unconnected-(U1-3V3-Pad12)*%
X170380000Y-57150000D02*
X169545000Y-57150000D01*
%TO.N,unconnected-(U1-GPIO27{slash}ADC1{slash}A1-Pad2)*%
X153470000Y-54610000D02*
X154305000Y-54610000D01*
%TD*%
%TA.AperFunction,NonConductor*%
G36*
X171994418Y-42918816D02*
G01*
X172194561Y-42933130D01*
X172212063Y-42935647D01*
X172403797Y-42977355D01*
X172420755Y-42982334D01*
X172604609Y-43050909D01*
X172620701Y-43058259D01*
X172792904Y-43152288D01*
X172807784Y-43161849D01*
X172964867Y-43279441D01*
X172978237Y-43291027D01*
X173116972Y-43429762D01*
X173128558Y-43443132D01*
X173246146Y-43600210D01*
X173255711Y-43615095D01*
X173349740Y-43787298D01*
X173357090Y-43803390D01*
X173425662Y-43987236D01*
X173430646Y-44004212D01*
X173472351Y-44195931D01*
X173474869Y-44213442D01*
X173489184Y-44413580D01*
X173489500Y-44422427D01*
X173489500Y-69877572D01*
X173489184Y-69886419D01*
X173474869Y-70086557D01*
X173472351Y-70104068D01*
X173430646Y-70295787D01*
X173425662Y-70312763D01*
X173357090Y-70496609D01*
X173349740Y-70512701D01*
X173255711Y-70684904D01*
X173246146Y-70699789D01*
X173128558Y-70856867D01*
X173116972Y-70870237D01*
X172978237Y-71008972D01*
X172964867Y-71020558D01*
X172807789Y-71138146D01*
X172792904Y-71147711D01*
X172620701Y-71241740D01*
X172604609Y-71249090D01*
X172420763Y-71317662D01*
X172403787Y-71322646D01*
X172212068Y-71364351D01*
X172194557Y-71366869D01*
X172013779Y-71379799D01*
X171994417Y-71381184D01*
X171985572Y-71381500D01*
X77442428Y-71381500D01*
X77433582Y-71381184D01*
X77411622Y-71379613D01*
X77233442Y-71366869D01*
X77215931Y-71364351D01*
X77024212Y-71322646D01*
X77007236Y-71317662D01*
X76823390Y-71249090D01*
X76807298Y-71241740D01*
X76635095Y-71147711D01*
X76620210Y-71138146D01*
X76463132Y-71020558D01*
X76449762Y-71008972D01*
X76311027Y-70870237D01*
X76299441Y-70856867D01*
X76181849Y-70699784D01*
X76172288Y-70684904D01*
X76078259Y-70512701D01*
X76070909Y-70496609D01*
X76010091Y-70333551D01*
X76002334Y-70312755D01*
X75997355Y-70295797D01*
X75955647Y-70104063D01*
X75953130Y-70086556D01*
X75938816Y-69886418D01*
X75938500Y-69877572D01*
X75938500Y-60873389D01*
X80179500Y-60873389D01*
X80179500Y-61046610D01*
X80206495Y-61217056D01*
X80206598Y-61217701D01*
X80260127Y-61382445D01*
X80338768Y-61536788D01*
X80440586Y-61676928D01*
X80563072Y-61799414D01*
X80703212Y-61901232D01*
X80857555Y-61979873D01*
X81022299Y-62033402D01*
X81193389Y-62060500D01*
X81193390Y-62060500D01*
X81366610Y-62060500D01*
X81366611Y-62060500D01*
X81537701Y-62033402D01*
X81702445Y-61979873D01*
X81856788Y-61901232D01*
X81996928Y-61799414D01*
X82119414Y-61676928D01*
X82221232Y-61536788D01*
X82299873Y-61382445D01*
X82353402Y-61217701D01*
X82380500Y-61046611D01*
X82380500Y-60873389D01*
X82370854Y-60812486D01*
X84109500Y-60812486D01*
X84109500Y-61107513D01*
X84134264Y-61295607D01*
X84148007Y-61399993D01*
X84222212Y-61676930D01*
X84224361Y-61684951D01*
X84224364Y-61684961D01*
X84337254Y-61957500D01*
X84337258Y-61957510D01*
X84484761Y-62212993D01*
X84664352Y-62447040D01*
X84664358Y-62447047D01*
X84872952Y-62655641D01*
X84872959Y-62655647D01*
X85107006Y-62835238D01*
X85362489Y-62982741D01*
X85362490Y-62982741D01*
X85362493Y-62982743D01*
X85635048Y-63095639D01*
X85920007Y-63171993D01*
X86212494Y-63210500D01*
X86212501Y-63210500D01*
X86507499Y-63210500D01*
X86507506Y-63210500D01*
X86799993Y-63171993D01*
X87084952Y-63095639D01*
X87357507Y-62982743D01*
X87612994Y-62835238D01*
X87847042Y-62655646D01*
X88055646Y-62447042D01*
X88235238Y-62212994D01*
X88382743Y-61957507D01*
X88495639Y-61684952D01*
X88571993Y-61399993D01*
X88610500Y-61107506D01*
X88610500Y-60812494D01*
X88571993Y-60520007D01*
X88495639Y-60235048D01*
X88382743Y-59962493D01*
X88362763Y-59927887D01*
X88235238Y-59707006D01*
X88055647Y-59472959D01*
X88055641Y-59472952D01*
X87847047Y-59264358D01*
X87847040Y-59264352D01*
X87612993Y-59084761D01*
X87357510Y-58937258D01*
X87357500Y-58937254D01*
X87084961Y-58824364D01*
X87084954Y-58824362D01*
X87084952Y-58824361D01*
X86799993Y-58748007D01*
X86751113Y-58741571D01*
X86507513Y-58709500D01*
X86507506Y-58709500D01*
X86212494Y-58709500D01*
X86212486Y-58709500D01*
X85934085Y-58746153D01*
X85920007Y-58748007D01*
X85797509Y-58780830D01*
X85635048Y-58824361D01*
X85635038Y-58824364D01*
X85362499Y-58937254D01*
X85362489Y-58937258D01*
X85107006Y-59084761D01*
X84872959Y-59264352D01*
X84872952Y-59264358D01*
X84664358Y-59472952D01*
X84664352Y-59472959D01*
X84484761Y-59707006D01*
X84337258Y-59962489D01*
X84337254Y-59962499D01*
X84224364Y-60235038D01*
X84224361Y-60235048D01*
X84153303Y-60500244D01*
X84148008Y-60520004D01*
X84148006Y-60520015D01*
X84109500Y-60812486D01*
X82370854Y-60812486D01*
X82353402Y-60702299D01*
X82299873Y-60537555D01*
X82221232Y-60383212D01*
X82119414Y-60243072D01*
X82067482Y-60191140D01*
X82033997Y-60129817D01*
X82038981Y-60060125D01*
X82080853Y-60004192D01*
X82146317Y-59979775D01*
X82174561Y-59980986D01*
X82175212Y-59981089D01*
X82175215Y-59981090D01*
X82424038Y-60020500D01*
X82424039Y-60020500D01*
X82675961Y-60020500D01*
X82675962Y-60020500D01*
X82924785Y-59981090D01*
X83164379Y-59903241D01*
X83388845Y-59788870D01*
X83592656Y-59640793D01*
X83770793Y-59462656D01*
X83918870Y-59258845D01*
X84033241Y-59034379D01*
X84111090Y-58794785D01*
X84150500Y-58545962D01*
X84150500Y-58294038D01*
X84111090Y-58045215D01*
X84033241Y-57805621D01*
X84033239Y-57805618D01*
X84033239Y-57805616D01*
X83991747Y-57724184D01*
X83918870Y-57581155D01*
X83845740Y-57480500D01*
X83770798Y-57377350D01*
X83770794Y-57377345D01*
X83592654Y-57199205D01*
X83592649Y-57199201D01*
X83388848Y-57051132D01*
X83388847Y-57051131D01*
X83388845Y-57051130D01*
X83318747Y-57015413D01*
X83164383Y-56936760D01*
X82924785Y-56858910D01*
X82896070Y-56854362D01*
X82675962Y-56819500D01*
X82424038Y-56819500D01*
X82299626Y-56839205D01*
X82175214Y-56858910D01*
X81935616Y-56936760D01*
X81711151Y-57051132D01*
X81507350Y-57199201D01*
X81507345Y-57199205D01*
X81329205Y-57377345D01*
X81329201Y-57377350D01*
X81181132Y-57581151D01*
X81066760Y-57805616D01*
X80988910Y-58045214D01*
X80970263Y-58162947D01*
X80949500Y-58294038D01*
X80949500Y-58545962D01*
X80970262Y-58677047D01*
X80988910Y-58794785D01*
X81066760Y-59034383D01*
X81181132Y-59258848D01*
X81329201Y-59462649D01*
X81329205Y-59462654D01*
X81329207Y-59462656D01*
X81507344Y-59640793D01*
X81507345Y-59640794D01*
X81507344Y-59640794D01*
X81513661Y-59645383D01*
X81556327Y-59700714D01*
X81562305Y-59770327D01*
X81529699Y-59832122D01*
X81468860Y-59866479D01*
X81421378Y-59868174D01*
X81366611Y-59859500D01*
X81193389Y-59859500D01*
X81153728Y-59865781D01*
X81022302Y-59886597D01*
X80857552Y-59940128D01*
X80703211Y-60018768D01*
X80646289Y-60060125D01*
X80563072Y-60120586D01*
X80563070Y-60120588D01*
X80563069Y-60120588D01*
X80440588Y-60243069D01*
X80440588Y-60243070D01*
X80440586Y-60243072D01*
X80396859Y-60303256D01*
X80338768Y-60383211D01*
X80260128Y-60537552D01*
X80206597Y-60702302D01*
X80179500Y-60873389D01*
X75938500Y-60873389D01*
X75938500Y-55754038D01*
X87299500Y-55754038D01*
X87299500Y-56005962D01*
X87320262Y-56137047D01*
X87338910Y-56254785D01*
X87416760Y-56494383D01*
X87483913Y-56626177D01*
X87506868Y-56671229D01*
X87531132Y-56718848D01*
X87679201Y-56922649D01*
X87679205Y-56922654D01*
X87857345Y-57100794D01*
X87857350Y-57100798D01*
X88035117Y-57229952D01*
X88061155Y-57248870D01*
X88204184Y-57321747D01*
X88285616Y-57363239D01*
X88285618Y-57363239D01*
X88285621Y-57363241D01*
X88525215Y-57441090D01*
X88774038Y-57480500D01*
X88774039Y-57480500D01*
X89025961Y-57480500D01*
X89025962Y-57480500D01*
X89274785Y-57441090D01*
X89456928Y-57381907D01*
X89526764Y-57379912D01*
X89582923Y-57412158D01*
X91865252Y-59694487D01*
X91898737Y-59755810D01*
X91893753Y-59825502D01*
X91851881Y-59881435D01*
X91786417Y-59905852D01*
X91739254Y-59900099D01*
X91697702Y-59886598D01*
X91697698Y-59886597D01*
X91566271Y-59865781D01*
X91526611Y-59859500D01*
X91353389Y-59859500D01*
X91313728Y-59865781D01*
X91182302Y-59886597D01*
X91017552Y-59940128D01*
X90863211Y-60018768D01*
X90806289Y-60060125D01*
X90723072Y-60120586D01*
X90723070Y-60120588D01*
X90723069Y-60120588D01*
X90600588Y-60243069D01*
X90600588Y-60243070D01*
X90600586Y-60243072D01*
X90556859Y-60303256D01*
X90498768Y-60383211D01*
X90420128Y-60537552D01*
X90366597Y-60702302D01*
X90339500Y-60873389D01*
X90339500Y-61046610D01*
X90366495Y-61217056D01*
X90366598Y-61217701D01*
X90420127Y-61382445D01*
X90498768Y-61536788D01*
X90600586Y-61676928D01*
X90723072Y-61799414D01*
X90863212Y-61901232D01*
X91017555Y-61979873D01*
X91182299Y-62033402D01*
X91353389Y-62060500D01*
X91353390Y-62060500D01*
X91526610Y-62060500D01*
X91526611Y-62060500D01*
X91697701Y-62033402D01*
X91862445Y-61979873D01*
X92016788Y-61901232D01*
X92156928Y-61799414D01*
X92279414Y-61676928D01*
X92381232Y-61536788D01*
X92459873Y-61382445D01*
X92513402Y-61217701D01*
X92540500Y-61046611D01*
X92540500Y-60873389D01*
X92513402Y-60702299D01*
X92499899Y-60660744D01*
X92497905Y-60590906D01*
X92533985Y-60531073D01*
X92596686Y-60500244D01*
X92666100Y-60508208D01*
X92705512Y-60534747D01*
X101115139Y-68944374D01*
X101115149Y-68944385D01*
X101119479Y-68948715D01*
X101119480Y-68948716D01*
X101231284Y-69060520D01*
X101313621Y-69108057D01*
X101368215Y-69139577D01*
X101520942Y-69180500D01*
X101520943Y-69180500D01*
X119251041Y-69180500D01*
X119280481Y-69189144D01*
X119310468Y-69195668D01*
X119315483Y-69199422D01*
X119318080Y-69200185D01*
X119338722Y-69216819D01*
X119515277Y-69393374D01*
X119515287Y-69393385D01*
X119519617Y-69397715D01*
X119519618Y-69397716D01*
X119631422Y-69509520D01*
X119718233Y-69559639D01*
X119718235Y-69559641D01*
X119756289Y-69581611D01*
X119768353Y-69588577D01*
X119921081Y-69629501D01*
X119921084Y-69629501D01*
X120086791Y-69629501D01*
X120086807Y-69629500D01*
X154930365Y-69629500D01*
X154930381Y-69629501D01*
X154937977Y-69629501D01*
X155096088Y-69629501D01*
X155096091Y-69629501D01*
X155248819Y-69588577D01*
X155298938Y-69559639D01*
X155385750Y-69509520D01*
X155497554Y-69397716D01*
X155497554Y-69397714D01*
X155507762Y-69387507D01*
X155507764Y-69387504D01*
X156599713Y-68295555D01*
X156599716Y-68295554D01*
X156711520Y-68183750D01*
X156761639Y-68096938D01*
X156790577Y-68046819D01*
X156831500Y-67894091D01*
X156831500Y-67735977D01*
X156831500Y-61536943D01*
X156831459Y-61536788D01*
X156790577Y-61384215D01*
X156733295Y-61285000D01*
X156711520Y-61247284D01*
X156599716Y-61135480D01*
X156599713Y-61135478D01*
X155568762Y-60104527D01*
X155535277Y-60043204D01*
X155535843Y-59990478D01*
X155535651Y-59990448D01*
X155535857Y-59989143D01*
X155535871Y-59987891D01*
X155536409Y-59985646D01*
X155536413Y-59985636D01*
X155567500Y-59789361D01*
X155567500Y-59590639D01*
X155536413Y-59394364D01*
X155475005Y-59205368D01*
X155475005Y-59205367D01*
X155384786Y-59028305D01*
X155267981Y-58867536D01*
X155127464Y-58727019D01*
X155047938Y-58669240D01*
X155041175Y-58663960D01*
X155037000Y-58660461D01*
X154936947Y-58560408D01*
X154871259Y-58521560D01*
X154863477Y-58515038D01*
X154849510Y-58494073D01*
X154832321Y-58475663D01*
X154830471Y-58465492D01*
X154824740Y-58456890D01*
X154824324Y-58431702D01*
X154819817Y-58406921D01*
X154823758Y-58397366D01*
X154823588Y-58387030D01*
X154836856Y-58365616D01*
X154846462Y-58342332D01*
X154856874Y-58333309D01*
X154860389Y-58327638D01*
X154867127Y-58324425D01*
X154880004Y-58313268D01*
X154912520Y-58294038D01*
X154936947Y-58279592D01*
X155033148Y-58183389D01*
X155047939Y-58170758D01*
X155127464Y-58112981D01*
X155267981Y-57972464D01*
X155384787Y-57811694D01*
X155475005Y-57634632D01*
X155536413Y-57445636D01*
X155567500Y-57249361D01*
X155567500Y-57050639D01*
X155536413Y-56854364D01*
X155492381Y-56718845D01*
X155475006Y-56665370D01*
X155475005Y-56665367D01*
X155394506Y-56507381D01*
X155384787Y-56488306D01*
X155267981Y-56327536D01*
X155127464Y-56187019D01*
X155047937Y-56129239D01*
X155041175Y-56123960D01*
X155037000Y-56120461D01*
X154936947Y-56020408D01*
X154871259Y-55981560D01*
X154863477Y-55975038D01*
X154849510Y-55954073D01*
X154832321Y-55935663D01*
X154830471Y-55925492D01*
X154824740Y-55916890D01*
X154824324Y-55891702D01*
X154819817Y-55866921D01*
X154823758Y-55857366D01*
X154823588Y-55847030D01*
X154836856Y-55825616D01*
X154846462Y-55802332D01*
X154856874Y-55793309D01*
X154860389Y-55787638D01*
X154867127Y-55784425D01*
X154880004Y-55773268D01*
X154912520Y-55754038D01*
X154936947Y-55739592D01*
X155033148Y-55643389D01*
X155047939Y-55630758D01*
X155127464Y-55572981D01*
X155267981Y-55432464D01*
X155384787Y-55271694D01*
X155475005Y-55094632D01*
X155536413Y-54905636D01*
X155567500Y-54709361D01*
X155567500Y-54510639D01*
X155565303Y-54496770D01*
X155574257Y-54427480D01*
X155619252Y-54374027D01*
X155686003Y-54353386D01*
X155753317Y-54372110D01*
X155775456Y-54389691D01*
X162046511Y-60660747D01*
X168281237Y-66895473D01*
X168314722Y-66956796D01*
X168314160Y-67009523D01*
X168314349Y-67009553D01*
X168314146Y-67010832D01*
X168314133Y-67012088D01*
X168313587Y-67014361D01*
X168313587Y-67014364D01*
X168282500Y-67210639D01*
X168282500Y-67409361D01*
X168298043Y-67507498D01*
X168313587Y-67605637D01*
X168374993Y-67794629D01*
X168374994Y-67794632D01*
X168450685Y-67943181D01*
X168465213Y-67971694D01*
X168582019Y-68132464D01*
X168582021Y-68132466D01*
X168722539Y-68272984D01*
X168802060Y-68330758D01*
X168816851Y-68343390D01*
X168913053Y-68439592D01*
X169055041Y-68523564D01*
X169096816Y-68535701D01*
X169213447Y-68569586D01*
X169213450Y-68569586D01*
X169213452Y-68569587D01*
X169250466Y-68572500D01*
X169250474Y-68572500D01*
X171509526Y-68572500D01*
X171509534Y-68572500D01*
X171546548Y-68569587D01*
X171546550Y-68569586D01*
X171546552Y-68569586D01*
X171588323Y-68557449D01*
X171704959Y-68523564D01*
X171846947Y-68439592D01*
X171963592Y-68322947D01*
X172047564Y-68180959D01*
X172093587Y-68022548D01*
X172096500Y-67985534D01*
X172096500Y-66634466D01*
X172093587Y-66597452D01*
X172047564Y-66439041D01*
X171963592Y-66297053D01*
X171963590Y-66297051D01*
X171963587Y-66297047D01*
X171846952Y-66180412D01*
X171846944Y-66180406D01*
X171790004Y-66146732D01*
X171742321Y-66095663D01*
X171729817Y-66026921D01*
X171756462Y-65962332D01*
X171790004Y-65933268D01*
X171846947Y-65899592D01*
X171963592Y-65782947D01*
X172047564Y-65640959D01*
X172093587Y-65482548D01*
X172096500Y-65445534D01*
X172096500Y-64094466D01*
X172093587Y-64057452D01*
X172047564Y-63899041D01*
X171963592Y-63757053D01*
X171963590Y-63757051D01*
X171963587Y-63757047D01*
X171846952Y-63640412D01*
X171846944Y-63640406D01*
X171790004Y-63606732D01*
X171742321Y-63555663D01*
X171729817Y-63486921D01*
X171756462Y-63422332D01*
X171790004Y-63393268D01*
X171846947Y-63359592D01*
X171963592Y-63242947D01*
X172047564Y-63100959D01*
X172093587Y-62942548D01*
X172096500Y-62905534D01*
X172096500Y-61554466D01*
X172093587Y-61517452D01*
X172047564Y-61359041D01*
X171963592Y-61217053D01*
X171963590Y-61217051D01*
X171963587Y-61217047D01*
X171846952Y-61100412D01*
X171846944Y-61100406D01*
X171790004Y-61066732D01*
X171742321Y-61015663D01*
X171729817Y-60946921D01*
X171756462Y-60882332D01*
X171790004Y-60853268D01*
X171846947Y-60819592D01*
X171963592Y-60702947D01*
X172047564Y-60560959D01*
X172093587Y-60402548D01*
X172096500Y-60365534D01*
X172096500Y-59014466D01*
X172093587Y-58977452D01*
X172081909Y-58937258D01*
X172049110Y-58824364D01*
X172047564Y-58819041D01*
X171963592Y-58677053D01*
X171963590Y-58677051D01*
X171963587Y-58677047D01*
X171846952Y-58560412D01*
X171846944Y-58560406D01*
X171790004Y-58526732D01*
X171742321Y-58475663D01*
X171729817Y-58406921D01*
X171756462Y-58342332D01*
X171790004Y-58313268D01*
X171846947Y-58279592D01*
X171963592Y-58162947D01*
X172047564Y-58020959D01*
X172093587Y-57862548D01*
X172096500Y-57825534D01*
X172096500Y-56474466D01*
X172093587Y-56437452D01*
X172093433Y-56436923D01*
X172047565Y-56279045D01*
X172047564Y-56279042D01*
X172047564Y-56279041D01*
X171963592Y-56137053D01*
X171963590Y-56137051D01*
X171963587Y-56137047D01*
X171846952Y-56020412D01*
X171846944Y-56020406D01*
X171790004Y-55986732D01*
X171742321Y-55935663D01*
X171729817Y-55866921D01*
X171756462Y-55802332D01*
X171790004Y-55773268D01*
X171846947Y-55739592D01*
X171963592Y-55622947D01*
X172047564Y-55480959D01*
X172093587Y-55322548D01*
X172096500Y-55285534D01*
X172096500Y-53934466D01*
X172093587Y-53897452D01*
X172047564Y-53739041D01*
X171963592Y-53597053D01*
X171963590Y-53597051D01*
X171963587Y-53597047D01*
X171846952Y-53480412D01*
X171846944Y-53480406D01*
X171817389Y-53462927D01*
X171790003Y-53446731D01*
X171742321Y-53395663D01*
X171729817Y-53326921D01*
X171756462Y-53262332D01*
X171790004Y-53233268D01*
X171846947Y-53199592D01*
X171963592Y-53082947D01*
X172047564Y-52940959D01*
X172093587Y-52782548D01*
X172096500Y-52745534D01*
X172096500Y-51394466D01*
X172093587Y-51357452D01*
X172087346Y-51335971D01*
X172047565Y-51199045D01*
X172047564Y-51199042D01*
X172047564Y-51199041D01*
X171963592Y-51057053D01*
X171963590Y-51057051D01*
X171963587Y-51057047D01*
X171846952Y-50940412D01*
X171846943Y-50940405D01*
X171704957Y-50856435D01*
X171704954Y-50856434D01*
X171546552Y-50810413D01*
X171546546Y-50810412D01*
X171509541Y-50807500D01*
X171509534Y-50807500D01*
X169250466Y-50807500D01*
X169250458Y-50807500D01*
X169213453Y-50810412D01*
X169213447Y-50810413D01*
X169055045Y-50856434D01*
X169055042Y-50856435D01*
X168913056Y-50940405D01*
X168913046Y-50940413D01*
X168816854Y-51036604D01*
X168802061Y-51049239D01*
X168722536Y-51107018D01*
X168582021Y-51247533D01*
X168465213Y-51408305D01*
X168374994Y-51585367D01*
X168374993Y-51585370D01*
X168313587Y-51774362D01*
X168313587Y-51774364D01*
X168282500Y-51970639D01*
X168282500Y-52169361D01*
X168298043Y-52267498D01*
X168313587Y-52365637D01*
X168374993Y-52554629D01*
X168374994Y-52554632D01*
X168465213Y-52731694D01*
X168582019Y-52892464D01*
X168582021Y-52892466D01*
X168722539Y-53032984D01*
X168802060Y-53090758D01*
X168808824Y-53096039D01*
X168812998Y-53099537D01*
X168913053Y-53199592D01*
X168978737Y-53238437D01*
X168986522Y-53244962D01*
X169000488Y-53265926D01*
X169017679Y-53284338D01*
X169019528Y-53294506D01*
X169025260Y-53303110D01*
X169025674Y-53328297D01*
X169030182Y-53353079D01*
X169026239Y-53362634D01*
X169026410Y-53372970D01*
X169013143Y-53394381D01*
X169003536Y-53417669D01*
X168993122Y-53426692D01*
X168989609Y-53432363D01*
X168982871Y-53435575D01*
X168969996Y-53446731D01*
X168913056Y-53480406D01*
X168913053Y-53480408D01*
X168913046Y-53480413D01*
X168816854Y-53576604D01*
X168802061Y-53589239D01*
X168722536Y-53647018D01*
X168582021Y-53787533D01*
X168465213Y-53948305D01*
X168374994Y-54125367D01*
X168374993Y-54125370D01*
X168313587Y-54314362D01*
X168282500Y-54510639D01*
X168282500Y-54709360D01*
X168313587Y-54905637D01*
X168374993Y-55094629D01*
X168374994Y-55094632D01*
X168462116Y-55265616D01*
X168465213Y-55271694D01*
X168582019Y-55432464D01*
X168582021Y-55432466D01*
X168722539Y-55572984D01*
X168802060Y-55630758D01*
X168808824Y-55636039D01*
X168812998Y-55639537D01*
X168913053Y-55739592D01*
X168978737Y-55778437D01*
X168986522Y-55784962D01*
X169000488Y-55805926D01*
X169017679Y-55824338D01*
X169019528Y-55834506D01*
X169025260Y-55843110D01*
X169025674Y-55868297D01*
X169030182Y-55893079D01*
X169026239Y-55902634D01*
X169026410Y-55912970D01*
X169013143Y-55934381D01*
X169003536Y-55957669D01*
X168993122Y-55966692D01*
X168989609Y-55972363D01*
X168982871Y-55975575D01*
X168969996Y-55986731D01*
X168937480Y-56005962D01*
X168913053Y-56020408D01*
X168913046Y-56020413D01*
X168816854Y-56116604D01*
X168802061Y-56129239D01*
X168722536Y-56187018D01*
X168582021Y-56327533D01*
X168465211Y-56488308D01*
X168394962Y-56626177D01*
X168346987Y-56676972D01*
X168279166Y-56693767D01*
X168213031Y-56671229D01*
X168196797Y-56657562D01*
X161977590Y-50438355D01*
X161977588Y-50438352D01*
X161858717Y-50319481D01*
X161858709Y-50319475D01*
X161754795Y-50259481D01*
X161754794Y-50259480D01*
X161754794Y-50259481D01*
X161721785Y-50240423D01*
X161569057Y-50199499D01*
X161410943Y-50199499D01*
X161403347Y-50199499D01*
X161403331Y-50199500D01*
X158878959Y-50199500D01*
X158849518Y-50190855D01*
X158819532Y-50184332D01*
X158814516Y-50180577D01*
X158811920Y-50179815D01*
X158791278Y-50163181D01*
X158738452Y-50110355D01*
X158738450Y-50110352D01*
X158619579Y-49991481D01*
X158619571Y-49991475D01*
X158490433Y-49916918D01*
X158490429Y-49916916D01*
X158482647Y-49912423D01*
X158329919Y-49871499D01*
X158171805Y-49871499D01*
X158164209Y-49871499D01*
X158164193Y-49871500D01*
X156474821Y-49871500D01*
X156407782Y-49851815D01*
X156387140Y-49835181D01*
X154698314Y-48146355D01*
X154698312Y-48146352D01*
X154579441Y-48027481D01*
X154579440Y-48027480D01*
X154492628Y-47977360D01*
X154492628Y-47977359D01*
X154492624Y-47977358D01*
X154442509Y-47948423D01*
X154289781Y-47907499D01*
X154131667Y-47907499D01*
X154124071Y-47907499D01*
X154124055Y-47907500D01*
X145919588Y-47907500D01*
X145878667Y-47918464D01*
X145878667Y-47918465D01*
X145841399Y-47928451D01*
X145766862Y-47948423D01*
X145766857Y-47948426D01*
X145629938Y-48027475D01*
X145629930Y-48027481D01*
X145518128Y-48139284D01*
X145518126Y-48139286D01*
X144659082Y-48998331D01*
X143822232Y-49835181D01*
X143760909Y-49868666D01*
X143734551Y-49871500D01*
X130439821Y-49871500D01*
X130410380Y-49862855D01*
X130380394Y-49856332D01*
X130375378Y-49852577D01*
X130372782Y-49851815D01*
X130352140Y-49835181D01*
X130235819Y-49718860D01*
X130202334Y-49657537D01*
X130199500Y-49631179D01*
X130199500Y-49535455D01*
X130199500Y-49535453D01*
X130158577Y-49382726D01*
X130089417Y-49262936D01*
X130079524Y-49245800D01*
X130079521Y-49245796D01*
X130079520Y-49245794D01*
X129967716Y-49133990D01*
X129967715Y-49133989D01*
X129963385Y-49129659D01*
X129963374Y-49129649D01*
X129308080Y-48474355D01*
X129308078Y-48474352D01*
X129189207Y-48355481D01*
X129189206Y-48355480D01*
X129102394Y-48305360D01*
X129102394Y-48305359D01*
X129102390Y-48305358D01*
X129052275Y-48276423D01*
X128899547Y-48235499D01*
X128741433Y-48235499D01*
X128733837Y-48235499D01*
X128733821Y-48235500D01*
X127640450Y-48235500D01*
X127599529Y-48246464D01*
X127599529Y-48246465D01*
X127562261Y-48256451D01*
X127487724Y-48276423D01*
X127487719Y-48276426D01*
X127350800Y-48355475D01*
X127350792Y-48355481D01*
X127238988Y-48467286D01*
X125871094Y-49835181D01*
X125809771Y-49868666D01*
X125783413Y-49871500D01*
X111580500Y-49871500D01*
X111513461Y-49851815D01*
X111467706Y-49799011D01*
X111456500Y-49747500D01*
X111456500Y-49671316D01*
X111456499Y-49671310D01*
X111452486Y-49656334D01*
X111449321Y-49644520D01*
X111415577Y-49518587D01*
X111354583Y-49412943D01*
X111336520Y-49381656D01*
X111224716Y-49269852D01*
X111224713Y-49269850D01*
X110757218Y-48802355D01*
X110757216Y-48802352D01*
X110638345Y-48683481D01*
X110638344Y-48683480D01*
X110551532Y-48633360D01*
X110551532Y-48633359D01*
X110551528Y-48633358D01*
X110501413Y-48604423D01*
X110348685Y-48563499D01*
X110190571Y-48563499D01*
X110182975Y-48563499D01*
X110182959Y-48563500D01*
X109519429Y-48563500D01*
X109361314Y-48563500D01*
X109208587Y-48604423D01*
X109208586Y-48604423D01*
X109208584Y-48604424D01*
X109208581Y-48604425D01*
X109158468Y-48633359D01*
X109158467Y-48633360D01*
X109115276Y-48658296D01*
X109071657Y-48683479D01*
X109071654Y-48683481D01*
X108373481Y-49381654D01*
X108373477Y-49381659D01*
X108355418Y-49412941D01*
X108355417Y-49412943D01*
X108294423Y-49518587D01*
X108253499Y-49671315D01*
X108253499Y-49671316D01*
X108253499Y-49671317D01*
X108253499Y-49839418D01*
X108253500Y-49839431D01*
X108253500Y-50075500D01*
X108233815Y-50142539D01*
X108181011Y-50188294D01*
X108129500Y-50199500D01*
X92764500Y-50199500D01*
X92697461Y-50179815D01*
X92651706Y-50127011D01*
X92640500Y-50075500D01*
X92640500Y-50070513D01*
X92610940Y-49883881D01*
X92583364Y-49799011D01*
X92552547Y-49704168D01*
X92552545Y-49704165D01*
X92552545Y-49704163D01*
X92466759Y-49535800D01*
X92355690Y-49382927D01*
X92222073Y-49249310D01*
X92069199Y-49138240D01*
X92052338Y-49129649D01*
X91900836Y-49052454D01*
X91721118Y-48994059D01*
X91534486Y-48964500D01*
X91534481Y-48964500D01*
X91345519Y-48964500D01*
X91345514Y-48964500D01*
X91158881Y-48994059D01*
X90979163Y-49052454D01*
X90810800Y-49138240D01*
X90723579Y-49201610D01*
X90657927Y-49249310D01*
X90657925Y-49249312D01*
X90657924Y-49249312D01*
X90524312Y-49382924D01*
X90524312Y-49382925D01*
X90524310Y-49382927D01*
X90494551Y-49423887D01*
X90413240Y-49535800D01*
X90327454Y-49704163D01*
X90269059Y-49883881D01*
X90239500Y-50070513D01*
X90239500Y-50259486D01*
X90269059Y-50446118D01*
X90327454Y-50625836D01*
X90356252Y-50682354D01*
X90413240Y-50794199D01*
X90524310Y-50947073D01*
X90657927Y-51080690D01*
X90810801Y-51191760D01*
X90825099Y-51199045D01*
X90979163Y-51277545D01*
X90979165Y-51277545D01*
X90979168Y-51277547D01*
X91048025Y-51299920D01*
X91158881Y-51335940D01*
X91345514Y-51365500D01*
X91345519Y-51365500D01*
X91534486Y-51365500D01*
X91638168Y-51349077D01*
X91721118Y-51335940D01*
X91721129Y-51335936D01*
X91725853Y-51334803D01*
X91726133Y-51335971D01*
X91790362Y-51334125D01*
X91820859Y-51346669D01*
X91843216Y-51359577D01*
X91995943Y-51400501D01*
X91995945Y-51400501D01*
X92161654Y-51400501D01*
X92161670Y-51400500D01*
X109153427Y-51400500D01*
X109153429Y-51400500D01*
X109306157Y-51359577D01*
X109356276Y-51330639D01*
X109380958Y-51316388D01*
X109409557Y-51309452D01*
X109448853Y-51299919D01*
X109448858Y-51299920D01*
X109448859Y-51299920D01*
X109481267Y-51305847D01*
X109573882Y-51335940D01*
X109667200Y-51350720D01*
X109760514Y-51365500D01*
X109760519Y-51365500D01*
X109949486Y-51365500D01*
X110053168Y-51349077D01*
X110136118Y-51335940D01*
X110136129Y-51335936D01*
X110140853Y-51334803D01*
X110141133Y-51335971D01*
X110205362Y-51334125D01*
X110235859Y-51346669D01*
X110258216Y-51359577D01*
X110410943Y-51400501D01*
X110410945Y-51400501D01*
X110576654Y-51400501D01*
X110576670Y-51400500D01*
X111045138Y-51400500D01*
X111112177Y-51420185D01*
X111157932Y-51472989D01*
X111167876Y-51542147D01*
X111152525Y-51586499D01*
X111077925Y-51715709D01*
X111077923Y-51715716D01*
X111037000Y-51868443D01*
X111037000Y-52026657D01*
X111075238Y-52169361D01*
X111077923Y-52179383D01*
X111077926Y-52179390D01*
X111156975Y-52316309D01*
X111156979Y-52316314D01*
X111156980Y-52316316D01*
X111268784Y-52428120D01*
X111268786Y-52428121D01*
X111268790Y-52428124D01*
X111405709Y-52507173D01*
X111405716Y-52507177D01*
X111558443Y-52548100D01*
X111558445Y-52548100D01*
X111716555Y-52548100D01*
X111716557Y-52548100D01*
X111869284Y-52507177D01*
X112006216Y-52428120D01*
X112118020Y-52316316D01*
X112197077Y-52179384D01*
X112238000Y-52026657D01*
X112238000Y-51868443D01*
X112197077Y-51715716D01*
X112197075Y-51715712D01*
X112197074Y-51715709D01*
X112122475Y-51586499D01*
X112106002Y-51518599D01*
X112128855Y-51452572D01*
X112183776Y-51409382D01*
X112229862Y-51400500D01*
X126132703Y-51400500D01*
X126132719Y-51400501D01*
X126140315Y-51400501D01*
X126298426Y-51400501D01*
X126298429Y-51400501D01*
X126451157Y-51359577D01*
X126501276Y-51330639D01*
X126588088Y-51280520D01*
X126699892Y-51168716D01*
X126699892Y-51168714D01*
X126710100Y-51158507D01*
X126710102Y-51158504D01*
X127069534Y-50799071D01*
X127130855Y-50765588D01*
X127200547Y-50770572D01*
X127256480Y-50812444D01*
X127257494Y-50813818D01*
X127354310Y-50947073D01*
X127487927Y-51080690D01*
X127640801Y-51191760D01*
X127655099Y-51199045D01*
X127809163Y-51277545D01*
X127809165Y-51277545D01*
X127809168Y-51277547D01*
X127878025Y-51299920D01*
X127988881Y-51335940D01*
X128175514Y-51365500D01*
X128175519Y-51365500D01*
X128364486Y-51365500D01*
X128551118Y-51335940D01*
X128567423Y-51330642D01*
X128730832Y-51277547D01*
X128899199Y-51191760D01*
X128919697Y-51176866D01*
X128985503Y-51153385D01*
X129053557Y-51169209D01*
X129080266Y-51189502D01*
X129499284Y-51608520D01*
X129499286Y-51608521D01*
X129499290Y-51608524D01*
X129636209Y-51687573D01*
X129636216Y-51687577D01*
X129788943Y-51728501D01*
X129788945Y-51728501D01*
X129954654Y-51728501D01*
X129954670Y-51728500D01*
X144219703Y-51728500D01*
X144219719Y-51728501D01*
X144227315Y-51728501D01*
X144385426Y-51728501D01*
X144385429Y-51728501D01*
X144538157Y-51687577D01*
X144588276Y-51658639D01*
X144675088Y-51608520D01*
X144786892Y-51496716D01*
X144786892Y-51496714D01*
X144797100Y-51486507D01*
X144797102Y-51486504D01*
X145484534Y-50799071D01*
X145545855Y-50765588D01*
X145615547Y-50770572D01*
X145671480Y-50812444D01*
X145672494Y-50813818D01*
X145769310Y-50947073D01*
X145902927Y-51080690D01*
X146055801Y-51191760D01*
X146070099Y-51199045D01*
X146224163Y-51277545D01*
X146224165Y-51277545D01*
X146224168Y-51277547D01*
X146293025Y-51299920D01*
X146403881Y-51335940D01*
X146590514Y-51365500D01*
X146590519Y-51365500D01*
X146779486Y-51365500D01*
X146966118Y-51335940D01*
X146982423Y-51330642D01*
X147145832Y-51277547D01*
X147314199Y-51191760D01*
X147467073Y-51080690D01*
X147600690Y-50947073D01*
X147711760Y-50794199D01*
X147797547Y-50625832D01*
X147855940Y-50446118D01*
X147858289Y-50431286D01*
X147885500Y-50259486D01*
X147885500Y-50216500D01*
X147905185Y-50149461D01*
X147957989Y-50103706D01*
X148009500Y-50092500D01*
X153331903Y-50092500D01*
X153398942Y-50112185D01*
X153419584Y-50128819D01*
X153886584Y-50595819D01*
X153920069Y-50657142D01*
X153915085Y-50726834D01*
X153873213Y-50782767D01*
X153807749Y-50807184D01*
X153798903Y-50807500D01*
X152340458Y-50807500D01*
X152303453Y-50810412D01*
X152303447Y-50810413D01*
X152145045Y-50856434D01*
X152145042Y-50856435D01*
X152003056Y-50940405D01*
X152003047Y-50940412D01*
X151886412Y-51057047D01*
X151886405Y-51057056D01*
X151802435Y-51199042D01*
X151802434Y-51199045D01*
X151756413Y-51357447D01*
X151756412Y-51357453D01*
X151753500Y-51394458D01*
X151753500Y-52745541D01*
X151756412Y-52782546D01*
X151756413Y-52782552D01*
X151802434Y-52940954D01*
X151802435Y-52940957D01*
X151886405Y-53082943D01*
X151886412Y-53082952D01*
X152003047Y-53199587D01*
X152003050Y-53199589D01*
X152003053Y-53199592D01*
X152059996Y-53233268D01*
X152107679Y-53284338D01*
X152120182Y-53353079D01*
X152093536Y-53417669D01*
X152059996Y-53446731D01*
X152003056Y-53480406D01*
X152003053Y-53480408D01*
X152003047Y-53480412D01*
X151886412Y-53597047D01*
X151886405Y-53597056D01*
X151802435Y-53739042D01*
X151802434Y-53739045D01*
X151756413Y-53897447D01*
X151756412Y-53897453D01*
X151753500Y-53934458D01*
X151753500Y-55285541D01*
X151756412Y-55322546D01*
X151756413Y-55322552D01*
X151802434Y-55480954D01*
X151802435Y-55480957D01*
X151802436Y-55480959D01*
X151816781Y-55505215D01*
X151886405Y-55622943D01*
X151886412Y-55622952D01*
X152003047Y-55739587D01*
X152003050Y-55739589D01*
X152003053Y-55739592D01*
X152059996Y-55773268D01*
X152107679Y-55824338D01*
X152120182Y-55893079D01*
X152093536Y-55957669D01*
X152059996Y-55986731D01*
X152027480Y-56005962D01*
X152003053Y-56020408D01*
X152003047Y-56020412D01*
X151886412Y-56137047D01*
X151886405Y-56137056D01*
X151802435Y-56279042D01*
X151802434Y-56279045D01*
X151756413Y-56437447D01*
X151756412Y-56437453D01*
X151753500Y-56474458D01*
X151753500Y-57825541D01*
X151756412Y-57862546D01*
X151756413Y-57862552D01*
X151802434Y-58020954D01*
X151802435Y-58020957D01*
X151802436Y-58020959D01*
X151816781Y-58045215D01*
X151886405Y-58162943D01*
X151886412Y-58162952D01*
X152003047Y-58279587D01*
X152003050Y-58279589D01*
X152003053Y-58279592D01*
X152059996Y-58313268D01*
X152107679Y-58364338D01*
X152120182Y-58433079D01*
X152093536Y-58497669D01*
X152059996Y-58526731D01*
X152027480Y-58545962D01*
X152003053Y-58560408D01*
X152003047Y-58560412D01*
X151886412Y-58677047D01*
X151886405Y-58677056D01*
X151802435Y-58819042D01*
X151802434Y-58819045D01*
X151756413Y-58977447D01*
X151756412Y-58977453D01*
X151753500Y-59014458D01*
X151753500Y-60365541D01*
X151756412Y-60402546D01*
X151756413Y-60402552D01*
X151802434Y-60560954D01*
X151802435Y-60560957D01*
X151886405Y-60702943D01*
X151886412Y-60702952D01*
X152003047Y-60819587D01*
X152003050Y-60819589D01*
X152003053Y-60819592D01*
X152059996Y-60853268D01*
X152107679Y-60904338D01*
X152120182Y-60973079D01*
X152093536Y-61037669D01*
X152059996Y-61066732D01*
X152003053Y-61100408D01*
X152003047Y-61100412D01*
X151886412Y-61217047D01*
X151886405Y-61217056D01*
X151802435Y-61359042D01*
X151802434Y-61359045D01*
X151756413Y-61517447D01*
X151756412Y-61517453D01*
X151753500Y-61554458D01*
X151753500Y-62905541D01*
X151756412Y-62942546D01*
X151756413Y-62942552D01*
X151802434Y-63100954D01*
X151802435Y-63100957D01*
X151886405Y-63242943D01*
X151886412Y-63242952D01*
X152003047Y-63359587D01*
X152003050Y-63359589D01*
X152003053Y-63359592D01*
X152059996Y-63393268D01*
X152107679Y-63444338D01*
X152120182Y-63513079D01*
X152093536Y-63577669D01*
X152059996Y-63606732D01*
X152003053Y-63640408D01*
X152003047Y-63640412D01*
X151886412Y-63757047D01*
X151886405Y-63757056D01*
X151802435Y-63899042D01*
X151802434Y-63899045D01*
X151756413Y-64057447D01*
X151756412Y-64057453D01*
X151753500Y-64094458D01*
X151753500Y-65445541D01*
X151756412Y-65482546D01*
X151756413Y-65482552D01*
X151802434Y-65640954D01*
X151802435Y-65640957D01*
X151886405Y-65782943D01*
X151886412Y-65782952D01*
X152003047Y-65899587D01*
X152003050Y-65899589D01*
X152003053Y-65899592D01*
X152059996Y-65933268D01*
X152107679Y-65984338D01*
X152120182Y-66053079D01*
X152093536Y-66117669D01*
X152059996Y-66146732D01*
X152003053Y-66180408D01*
X152003047Y-66180412D01*
X151886412Y-66297047D01*
X151886405Y-66297056D01*
X151802435Y-66439042D01*
X151802434Y-66439045D01*
X151756413Y-66597447D01*
X151756412Y-66597453D01*
X151753500Y-66634458D01*
X151753500Y-66774901D01*
X151744856Y-66804337D01*
X151738333Y-66834327D01*
X151734577Y-66839344D01*
X151733815Y-66841940D01*
X151717182Y-66862582D01*
X151638480Y-66941284D01*
X151638479Y-66941284D01*
X151638478Y-66941285D01*
X151638478Y-66941286D01*
X151171584Y-67408181D01*
X151110261Y-67441666D01*
X151083903Y-67444500D01*
X148128098Y-67444500D01*
X148061059Y-67424815D01*
X148040417Y-67408181D01*
X144781819Y-64149583D01*
X144748334Y-64088260D01*
X144745500Y-64061902D01*
X144745500Y-60873389D01*
X145584500Y-60873389D01*
X145584500Y-61046610D01*
X145611495Y-61217056D01*
X145611598Y-61217701D01*
X145665127Y-61382445D01*
X145743768Y-61536788D01*
X145845586Y-61676928D01*
X145968072Y-61799414D01*
X146108212Y-61901232D01*
X146262555Y-61979873D01*
X146427299Y-62033402D01*
X146598389Y-62060500D01*
X146598390Y-62060500D01*
X146771610Y-62060500D01*
X146771611Y-62060500D01*
X146942701Y-62033402D01*
X147107445Y-61979873D01*
X147261788Y-61901232D01*
X147401928Y-61799414D01*
X147524414Y-61676928D01*
X147626232Y-61536788D01*
X147704873Y-61382445D01*
X147758402Y-61217701D01*
X147785500Y-61046611D01*
X147785500Y-60873389D01*
X147758402Y-60702299D01*
X147704873Y-60537555D01*
X147626232Y-60383212D01*
X147524414Y-60243072D01*
X147401928Y-60120586D01*
X147261788Y-60018768D01*
X147107445Y-59940127D01*
X146942701Y-59886598D01*
X146942699Y-59886597D01*
X146942698Y-59886597D01*
X146811271Y-59865781D01*
X146771611Y-59859500D01*
X146598389Y-59859500D01*
X146558728Y-59865781D01*
X146427302Y-59886597D01*
X146262552Y-59940128D01*
X146108211Y-60018768D01*
X146051289Y-60060125D01*
X145968072Y-60120586D01*
X145968070Y-60120588D01*
X145968069Y-60120588D01*
X145845588Y-60243069D01*
X145845588Y-60243070D01*
X145845586Y-60243072D01*
X145801859Y-60303256D01*
X145743768Y-60383211D01*
X145665128Y-60537552D01*
X145611597Y-60702302D01*
X145584500Y-60873389D01*
X144745500Y-60873389D01*
X144745500Y-57446300D01*
X144765185Y-57379261D01*
X144813204Y-57335815D01*
X144983845Y-57248870D01*
X145187656Y-57100793D01*
X145365793Y-56922656D01*
X145513870Y-56718845D01*
X145628241Y-56494379D01*
X145706090Y-56254785D01*
X145745500Y-56005962D01*
X145745500Y-55754038D01*
X145706090Y-55505215D01*
X145628241Y-55265621D01*
X145628239Y-55265618D01*
X145628239Y-55265616D01*
X145586747Y-55184184D01*
X145513870Y-55041155D01*
X145415410Y-54905636D01*
X145365798Y-54837350D01*
X145365794Y-54837345D01*
X145187654Y-54659205D01*
X145187649Y-54659201D01*
X144983848Y-54511132D01*
X144983847Y-54511131D01*
X144983845Y-54511130D01*
X144913747Y-54475413D01*
X144759383Y-54396760D01*
X144519785Y-54318910D01*
X144491070Y-54314362D01*
X144270962Y-54279500D01*
X144019038Y-54279500D01*
X143894626Y-54299205D01*
X143770214Y-54318910D01*
X143530616Y-54396760D01*
X143306151Y-54511132D01*
X143102350Y-54659201D01*
X143102345Y-54659205D01*
X142924205Y-54837345D01*
X142924201Y-54837350D01*
X142776132Y-55041151D01*
X142661760Y-55265616D01*
X142583910Y-55505214D01*
X142565263Y-55622947D01*
X142544500Y-55754038D01*
X142544500Y-56005962D01*
X142565262Y-56137047D01*
X142583910Y-56254785D01*
X142661760Y-56494383D01*
X142728913Y-56626177D01*
X142751868Y-56671229D01*
X142776132Y-56718848D01*
X142924201Y-56922649D01*
X142924205Y-56922654D01*
X143102345Y-57100794D01*
X143102350Y-57100798D01*
X143280117Y-57229952D01*
X143306155Y-57248870D01*
X143476795Y-57335815D01*
X143527591Y-57383789D01*
X143544500Y-57446300D01*
X143544500Y-59425461D01*
X143524815Y-59492500D01*
X143472011Y-59538255D01*
X143402853Y-59548199D01*
X143339297Y-59519174D01*
X143322125Y-59500949D01*
X143300644Y-59472955D01*
X143092047Y-59264358D01*
X143092040Y-59264352D01*
X142857993Y-59084761D01*
X142602510Y-58937258D01*
X142602500Y-58937254D01*
X142329961Y-58824364D01*
X142329954Y-58824362D01*
X142329952Y-58824361D01*
X142044993Y-58748007D01*
X141996113Y-58741571D01*
X141752513Y-58709500D01*
X141752506Y-58709500D01*
X141457494Y-58709500D01*
X141457486Y-58709500D01*
X141179085Y-58746153D01*
X141165007Y-58748007D01*
X141042509Y-58780830D01*
X140880048Y-58824361D01*
X140880038Y-58824364D01*
X140607499Y-58937254D01*
X140607489Y-58937258D01*
X140352006Y-59084761D01*
X140117959Y-59264352D01*
X140117952Y-59264358D01*
X139909358Y-59472952D01*
X139909352Y-59472959D01*
X139729761Y-59707006D01*
X139582258Y-59962489D01*
X139582254Y-59962499D01*
X139469364Y-60235038D01*
X139469361Y-60235048D01*
X139398303Y-60500244D01*
X139393008Y-60520004D01*
X139393006Y-60520015D01*
X139354500Y-60812486D01*
X139354500Y-61107513D01*
X139379264Y-61295607D01*
X139393007Y-61399993D01*
X139467212Y-61676930D01*
X139469361Y-61684951D01*
X139469364Y-61684961D01*
X139582254Y-61957500D01*
X139582258Y-61957510D01*
X139729761Y-62212993D01*
X139909352Y-62447040D01*
X139909358Y-62447047D01*
X140117952Y-62655641D01*
X140117959Y-62655647D01*
X140352006Y-62835238D01*
X140607489Y-62982741D01*
X140607490Y-62982741D01*
X140607493Y-62982743D01*
X140880048Y-63095639D01*
X141165007Y-63171993D01*
X141457494Y-63210500D01*
X141457501Y-63210500D01*
X141752499Y-63210500D01*
X141752506Y-63210500D01*
X142044993Y-63171993D01*
X142329952Y-63095639D01*
X142602507Y-62982743D01*
X142857994Y-62835238D01*
X143092042Y-62655646D01*
X143300646Y-62447042D01*
X143322124Y-62419052D01*
X143378552Y-62377849D01*
X143448298Y-62373694D01*
X143509218Y-62407906D01*
X143541971Y-62469624D01*
X143544500Y-62494538D01*
X143544500Y-64275330D01*
X143544499Y-64275348D01*
X143544499Y-64441054D01*
X143544498Y-64441054D01*
X143585423Y-64593785D01*
X143614358Y-64643900D01*
X143614359Y-64643904D01*
X143614360Y-64643904D01*
X143664479Y-64730714D01*
X143664481Y-64730717D01*
X143783349Y-64849585D01*
X143783355Y-64849590D01*
X146494583Y-67560819D01*
X146528068Y-67622142D01*
X146523084Y-67691834D01*
X146481212Y-67747767D01*
X146415748Y-67772184D01*
X146406902Y-67772500D01*
X138523097Y-67772500D01*
X138456058Y-67752815D01*
X138435416Y-67736181D01*
X131572624Y-60873389D01*
X135424500Y-60873389D01*
X135424500Y-61046610D01*
X135451495Y-61217056D01*
X135451598Y-61217701D01*
X135505127Y-61382445D01*
X135583768Y-61536788D01*
X135685586Y-61676928D01*
X135808072Y-61799414D01*
X135948212Y-61901232D01*
X136102555Y-61979873D01*
X136267299Y-62033402D01*
X136438389Y-62060500D01*
X136438390Y-62060500D01*
X136611610Y-62060500D01*
X136611611Y-62060500D01*
X136782701Y-62033402D01*
X136947445Y-61979873D01*
X137101788Y-61901232D01*
X137241928Y-61799414D01*
X137364414Y-61676928D01*
X137466232Y-61536788D01*
X137544873Y-61382445D01*
X137598402Y-61217701D01*
X137625500Y-61046611D01*
X137625500Y-60873389D01*
X137598402Y-60702299D01*
X137544873Y-60537555D01*
X137466232Y-60383212D01*
X137364414Y-60243072D01*
X137312482Y-60191140D01*
X137278997Y-60129817D01*
X137283981Y-60060125D01*
X137325853Y-60004192D01*
X137391317Y-59979775D01*
X137419561Y-59980986D01*
X137420212Y-59981089D01*
X137420215Y-59981090D01*
X137669038Y-60020500D01*
X137669039Y-60020500D01*
X137920961Y-60020500D01*
X137920962Y-60020500D01*
X138169785Y-59981090D01*
X138409379Y-59903241D01*
X138633845Y-59788870D01*
X138837656Y-59640793D01*
X139015793Y-59462656D01*
X139163870Y-59258845D01*
X139278241Y-59034379D01*
X139356090Y-58794785D01*
X139395500Y-58545962D01*
X139395500Y-58294038D01*
X139356090Y-58045215D01*
X139278241Y-57805621D01*
X139278239Y-57805618D01*
X139278239Y-57805616D01*
X139236747Y-57724184D01*
X139163870Y-57581155D01*
X139090740Y-57480500D01*
X139015798Y-57377350D01*
X139015794Y-57377345D01*
X138837654Y-57199205D01*
X138837649Y-57199201D01*
X138633848Y-57051132D01*
X138633847Y-57051131D01*
X138633845Y-57051130D01*
X138563747Y-57015413D01*
X138409383Y-56936760D01*
X138169785Y-56858910D01*
X138141070Y-56854362D01*
X137920962Y-56819500D01*
X137669038Y-56819500D01*
X137544626Y-56839205D01*
X137420214Y-56858910D01*
X137180616Y-56936760D01*
X136956151Y-57051132D01*
X136752350Y-57199201D01*
X136752345Y-57199205D01*
X136574205Y-57377345D01*
X136574201Y-57377350D01*
X136426132Y-57581151D01*
X136311760Y-57805616D01*
X136233910Y-58045214D01*
X136215263Y-58162947D01*
X136194500Y-58294038D01*
X136194500Y-58545962D01*
X136215262Y-58677047D01*
X136233910Y-58794785D01*
X136311760Y-59034383D01*
X136426132Y-59258848D01*
X136574201Y-59462649D01*
X136574205Y-59462654D01*
X136574207Y-59462656D01*
X136752344Y-59640793D01*
X136752345Y-59640794D01*
X136752344Y-59640794D01*
X136758661Y-59645383D01*
X136801327Y-59700714D01*
X136807305Y-59770327D01*
X136774699Y-59832122D01*
X136713860Y-59866479D01*
X136666378Y-59868174D01*
X136611611Y-59859500D01*
X136438389Y-59859500D01*
X136398728Y-59865781D01*
X136267302Y-59886597D01*
X136102552Y-59940128D01*
X135948211Y-60018768D01*
X135891289Y-60060125D01*
X135808072Y-60120586D01*
X135808070Y-60120588D01*
X135808069Y-60120588D01*
X135685588Y-60243069D01*
X135685588Y-60243070D01*
X135685586Y-60243072D01*
X135641859Y-60303256D01*
X135583768Y-60383211D01*
X135505128Y-60537552D01*
X135451597Y-60702302D01*
X135424500Y-60873389D01*
X131572624Y-60873389D01*
X127262158Y-56562923D01*
X127228673Y-56501600D01*
X127231907Y-56436928D01*
X127291090Y-56254785D01*
X127330500Y-56005962D01*
X127330500Y-55754038D01*
X127291090Y-55505215D01*
X127213241Y-55265621D01*
X127213239Y-55265618D01*
X127213239Y-55265616D01*
X127171747Y-55184184D01*
X127098870Y-55041155D01*
X127000410Y-54905636D01*
X126950798Y-54837350D01*
X126950794Y-54837345D01*
X126772654Y-54659205D01*
X126772649Y-54659201D01*
X126568848Y-54511132D01*
X126568847Y-54511131D01*
X126568845Y-54511130D01*
X126498747Y-54475413D01*
X126344383Y-54396760D01*
X126104785Y-54318910D01*
X126076070Y-54314362D01*
X125855962Y-54279500D01*
X125604038Y-54279500D01*
X125479626Y-54299205D01*
X125355214Y-54318910D01*
X125115616Y-54396760D01*
X124891151Y-54511132D01*
X124687350Y-54659201D01*
X124687345Y-54659205D01*
X124509205Y-54837345D01*
X124509201Y-54837350D01*
X124361132Y-55041151D01*
X124246760Y-55265616D01*
X124168910Y-55505214D01*
X124150263Y-55622947D01*
X124129500Y-55754038D01*
X124129500Y-56005962D01*
X124150262Y-56137047D01*
X124168910Y-56254785D01*
X124246760Y-56494383D01*
X124313913Y-56626177D01*
X124336868Y-56671229D01*
X124361132Y-56718848D01*
X124509201Y-56922649D01*
X124509205Y-56922654D01*
X124687345Y-57100794D01*
X124687350Y-57100798D01*
X124865117Y-57229952D01*
X124891155Y-57248870D01*
X125034184Y-57321747D01*
X125115616Y-57363239D01*
X125115618Y-57363239D01*
X125115621Y-57363241D01*
X125355215Y-57441090D01*
X125604038Y-57480500D01*
X125604039Y-57480500D01*
X125855961Y-57480500D01*
X125855962Y-57480500D01*
X126104785Y-57441090D01*
X126286928Y-57381907D01*
X126356764Y-57379912D01*
X126412923Y-57412158D01*
X128695252Y-59694487D01*
X128728737Y-59755810D01*
X128723753Y-59825502D01*
X128681881Y-59881435D01*
X128616417Y-59905852D01*
X128569254Y-59900099D01*
X128527702Y-59886598D01*
X128527698Y-59886597D01*
X128396271Y-59865781D01*
X128356611Y-59859500D01*
X128183389Y-59859500D01*
X128143728Y-59865781D01*
X128012302Y-59886597D01*
X127847552Y-59940128D01*
X127693211Y-60018768D01*
X127636289Y-60060125D01*
X127553072Y-60120586D01*
X127553070Y-60120588D01*
X127553069Y-60120588D01*
X127430588Y-60243069D01*
X127430588Y-60243070D01*
X127430586Y-60243072D01*
X127386859Y-60303256D01*
X127328768Y-60383211D01*
X127250128Y-60537552D01*
X127196597Y-60702302D01*
X127169500Y-60873389D01*
X127169500Y-61046610D01*
X127196495Y-61217056D01*
X127196598Y-61217701D01*
X127250127Y-61382445D01*
X127328768Y-61536788D01*
X127430586Y-61676928D01*
X127553072Y-61799414D01*
X127693212Y-61901232D01*
X127847555Y-61979873D01*
X128012299Y-62033402D01*
X128183389Y-62060500D01*
X128183390Y-62060500D01*
X128356610Y-62060500D01*
X128356611Y-62060500D01*
X128527701Y-62033402D01*
X128692445Y-61979873D01*
X128846788Y-61901232D01*
X128986928Y-61799414D01*
X129109414Y-61676928D01*
X129211232Y-61536788D01*
X129289873Y-61382445D01*
X129343402Y-61217701D01*
X129370500Y-61046611D01*
X129370500Y-60873389D01*
X129343402Y-60702299D01*
X129329899Y-60660744D01*
X129327905Y-60590906D01*
X129363985Y-60531073D01*
X129426686Y-60500244D01*
X129496100Y-60508208D01*
X129535512Y-60534747D01*
X136889584Y-67888819D01*
X136923069Y-67950142D01*
X136918085Y-68019834D01*
X136876213Y-68075767D01*
X136810749Y-68100184D01*
X136801903Y-68100500D01*
X120436097Y-68100500D01*
X120369058Y-68080815D01*
X120348416Y-68064181D01*
X113157624Y-60873389D01*
X117009500Y-60873389D01*
X117009500Y-61046610D01*
X117036495Y-61217056D01*
X117036598Y-61217701D01*
X117090127Y-61382445D01*
X117168768Y-61536788D01*
X117270586Y-61676928D01*
X117393072Y-61799414D01*
X117533212Y-61901232D01*
X117687555Y-61979873D01*
X117852299Y-62033402D01*
X118023389Y-62060500D01*
X118023390Y-62060500D01*
X118196610Y-62060500D01*
X118196611Y-62060500D01*
X118367701Y-62033402D01*
X118532445Y-61979873D01*
X118686788Y-61901232D01*
X118826928Y-61799414D01*
X118949414Y-61676928D01*
X119051232Y-61536788D01*
X119129873Y-61382445D01*
X119183402Y-61217701D01*
X119210500Y-61046611D01*
X119210500Y-60873389D01*
X119200854Y-60812486D01*
X120939500Y-60812486D01*
X120939500Y-61107513D01*
X120964264Y-61295607D01*
X120978007Y-61399993D01*
X121052212Y-61676930D01*
X121054361Y-61684951D01*
X121054364Y-61684961D01*
X121167254Y-61957500D01*
X121167258Y-61957510D01*
X121314761Y-62212993D01*
X121494352Y-62447040D01*
X121494358Y-62447047D01*
X121702952Y-62655641D01*
X121702959Y-62655647D01*
X121937006Y-62835238D01*
X122192489Y-62982741D01*
X122192490Y-62982741D01*
X122192493Y-62982743D01*
X122465048Y-63095639D01*
X122750007Y-63171993D01*
X123042494Y-63210500D01*
X123042501Y-63210500D01*
X123337499Y-63210500D01*
X123337506Y-63210500D01*
X123629993Y-63171993D01*
X123914952Y-63095639D01*
X124187507Y-62982743D01*
X124442994Y-62835238D01*
X124677042Y-62655646D01*
X124885646Y-62447042D01*
X125065238Y-62212994D01*
X125212743Y-61957507D01*
X125325639Y-61684952D01*
X125401993Y-61399993D01*
X125440500Y-61107506D01*
X125440500Y-60812494D01*
X125401993Y-60520007D01*
X125325639Y-60235048D01*
X125212743Y-59962493D01*
X125192763Y-59927887D01*
X125065238Y-59707006D01*
X124885647Y-59472959D01*
X124885641Y-59472952D01*
X124677047Y-59264358D01*
X124677040Y-59264352D01*
X124442993Y-59084761D01*
X124187510Y-58937258D01*
X124187500Y-58937254D01*
X123914961Y-58824364D01*
X123914954Y-58824362D01*
X123914952Y-58824361D01*
X123629993Y-58748007D01*
X123581113Y-58741571D01*
X123337513Y-58709500D01*
X123337506Y-58709500D01*
X123042494Y-58709500D01*
X123042486Y-58709500D01*
X122764085Y-58746153D01*
X122750007Y-58748007D01*
X122627509Y-58780830D01*
X122465048Y-58824361D01*
X122465038Y-58824364D01*
X122192499Y-58937254D01*
X122192489Y-58937258D01*
X121937006Y-59084761D01*
X121702959Y-59264352D01*
X121702952Y-59264358D01*
X121494358Y-59472952D01*
X121494352Y-59472959D01*
X121314761Y-59707006D01*
X121167258Y-59962489D01*
X121167254Y-59962499D01*
X121054364Y-60235038D01*
X121054361Y-60235048D01*
X120983303Y-60500244D01*
X120978008Y-60520004D01*
X120978006Y-60520015D01*
X120939500Y-60812486D01*
X119200854Y-60812486D01*
X119183402Y-60702299D01*
X119129873Y-60537555D01*
X119051232Y-60383212D01*
X118949414Y-60243072D01*
X118897482Y-60191140D01*
X118863997Y-60129817D01*
X118868981Y-60060125D01*
X118910853Y-60004192D01*
X118976317Y-59979775D01*
X119004561Y-59980986D01*
X119005212Y-59981089D01*
X119005215Y-59981090D01*
X119254038Y-60020500D01*
X119254039Y-60020500D01*
X119505961Y-60020500D01*
X119505962Y-60020500D01*
X119754785Y-59981090D01*
X119994379Y-59903241D01*
X120218845Y-59788870D01*
X120422656Y-59640793D01*
X120600793Y-59462656D01*
X120748870Y-59258845D01*
X120863241Y-59034379D01*
X120941090Y-58794785D01*
X120980500Y-58545962D01*
X120980500Y-58294038D01*
X120941090Y-58045215D01*
X120863241Y-57805621D01*
X120863239Y-57805618D01*
X120863239Y-57805616D01*
X120821747Y-57724184D01*
X120748870Y-57581155D01*
X120675740Y-57480500D01*
X120600798Y-57377350D01*
X120600794Y-57377345D01*
X120422654Y-57199205D01*
X120422649Y-57199201D01*
X120218848Y-57051132D01*
X120218847Y-57051131D01*
X120218845Y-57051130D01*
X120148747Y-57015413D01*
X119994383Y-56936760D01*
X119754785Y-56858910D01*
X119726070Y-56854362D01*
X119505962Y-56819500D01*
X119254038Y-56819500D01*
X119129626Y-56839205D01*
X119005214Y-56858910D01*
X118765616Y-56936760D01*
X118541151Y-57051132D01*
X118337350Y-57199201D01*
X118337345Y-57199205D01*
X118159205Y-57377345D01*
X118159201Y-57377350D01*
X118011132Y-57581151D01*
X117896760Y-57805616D01*
X117818910Y-58045214D01*
X117800263Y-58162947D01*
X117779500Y-58294038D01*
X117779500Y-58545962D01*
X117800262Y-58677047D01*
X117818910Y-58794785D01*
X117896760Y-59034383D01*
X118011132Y-59258848D01*
X118159201Y-59462649D01*
X118159205Y-59462654D01*
X118159207Y-59462656D01*
X118337344Y-59640793D01*
X118337345Y-59640794D01*
X118337344Y-59640794D01*
X118343661Y-59645383D01*
X118386327Y-59700714D01*
X118392305Y-59770327D01*
X118359699Y-59832122D01*
X118298860Y-59866479D01*
X118251378Y-59868174D01*
X118196611Y-59859500D01*
X118023389Y-59859500D01*
X117983728Y-59865781D01*
X117852302Y-59886597D01*
X117687552Y-59940128D01*
X117533211Y-60018768D01*
X117476289Y-60060125D01*
X117393072Y-60120586D01*
X117393070Y-60120588D01*
X117393069Y-60120588D01*
X117270588Y-60243069D01*
X117270588Y-60243070D01*
X117270586Y-60243072D01*
X117226859Y-60303256D01*
X117168768Y-60383211D01*
X117090128Y-60537552D01*
X117036597Y-60702302D01*
X117009500Y-60873389D01*
X113157624Y-60873389D01*
X108847158Y-56562923D01*
X108813673Y-56501600D01*
X108816907Y-56436928D01*
X108876090Y-56254785D01*
X108915500Y-56005962D01*
X108915500Y-55754038D01*
X108876090Y-55505215D01*
X108798241Y-55265621D01*
X108798239Y-55265618D01*
X108798239Y-55265616D01*
X108756747Y-55184184D01*
X108683870Y-55041155D01*
X108585410Y-54905636D01*
X108535798Y-54837350D01*
X108535794Y-54837345D01*
X108357654Y-54659205D01*
X108357649Y-54659201D01*
X108153848Y-54511132D01*
X108153847Y-54511131D01*
X108153845Y-54511130D01*
X108083747Y-54475413D01*
X107929383Y-54396760D01*
X107689785Y-54318910D01*
X107661070Y-54314362D01*
X107440962Y-54279500D01*
X107189038Y-54279500D01*
X107064626Y-54299205D01*
X106940214Y-54318910D01*
X106700616Y-54396760D01*
X106476151Y-54511132D01*
X106272350Y-54659201D01*
X106272345Y-54659205D01*
X106094205Y-54837345D01*
X106094201Y-54837350D01*
X105946132Y-55041151D01*
X105831760Y-55265616D01*
X105753910Y-55505214D01*
X105735263Y-55622947D01*
X105714500Y-55754038D01*
X105714500Y-56005962D01*
X105735262Y-56137047D01*
X105753910Y-56254785D01*
X105831760Y-56494383D01*
X105898913Y-56626177D01*
X105921868Y-56671229D01*
X105946132Y-56718848D01*
X106094201Y-56922649D01*
X106094205Y-56922654D01*
X106272345Y-57100794D01*
X106272350Y-57100798D01*
X106450117Y-57229952D01*
X106476155Y-57248870D01*
X106619184Y-57321747D01*
X106700616Y-57363239D01*
X106700618Y-57363239D01*
X106700621Y-57363241D01*
X106940215Y-57441090D01*
X107189038Y-57480500D01*
X107189039Y-57480500D01*
X107440961Y-57480500D01*
X107440962Y-57480500D01*
X107689785Y-57441090D01*
X107871928Y-57381907D01*
X107941764Y-57379912D01*
X107997923Y-57412158D01*
X110280252Y-59694487D01*
X110313737Y-59755810D01*
X110308753Y-59825502D01*
X110266881Y-59881435D01*
X110201417Y-59905852D01*
X110154254Y-59900099D01*
X110112702Y-59886598D01*
X110112698Y-59886597D01*
X109981271Y-59865781D01*
X109941611Y-59859500D01*
X109768389Y-59859500D01*
X109728728Y-59865781D01*
X109597302Y-59886597D01*
X109432552Y-59940128D01*
X109278211Y-60018768D01*
X109221289Y-60060125D01*
X109138072Y-60120586D01*
X109138070Y-60120588D01*
X109138069Y-60120588D01*
X109015588Y-60243069D01*
X109015588Y-60243070D01*
X109015586Y-60243072D01*
X108971859Y-60303256D01*
X108913768Y-60383211D01*
X108835128Y-60537552D01*
X108781597Y-60702302D01*
X108754500Y-60873389D01*
X108754500Y-61046610D01*
X108781495Y-61217056D01*
X108781598Y-61217701D01*
X108835127Y-61382445D01*
X108913768Y-61536788D01*
X109015586Y-61676928D01*
X109138072Y-61799414D01*
X109278212Y-61901232D01*
X109432555Y-61979873D01*
X109597299Y-62033402D01*
X109768389Y-62060500D01*
X109768390Y-62060500D01*
X109941610Y-62060500D01*
X109941611Y-62060500D01*
X110112701Y-62033402D01*
X110277445Y-61979873D01*
X110431788Y-61901232D01*
X110571928Y-61799414D01*
X110694414Y-61676928D01*
X110796232Y-61536788D01*
X110874873Y-61382445D01*
X110928402Y-61217701D01*
X110955500Y-61046611D01*
X110955500Y-60873389D01*
X110928402Y-60702299D01*
X110914899Y-60660744D01*
X110912905Y-60590906D01*
X110948985Y-60531073D01*
X111011686Y-60500244D01*
X111081100Y-60508208D01*
X111120512Y-60534747D01*
X118353584Y-67767819D01*
X118387069Y-67829142D01*
X118382085Y-67898834D01*
X118340213Y-67954767D01*
X118274749Y-67979184D01*
X118265903Y-67979500D01*
X101900097Y-67979500D01*
X101833058Y-67959815D01*
X101812416Y-67943181D01*
X94742624Y-60873389D01*
X98594500Y-60873389D01*
X98594500Y-61046610D01*
X98621495Y-61217056D01*
X98621598Y-61217701D01*
X98675127Y-61382445D01*
X98753768Y-61536788D01*
X98855586Y-61676928D01*
X98978072Y-61799414D01*
X99118212Y-61901232D01*
X99272555Y-61979873D01*
X99437299Y-62033402D01*
X99608389Y-62060500D01*
X99608390Y-62060500D01*
X99781610Y-62060500D01*
X99781611Y-62060500D01*
X99952701Y-62033402D01*
X100117445Y-61979873D01*
X100271788Y-61901232D01*
X100411928Y-61799414D01*
X100534414Y-61676928D01*
X100636232Y-61536788D01*
X100714873Y-61382445D01*
X100768402Y-61217701D01*
X100795500Y-61046611D01*
X100795500Y-60873389D01*
X100785854Y-60812486D01*
X102524500Y-60812486D01*
X102524500Y-61107513D01*
X102549264Y-61295607D01*
X102563007Y-61399993D01*
X102637212Y-61676930D01*
X102639361Y-61684951D01*
X102639364Y-61684961D01*
X102752254Y-61957500D01*
X102752258Y-61957510D01*
X102899761Y-62212993D01*
X103079352Y-62447040D01*
X103079358Y-62447047D01*
X103287952Y-62655641D01*
X103287959Y-62655647D01*
X103522006Y-62835238D01*
X103777489Y-62982741D01*
X103777490Y-62982741D01*
X103777493Y-62982743D01*
X104050048Y-63095639D01*
X104335007Y-63171993D01*
X104627494Y-63210500D01*
X104627501Y-63210500D01*
X104922499Y-63210500D01*
X104922506Y-63210500D01*
X105214993Y-63171993D01*
X105499952Y-63095639D01*
X105772507Y-62982743D01*
X106027994Y-62835238D01*
X106262042Y-62655646D01*
X106470646Y-62447042D01*
X106650238Y-62212994D01*
X106797743Y-61957507D01*
X106910639Y-61684952D01*
X106986993Y-61399993D01*
X107025500Y-61107506D01*
X107025500Y-60812494D01*
X106986993Y-60520007D01*
X106910639Y-60235048D01*
X106797743Y-59962493D01*
X106777763Y-59927887D01*
X106650238Y-59707006D01*
X106470647Y-59472959D01*
X106470641Y-59472952D01*
X106262047Y-59264358D01*
X106262040Y-59264352D01*
X106027993Y-59084761D01*
X105772510Y-58937258D01*
X105772500Y-58937254D01*
X105499961Y-58824364D01*
X105499954Y-58824362D01*
X105499952Y-58824361D01*
X105214993Y-58748007D01*
X105166113Y-58741571D01*
X104922513Y-58709500D01*
X104922506Y-58709500D01*
X104627494Y-58709500D01*
X104627486Y-58709500D01*
X104349085Y-58746153D01*
X104335007Y-58748007D01*
X104212509Y-58780830D01*
X104050048Y-58824361D01*
X104050038Y-58824364D01*
X103777499Y-58937254D01*
X103777489Y-58937258D01*
X103522006Y-59084761D01*
X103287959Y-59264352D01*
X103287952Y-59264358D01*
X103079358Y-59472952D01*
X103079352Y-59472959D01*
X102899761Y-59707006D01*
X102752258Y-59962489D01*
X102752254Y-59962499D01*
X102639364Y-60235038D01*
X102639361Y-60235048D01*
X102568303Y-60500244D01*
X102563008Y-60520004D01*
X102563006Y-60520015D01*
X102524500Y-60812486D01*
X100785854Y-60812486D01*
X100768402Y-60702299D01*
X100714873Y-60537555D01*
X100636232Y-60383212D01*
X100534414Y-60243072D01*
X100482482Y-60191140D01*
X100448997Y-60129817D01*
X100453981Y-60060125D01*
X100495853Y-60004192D01*
X100561317Y-59979775D01*
X100589561Y-59980986D01*
X100590212Y-59981089D01*
X100590215Y-59981090D01*
X100839038Y-60020500D01*
X100839039Y-60020500D01*
X101090961Y-60020500D01*
X101090962Y-60020500D01*
X101339785Y-59981090D01*
X101579379Y-59903241D01*
X101803845Y-59788870D01*
X102007656Y-59640793D01*
X102185793Y-59462656D01*
X102333870Y-59258845D01*
X102448241Y-59034379D01*
X102526090Y-58794785D01*
X102565500Y-58545962D01*
X102565500Y-58294038D01*
X102526090Y-58045215D01*
X102448241Y-57805621D01*
X102448239Y-57805618D01*
X102448239Y-57805616D01*
X102406747Y-57724184D01*
X102333870Y-57581155D01*
X102260740Y-57480500D01*
X102185798Y-57377350D01*
X102185794Y-57377345D01*
X102007654Y-57199205D01*
X102007649Y-57199201D01*
X101803848Y-57051132D01*
X101803847Y-57051131D01*
X101803845Y-57051130D01*
X101733747Y-57015413D01*
X101579383Y-56936760D01*
X101339785Y-56858910D01*
X101311070Y-56854362D01*
X101090962Y-56819500D01*
X100839038Y-56819500D01*
X100714626Y-56839205D01*
X100590214Y-56858910D01*
X100350616Y-56936760D01*
X100126151Y-57051132D01*
X99922350Y-57199201D01*
X99922345Y-57199205D01*
X99744205Y-57377345D01*
X99744201Y-57377350D01*
X99596132Y-57581151D01*
X99481760Y-57805616D01*
X99403910Y-58045214D01*
X99385263Y-58162947D01*
X99364500Y-58294038D01*
X99364500Y-58545962D01*
X99385262Y-58677047D01*
X99403910Y-58794785D01*
X99481760Y-59034383D01*
X99596132Y-59258848D01*
X99744201Y-59462649D01*
X99744205Y-59462654D01*
X99744207Y-59462656D01*
X99922344Y-59640793D01*
X99922345Y-59640794D01*
X99922344Y-59640794D01*
X99928661Y-59645383D01*
X99971327Y-59700714D01*
X99977305Y-59770327D01*
X99944699Y-59832122D01*
X99883860Y-59866479D01*
X99836378Y-59868174D01*
X99781611Y-59859500D01*
X99608389Y-59859500D01*
X99568728Y-59865781D01*
X99437302Y-59886597D01*
X99272552Y-59940128D01*
X99118211Y-60018768D01*
X99061289Y-60060125D01*
X98978072Y-60120586D01*
X98978070Y-60120588D01*
X98978069Y-60120588D01*
X98855588Y-60243069D01*
X98855588Y-60243070D01*
X98855586Y-60243072D01*
X98811859Y-60303256D01*
X98753768Y-60383211D01*
X98675128Y-60537552D01*
X98621597Y-60702302D01*
X98594500Y-60873389D01*
X94742624Y-60873389D01*
X90432158Y-56562923D01*
X90398673Y-56501600D01*
X90401907Y-56436928D01*
X90461090Y-56254785D01*
X90500500Y-56005962D01*
X90500500Y-55754038D01*
X90461090Y-55505215D01*
X90383241Y-55265621D01*
X90383239Y-55265618D01*
X90383239Y-55265616D01*
X90341747Y-55184184D01*
X90268870Y-55041155D01*
X90170410Y-54905636D01*
X90120798Y-54837350D01*
X90120794Y-54837345D01*
X89942654Y-54659205D01*
X89942649Y-54659201D01*
X89738848Y-54511132D01*
X89738847Y-54511131D01*
X89738845Y-54511130D01*
X89668747Y-54475413D01*
X89514383Y-54396760D01*
X89274785Y-54318910D01*
X89246070Y-54314362D01*
X89025962Y-54279500D01*
X88774038Y-54279500D01*
X88649626Y-54299205D01*
X88525214Y-54318910D01*
X88285616Y-54396760D01*
X88061151Y-54511132D01*
X87857350Y-54659201D01*
X87857345Y-54659205D01*
X87679205Y-54837345D01*
X87679201Y-54837350D01*
X87531132Y-55041151D01*
X87416760Y-55265616D01*
X87338910Y-55505214D01*
X87320263Y-55622947D01*
X87299500Y-55754038D01*
X75938500Y-55754038D01*
X75938500Y-46669635D01*
X83682000Y-46669635D01*
X83682000Y-48580370D01*
X83682001Y-48580376D01*
X83688408Y-48639983D01*
X83738702Y-48774828D01*
X83738706Y-48774835D01*
X83824952Y-48890044D01*
X83824955Y-48890047D01*
X83940164Y-48976293D01*
X83940171Y-48976297D01*
X84075017Y-49026591D01*
X84075016Y-49026591D01*
X84081944Y-49027335D01*
X84134627Y-49033000D01*
X86045372Y-49032999D01*
X86104983Y-49026591D01*
X86239831Y-48976296D01*
X86355046Y-48890046D01*
X86441296Y-48774831D01*
X86468220Y-48702644D01*
X86510091Y-48646711D01*
X86575555Y-48622293D01*
X86643828Y-48637144D01*
X86672083Y-48658296D01*
X86712749Y-48698962D01*
X86892047Y-48829230D01*
X86985344Y-48876767D01*
X87089511Y-48929843D01*
X87089513Y-48929843D01*
X87089516Y-48929845D01*
X87202496Y-48966554D01*
X87300292Y-48998331D01*
X87519183Y-49033000D01*
X87519188Y-49033000D01*
X87740817Y-49033000D01*
X87959707Y-48998331D01*
X88027523Y-48976296D01*
X88170484Y-48929845D01*
X88367953Y-48829230D01*
X88547251Y-48698962D01*
X88703962Y-48542251D01*
X88834230Y-48362953D01*
X88934845Y-48165484D01*
X89003331Y-47954707D01*
X89010808Y-47907499D01*
X89038000Y-47735817D01*
X89038000Y-47514182D01*
X89003331Y-47295296D01*
X89003331Y-47295293D01*
X88979139Y-47220841D01*
X88977145Y-47151001D01*
X89009388Y-47094845D01*
X89434598Y-46669635D01*
X102097000Y-46669635D01*
X102097000Y-48580370D01*
X102097001Y-48580376D01*
X102103408Y-48639983D01*
X102153702Y-48774828D01*
X102153706Y-48774835D01*
X102239952Y-48890044D01*
X102239955Y-48890047D01*
X102355164Y-48976293D01*
X102355171Y-48976297D01*
X102490017Y-49026591D01*
X102490016Y-49026591D01*
X102496944Y-49027335D01*
X102549627Y-49033000D01*
X104460372Y-49032999D01*
X104519983Y-49026591D01*
X104654831Y-48976296D01*
X104770046Y-48890046D01*
X104856296Y-48774831D01*
X104883220Y-48702644D01*
X104925091Y-48646711D01*
X104990555Y-48622293D01*
X105058828Y-48637144D01*
X105087083Y-48658296D01*
X105127749Y-48698962D01*
X105307047Y-48829230D01*
X105400344Y-48876767D01*
X105504511Y-48929843D01*
X105504513Y-48929843D01*
X105504516Y-48929845D01*
X105617496Y-48966554D01*
X105715292Y-48998331D01*
X105934183Y-49033000D01*
X105934188Y-49033000D01*
X106155817Y-49033000D01*
X106374707Y-48998331D01*
X106442523Y-48976296D01*
X106585484Y-48929845D01*
X106782953Y-48829230D01*
X106962251Y-48698962D01*
X107118962Y-48542251D01*
X107249230Y-48362953D01*
X107349845Y-48165484D01*
X107418331Y-47954707D01*
X107425808Y-47907499D01*
X107453000Y-47735817D01*
X107453000Y-47514182D01*
X107418331Y-47295296D01*
X107418331Y-47295293D01*
X107394139Y-47220841D01*
X107392145Y-47151001D01*
X107424388Y-47094845D01*
X107849598Y-46669635D01*
X120512000Y-46669635D01*
X120512000Y-48580370D01*
X120512001Y-48580376D01*
X120518408Y-48639983D01*
X120568702Y-48774828D01*
X120568706Y-48774835D01*
X120654952Y-48890044D01*
X120654955Y-48890047D01*
X120770164Y-48976293D01*
X120770171Y-48976297D01*
X120905017Y-49026591D01*
X120905016Y-49026591D01*
X120911944Y-49027335D01*
X120964627Y-49033000D01*
X122875372Y-49032999D01*
X122934983Y-49026591D01*
X123069831Y-48976296D01*
X123185046Y-48890046D01*
X123271296Y-48774831D01*
X123298220Y-48702644D01*
X123340091Y-48646711D01*
X123405555Y-48622293D01*
X123473828Y-48637144D01*
X123502083Y-48658296D01*
X123542749Y-48698962D01*
X123722047Y-48829230D01*
X123815344Y-48876767D01*
X123919511Y-48929843D01*
X123919513Y-48929843D01*
X123919516Y-48929845D01*
X124032496Y-48966554D01*
X124130292Y-48998331D01*
X124349183Y-49033000D01*
X124349188Y-49033000D01*
X124570817Y-49033000D01*
X124789707Y-48998331D01*
X124857523Y-48976296D01*
X125000484Y-48929845D01*
X125197953Y-48829230D01*
X125377251Y-48698962D01*
X125533962Y-48542251D01*
X125664230Y-48362953D01*
X125764845Y-48165484D01*
X125833331Y-47954707D01*
X125840808Y-47907499D01*
X125868000Y-47735817D01*
X125868000Y-47514182D01*
X125833331Y-47295296D01*
X125833331Y-47295293D01*
X125809139Y-47220841D01*
X125807145Y-47151001D01*
X125839388Y-47094845D01*
X126264598Y-46669635D01*
X138927000Y-46669635D01*
X138927000Y-48580370D01*
X138927001Y-48580376D01*
X138933408Y-48639983D01*
X138983702Y-48774828D01*
X138983706Y-48774835D01*
X139069952Y-48890044D01*
X139069955Y-48890047D01*
X139185164Y-48976293D01*
X139185171Y-48976297D01*
X139320017Y-49026591D01*
X139320016Y-49026591D01*
X139326944Y-49027335D01*
X139379627Y-49033000D01*
X141290372Y-49032999D01*
X141349983Y-49026591D01*
X141484831Y-48976296D01*
X141600046Y-48890046D01*
X141686296Y-48774831D01*
X141713220Y-48702644D01*
X141755091Y-48646711D01*
X141820555Y-48622293D01*
X141888828Y-48637144D01*
X141917083Y-48658296D01*
X141957749Y-48698962D01*
X142137047Y-48829230D01*
X142230344Y-48876767D01*
X142334511Y-48929843D01*
X142334513Y-48929843D01*
X142334516Y-48929845D01*
X142447496Y-48966554D01*
X142545292Y-48998331D01*
X142764183Y-49033000D01*
X142764188Y-49033000D01*
X142985817Y-49033000D01*
X143204707Y-48998331D01*
X143272523Y-48976296D01*
X143415484Y-48929845D01*
X143612953Y-48829230D01*
X143792251Y-48698962D01*
X143948962Y-48542251D01*
X144079230Y-48362953D01*
X144179845Y-48165484D01*
X144248331Y-47954707D01*
X144255808Y-47907499D01*
X144283000Y-47735817D01*
X144283000Y-47514182D01*
X144248331Y-47295296D01*
X144248331Y-47295293D01*
X144224139Y-47220841D01*
X144223097Y-47184328D01*
X156615285Y-47184328D01*
X167215450Y-47184328D01*
X167215450Y-43873328D01*
X156615285Y-43873328D01*
X156615285Y-47184328D01*
X144223097Y-47184328D01*
X144222145Y-47151001D01*
X144254388Y-47094845D01*
X145545815Y-45803418D01*
X145607136Y-45769935D01*
X145676828Y-45774919D01*
X145732761Y-45816791D01*
X145733811Y-45818214D01*
X145769309Y-45867072D01*
X145769310Y-45867073D01*
X145902927Y-46000690D01*
X146055801Y-46111760D01*
X146135347Y-46152290D01*
X146224163Y-46197545D01*
X146224165Y-46197545D01*
X146224168Y-46197547D01*
X146303763Y-46223409D01*
X146403881Y-46255940D01*
X146590514Y-46285500D01*
X146590519Y-46285500D01*
X146779486Y-46285500D01*
X146966118Y-46255940D01*
X146997916Y-46245608D01*
X147145832Y-46197547D01*
X147314199Y-46111760D01*
X147467073Y-46000690D01*
X147600690Y-45867073D01*
X147711760Y-45714199D01*
X147797547Y-45545832D01*
X147855940Y-45366118D01*
X147885500Y-45179486D01*
X147885500Y-44990513D01*
X147855940Y-44803881D01*
X147797545Y-44624163D01*
X147726383Y-44484500D01*
X147711760Y-44455801D01*
X147600690Y-44302927D01*
X147467073Y-44169310D01*
X147314199Y-44058240D01*
X147145836Y-43972454D01*
X147084715Y-43952594D01*
X147032848Y-43935742D01*
X146966118Y-43914059D01*
X146779486Y-43884500D01*
X146779481Y-43884500D01*
X146590519Y-43884500D01*
X146590514Y-43884500D01*
X146403881Y-43914059D01*
X146224163Y-43972454D01*
X146055800Y-44058240D01*
X145968579Y-44121610D01*
X145902927Y-44169310D01*
X145902925Y-44169312D01*
X145902924Y-44169312D01*
X145769312Y-44302924D01*
X145769312Y-44302925D01*
X145769310Y-44302927D01*
X145682488Y-44422427D01*
X145674526Y-44433386D01*
X145619196Y-44476051D01*
X145574208Y-44484500D01*
X145335940Y-44484500D01*
X145295019Y-44495464D01*
X145295019Y-44495465D01*
X145257751Y-44505451D01*
X145183214Y-44525423D01*
X145183209Y-44525426D01*
X145046290Y-44604475D01*
X145046282Y-44604481D01*
X144934478Y-44716286D01*
X143405155Y-46245608D01*
X143343832Y-46279093D01*
X143279157Y-46275858D01*
X143204709Y-46251669D01*
X143204710Y-46251669D01*
X142985817Y-46217000D01*
X142985812Y-46217000D01*
X142764188Y-46217000D01*
X142764183Y-46217000D01*
X142545292Y-46251668D01*
X142334511Y-46320156D01*
X142137046Y-46420770D01*
X142034750Y-46495092D01*
X141957749Y-46551038D01*
X141957747Y-46551040D01*
X141957745Y-46551041D01*
X141917082Y-46591704D01*
X141855759Y-46625189D01*
X141786067Y-46620203D01*
X141730134Y-46578331D01*
X141713220Y-46547355D01*
X141686297Y-46475171D01*
X141686293Y-46475164D01*
X141600047Y-46359955D01*
X141600044Y-46359952D01*
X141484835Y-46273706D01*
X141484828Y-46273702D01*
X141349982Y-46223408D01*
X141349983Y-46223408D01*
X141290383Y-46217001D01*
X141290381Y-46217000D01*
X141290373Y-46217000D01*
X141290364Y-46217000D01*
X139379629Y-46217000D01*
X139379623Y-46217001D01*
X139320016Y-46223408D01*
X139185171Y-46273702D01*
X139185164Y-46273706D01*
X139069955Y-46359952D01*
X139069952Y-46359955D01*
X138983706Y-46475164D01*
X138983702Y-46475171D01*
X138933408Y-46610017D01*
X138927001Y-46669616D01*
X138927000Y-46669635D01*
X126264598Y-46669635D01*
X127130815Y-45803418D01*
X127192136Y-45769935D01*
X127261828Y-45774919D01*
X127317761Y-45816791D01*
X127318811Y-45818214D01*
X127354309Y-45867072D01*
X127354310Y-45867073D01*
X127487927Y-46000690D01*
X127640801Y-46111760D01*
X127720347Y-46152290D01*
X127809163Y-46197545D01*
X127809165Y-46197545D01*
X127809168Y-46197547D01*
X127888763Y-46223409D01*
X127988881Y-46255940D01*
X128175514Y-46285500D01*
X128175519Y-46285500D01*
X128364486Y-46285500D01*
X128551118Y-46255940D01*
X128582916Y-46245608D01*
X128730832Y-46197547D01*
X128899199Y-46111760D01*
X129052073Y-46000690D01*
X129185690Y-45867073D01*
X129296760Y-45714199D01*
X129382547Y-45545832D01*
X129440940Y-45366118D01*
X129470500Y-45179486D01*
X129470500Y-44990513D01*
X129440940Y-44803881D01*
X129382545Y-44624163D01*
X129311383Y-44484500D01*
X129296760Y-44455801D01*
X129185690Y-44302927D01*
X129052073Y-44169310D01*
X128899199Y-44058240D01*
X128730836Y-43972454D01*
X128551118Y-43914059D01*
X128364486Y-43884500D01*
X128364481Y-43884500D01*
X128175519Y-43884500D01*
X128175514Y-43884500D01*
X127988881Y-43914059D01*
X127809163Y-43972454D01*
X127640800Y-44058240D01*
X127553579Y-44121610D01*
X127487927Y-44169310D01*
X127487925Y-44169312D01*
X127487924Y-44169312D01*
X127354312Y-44302924D01*
X127354312Y-44302925D01*
X127354310Y-44302927D01*
X127267488Y-44422427D01*
X127259526Y-44433386D01*
X127204196Y-44476051D01*
X127159208Y-44484500D01*
X126920940Y-44484500D01*
X126880019Y-44495464D01*
X126880019Y-44495465D01*
X126842751Y-44505451D01*
X126768214Y-44525423D01*
X126768209Y-44525426D01*
X126631290Y-44604475D01*
X126631282Y-44604481D01*
X126519478Y-44716286D01*
X124990155Y-46245608D01*
X124928832Y-46279093D01*
X124864157Y-46275858D01*
X124789709Y-46251669D01*
X124789710Y-46251669D01*
X124570817Y-46217000D01*
X124570812Y-46217000D01*
X124349188Y-46217000D01*
X124349183Y-46217000D01*
X124130292Y-46251668D01*
X123919511Y-46320156D01*
X123722046Y-46420770D01*
X123619750Y-46495092D01*
X123542749Y-46551038D01*
X123542747Y-46551040D01*
X123542745Y-46551041D01*
X123502082Y-46591704D01*
X123440759Y-46625189D01*
X123371067Y-46620203D01*
X123315134Y-46578331D01*
X123298220Y-46547355D01*
X123271297Y-46475171D01*
X123271293Y-46475164D01*
X123185047Y-46359955D01*
X123185044Y-46359952D01*
X123069835Y-46273706D01*
X123069828Y-46273702D01*
X122934982Y-46223408D01*
X122934983Y-46223408D01*
X122875383Y-46217001D01*
X122875381Y-46217000D01*
X122875373Y-46217000D01*
X122875364Y-46217000D01*
X120964629Y-46217000D01*
X120964623Y-46217001D01*
X120905016Y-46223408D01*
X120770171Y-46273702D01*
X120770164Y-46273706D01*
X120654955Y-46359952D01*
X120654952Y-46359955D01*
X120568706Y-46475164D01*
X120568702Y-46475171D01*
X120518408Y-46610017D01*
X120512001Y-46669616D01*
X120512000Y-46669635D01*
X107849598Y-46669635D01*
X108715815Y-45803418D01*
X108777136Y-45769935D01*
X108846828Y-45774919D01*
X108902761Y-45816791D01*
X108903811Y-45818214D01*
X108939309Y-45867072D01*
X108939310Y-45867073D01*
X109072927Y-46000690D01*
X109225801Y-46111760D01*
X109305347Y-46152290D01*
X109394163Y-46197545D01*
X109394165Y-46197545D01*
X109394168Y-46197547D01*
X109473763Y-46223409D01*
X109573881Y-46255940D01*
X109760514Y-46285500D01*
X109760519Y-46285500D01*
X109949486Y-46285500D01*
X110136118Y-46255940D01*
X110167916Y-46245608D01*
X110315832Y-46197547D01*
X110484199Y-46111760D01*
X110637073Y-46000690D01*
X110770690Y-45867073D01*
X110881760Y-45714199D01*
X110967547Y-45545832D01*
X111025940Y-45366118D01*
X111055500Y-45179486D01*
X111055500Y-44990513D01*
X111025940Y-44803881D01*
X110967545Y-44624163D01*
X110896383Y-44484500D01*
X110881760Y-44455801D01*
X110770690Y-44302927D01*
X110637073Y-44169310D01*
X110484199Y-44058240D01*
X110315836Y-43972454D01*
X110136118Y-43914059D01*
X109949486Y-43884500D01*
X109949481Y-43884500D01*
X109760519Y-43884500D01*
X109760514Y-43884500D01*
X109573881Y-43914059D01*
X109394163Y-43972454D01*
X109225800Y-44058240D01*
X109138579Y-44121610D01*
X109072927Y-44169310D01*
X109072925Y-44169312D01*
X109072924Y-44169312D01*
X108939312Y-44302924D01*
X108939312Y-44302925D01*
X108939310Y-44302927D01*
X108852488Y-44422427D01*
X108844526Y-44433386D01*
X108789196Y-44476051D01*
X108744208Y-44484500D01*
X108505940Y-44484500D01*
X108465019Y-44495464D01*
X108465019Y-44495465D01*
X108427751Y-44505451D01*
X108353214Y-44525423D01*
X108353209Y-44525426D01*
X108216290Y-44604475D01*
X108216282Y-44604481D01*
X108104478Y-44716286D01*
X106575155Y-46245608D01*
X106513832Y-46279093D01*
X106449157Y-46275858D01*
X106374709Y-46251669D01*
X106374710Y-46251669D01*
X106155817Y-46217000D01*
X106155812Y-46217000D01*
X105934188Y-46217000D01*
X105934183Y-46217000D01*
X105715292Y-46251668D01*
X105504511Y-46320156D01*
X105307046Y-46420770D01*
X105204750Y-46495092D01*
X105127749Y-46551038D01*
X105127747Y-46551040D01*
X105127745Y-46551041D01*
X105087082Y-46591704D01*
X105025759Y-46625189D01*
X104956067Y-46620203D01*
X104900134Y-46578331D01*
X104883220Y-46547355D01*
X104856297Y-46475171D01*
X104856293Y-46475164D01*
X104770047Y-46359955D01*
X104770044Y-46359952D01*
X104654835Y-46273706D01*
X104654828Y-46273702D01*
X104519982Y-46223408D01*
X104519983Y-46223408D01*
X104460383Y-46217001D01*
X104460381Y-46217000D01*
X104460373Y-46217000D01*
X104460364Y-46217000D01*
X102549629Y-46217000D01*
X102549623Y-46217001D01*
X102490016Y-46223408D01*
X102355171Y-46273702D01*
X102355164Y-46273706D01*
X102239955Y-46359952D01*
X102239952Y-46359955D01*
X102153706Y-46475164D01*
X102153702Y-46475171D01*
X102103408Y-46610017D01*
X102097001Y-46669616D01*
X102097000Y-46669635D01*
X89434598Y-46669635D01*
X90300815Y-45803418D01*
X90362136Y-45769935D01*
X90431828Y-45774919D01*
X90487761Y-45816791D01*
X90488811Y-45818214D01*
X90524309Y-45867072D01*
X90524310Y-45867073D01*
X90657927Y-46000690D01*
X90810801Y-46111760D01*
X90890347Y-46152290D01*
X90979163Y-46197545D01*
X90979165Y-46197545D01*
X90979168Y-46197547D01*
X91058763Y-46223409D01*
X91158881Y-46255940D01*
X91345514Y-46285500D01*
X91345519Y-46285500D01*
X91534486Y-46285500D01*
X91721118Y-46255940D01*
X91752916Y-46245608D01*
X91900832Y-46197547D01*
X92069199Y-46111760D01*
X92222073Y-46000690D01*
X92355690Y-45867073D01*
X92466760Y-45714199D01*
X92552547Y-45545832D01*
X92610940Y-45366118D01*
X92640500Y-45179486D01*
X92640500Y-44990513D01*
X92610940Y-44803881D01*
X92552545Y-44624163D01*
X92481383Y-44484500D01*
X92466760Y-44455801D01*
X92355690Y-44302927D01*
X92222073Y-44169310D01*
X92069199Y-44058240D01*
X91900836Y-43972454D01*
X91721118Y-43914059D01*
X91534486Y-43884500D01*
X91534481Y-43884500D01*
X91345519Y-43884500D01*
X91345514Y-43884500D01*
X91158881Y-43914059D01*
X90979163Y-43972454D01*
X90810800Y-44058240D01*
X90723579Y-44121610D01*
X90657927Y-44169310D01*
X90657925Y-44169312D01*
X90657924Y-44169312D01*
X90524312Y-44302924D01*
X90524312Y-44302925D01*
X90524310Y-44302927D01*
X90437488Y-44422427D01*
X90429526Y-44433386D01*
X90374196Y-44476051D01*
X90329208Y-44484500D01*
X90090940Y-44484500D01*
X90050019Y-44495464D01*
X90050019Y-44495465D01*
X90012751Y-44505451D01*
X89938214Y-44525423D01*
X89938209Y-44525426D01*
X89801290Y-44604475D01*
X89801282Y-44604481D01*
X89689478Y-44716286D01*
X88160155Y-46245608D01*
X88098832Y-46279093D01*
X88034157Y-46275858D01*
X87959709Y-46251669D01*
X87959710Y-46251669D01*
X87740817Y-46217000D01*
X87740812Y-46217000D01*
X87519188Y-46217000D01*
X87519183Y-46217000D01*
X87300292Y-46251668D01*
X87089511Y-46320156D01*
X86892046Y-46420770D01*
X86789750Y-46495092D01*
X86712749Y-46551038D01*
X86712747Y-46551040D01*
X86712745Y-46551041D01*
X86672082Y-46591704D01*
X86610759Y-46625189D01*
X86541067Y-46620203D01*
X86485134Y-46578331D01*
X86468220Y-46547355D01*
X86441297Y-46475171D01*
X86441293Y-46475164D01*
X86355047Y-46359955D01*
X86355044Y-46359952D01*
X86239835Y-46273706D01*
X86239828Y-46273702D01*
X86104982Y-46223408D01*
X86104983Y-46223408D01*
X86045383Y-46217001D01*
X86045381Y-46217000D01*
X86045373Y-46217000D01*
X86045364Y-46217000D01*
X84134629Y-46217000D01*
X84134623Y-46217001D01*
X84075016Y-46223408D01*
X83940171Y-46273702D01*
X83940164Y-46273706D01*
X83824955Y-46359952D01*
X83824952Y-46359955D01*
X83738706Y-46475164D01*
X83738702Y-46475171D01*
X83688408Y-46610017D01*
X83682001Y-46669616D01*
X83682000Y-46669635D01*
X75938500Y-46669635D01*
X75938500Y-44422427D01*
X75938816Y-44413581D01*
X75946730Y-44302925D01*
X75953131Y-44213434D01*
X75955646Y-44195938D01*
X75997356Y-44004199D01*
X76002333Y-43987248D01*
X76070911Y-43803385D01*
X76078259Y-43787298D01*
X76140815Y-43672734D01*
X76172291Y-43615089D01*
X76181845Y-43600221D01*
X76299448Y-43443123D01*
X76311020Y-43429769D01*
X76449769Y-43291020D01*
X76463123Y-43279448D01*
X76620221Y-43161845D01*
X76635089Y-43152291D01*
X76807298Y-43058258D01*
X76823385Y-43050911D01*
X77007248Y-42982333D01*
X77024199Y-42977356D01*
X77215938Y-42935646D01*
X77233436Y-42933130D01*
X77433582Y-42918816D01*
X77442428Y-42918500D01*
X77503892Y-42918500D01*
X171924108Y-42918500D01*
X171985572Y-42918500D01*
X171994418Y-42918816D01*
G37*
%TD.AperFunction*%
%TA.AperFunction,NonConductor*%
G36*
X161256942Y-51420185D02*
G01*
X161277584Y-51436819D01*
X168560271Y-58719507D01*
X168593756Y-58780830D01*
X168588772Y-58850522D01*
X168572909Y-58880073D01*
X168465212Y-59028306D01*
X168374994Y-59205367D01*
X168374993Y-59205370D01*
X168313587Y-59394362D01*
X168293819Y-59519174D01*
X168282500Y-59590639D01*
X168282500Y-59789361D01*
X168284697Y-59803231D01*
X168275740Y-59872524D01*
X168230743Y-59925975D01*
X168163991Y-59946613D01*
X168096677Y-59927887D01*
X168074542Y-59910307D01*
X159776416Y-51612181D01*
X159742931Y-51550858D01*
X159747915Y-51481166D01*
X159789787Y-51425233D01*
X159855251Y-51400816D01*
X159864097Y-51400500D01*
X161189903Y-51400500D01*
X161256942Y-51420185D01*
G37*
%TD.AperFunction*%
%TA.AperFunction,NonConductor*%
G36*
X157881942Y-51420185D02*
G01*
X157902584Y-51436819D01*
X168281237Y-61815472D01*
X168314722Y-61876795D01*
X168314160Y-61929522D01*
X168314349Y-61929552D01*
X168314146Y-61930831D01*
X168314133Y-61932087D01*
X168313587Y-61934360D01*
X168306379Y-61979871D01*
X168282500Y-62130639D01*
X168282500Y-62329361D01*
X168284697Y-62343231D01*
X168275740Y-62412524D01*
X168230743Y-62465975D01*
X168163991Y-62486613D01*
X168096677Y-62467887D01*
X168074542Y-62450307D01*
X157236416Y-51612181D01*
X157202931Y-51550858D01*
X157207915Y-51481166D01*
X157249787Y-51425233D01*
X157315251Y-51400816D01*
X157324097Y-51400500D01*
X157814903Y-51400500D01*
X157881942Y-51420185D01*
G37*
%TD.AperFunction*%
%TA.AperFunction,NonConductor*%
G36*
X156253703Y-52328384D02*
G01*
X156260181Y-52334416D01*
X168281237Y-64355472D01*
X168314722Y-64416795D01*
X168314160Y-64469522D01*
X168314349Y-64469552D01*
X168314146Y-64470831D01*
X168314133Y-64472087D01*
X168313587Y-64474360D01*
X168286735Y-64643900D01*
X168282500Y-64670639D01*
X168282500Y-64869361D01*
X168284696Y-64883230D01*
X168275741Y-64952522D01*
X168230744Y-65005974D01*
X168163992Y-65026612D01*
X168096678Y-65007886D01*
X168074542Y-64990306D01*
X156084819Y-53000583D01*
X156051334Y-52939260D01*
X156048500Y-52912902D01*
X156048500Y-52422097D01*
X156068185Y-52355058D01*
X156120989Y-52309303D01*
X156190147Y-52299359D01*
X156253703Y-52328384D01*
G37*
%TD.AperFunction*%
M02*
