%TF.GenerationSoftware,KiCad,Pcbnew,9.0.6*%
%TF.CreationDate,2025-11-26T17:33:25+00:00*%
%TF.ProjectId,keyfrick,6b657966-7269-4636-9b2e-6b696361645f,rev?*%
%TF.SameCoordinates,Original*%
%TF.FileFunction,Soldermask,Bot*%
%TF.FilePolarity,Negative*%
%FSLAX46Y46*%
G04 Gerber Fmt 4.6, Leading zero omitted, Abs format (unit mm)*
G04 Created by KiCad (PCBNEW 9.0.6) date 2025-11-26 17:33:25*
%MOMM*%
%LPD*%
G01*
G04 APERTURE LIST*
G04 Aperture macros list*
%AMRoundRect*
0 Rectangle with rounded corners*
0 $1 Rounding radius*
0 $2 $3 $4 $5 $6 $7 $8 $9 X,Y pos of 4 corners*
0 Add a 4 corners polygon primitive as box body*
4,1,4,$2,$3,$4,$5,$6,$7,$8,$9,$2,$3,0*
0 Add four circle primitives for the rounded corners*
1,1,$1+$1,$2,$3*
1,1,$1+$1,$4,$5*
1,1,$1+$1,$6,$7*
1,1,$1+$1,$8,$9*
0 Add four rect primitives between the rounded corners*
20,1,$1+$1,$2,$3,$4,$5,0*
20,1,$1+$1,$4,$5,$6,$7,0*
20,1,$1+$1,$6,$7,$8,$9,0*
20,1,$1+$1,$8,$9,$2,$3,0*%
G04 Aperture macros list end*
%ADD10C,2.019000*%
%ADD11RoundRect,0.102000X-0.907500X-0.907500X0.907500X-0.907500X0.907500X0.907500X-0.907500X0.907500X0*%
%ADD12C,1.400000*%
%ADD13C,1.700000*%
%ADD14C,4.000000*%
%ADD15C,2.200000*%
%ADD16C,1.524000*%
G04 APERTURE END LIST*
D10*
%TO.C,D2*%
X106045000Y-47625000D03*
D11*
X103505000Y-47625000D03*
%TD*%
D12*
%TO.C,R4*%
X146685000Y-45085000D03*
X146685000Y-50165000D03*
%TD*%
D13*
%TO.C,SW4*%
X136525000Y-60960000D03*
D14*
X141605000Y-60960000D03*
D13*
X146685000Y-60960000D03*
D15*
X144145000Y-55880000D03*
X137795000Y-58420000D03*
%TD*%
D13*
%TO.C,SW2*%
X99695000Y-60960000D03*
D14*
X104775000Y-60960000D03*
D13*
X109855000Y-60960000D03*
D15*
X107315000Y-55880000D03*
X100965000Y-58420000D03*
%TD*%
D10*
%TO.C,D1*%
X87630000Y-47625000D03*
D11*
X85090000Y-47625000D03*
%TD*%
D12*
%TO.C,R2*%
X109855000Y-45085000D03*
X109855000Y-50165000D03*
%TD*%
%TO.C,R1*%
X91440000Y-45085000D03*
X91440000Y-50165000D03*
%TD*%
%TO.C,R3*%
X128270000Y-45085000D03*
X128270000Y-50165000D03*
%TD*%
D13*
%TO.C,SW3*%
X118110000Y-60960000D03*
D14*
X123190000Y-60960000D03*
D13*
X128270000Y-60960000D03*
D15*
X125730000Y-55880000D03*
X119380000Y-58420000D03*
%TD*%
D10*
%TO.C,D3*%
X124460000Y-47625000D03*
D11*
X121920000Y-47625000D03*
%TD*%
D13*
%TO.C,SW1*%
X81280000Y-60960000D03*
D14*
X86360000Y-60960000D03*
D13*
X91440000Y-60960000D03*
D15*
X88900000Y-55880000D03*
X82550000Y-58420000D03*
%TD*%
D10*
%TO.C,D4*%
X142875000Y-47625000D03*
D11*
X140335000Y-47625000D03*
%TD*%
D16*
%TO.C,U1*%
X154305000Y-52070000D03*
X154305000Y-54610000D03*
X154305000Y-57150000D03*
X154305000Y-59690000D03*
X154305000Y-62230000D03*
X154305000Y-64770000D03*
X154305000Y-67310000D03*
X169545000Y-67310000D03*
X169545000Y-64770000D03*
X169545000Y-62230000D03*
X169545000Y-59690000D03*
X169545000Y-57150000D03*
X169545000Y-54610000D03*
X169545000Y-52070000D03*
%TD*%
M02*
