%TF.GenerationSoftware,KiCad,Pcbnew,9.0.6*%
%TF.CreationDate,2025-11-26T17:33:24+00:00*%
%TF.ProjectId,keyfrick,6b657966-7269-4636-9b2e-6b696361645f,rev?*%
%TF.SameCoordinates,Original*%
%TF.FileFunction,Copper,L2,Bot*%
%TF.FilePolarity,Positive*%
%FSLAX46Y46*%
G04 Gerber Fmt 4.6, Leading zero omitted, Abs format (unit mm)*
G04 Created by KiCad (PCBNEW 9.0.6) date 2025-11-26 17:33:24*
%MOMM*%
%LPD*%
G01*
G04 APERTURE LIST*
%TA.AperFunction,ComponentPad*%
%ADD10C,1.815000*%
%TD*%
%TA.AperFunction,ComponentPad*%
%ADD11R,1.815000X1.815000*%
%TD*%
%TA.AperFunction,ComponentPad*%
%ADD12C,1.400000*%
%TD*%
%TA.AperFunction,ComponentPad*%
%ADD13C,2.200000*%
%TD*%
%TA.AperFunction,ComponentPad*%
%ADD14C,1.524000*%
%TD*%
%TA.AperFunction,Conductor*%
%ADD15C,0.200000*%
%TD*%
G04 APERTURE END LIST*
D10*
%TO.P,D2,A*%
%TO.N,Net-(D2-PadA)*%
X106045000Y-47625000D03*
D11*
%TO.P,D2,C*%
%TO.N,GND*%
X103505000Y-47625000D03*
%TD*%
D12*
%TO.P,R4,1*%
%TO.N,Net-(D4-PadA)*%
X146685000Y-45085000D03*
%TO.P,R4,2*%
%TO.N,d4*%
X146685000Y-50165000D03*
%TD*%
D13*
%TO.P,SW4,1,1*%
%TO.N,sw4*%
X144145000Y-55880000D03*
%TO.P,SW4,2,2*%
%TO.N,GND*%
X137795000Y-58420000D03*
%TD*%
%TO.P,SW2,1,1*%
%TO.N,sw2*%
X107315000Y-55880000D03*
%TO.P,SW2,2,2*%
%TO.N,GND*%
X100965000Y-58420000D03*
%TD*%
D10*
%TO.P,D1,A*%
%TO.N,Net-(D1-PadA)*%
X87630000Y-47625000D03*
D11*
%TO.P,D1,C*%
%TO.N,GND*%
X85090000Y-47625000D03*
%TD*%
D12*
%TO.P,R2,1*%
%TO.N,Net-(D2-PadA)*%
X109855000Y-45085000D03*
%TO.P,R2,2*%
%TO.N,d2*%
X109855000Y-50165000D03*
%TD*%
%TO.P,R1,1*%
%TO.N,Net-(D1-PadA)*%
X91440000Y-45085000D03*
%TO.P,R1,2*%
%TO.N,d1*%
X91440000Y-50165000D03*
%TD*%
%TO.P,R3,1*%
%TO.N,Net-(D3-PadA)*%
X128270000Y-45085000D03*
%TO.P,R3,2*%
%TO.N,d3*%
X128270000Y-50165000D03*
%TD*%
D13*
%TO.P,SW3,1,1*%
%TO.N,sw3*%
X125730000Y-55880000D03*
%TO.P,SW3,2,2*%
%TO.N,GND*%
X119380000Y-58420000D03*
%TD*%
D10*
%TO.P,D3,A*%
%TO.N,Net-(D3-PadA)*%
X124460000Y-47625000D03*
D11*
%TO.P,D3,C*%
%TO.N,GND*%
X121920000Y-47625000D03*
%TD*%
D13*
%TO.P,SW1,1,1*%
%TO.N,sw1*%
X88900000Y-55880000D03*
%TO.P,SW1,2,2*%
%TO.N,GND*%
X82550000Y-58420000D03*
%TD*%
D10*
%TO.P,D4,A*%
%TO.N,Net-(D4-PadA)*%
X142875000Y-47625000D03*
D11*
%TO.P,D4,C*%
%TO.N,GND*%
X140335000Y-47625000D03*
%TD*%
D14*
%TO.P,U1,1,GPIO26/ADC0/A0*%
%TO.N,unconnected-(U1-GPIO26{slash}ADC0{slash}A0-Pad1)*%
X154305000Y-52070000D03*
%TO.P,U1,2,GPIO27/ADC1/A1*%
%TO.N,unconnected-(U1-GPIO27{slash}ADC1{slash}A1-Pad2)*%
X154305000Y-54610000D03*
%TO.P,U1,3,GPIO28/ADC2/A2*%
%TO.N,unconnected-(U1-GPIO28{slash}ADC2{slash}A2-Pad3)*%
X154305000Y-57150000D03*
%TO.P,U1,4,GPIO29/ADC3/A3*%
%TO.N,sw1*%
X154305000Y-59690000D03*
%TO.P,U1,5,GPIO6/SDA*%
%TO.N,sw2*%
X154305000Y-62230000D03*
%TO.P,U1,6,GPIO7/SCL*%
%TO.N,sw3*%
X154305000Y-64770000D03*
%TO.P,U1,7,GPIO0/TX*%
%TO.N,sw4*%
X154305000Y-67310000D03*
%TO.P,U1,8,GPIO1/RX*%
%TO.N,d4*%
X169545000Y-67310000D03*
%TO.P,U1,9,GPIO2/SCK*%
%TO.N,d3*%
X169545000Y-64770000D03*
%TO.P,U1,10,GPIO4/MISO*%
%TO.N,d2*%
X169545000Y-62230000D03*
%TO.P,U1,11,GPIO3/MOSI*%
%TO.N,d1*%
X169545000Y-59690000D03*
%TO.P,U1,12,3V3*%
%TO.N,unconnected-(U1-3V3-Pad12)*%
X169545000Y-57150000D03*
%TO.P,U1,13,GND*%
%TO.N,GND*%
X169545000Y-54610000D03*
%TO.P,U1,14,VBUS*%
%TO.N,unconnected-(U1-VBUS-Pad14)*%
X169545000Y-52070000D03*
%TD*%
D15*
%TO.N,GND*%
X121920000Y-47625000D02*
X121920000Y-48834200D01*
%TO.N,d2*%
X167594600Y-53576600D02*
X167594500Y-53576600D01*
%TO.N,sw4*%
X152827200Y-65832200D02*
X154305000Y-67310000D01*
X152827200Y-64562200D02*
X152827200Y-65832200D01*
%TD*%
%TA.AperFunction,Conductor*%
%TO.N,GND*%
G36*
X171994418Y-42918816D02*
G01*
X172194561Y-42933130D01*
X172212063Y-42935647D01*
X172403797Y-42977355D01*
X172420755Y-42982334D01*
X172604609Y-43050909D01*
X172620701Y-43058259D01*
X172792904Y-43152288D01*
X172807784Y-43161849D01*
X172964867Y-43279441D01*
X172978237Y-43291027D01*
X173116972Y-43429762D01*
X173128558Y-43443132D01*
X173246146Y-43600210D01*
X173255711Y-43615095D01*
X173349740Y-43787298D01*
X173357090Y-43803390D01*
X173425662Y-43987236D01*
X173430646Y-44004212D01*
X173472351Y-44195931D01*
X173474869Y-44213442D01*
X173489184Y-44413580D01*
X173489500Y-44422427D01*
X173489500Y-69877572D01*
X173489184Y-69886419D01*
X173474869Y-70086557D01*
X173472351Y-70104068D01*
X173430646Y-70295787D01*
X173425662Y-70312763D01*
X173357090Y-70496609D01*
X173349740Y-70512701D01*
X173255711Y-70684904D01*
X173246146Y-70699789D01*
X173128558Y-70856867D01*
X173116972Y-70870237D01*
X172978237Y-71008972D01*
X172964867Y-71020558D01*
X172807789Y-71138146D01*
X172792904Y-71147711D01*
X172620701Y-71241740D01*
X172604609Y-71249090D01*
X172420763Y-71317662D01*
X172403787Y-71322646D01*
X172212068Y-71364351D01*
X172194557Y-71366869D01*
X172013779Y-71379799D01*
X171994417Y-71381184D01*
X171985572Y-71381500D01*
X77442428Y-71381500D01*
X77433582Y-71381184D01*
X77411622Y-71379613D01*
X77233442Y-71366869D01*
X77215931Y-71364351D01*
X77024212Y-71322646D01*
X77007236Y-71317662D01*
X76823390Y-71249090D01*
X76807298Y-71241740D01*
X76635095Y-71147711D01*
X76620210Y-71138146D01*
X76463132Y-71020558D01*
X76449762Y-71008972D01*
X76311027Y-70870237D01*
X76299441Y-70856867D01*
X76181849Y-70699784D01*
X76172288Y-70684904D01*
X76078259Y-70512701D01*
X76070909Y-70496609D01*
X76010091Y-70333551D01*
X76002334Y-70312755D01*
X75997355Y-70295797D01*
X75955647Y-70104063D01*
X75953130Y-70086556D01*
X75938816Y-69886418D01*
X75938500Y-69877572D01*
X75938500Y-65911254D01*
X152226698Y-65911254D01*
X152267623Y-66063986D01*
X152271689Y-66071028D01*
X152276050Y-66078580D01*
X152276052Y-66078589D01*
X152276055Y-66078588D01*
X152288307Y-66099810D01*
X152346679Y-66200914D01*
X152346681Y-66200917D01*
X152465549Y-66319785D01*
X152465555Y-66319790D01*
X153041237Y-66895472D01*
X153074722Y-66956795D01*
X153074160Y-67009522D01*
X153074349Y-67009552D01*
X153074146Y-67010831D01*
X153074133Y-67012087D01*
X153073587Y-67014360D01*
X153042500Y-67210639D01*
X153042500Y-67409360D01*
X153073587Y-67605637D01*
X153134993Y-67794629D01*
X153134994Y-67794632D01*
X153225213Y-67971694D01*
X153342019Y-68132464D01*
X153482536Y-68272981D01*
X153643306Y-68389787D01*
X153730149Y-68434035D01*
X153820367Y-68480005D01*
X153820370Y-68480006D01*
X153914866Y-68510709D01*
X154009364Y-68541413D01*
X154205639Y-68572500D01*
X154205640Y-68572500D01*
X154404360Y-68572500D01*
X154404361Y-68572500D01*
X154600636Y-68541413D01*
X154789632Y-68480005D01*
X154966694Y-68389787D01*
X155127464Y-68272981D01*
X155267981Y-68132464D01*
X155384787Y-67971694D01*
X155475005Y-67794632D01*
X155536413Y-67605636D01*
X155567500Y-67409361D01*
X155567500Y-67210639D01*
X155536413Y-67014364D01*
X155475005Y-66825368D01*
X155475005Y-66825367D01*
X155384786Y-66648305D01*
X155267981Y-66487536D01*
X155127464Y-66347019D01*
X154966694Y-66230213D01*
X154810218Y-66150484D01*
X154759423Y-66102510D01*
X154742628Y-66034689D01*
X154765165Y-65968554D01*
X154810218Y-65929515D01*
X154966694Y-65849787D01*
X155127464Y-65732981D01*
X155267981Y-65592464D01*
X155384787Y-65431694D01*
X155475005Y-65254632D01*
X155536413Y-65065636D01*
X155567500Y-64869361D01*
X155567500Y-64670639D01*
X155536413Y-64474364D01*
X155475005Y-64285368D01*
X155475005Y-64285367D01*
X155384786Y-64108305D01*
X155267981Y-63947536D01*
X155127464Y-63807019D01*
X154966694Y-63690213D01*
X154810218Y-63610484D01*
X154759423Y-63562510D01*
X154742628Y-63494689D01*
X154765165Y-63428554D01*
X154810218Y-63389515D01*
X154966694Y-63309787D01*
X155127464Y-63192981D01*
X155267981Y-63052464D01*
X155384787Y-62891694D01*
X155475005Y-62714632D01*
X155536413Y-62525636D01*
X155567500Y-62329361D01*
X155567500Y-62130639D01*
X155536413Y-61934364D01*
X155505709Y-61839866D01*
X155475006Y-61745370D01*
X155475005Y-61745367D01*
X155384786Y-61568305D01*
X155267981Y-61407536D01*
X155127464Y-61267019D01*
X154966694Y-61150213D01*
X154810218Y-61070484D01*
X154759423Y-61022510D01*
X154742628Y-60954689D01*
X154765165Y-60888554D01*
X154810218Y-60849515D01*
X154966694Y-60769787D01*
X155127464Y-60652981D01*
X155267981Y-60512464D01*
X155384787Y-60351694D01*
X155475005Y-60174632D01*
X155536413Y-59985636D01*
X155567500Y-59789361D01*
X155567500Y-59590639D01*
X155536413Y-59394364D01*
X155494170Y-59264352D01*
X155475006Y-59205370D01*
X155475005Y-59205367D01*
X155384786Y-59028305D01*
X155267981Y-58867536D01*
X155127464Y-58727019D01*
X154966694Y-58610213D01*
X154810218Y-58530484D01*
X154759423Y-58482510D01*
X154742628Y-58414689D01*
X154765165Y-58348554D01*
X154810218Y-58309515D01*
X154966694Y-58229787D01*
X155127464Y-58112981D01*
X155267981Y-57972464D01*
X155384787Y-57811694D01*
X155475005Y-57634632D01*
X155536413Y-57445636D01*
X155567500Y-57249361D01*
X155567500Y-57050639D01*
X155536413Y-56854364D01*
X155475005Y-56665368D01*
X155475005Y-56665367D01*
X155384786Y-56488305D01*
X155267981Y-56327536D01*
X155127464Y-56187019D01*
X154966694Y-56070213D01*
X154810218Y-55990484D01*
X154759423Y-55942510D01*
X154742628Y-55874689D01*
X154765165Y-55808554D01*
X154810218Y-55769515D01*
X154966694Y-55689787D01*
X155127464Y-55572981D01*
X155267981Y-55432464D01*
X155384787Y-55271694D01*
X155475005Y-55094632D01*
X155536413Y-54905636D01*
X155567500Y-54709361D01*
X155567500Y-54510639D01*
X155536413Y-54314364D01*
X155475005Y-54125368D01*
X155475005Y-54125367D01*
X155429035Y-54035149D01*
X155384787Y-53948306D01*
X155267981Y-53787536D01*
X155127464Y-53647019D01*
X154966694Y-53530213D01*
X154902576Y-53497543D01*
X166994000Y-53497543D01*
X166994000Y-53655656D01*
X167034923Y-53808383D01*
X167034926Y-53808390D01*
X167113975Y-53945309D01*
X167113979Y-53945314D01*
X167113980Y-53945316D01*
X167225784Y-54057120D01*
X167225786Y-54057121D01*
X167225790Y-54057124D01*
X167344330Y-54125562D01*
X167362716Y-54136177D01*
X167515443Y-54177100D01*
X167515445Y-54177100D01*
X167673655Y-54177100D01*
X167673657Y-54177100D01*
X167826384Y-54136177D01*
X167963316Y-54057120D01*
X168075120Y-53945316D01*
X168154177Y-53808384D01*
X168195100Y-53655657D01*
X168195100Y-53497543D01*
X168154177Y-53344816D01*
X168148330Y-53334689D01*
X168075124Y-53207890D01*
X168075118Y-53207882D01*
X167963317Y-53096081D01*
X167963309Y-53096075D01*
X167826390Y-53017026D01*
X167826386Y-53017024D01*
X167826384Y-53017023D01*
X167673657Y-52976100D01*
X167515443Y-52976100D01*
X167362716Y-53017023D01*
X167362709Y-53017026D01*
X167225790Y-53096075D01*
X167225782Y-53096081D01*
X167113981Y-53207882D01*
X167113975Y-53207890D01*
X167034926Y-53344809D01*
X167034923Y-53344816D01*
X166994000Y-53497543D01*
X154902576Y-53497543D01*
X154810218Y-53450484D01*
X154759423Y-53402510D01*
X154742628Y-53334689D01*
X154765165Y-53268554D01*
X154810218Y-53229515D01*
X154966694Y-53149787D01*
X155127464Y-53032981D01*
X155267981Y-52892464D01*
X155384787Y-52731694D01*
X155475005Y-52554632D01*
X155536413Y-52365636D01*
X155567500Y-52169361D01*
X155567500Y-51970639D01*
X168282500Y-51970639D01*
X168282500Y-52169360D01*
X168313587Y-52365637D01*
X168374993Y-52554629D01*
X168374994Y-52554632D01*
X168465213Y-52731694D01*
X168582019Y-52892464D01*
X168722536Y-53032981D01*
X168883306Y-53149787D01*
X169040332Y-53229796D01*
X169091127Y-53277769D01*
X169107922Y-53345590D01*
X169085385Y-53411725D01*
X169040332Y-53450764D01*
X168883566Y-53530641D01*
X168846283Y-53557729D01*
X168846282Y-53557730D01*
X169460906Y-54172352D01*
X169373429Y-54195792D01*
X169272070Y-54254311D01*
X169189311Y-54337070D01*
X169130792Y-54438429D01*
X169107352Y-54525905D01*
X168492730Y-53911282D01*
X168492729Y-53911283D01*
X168465643Y-53948564D01*
X168375457Y-54125562D01*
X168314075Y-54314476D01*
X168314075Y-54314479D01*
X168283000Y-54510678D01*
X168283000Y-54709321D01*
X168314075Y-54905520D01*
X168314075Y-54905523D01*
X168375457Y-55094437D01*
X168465641Y-55271432D01*
X168492730Y-55308715D01*
X168492731Y-55308716D01*
X169107352Y-54694094D01*
X169130792Y-54781571D01*
X169189311Y-54882930D01*
X169272070Y-54965689D01*
X169373429Y-55024208D01*
X169460905Y-55047647D01*
X168846283Y-55662268D01*
X168846283Y-55662269D01*
X168883567Y-55689358D01*
X169040331Y-55769234D01*
X169091127Y-55817209D01*
X169107922Y-55885030D01*
X169085384Y-55951165D01*
X169040331Y-55990204D01*
X168883305Y-56070213D01*
X168722533Y-56187021D01*
X168582021Y-56327533D01*
X168465213Y-56488305D01*
X168374994Y-56665367D01*
X168374993Y-56665370D01*
X168313587Y-56854362D01*
X168282500Y-57050639D01*
X168282500Y-57249360D01*
X168313587Y-57445637D01*
X168374993Y-57634629D01*
X168374994Y-57634632D01*
X168462217Y-57805815D01*
X168465213Y-57811694D01*
X168582019Y-57972464D01*
X168722536Y-58112981D01*
X168883306Y-58229787D01*
X169001832Y-58290179D01*
X169039780Y-58309515D01*
X169090576Y-58357490D01*
X169107371Y-58425311D01*
X169084833Y-58491446D01*
X169039780Y-58530485D01*
X168883305Y-58610213D01*
X168722533Y-58727021D01*
X168582021Y-58867533D01*
X168465213Y-59028305D01*
X168374994Y-59205367D01*
X168374993Y-59205370D01*
X168313587Y-59394362D01*
X168282500Y-59590639D01*
X168282500Y-59789360D01*
X168313587Y-59985637D01*
X168374993Y-60174629D01*
X168374994Y-60174632D01*
X168465213Y-60351694D01*
X168582019Y-60512464D01*
X168722536Y-60652981D01*
X168883306Y-60769787D01*
X168967107Y-60812486D01*
X169039780Y-60849515D01*
X169090576Y-60897490D01*
X169107371Y-60965311D01*
X169084833Y-61031446D01*
X169039780Y-61070485D01*
X168883305Y-61150213D01*
X168722533Y-61267021D01*
X168582021Y-61407533D01*
X168465213Y-61568305D01*
X168374994Y-61745367D01*
X168374993Y-61745370D01*
X168313587Y-61934362D01*
X168282500Y-62130639D01*
X168282500Y-62329360D01*
X168313587Y-62525637D01*
X168374993Y-62714629D01*
X168374994Y-62714632D01*
X168436447Y-62835238D01*
X168465213Y-62891694D01*
X168582019Y-63052464D01*
X168722536Y-63192981D01*
X168883306Y-63309787D01*
X169001832Y-63370179D01*
X169039780Y-63389515D01*
X169090576Y-63437490D01*
X169107371Y-63505311D01*
X169084833Y-63571446D01*
X169039780Y-63610485D01*
X168883305Y-63690213D01*
X168722533Y-63807021D01*
X168582021Y-63947533D01*
X168465213Y-64108305D01*
X168374994Y-64285367D01*
X168374993Y-64285370D01*
X168313587Y-64474362D01*
X168282500Y-64670639D01*
X168282500Y-64869360D01*
X168313587Y-65065637D01*
X168374993Y-65254629D01*
X168374994Y-65254632D01*
X168465213Y-65431694D01*
X168582019Y-65592464D01*
X168722536Y-65732981D01*
X168883306Y-65849787D01*
X168986708Y-65902473D01*
X169039780Y-65929515D01*
X169090576Y-65977490D01*
X169107371Y-66045311D01*
X169084833Y-66111446D01*
X169039780Y-66150485D01*
X168883305Y-66230213D01*
X168722533Y-66347021D01*
X168582021Y-66487533D01*
X168465213Y-66648305D01*
X168374994Y-66825367D01*
X168374993Y-66825370D01*
X168313587Y-67014362D01*
X168282500Y-67210639D01*
X168282500Y-67409360D01*
X168313587Y-67605637D01*
X168374993Y-67794629D01*
X168374994Y-67794632D01*
X168465213Y-67971694D01*
X168582019Y-68132464D01*
X168722536Y-68272981D01*
X168883306Y-68389787D01*
X168970149Y-68434035D01*
X169060367Y-68480005D01*
X169060370Y-68480006D01*
X169154866Y-68510709D01*
X169249364Y-68541413D01*
X169445639Y-68572500D01*
X169445640Y-68572500D01*
X169644360Y-68572500D01*
X169644361Y-68572500D01*
X169840636Y-68541413D01*
X170029632Y-68480005D01*
X170206694Y-68389787D01*
X170367464Y-68272981D01*
X170507981Y-68132464D01*
X170624787Y-67971694D01*
X170715005Y-67794632D01*
X170776413Y-67605636D01*
X170807500Y-67409361D01*
X170807500Y-67210639D01*
X170776413Y-67014364D01*
X170715005Y-66825368D01*
X170715005Y-66825367D01*
X170624786Y-66648305D01*
X170507981Y-66487536D01*
X170367464Y-66347019D01*
X170206694Y-66230213D01*
X170050218Y-66150484D01*
X169999423Y-66102510D01*
X169982628Y-66034689D01*
X170005165Y-65968554D01*
X170050218Y-65929515D01*
X170206694Y-65849787D01*
X170367464Y-65732981D01*
X170507981Y-65592464D01*
X170624787Y-65431694D01*
X170715005Y-65254632D01*
X170776413Y-65065636D01*
X170807500Y-64869361D01*
X170807500Y-64670639D01*
X170776413Y-64474364D01*
X170715005Y-64285368D01*
X170715005Y-64285367D01*
X170624786Y-64108305D01*
X170507981Y-63947536D01*
X170367464Y-63807019D01*
X170206694Y-63690213D01*
X170050218Y-63610484D01*
X169999423Y-63562510D01*
X169982628Y-63494689D01*
X170005165Y-63428554D01*
X170050218Y-63389515D01*
X170206694Y-63309787D01*
X170367464Y-63192981D01*
X170507981Y-63052464D01*
X170624787Y-62891694D01*
X170715005Y-62714632D01*
X170776413Y-62525636D01*
X170807500Y-62329361D01*
X170807500Y-62130639D01*
X170776413Y-61934364D01*
X170745709Y-61839866D01*
X170715006Y-61745370D01*
X170715005Y-61745367D01*
X170624786Y-61568305D01*
X170507981Y-61407536D01*
X170367464Y-61267019D01*
X170206694Y-61150213D01*
X170050218Y-61070484D01*
X169999423Y-61022510D01*
X169982628Y-60954689D01*
X170005165Y-60888554D01*
X170050218Y-60849515D01*
X170206694Y-60769787D01*
X170367464Y-60652981D01*
X170507981Y-60512464D01*
X170624787Y-60351694D01*
X170715005Y-60174632D01*
X170776413Y-59985636D01*
X170807500Y-59789361D01*
X170807500Y-59590639D01*
X170776413Y-59394364D01*
X170734170Y-59264352D01*
X170715006Y-59205370D01*
X170715005Y-59205367D01*
X170624786Y-59028305D01*
X170507981Y-58867536D01*
X170367464Y-58727019D01*
X170206694Y-58610213D01*
X170050218Y-58530484D01*
X169999423Y-58482510D01*
X169982628Y-58414689D01*
X170005165Y-58348554D01*
X170050218Y-58309515D01*
X170206694Y-58229787D01*
X170367464Y-58112981D01*
X170507981Y-57972464D01*
X170624787Y-57811694D01*
X170715005Y-57634632D01*
X170776413Y-57445636D01*
X170807500Y-57249361D01*
X170807500Y-57050639D01*
X170776413Y-56854364D01*
X170715005Y-56665368D01*
X170715005Y-56665367D01*
X170624786Y-56488305D01*
X170507981Y-56327536D01*
X170367464Y-56187019D01*
X170206694Y-56070213D01*
X170049667Y-55990203D01*
X169998872Y-55942229D01*
X169982077Y-55874408D01*
X170004614Y-55808273D01*
X170049669Y-55769234D01*
X170206422Y-55689364D01*
X170243716Y-55662268D01*
X169629095Y-55047647D01*
X169716571Y-55024208D01*
X169817930Y-54965689D01*
X169900689Y-54882930D01*
X169959208Y-54781571D01*
X169982647Y-54694094D01*
X170597268Y-55308715D01*
X170624362Y-55271425D01*
X170714542Y-55094437D01*
X170775924Y-54905523D01*
X170775924Y-54905520D01*
X170807000Y-54709321D01*
X170807000Y-54510678D01*
X170775924Y-54314479D01*
X170775924Y-54314476D01*
X170714542Y-54125562D01*
X170624358Y-53948567D01*
X170597268Y-53911283D01*
X169982647Y-54525904D01*
X169959208Y-54438429D01*
X169900689Y-54337070D01*
X169817930Y-54254311D01*
X169716571Y-54195792D01*
X169629094Y-54172352D01*
X170243716Y-53557731D01*
X170243715Y-53557730D01*
X170206432Y-53530641D01*
X170049668Y-53450765D01*
X169998872Y-53402790D01*
X169982077Y-53334969D01*
X170004615Y-53268834D01*
X170049667Y-53229796D01*
X170206694Y-53149787D01*
X170367464Y-53032981D01*
X170507981Y-52892464D01*
X170624787Y-52731694D01*
X170715005Y-52554632D01*
X170776413Y-52365636D01*
X170807500Y-52169361D01*
X170807500Y-51970639D01*
X170776413Y-51774364D01*
X170715005Y-51585368D01*
X170715005Y-51585367D01*
X170624786Y-51408305D01*
X170507981Y-51247536D01*
X170367464Y-51107019D01*
X170206694Y-50990213D01*
X170029632Y-50899994D01*
X170029629Y-50899993D01*
X169840637Y-50838587D01*
X169742498Y-50823043D01*
X169644361Y-50807500D01*
X169445639Y-50807500D01*
X169380214Y-50817862D01*
X169249362Y-50838587D01*
X169060370Y-50899993D01*
X169060367Y-50899994D01*
X168883305Y-50990213D01*
X168722533Y-51107021D01*
X168582021Y-51247533D01*
X168465213Y-51408305D01*
X168374994Y-51585367D01*
X168374993Y-51585370D01*
X168313587Y-51774362D01*
X168282500Y-51970639D01*
X155567500Y-51970639D01*
X155536413Y-51774364D01*
X155475005Y-51585368D01*
X155475005Y-51585367D01*
X155384786Y-51408305D01*
X155267981Y-51247536D01*
X155127464Y-51107019D01*
X154966694Y-50990213D01*
X154789632Y-50899994D01*
X154789629Y-50899993D01*
X154600637Y-50838587D01*
X154502498Y-50823043D01*
X154404361Y-50807500D01*
X154205639Y-50807500D01*
X154140214Y-50817862D01*
X154009362Y-50838587D01*
X153820370Y-50899993D01*
X153820367Y-50899994D01*
X153643305Y-50990213D01*
X153482533Y-51107021D01*
X153342021Y-51247533D01*
X153225213Y-51408305D01*
X153134994Y-51585367D01*
X153134993Y-51585370D01*
X153073587Y-51774362D01*
X153042500Y-51970639D01*
X153042500Y-52169360D01*
X153073587Y-52365637D01*
X153134993Y-52554629D01*
X153134994Y-52554632D01*
X153225213Y-52731694D01*
X153342019Y-52892464D01*
X153482536Y-53032981D01*
X153643306Y-53149787D01*
X153757323Y-53207882D01*
X153799780Y-53229515D01*
X153850576Y-53277490D01*
X153867371Y-53345311D01*
X153844833Y-53411446D01*
X153799780Y-53450485D01*
X153643305Y-53530213D01*
X153482533Y-53647021D01*
X153342021Y-53787533D01*
X153225213Y-53948305D01*
X153134994Y-54125367D01*
X153134993Y-54125370D01*
X153073587Y-54314362D01*
X153042500Y-54510639D01*
X153042500Y-54709360D01*
X153073587Y-54905637D01*
X153134993Y-55094629D01*
X153134994Y-55094632D01*
X153222116Y-55265616D01*
X153225213Y-55271694D01*
X153342019Y-55432464D01*
X153482536Y-55572981D01*
X153643306Y-55689787D01*
X153761832Y-55750179D01*
X153799780Y-55769515D01*
X153850576Y-55817490D01*
X153867371Y-55885311D01*
X153844833Y-55951446D01*
X153799780Y-55990485D01*
X153643305Y-56070213D01*
X153482533Y-56187021D01*
X153342021Y-56327533D01*
X153225213Y-56488305D01*
X153134994Y-56665367D01*
X153134993Y-56665370D01*
X153073587Y-56854362D01*
X153042500Y-57050639D01*
X153042500Y-57249360D01*
X153073587Y-57445637D01*
X153134993Y-57634629D01*
X153134994Y-57634632D01*
X153222217Y-57805815D01*
X153225213Y-57811694D01*
X153342019Y-57972464D01*
X153482536Y-58112981D01*
X153643306Y-58229787D01*
X153761832Y-58290179D01*
X153799780Y-58309515D01*
X153850576Y-58357490D01*
X153867371Y-58425311D01*
X153844833Y-58491446D01*
X153799780Y-58530485D01*
X153643305Y-58610213D01*
X153482533Y-58727021D01*
X153342021Y-58867533D01*
X153225213Y-59028305D01*
X153134994Y-59205367D01*
X153134993Y-59205370D01*
X153073587Y-59394362D01*
X153042500Y-59590639D01*
X153042500Y-59789360D01*
X153073587Y-59985637D01*
X153134993Y-60174629D01*
X153134994Y-60174632D01*
X153225213Y-60351694D01*
X153342019Y-60512464D01*
X153482536Y-60652981D01*
X153643306Y-60769787D01*
X153727107Y-60812486D01*
X153799780Y-60849515D01*
X153850576Y-60897490D01*
X153867371Y-60965311D01*
X153844833Y-61031446D01*
X153799780Y-61070485D01*
X153643305Y-61150213D01*
X153482533Y-61267021D01*
X153342021Y-61407533D01*
X153225213Y-61568305D01*
X153134994Y-61745367D01*
X153134993Y-61745370D01*
X153073587Y-61934362D01*
X153042500Y-62130639D01*
X153042500Y-62329360D01*
X153073587Y-62525637D01*
X153134993Y-62714629D01*
X153134994Y-62714632D01*
X153196447Y-62835238D01*
X153225213Y-62891694D01*
X153342019Y-63052464D01*
X153482536Y-63192981D01*
X153643306Y-63309787D01*
X153761832Y-63370179D01*
X153799780Y-63389515D01*
X153850576Y-63437490D01*
X153867371Y-63505311D01*
X153844833Y-63571446D01*
X153799780Y-63610485D01*
X153643305Y-63690213D01*
X153482533Y-63807021D01*
X153342021Y-63947533D01*
X153342014Y-63947542D01*
X153295808Y-64011138D01*
X153240478Y-64053804D01*
X153170864Y-64059782D01*
X153133492Y-64045639D01*
X153058990Y-64002626D01*
X153058986Y-64002624D01*
X153058984Y-64002623D01*
X152906257Y-63961700D01*
X152748143Y-63961700D01*
X152595416Y-64002623D01*
X152595409Y-64002626D01*
X152458490Y-64081675D01*
X152458482Y-64081681D01*
X152346681Y-64193482D01*
X152346675Y-64193490D01*
X152267626Y-64330409D01*
X152267623Y-64330416D01*
X152226700Y-64483143D01*
X152226700Y-65745530D01*
X152226699Y-65745548D01*
X152226699Y-65911254D01*
X152226698Y-65911254D01*
X75938500Y-65911254D01*
X75938500Y-60873389D01*
X80179500Y-60873389D01*
X80179500Y-61046611D01*
X80206598Y-61217701D01*
X80260127Y-61382445D01*
X80338768Y-61536788D01*
X80440586Y-61676928D01*
X80563072Y-61799414D01*
X80703212Y-61901232D01*
X80857555Y-61979873D01*
X81022299Y-62033402D01*
X81193389Y-62060500D01*
X81193390Y-62060500D01*
X81366610Y-62060500D01*
X81366611Y-62060500D01*
X81537701Y-62033402D01*
X81702445Y-61979873D01*
X81856788Y-61901232D01*
X81996928Y-61799414D01*
X82119414Y-61676928D01*
X82221232Y-61536788D01*
X82299873Y-61382445D01*
X82353402Y-61217701D01*
X82380500Y-61046611D01*
X82380500Y-60873389D01*
X82370854Y-60812486D01*
X84109500Y-60812486D01*
X84109500Y-61107513D01*
X84141571Y-61351113D01*
X84148007Y-61399993D01*
X84222212Y-61676930D01*
X84224361Y-61684951D01*
X84224364Y-61684961D01*
X84337254Y-61957500D01*
X84337258Y-61957510D01*
X84484761Y-62212993D01*
X84664352Y-62447040D01*
X84664358Y-62447047D01*
X84872952Y-62655641D01*
X84872959Y-62655647D01*
X85107006Y-62835238D01*
X85362489Y-62982741D01*
X85362490Y-62982741D01*
X85362493Y-62982743D01*
X85635048Y-63095639D01*
X85920007Y-63171993D01*
X86212494Y-63210500D01*
X86212501Y-63210500D01*
X86507499Y-63210500D01*
X86507506Y-63210500D01*
X86799993Y-63171993D01*
X87084952Y-63095639D01*
X87357507Y-62982743D01*
X87612994Y-62835238D01*
X87847042Y-62655646D01*
X88055646Y-62447042D01*
X88235238Y-62212994D01*
X88382743Y-61957507D01*
X88495639Y-61684952D01*
X88571993Y-61399993D01*
X88610500Y-61107506D01*
X88610500Y-60873389D01*
X90339500Y-60873389D01*
X90339500Y-61046611D01*
X90366598Y-61217701D01*
X90420127Y-61382445D01*
X90498768Y-61536788D01*
X90600586Y-61676928D01*
X90723072Y-61799414D01*
X90863212Y-61901232D01*
X91017555Y-61979873D01*
X91182299Y-62033402D01*
X91353389Y-62060500D01*
X91353390Y-62060500D01*
X91526610Y-62060500D01*
X91526611Y-62060500D01*
X91697701Y-62033402D01*
X91862445Y-61979873D01*
X92016788Y-61901232D01*
X92156928Y-61799414D01*
X92279414Y-61676928D01*
X92381232Y-61536788D01*
X92459873Y-61382445D01*
X92513402Y-61217701D01*
X92540500Y-61046611D01*
X92540500Y-60873389D01*
X98594500Y-60873389D01*
X98594500Y-61046611D01*
X98621598Y-61217701D01*
X98675127Y-61382445D01*
X98753768Y-61536788D01*
X98855586Y-61676928D01*
X98978072Y-61799414D01*
X99118212Y-61901232D01*
X99272555Y-61979873D01*
X99437299Y-62033402D01*
X99608389Y-62060500D01*
X99608390Y-62060500D01*
X99781610Y-62060500D01*
X99781611Y-62060500D01*
X99952701Y-62033402D01*
X100117445Y-61979873D01*
X100271788Y-61901232D01*
X100411928Y-61799414D01*
X100534414Y-61676928D01*
X100636232Y-61536788D01*
X100714873Y-61382445D01*
X100768402Y-61217701D01*
X100795500Y-61046611D01*
X100795500Y-60873389D01*
X100785854Y-60812486D01*
X102524500Y-60812486D01*
X102524500Y-61107513D01*
X102556571Y-61351113D01*
X102563007Y-61399993D01*
X102637212Y-61676930D01*
X102639361Y-61684951D01*
X102639364Y-61684961D01*
X102752254Y-61957500D01*
X102752258Y-61957510D01*
X102899761Y-62212993D01*
X103079352Y-62447040D01*
X103079358Y-62447047D01*
X103287952Y-62655641D01*
X103287959Y-62655647D01*
X103522006Y-62835238D01*
X103777489Y-62982741D01*
X103777490Y-62982741D01*
X103777493Y-62982743D01*
X104050048Y-63095639D01*
X104335007Y-63171993D01*
X104627494Y-63210500D01*
X104627501Y-63210500D01*
X104922499Y-63210500D01*
X104922506Y-63210500D01*
X105214993Y-63171993D01*
X105499952Y-63095639D01*
X105772507Y-62982743D01*
X106027994Y-62835238D01*
X106262042Y-62655646D01*
X106470646Y-62447042D01*
X106650238Y-62212994D01*
X106797743Y-61957507D01*
X106910639Y-61684952D01*
X106986993Y-61399993D01*
X107025500Y-61107506D01*
X107025500Y-60873389D01*
X108754500Y-60873389D01*
X108754500Y-61046611D01*
X108781598Y-61217701D01*
X108835127Y-61382445D01*
X108913768Y-61536788D01*
X109015586Y-61676928D01*
X109138072Y-61799414D01*
X109278212Y-61901232D01*
X109432555Y-61979873D01*
X109597299Y-62033402D01*
X109768389Y-62060500D01*
X109768390Y-62060500D01*
X109941610Y-62060500D01*
X109941611Y-62060500D01*
X110112701Y-62033402D01*
X110277445Y-61979873D01*
X110431788Y-61901232D01*
X110571928Y-61799414D01*
X110694414Y-61676928D01*
X110796232Y-61536788D01*
X110874873Y-61382445D01*
X110928402Y-61217701D01*
X110955500Y-61046611D01*
X110955500Y-60873389D01*
X117009500Y-60873389D01*
X117009500Y-61046611D01*
X117036598Y-61217701D01*
X117090127Y-61382445D01*
X117168768Y-61536788D01*
X117270586Y-61676928D01*
X117393072Y-61799414D01*
X117533212Y-61901232D01*
X117687555Y-61979873D01*
X117852299Y-62033402D01*
X118023389Y-62060500D01*
X118023390Y-62060500D01*
X118196610Y-62060500D01*
X118196611Y-62060500D01*
X118367701Y-62033402D01*
X118532445Y-61979873D01*
X118686788Y-61901232D01*
X118826928Y-61799414D01*
X118949414Y-61676928D01*
X119051232Y-61536788D01*
X119129873Y-61382445D01*
X119183402Y-61217701D01*
X119210500Y-61046611D01*
X119210500Y-60873389D01*
X119200854Y-60812486D01*
X120939500Y-60812486D01*
X120939500Y-61107513D01*
X120971571Y-61351113D01*
X120978007Y-61399993D01*
X121052212Y-61676930D01*
X121054361Y-61684951D01*
X121054364Y-61684961D01*
X121167254Y-61957500D01*
X121167258Y-61957510D01*
X121314761Y-62212993D01*
X121494352Y-62447040D01*
X121494358Y-62447047D01*
X121702952Y-62655641D01*
X121702959Y-62655647D01*
X121937006Y-62835238D01*
X122192489Y-62982741D01*
X122192490Y-62982741D01*
X122192493Y-62982743D01*
X122465048Y-63095639D01*
X122750007Y-63171993D01*
X123042494Y-63210500D01*
X123042501Y-63210500D01*
X123337499Y-63210500D01*
X123337506Y-63210500D01*
X123629993Y-63171993D01*
X123914952Y-63095639D01*
X124187507Y-62982743D01*
X124442994Y-62835238D01*
X124677042Y-62655646D01*
X124885646Y-62447042D01*
X125065238Y-62212994D01*
X125212743Y-61957507D01*
X125325639Y-61684952D01*
X125401993Y-61399993D01*
X125440500Y-61107506D01*
X125440500Y-60873389D01*
X127169500Y-60873389D01*
X127169500Y-61046611D01*
X127196598Y-61217701D01*
X127250127Y-61382445D01*
X127328768Y-61536788D01*
X127430586Y-61676928D01*
X127553072Y-61799414D01*
X127693212Y-61901232D01*
X127847555Y-61979873D01*
X128012299Y-62033402D01*
X128183389Y-62060500D01*
X128183390Y-62060500D01*
X128356610Y-62060500D01*
X128356611Y-62060500D01*
X128527701Y-62033402D01*
X128692445Y-61979873D01*
X128846788Y-61901232D01*
X128986928Y-61799414D01*
X129109414Y-61676928D01*
X129211232Y-61536788D01*
X129289873Y-61382445D01*
X129343402Y-61217701D01*
X129370500Y-61046611D01*
X129370500Y-60873389D01*
X135424500Y-60873389D01*
X135424500Y-61046611D01*
X135451598Y-61217701D01*
X135505127Y-61382445D01*
X135583768Y-61536788D01*
X135685586Y-61676928D01*
X135808072Y-61799414D01*
X135948212Y-61901232D01*
X136102555Y-61979873D01*
X136267299Y-62033402D01*
X136438389Y-62060500D01*
X136438390Y-62060500D01*
X136611610Y-62060500D01*
X136611611Y-62060500D01*
X136782701Y-62033402D01*
X136947445Y-61979873D01*
X137101788Y-61901232D01*
X137241928Y-61799414D01*
X137364414Y-61676928D01*
X137466232Y-61536788D01*
X137544873Y-61382445D01*
X137598402Y-61217701D01*
X137625500Y-61046611D01*
X137625500Y-60873389D01*
X137615854Y-60812486D01*
X139354500Y-60812486D01*
X139354500Y-61107513D01*
X139386571Y-61351113D01*
X139393007Y-61399993D01*
X139467212Y-61676930D01*
X139469361Y-61684951D01*
X139469364Y-61684961D01*
X139582254Y-61957500D01*
X139582258Y-61957510D01*
X139729761Y-62212993D01*
X139909352Y-62447040D01*
X139909358Y-62447047D01*
X140117952Y-62655641D01*
X140117959Y-62655647D01*
X140352006Y-62835238D01*
X140607489Y-62982741D01*
X140607490Y-62982741D01*
X140607493Y-62982743D01*
X140880048Y-63095639D01*
X141165007Y-63171993D01*
X141457494Y-63210500D01*
X141457501Y-63210500D01*
X141752499Y-63210500D01*
X141752506Y-63210500D01*
X142044993Y-63171993D01*
X142329952Y-63095639D01*
X142602507Y-62982743D01*
X142857994Y-62835238D01*
X143092042Y-62655646D01*
X143300646Y-62447042D01*
X143480238Y-62212994D01*
X143627743Y-61957507D01*
X143740639Y-61684952D01*
X143816993Y-61399993D01*
X143855500Y-61107506D01*
X143855500Y-60873389D01*
X145584500Y-60873389D01*
X145584500Y-61046611D01*
X145611598Y-61217701D01*
X145665127Y-61382445D01*
X145743768Y-61536788D01*
X145845586Y-61676928D01*
X145968072Y-61799414D01*
X146108212Y-61901232D01*
X146262555Y-61979873D01*
X146427299Y-62033402D01*
X146598389Y-62060500D01*
X146598390Y-62060500D01*
X146771610Y-62060500D01*
X146771611Y-62060500D01*
X146942701Y-62033402D01*
X147107445Y-61979873D01*
X147261788Y-61901232D01*
X147401928Y-61799414D01*
X147524414Y-61676928D01*
X147626232Y-61536788D01*
X147704873Y-61382445D01*
X147758402Y-61217701D01*
X147785500Y-61046611D01*
X147785500Y-60873389D01*
X147758402Y-60702299D01*
X147704873Y-60537555D01*
X147626232Y-60383212D01*
X147524414Y-60243072D01*
X147401928Y-60120586D01*
X147261788Y-60018768D01*
X147107445Y-59940127D01*
X146942701Y-59886598D01*
X146942699Y-59886597D01*
X146942698Y-59886597D01*
X146811271Y-59865781D01*
X146771611Y-59859500D01*
X146598389Y-59859500D01*
X146558728Y-59865781D01*
X146427302Y-59886597D01*
X146262552Y-59940128D01*
X146108211Y-60018768D01*
X146052115Y-60059525D01*
X145968072Y-60120586D01*
X145968070Y-60120588D01*
X145968069Y-60120588D01*
X145845588Y-60243069D01*
X145845588Y-60243070D01*
X145845586Y-60243072D01*
X145801859Y-60303256D01*
X145743768Y-60383211D01*
X145665128Y-60537552D01*
X145611597Y-60702302D01*
X145588281Y-60849515D01*
X145584500Y-60873389D01*
X143855500Y-60873389D01*
X143855500Y-60812494D01*
X143816993Y-60520007D01*
X143740639Y-60235048D01*
X143627743Y-59962493D01*
X143577604Y-59875650D01*
X143480238Y-59707006D01*
X143300647Y-59472959D01*
X143300641Y-59472952D01*
X143092047Y-59264358D01*
X143092040Y-59264352D01*
X142857993Y-59084761D01*
X142602510Y-58937258D01*
X142602500Y-58937254D01*
X142329961Y-58824364D01*
X142329954Y-58824362D01*
X142329952Y-58824361D01*
X142044993Y-58748007D01*
X141996113Y-58741571D01*
X141752513Y-58709500D01*
X141752506Y-58709500D01*
X141457494Y-58709500D01*
X141457486Y-58709500D01*
X141179085Y-58746153D01*
X141165007Y-58748007D01*
X140990861Y-58794669D01*
X140880048Y-58824361D01*
X140880038Y-58824364D01*
X140607499Y-58937254D01*
X140607489Y-58937258D01*
X140352006Y-59084761D01*
X140117959Y-59264352D01*
X140117952Y-59264358D01*
X139909358Y-59472952D01*
X139909352Y-59472959D01*
X139729761Y-59707006D01*
X139582258Y-59962489D01*
X139582254Y-59962499D01*
X139469364Y-60235038D01*
X139469361Y-60235048D01*
X139393008Y-60520004D01*
X139393006Y-60520015D01*
X139354500Y-60812486D01*
X137615854Y-60812486D01*
X137598402Y-60702299D01*
X137544873Y-60537555D01*
X137466232Y-60383212D01*
X137364414Y-60243072D01*
X137311882Y-60190540D01*
X137278397Y-60129217D01*
X137283381Y-60059525D01*
X137325253Y-60003592D01*
X137390717Y-59979175D01*
X137418961Y-59980386D01*
X137669072Y-60020000D01*
X137920928Y-60020000D01*
X138169669Y-59980602D01*
X138409184Y-59902780D01*
X138633575Y-59788446D01*
X138633581Y-59788442D01*
X138735697Y-59714250D01*
X138735698Y-59714250D01*
X138119025Y-59097578D01*
X138150258Y-59084641D01*
X138273097Y-59002563D01*
X138377563Y-58898097D01*
X138459641Y-58775258D01*
X138472578Y-58744025D01*
X139089250Y-59360698D01*
X139089250Y-59360697D01*
X139163442Y-59258581D01*
X139163446Y-59258575D01*
X139277780Y-59034184D01*
X139355602Y-58794669D01*
X139395000Y-58545928D01*
X139395000Y-58294071D01*
X139355602Y-58045330D01*
X139277780Y-57805815D01*
X139163442Y-57581416D01*
X139089250Y-57479301D01*
X139089250Y-57479300D01*
X138472577Y-58095973D01*
X138459641Y-58064742D01*
X138377563Y-57941903D01*
X138273097Y-57837437D01*
X138150258Y-57755359D01*
X138119024Y-57742421D01*
X138735698Y-57125748D01*
X138633583Y-57051557D01*
X138409184Y-56937219D01*
X138169669Y-56859397D01*
X137920928Y-56820000D01*
X137669072Y-56820000D01*
X137420330Y-56859397D01*
X137180815Y-56937219D01*
X136956413Y-57051559D01*
X136854301Y-57125747D01*
X136854300Y-57125748D01*
X137470974Y-57742421D01*
X137439742Y-57755359D01*
X137316903Y-57837437D01*
X137212437Y-57941903D01*
X137130359Y-58064742D01*
X137117421Y-58095974D01*
X136500748Y-57479300D01*
X136500747Y-57479301D01*
X136426559Y-57581413D01*
X136312219Y-57805815D01*
X136234397Y-58045330D01*
X136195000Y-58294071D01*
X136195000Y-58545928D01*
X136234397Y-58794669D01*
X136312219Y-59034184D01*
X136426557Y-59258583D01*
X136500748Y-59360697D01*
X136500748Y-59360698D01*
X137117421Y-58744024D01*
X137130359Y-58775258D01*
X137212437Y-58898097D01*
X137316903Y-59002563D01*
X137439742Y-59084641D01*
X137470974Y-59097577D01*
X136854300Y-59714250D01*
X136856598Y-59743449D01*
X136842233Y-59811827D01*
X136793181Y-59861583D01*
X136725016Y-59876921D01*
X136713583Y-59875650D01*
X136611611Y-59859500D01*
X136438389Y-59859500D01*
X136398728Y-59865781D01*
X136267302Y-59886597D01*
X136102552Y-59940128D01*
X135948211Y-60018768D01*
X135892115Y-60059525D01*
X135808072Y-60120586D01*
X135808070Y-60120588D01*
X135808069Y-60120588D01*
X135685588Y-60243069D01*
X135685588Y-60243070D01*
X135685586Y-60243072D01*
X135641859Y-60303256D01*
X135583768Y-60383211D01*
X135505128Y-60537552D01*
X135451597Y-60702302D01*
X135428281Y-60849515D01*
X135424500Y-60873389D01*
X129370500Y-60873389D01*
X129343402Y-60702299D01*
X129289873Y-60537555D01*
X129211232Y-60383212D01*
X129109414Y-60243072D01*
X128986928Y-60120586D01*
X128846788Y-60018768D01*
X128692445Y-59940127D01*
X128527701Y-59886598D01*
X128527699Y-59886597D01*
X128527698Y-59886597D01*
X128396271Y-59865781D01*
X128356611Y-59859500D01*
X128183389Y-59859500D01*
X128143728Y-59865781D01*
X128012302Y-59886597D01*
X127847552Y-59940128D01*
X127693211Y-60018768D01*
X127637115Y-60059525D01*
X127553072Y-60120586D01*
X127553070Y-60120588D01*
X127553069Y-60120588D01*
X127430588Y-60243069D01*
X127430588Y-60243070D01*
X127430586Y-60243072D01*
X127386859Y-60303256D01*
X127328768Y-60383211D01*
X127250128Y-60537552D01*
X127196597Y-60702302D01*
X127173281Y-60849515D01*
X127169500Y-60873389D01*
X125440500Y-60873389D01*
X125440500Y-60812494D01*
X125401993Y-60520007D01*
X125325639Y-60235048D01*
X125212743Y-59962493D01*
X125162604Y-59875650D01*
X125065238Y-59707006D01*
X124885647Y-59472959D01*
X124885641Y-59472952D01*
X124677047Y-59264358D01*
X124677040Y-59264352D01*
X124442993Y-59084761D01*
X124187510Y-58937258D01*
X124187500Y-58937254D01*
X123914961Y-58824364D01*
X123914954Y-58824362D01*
X123914952Y-58824361D01*
X123629993Y-58748007D01*
X123581113Y-58741571D01*
X123337513Y-58709500D01*
X123337506Y-58709500D01*
X123042494Y-58709500D01*
X123042486Y-58709500D01*
X122764085Y-58746153D01*
X122750007Y-58748007D01*
X122575861Y-58794669D01*
X122465048Y-58824361D01*
X122465038Y-58824364D01*
X122192499Y-58937254D01*
X122192489Y-58937258D01*
X121937006Y-59084761D01*
X121702959Y-59264352D01*
X121702952Y-59264358D01*
X121494358Y-59472952D01*
X121494352Y-59472959D01*
X121314761Y-59707006D01*
X121167258Y-59962489D01*
X121167254Y-59962499D01*
X121054364Y-60235038D01*
X121054361Y-60235048D01*
X120978008Y-60520004D01*
X120978006Y-60520015D01*
X120939500Y-60812486D01*
X119200854Y-60812486D01*
X119183402Y-60702299D01*
X119129873Y-60537555D01*
X119051232Y-60383212D01*
X118949414Y-60243072D01*
X118896882Y-60190540D01*
X118863397Y-60129217D01*
X118868381Y-60059525D01*
X118910253Y-60003592D01*
X118975717Y-59979175D01*
X119003961Y-59980386D01*
X119254072Y-60020000D01*
X119505928Y-60020000D01*
X119754669Y-59980602D01*
X119994184Y-59902780D01*
X120218575Y-59788446D01*
X120218581Y-59788442D01*
X120320697Y-59714250D01*
X120320698Y-59714250D01*
X119704025Y-59097578D01*
X119735258Y-59084641D01*
X119858097Y-59002563D01*
X119962563Y-58898097D01*
X120044641Y-58775258D01*
X120057577Y-58744025D01*
X120674250Y-59360698D01*
X120674250Y-59360697D01*
X120748442Y-59258581D01*
X120748446Y-59258575D01*
X120862780Y-59034184D01*
X120940602Y-58794669D01*
X120980000Y-58545928D01*
X120980000Y-58294071D01*
X120940602Y-58045330D01*
X120862780Y-57805815D01*
X120748442Y-57581416D01*
X120674250Y-57479301D01*
X120674250Y-57479300D01*
X120057577Y-58095973D01*
X120044641Y-58064742D01*
X119962563Y-57941903D01*
X119858097Y-57837437D01*
X119735258Y-57755359D01*
X119704024Y-57742421D01*
X120320698Y-57125748D01*
X120218583Y-57051557D01*
X119994184Y-56937219D01*
X119754669Y-56859397D01*
X119505928Y-56820000D01*
X119254072Y-56820000D01*
X119005330Y-56859397D01*
X118765815Y-56937219D01*
X118541413Y-57051559D01*
X118439301Y-57125747D01*
X118439300Y-57125748D01*
X119055974Y-57742421D01*
X119024742Y-57755359D01*
X118901903Y-57837437D01*
X118797437Y-57941903D01*
X118715359Y-58064742D01*
X118702421Y-58095974D01*
X118085748Y-57479300D01*
X118085747Y-57479301D01*
X118011559Y-57581413D01*
X117897219Y-57805815D01*
X117819397Y-58045330D01*
X117780000Y-58294071D01*
X117780000Y-58545928D01*
X117819397Y-58794669D01*
X117897219Y-59034184D01*
X118011557Y-59258583D01*
X118085748Y-59360697D01*
X118085748Y-59360698D01*
X118702421Y-58744024D01*
X118715359Y-58775258D01*
X118797437Y-58898097D01*
X118901903Y-59002563D01*
X119024742Y-59084641D01*
X119055974Y-59097577D01*
X118439300Y-59714250D01*
X118441598Y-59743449D01*
X118427233Y-59811827D01*
X118378181Y-59861583D01*
X118310016Y-59876921D01*
X118298583Y-59875650D01*
X118196611Y-59859500D01*
X118023389Y-59859500D01*
X117983728Y-59865781D01*
X117852302Y-59886597D01*
X117687552Y-59940128D01*
X117533211Y-60018768D01*
X117477115Y-60059525D01*
X117393072Y-60120586D01*
X117393070Y-60120588D01*
X117393069Y-60120588D01*
X117270588Y-60243069D01*
X117270588Y-60243070D01*
X117270586Y-60243072D01*
X117226859Y-60303256D01*
X117168768Y-60383211D01*
X117090128Y-60537552D01*
X117036597Y-60702302D01*
X117013281Y-60849515D01*
X117009500Y-60873389D01*
X110955500Y-60873389D01*
X110928402Y-60702299D01*
X110874873Y-60537555D01*
X110796232Y-60383212D01*
X110694414Y-60243072D01*
X110571928Y-60120586D01*
X110431788Y-60018768D01*
X110277445Y-59940127D01*
X110112701Y-59886598D01*
X110112699Y-59886597D01*
X110112698Y-59886597D01*
X109981271Y-59865781D01*
X109941611Y-59859500D01*
X109768389Y-59859500D01*
X109728728Y-59865781D01*
X109597302Y-59886597D01*
X109432552Y-59940128D01*
X109278211Y-60018768D01*
X109222115Y-60059525D01*
X109138072Y-60120586D01*
X109138070Y-60120588D01*
X109138069Y-60120588D01*
X109015588Y-60243069D01*
X109015588Y-60243070D01*
X109015586Y-60243072D01*
X108971859Y-60303256D01*
X108913768Y-60383211D01*
X108835128Y-60537552D01*
X108781597Y-60702302D01*
X108758281Y-60849515D01*
X108754500Y-60873389D01*
X107025500Y-60873389D01*
X107025500Y-60812494D01*
X106986993Y-60520007D01*
X106910639Y-60235048D01*
X106797743Y-59962493D01*
X106747604Y-59875650D01*
X106650238Y-59707006D01*
X106470647Y-59472959D01*
X106470641Y-59472952D01*
X106262047Y-59264358D01*
X106262040Y-59264352D01*
X106027993Y-59084761D01*
X105772510Y-58937258D01*
X105772500Y-58937254D01*
X105499961Y-58824364D01*
X105499954Y-58824362D01*
X105499952Y-58824361D01*
X105214993Y-58748007D01*
X105166113Y-58741571D01*
X104922513Y-58709500D01*
X104922506Y-58709500D01*
X104627494Y-58709500D01*
X104627486Y-58709500D01*
X104349085Y-58746153D01*
X104335007Y-58748007D01*
X104160861Y-58794669D01*
X104050048Y-58824361D01*
X104050038Y-58824364D01*
X103777499Y-58937254D01*
X103777489Y-58937258D01*
X103522006Y-59084761D01*
X103287959Y-59264352D01*
X103287952Y-59264358D01*
X103079358Y-59472952D01*
X103079352Y-59472959D01*
X102899761Y-59707006D01*
X102752258Y-59962489D01*
X102752254Y-59962499D01*
X102639364Y-60235038D01*
X102639361Y-60235048D01*
X102563008Y-60520004D01*
X102563006Y-60520015D01*
X102524500Y-60812486D01*
X100785854Y-60812486D01*
X100768402Y-60702299D01*
X100714873Y-60537555D01*
X100636232Y-60383212D01*
X100534414Y-60243072D01*
X100481882Y-60190540D01*
X100448397Y-60129217D01*
X100453381Y-60059525D01*
X100495253Y-60003592D01*
X100560717Y-59979175D01*
X100588961Y-59980386D01*
X100839072Y-60020000D01*
X101090928Y-60020000D01*
X101339669Y-59980602D01*
X101579184Y-59902780D01*
X101803575Y-59788446D01*
X101803581Y-59788442D01*
X101905697Y-59714250D01*
X101905698Y-59714250D01*
X101289025Y-59097578D01*
X101320258Y-59084641D01*
X101443097Y-59002563D01*
X101547563Y-58898097D01*
X101629641Y-58775258D01*
X101642577Y-58744025D01*
X102259250Y-59360698D01*
X102259250Y-59360697D01*
X102333442Y-59258581D01*
X102333446Y-59258575D01*
X102447780Y-59034184D01*
X102525602Y-58794669D01*
X102565000Y-58545928D01*
X102565000Y-58294071D01*
X102525602Y-58045330D01*
X102447780Y-57805815D01*
X102333442Y-57581416D01*
X102259250Y-57479301D01*
X102259250Y-57479300D01*
X101642577Y-58095973D01*
X101629641Y-58064742D01*
X101547563Y-57941903D01*
X101443097Y-57837437D01*
X101320258Y-57755359D01*
X101289024Y-57742421D01*
X101905698Y-57125748D01*
X101803583Y-57051557D01*
X101579184Y-56937219D01*
X101339669Y-56859397D01*
X101090928Y-56820000D01*
X100839072Y-56820000D01*
X100590330Y-56859397D01*
X100350815Y-56937219D01*
X100126413Y-57051559D01*
X100024301Y-57125747D01*
X100024300Y-57125748D01*
X100640974Y-57742421D01*
X100609742Y-57755359D01*
X100486903Y-57837437D01*
X100382437Y-57941903D01*
X100300359Y-58064742D01*
X100287421Y-58095974D01*
X99670748Y-57479300D01*
X99670747Y-57479301D01*
X99596559Y-57581413D01*
X99482219Y-57805815D01*
X99404397Y-58045330D01*
X99365000Y-58294071D01*
X99365000Y-58545928D01*
X99404397Y-58794669D01*
X99482219Y-59034184D01*
X99596557Y-59258583D01*
X99670748Y-59360697D01*
X99670748Y-59360698D01*
X100287421Y-58744024D01*
X100300359Y-58775258D01*
X100382437Y-58898097D01*
X100486903Y-59002563D01*
X100609742Y-59084641D01*
X100640974Y-59097577D01*
X100024300Y-59714250D01*
X100026598Y-59743449D01*
X100012233Y-59811827D01*
X99963181Y-59861583D01*
X99895016Y-59876921D01*
X99883583Y-59875650D01*
X99781611Y-59859500D01*
X99608389Y-59859500D01*
X99568728Y-59865781D01*
X99437302Y-59886597D01*
X99272552Y-59940128D01*
X99118211Y-60018768D01*
X99062115Y-60059525D01*
X98978072Y-60120586D01*
X98978070Y-60120588D01*
X98978069Y-60120588D01*
X98855588Y-60243069D01*
X98855588Y-60243070D01*
X98855586Y-60243072D01*
X98811859Y-60303256D01*
X98753768Y-60383211D01*
X98675128Y-60537552D01*
X98621597Y-60702302D01*
X98598281Y-60849515D01*
X98594500Y-60873389D01*
X92540500Y-60873389D01*
X92513402Y-60702299D01*
X92459873Y-60537555D01*
X92381232Y-60383212D01*
X92279414Y-60243072D01*
X92156928Y-60120586D01*
X92016788Y-60018768D01*
X91862445Y-59940127D01*
X91697701Y-59886598D01*
X91697699Y-59886597D01*
X91697698Y-59886597D01*
X91566271Y-59865781D01*
X91526611Y-59859500D01*
X91353389Y-59859500D01*
X91313728Y-59865781D01*
X91182302Y-59886597D01*
X91017552Y-59940128D01*
X90863211Y-60018768D01*
X90807115Y-60059525D01*
X90723072Y-60120586D01*
X90723070Y-60120588D01*
X90723069Y-60120588D01*
X90600588Y-60243069D01*
X90600588Y-60243070D01*
X90600586Y-60243072D01*
X90556859Y-60303256D01*
X90498768Y-60383211D01*
X90420128Y-60537552D01*
X90366597Y-60702302D01*
X90343281Y-60849515D01*
X90339500Y-60873389D01*
X88610500Y-60873389D01*
X88610500Y-60812494D01*
X88571993Y-60520007D01*
X88495639Y-60235048D01*
X88382743Y-59962493D01*
X88332604Y-59875650D01*
X88235238Y-59707006D01*
X88055647Y-59472959D01*
X88055641Y-59472952D01*
X87847047Y-59264358D01*
X87847040Y-59264352D01*
X87612993Y-59084761D01*
X87357510Y-58937258D01*
X87357500Y-58937254D01*
X87084961Y-58824364D01*
X87084954Y-58824362D01*
X87084952Y-58824361D01*
X86799993Y-58748007D01*
X86751113Y-58741571D01*
X86507513Y-58709500D01*
X86507506Y-58709500D01*
X86212494Y-58709500D01*
X86212486Y-58709500D01*
X85934085Y-58746153D01*
X85920007Y-58748007D01*
X85745861Y-58794669D01*
X85635048Y-58824361D01*
X85635038Y-58824364D01*
X85362499Y-58937254D01*
X85362489Y-58937258D01*
X85107006Y-59084761D01*
X84872959Y-59264352D01*
X84872952Y-59264358D01*
X84664358Y-59472952D01*
X84664352Y-59472959D01*
X84484761Y-59707006D01*
X84337258Y-59962489D01*
X84337254Y-59962499D01*
X84224364Y-60235038D01*
X84224361Y-60235048D01*
X84148008Y-60520004D01*
X84148006Y-60520015D01*
X84109500Y-60812486D01*
X82370854Y-60812486D01*
X82353402Y-60702299D01*
X82299873Y-60537555D01*
X82221232Y-60383212D01*
X82119414Y-60243072D01*
X82066882Y-60190540D01*
X82033397Y-60129217D01*
X82038381Y-60059525D01*
X82080253Y-60003592D01*
X82145717Y-59979175D01*
X82173961Y-59980386D01*
X82424072Y-60020000D01*
X82675928Y-60020000D01*
X82924669Y-59980602D01*
X83164184Y-59902780D01*
X83388575Y-59788446D01*
X83388581Y-59788442D01*
X83490697Y-59714250D01*
X83490698Y-59714250D01*
X82874025Y-59097578D01*
X82905258Y-59084641D01*
X83028097Y-59002563D01*
X83132563Y-58898097D01*
X83214641Y-58775258D01*
X83227577Y-58744025D01*
X83844250Y-59360698D01*
X83844250Y-59360697D01*
X83918442Y-59258581D01*
X83918446Y-59258575D01*
X84032780Y-59034184D01*
X84110602Y-58794669D01*
X84150000Y-58545928D01*
X84150000Y-58294071D01*
X84110602Y-58045330D01*
X84032780Y-57805815D01*
X83918442Y-57581416D01*
X83844250Y-57479301D01*
X83844250Y-57479300D01*
X83227577Y-58095973D01*
X83214641Y-58064742D01*
X83132563Y-57941903D01*
X83028097Y-57837437D01*
X82905258Y-57755359D01*
X82874024Y-57742421D01*
X83490698Y-57125748D01*
X83388583Y-57051557D01*
X83164184Y-56937219D01*
X82924669Y-56859397D01*
X82675928Y-56820000D01*
X82424072Y-56820000D01*
X82175330Y-56859397D01*
X81935815Y-56937219D01*
X81711413Y-57051559D01*
X81609301Y-57125747D01*
X81609300Y-57125748D01*
X82225974Y-57742421D01*
X82194742Y-57755359D01*
X82071903Y-57837437D01*
X81967437Y-57941903D01*
X81885359Y-58064742D01*
X81872421Y-58095974D01*
X81255748Y-57479300D01*
X81255747Y-57479301D01*
X81181559Y-57581413D01*
X81067219Y-57805815D01*
X80989397Y-58045330D01*
X80950000Y-58294071D01*
X80950000Y-58545928D01*
X80989397Y-58794669D01*
X81067219Y-59034184D01*
X81181557Y-59258583D01*
X81255748Y-59360697D01*
X81255748Y-59360698D01*
X81872421Y-58744024D01*
X81885359Y-58775258D01*
X81967437Y-58898097D01*
X82071903Y-59002563D01*
X82194742Y-59084641D01*
X82225974Y-59097577D01*
X81609300Y-59714250D01*
X81611598Y-59743449D01*
X81597233Y-59811827D01*
X81548181Y-59861583D01*
X81480016Y-59876921D01*
X81468583Y-59875650D01*
X81366611Y-59859500D01*
X81193389Y-59859500D01*
X81153728Y-59865781D01*
X81022302Y-59886597D01*
X80857552Y-59940128D01*
X80703211Y-60018768D01*
X80647115Y-60059525D01*
X80563072Y-60120586D01*
X80563070Y-60120588D01*
X80563069Y-60120588D01*
X80440588Y-60243069D01*
X80440588Y-60243070D01*
X80440586Y-60243072D01*
X80396859Y-60303256D01*
X80338768Y-60383211D01*
X80260128Y-60537552D01*
X80206597Y-60702302D01*
X80183281Y-60849515D01*
X80179500Y-60873389D01*
X75938500Y-60873389D01*
X75938500Y-55754038D01*
X87299500Y-55754038D01*
X87299500Y-56005962D01*
X87328177Y-56187019D01*
X87338910Y-56254785D01*
X87416760Y-56494383D01*
X87531132Y-56718848D01*
X87679201Y-56922649D01*
X87679205Y-56922654D01*
X87857345Y-57100794D01*
X87857350Y-57100798D01*
X88035117Y-57229952D01*
X88061155Y-57248870D01*
X88204184Y-57321747D01*
X88285616Y-57363239D01*
X88285618Y-57363239D01*
X88285621Y-57363241D01*
X88525215Y-57441090D01*
X88774038Y-57480500D01*
X88774039Y-57480500D01*
X89025961Y-57480500D01*
X89025962Y-57480500D01*
X89274785Y-57441090D01*
X89514379Y-57363241D01*
X89738845Y-57248870D01*
X89942656Y-57100793D01*
X90120793Y-56922656D01*
X90268870Y-56718845D01*
X90383241Y-56494379D01*
X90461090Y-56254785D01*
X90500500Y-56005962D01*
X90500500Y-55754038D01*
X105714500Y-55754038D01*
X105714500Y-56005962D01*
X105743177Y-56187019D01*
X105753910Y-56254785D01*
X105831760Y-56494383D01*
X105946132Y-56718848D01*
X106094201Y-56922649D01*
X106094205Y-56922654D01*
X106272345Y-57100794D01*
X106272350Y-57100798D01*
X106450117Y-57229952D01*
X106476155Y-57248870D01*
X106619184Y-57321747D01*
X106700616Y-57363239D01*
X106700618Y-57363239D01*
X106700621Y-57363241D01*
X106940215Y-57441090D01*
X107189038Y-57480500D01*
X107189039Y-57480500D01*
X107440961Y-57480500D01*
X107440962Y-57480500D01*
X107689785Y-57441090D01*
X107929379Y-57363241D01*
X108153845Y-57248870D01*
X108357656Y-57100793D01*
X108535793Y-56922656D01*
X108683870Y-56718845D01*
X108798241Y-56494379D01*
X108876090Y-56254785D01*
X108915500Y-56005962D01*
X108915500Y-55754038D01*
X124129500Y-55754038D01*
X124129500Y-56005962D01*
X124158177Y-56187019D01*
X124168910Y-56254785D01*
X124246760Y-56494383D01*
X124361132Y-56718848D01*
X124509201Y-56922649D01*
X124509205Y-56922654D01*
X124687345Y-57100794D01*
X124687350Y-57100798D01*
X124865117Y-57229952D01*
X124891155Y-57248870D01*
X125034184Y-57321747D01*
X125115616Y-57363239D01*
X125115618Y-57363239D01*
X125115621Y-57363241D01*
X125355215Y-57441090D01*
X125604038Y-57480500D01*
X125604039Y-57480500D01*
X125855961Y-57480500D01*
X125855962Y-57480500D01*
X126104785Y-57441090D01*
X126344379Y-57363241D01*
X126568845Y-57248870D01*
X126772656Y-57100793D01*
X126950793Y-56922656D01*
X127098870Y-56718845D01*
X127213241Y-56494379D01*
X127291090Y-56254785D01*
X127330500Y-56005962D01*
X127330500Y-55754038D01*
X142544500Y-55754038D01*
X142544500Y-56005962D01*
X142573177Y-56187019D01*
X142583910Y-56254785D01*
X142661760Y-56494383D01*
X142776132Y-56718848D01*
X142924201Y-56922649D01*
X142924205Y-56922654D01*
X143102345Y-57100794D01*
X143102350Y-57100798D01*
X143280117Y-57229952D01*
X143306155Y-57248870D01*
X143449184Y-57321747D01*
X143530616Y-57363239D01*
X143530618Y-57363239D01*
X143530621Y-57363241D01*
X143770215Y-57441090D01*
X144019038Y-57480500D01*
X144019039Y-57480500D01*
X144270961Y-57480500D01*
X144270962Y-57480500D01*
X144519785Y-57441090D01*
X144759379Y-57363241D01*
X144983845Y-57248870D01*
X145187656Y-57100793D01*
X145365793Y-56922656D01*
X145513870Y-56718845D01*
X145628241Y-56494379D01*
X145706090Y-56254785D01*
X145745500Y-56005962D01*
X145745500Y-55754038D01*
X145706090Y-55505215D01*
X145628241Y-55265621D01*
X145628239Y-55265618D01*
X145628239Y-55265616D01*
X145586747Y-55184184D01*
X145513870Y-55041155D01*
X145415326Y-54905520D01*
X145365798Y-54837350D01*
X145365794Y-54837345D01*
X145187654Y-54659205D01*
X145187649Y-54659201D01*
X144983848Y-54511132D01*
X144983847Y-54511131D01*
X144983845Y-54511130D01*
X144913747Y-54475413D01*
X144759383Y-54396760D01*
X144519785Y-54318910D01*
X144491070Y-54314362D01*
X144270962Y-54279500D01*
X144019038Y-54279500D01*
X143894626Y-54299205D01*
X143770214Y-54318910D01*
X143530616Y-54396760D01*
X143306151Y-54511132D01*
X143102350Y-54659201D01*
X143102345Y-54659205D01*
X142924205Y-54837345D01*
X142924201Y-54837350D01*
X142776132Y-55041151D01*
X142661760Y-55265616D01*
X142583910Y-55505214D01*
X142583910Y-55505215D01*
X142544500Y-55754038D01*
X127330500Y-55754038D01*
X127291090Y-55505215D01*
X127213241Y-55265621D01*
X127213239Y-55265618D01*
X127213239Y-55265616D01*
X127171747Y-55184184D01*
X127098870Y-55041155D01*
X127000326Y-54905520D01*
X126950798Y-54837350D01*
X126950794Y-54837345D01*
X126772654Y-54659205D01*
X126772649Y-54659201D01*
X126568848Y-54511132D01*
X126568847Y-54511131D01*
X126568845Y-54511130D01*
X126498747Y-54475413D01*
X126344383Y-54396760D01*
X126104785Y-54318910D01*
X126076070Y-54314362D01*
X125855962Y-54279500D01*
X125604038Y-54279500D01*
X125479626Y-54299205D01*
X125355214Y-54318910D01*
X125115616Y-54396760D01*
X124891151Y-54511132D01*
X124687350Y-54659201D01*
X124687345Y-54659205D01*
X124509205Y-54837345D01*
X124509201Y-54837350D01*
X124361132Y-55041151D01*
X124246760Y-55265616D01*
X124168910Y-55505214D01*
X124168910Y-55505215D01*
X124129500Y-55754038D01*
X108915500Y-55754038D01*
X108876090Y-55505215D01*
X108798241Y-55265621D01*
X108798239Y-55265618D01*
X108798239Y-55265616D01*
X108756747Y-55184184D01*
X108683870Y-55041155D01*
X108585326Y-54905520D01*
X108535798Y-54837350D01*
X108535794Y-54837345D01*
X108357654Y-54659205D01*
X108357649Y-54659201D01*
X108153848Y-54511132D01*
X108153847Y-54511131D01*
X108153845Y-54511130D01*
X108083747Y-54475413D01*
X107929383Y-54396760D01*
X107689785Y-54318910D01*
X107661070Y-54314362D01*
X107440962Y-54279500D01*
X107189038Y-54279500D01*
X107064626Y-54299205D01*
X106940214Y-54318910D01*
X106700616Y-54396760D01*
X106476151Y-54511132D01*
X106272350Y-54659201D01*
X106272345Y-54659205D01*
X106094205Y-54837345D01*
X106094201Y-54837350D01*
X105946132Y-55041151D01*
X105831760Y-55265616D01*
X105753910Y-55505214D01*
X105753910Y-55505215D01*
X105714500Y-55754038D01*
X90500500Y-55754038D01*
X90461090Y-55505215D01*
X90383241Y-55265621D01*
X90383239Y-55265618D01*
X90383239Y-55265616D01*
X90341747Y-55184184D01*
X90268870Y-55041155D01*
X90170326Y-54905520D01*
X90120798Y-54837350D01*
X90120794Y-54837345D01*
X89942654Y-54659205D01*
X89942649Y-54659201D01*
X89738848Y-54511132D01*
X89738847Y-54511131D01*
X89738845Y-54511130D01*
X89668747Y-54475413D01*
X89514383Y-54396760D01*
X89274785Y-54318910D01*
X89246070Y-54314362D01*
X89025962Y-54279500D01*
X88774038Y-54279500D01*
X88649626Y-54299205D01*
X88525214Y-54318910D01*
X88285616Y-54396760D01*
X88061151Y-54511132D01*
X87857350Y-54659201D01*
X87857345Y-54659205D01*
X87679205Y-54837345D01*
X87679201Y-54837350D01*
X87531132Y-55041151D01*
X87416760Y-55265616D01*
X87338910Y-55505214D01*
X87338910Y-55505215D01*
X87299500Y-55754038D01*
X75938500Y-55754038D01*
X75938500Y-50070513D01*
X90239500Y-50070513D01*
X90239500Y-50259486D01*
X90269059Y-50446118D01*
X90327454Y-50625836D01*
X90413240Y-50794199D01*
X90524310Y-50947073D01*
X90657927Y-51080690D01*
X90810801Y-51191760D01*
X90890347Y-51232290D01*
X90979163Y-51277545D01*
X90979165Y-51277545D01*
X90979168Y-51277547D01*
X91075497Y-51308846D01*
X91158881Y-51335940D01*
X91345514Y-51365500D01*
X91345519Y-51365500D01*
X91534486Y-51365500D01*
X91721118Y-51335940D01*
X91900832Y-51277547D01*
X92069199Y-51191760D01*
X92222073Y-51080690D01*
X92355690Y-50947073D01*
X92466760Y-50794199D01*
X92552547Y-50625832D01*
X92610940Y-50446118D01*
X92640500Y-50259486D01*
X92640500Y-50070513D01*
X108654500Y-50070513D01*
X108654500Y-50259486D01*
X108684059Y-50446118D01*
X108742454Y-50625836D01*
X108828240Y-50794199D01*
X108939310Y-50947073D01*
X109072927Y-51080690D01*
X109225801Y-51191760D01*
X109305347Y-51232290D01*
X109394163Y-51277545D01*
X109394165Y-51277545D01*
X109394168Y-51277547D01*
X109490497Y-51308846D01*
X109573881Y-51335940D01*
X109760514Y-51365500D01*
X109760519Y-51365500D01*
X109949486Y-51365500D01*
X110136118Y-51335940D01*
X110315832Y-51277547D01*
X110484199Y-51191760D01*
X110637073Y-51080690D01*
X110770690Y-50947073D01*
X110881760Y-50794199D01*
X110967547Y-50625832D01*
X111025940Y-50446118D01*
X111055500Y-50259486D01*
X111055500Y-50070513D01*
X127069500Y-50070513D01*
X127069500Y-50259486D01*
X127099059Y-50446118D01*
X127157454Y-50625836D01*
X127243240Y-50794199D01*
X127354310Y-50947073D01*
X127487927Y-51080690D01*
X127640801Y-51191760D01*
X127720347Y-51232290D01*
X127809163Y-51277545D01*
X127809165Y-51277545D01*
X127809168Y-51277547D01*
X127905497Y-51308846D01*
X127988881Y-51335940D01*
X128175514Y-51365500D01*
X128175519Y-51365500D01*
X128364486Y-51365500D01*
X128551118Y-51335940D01*
X128730832Y-51277547D01*
X128899199Y-51191760D01*
X129052073Y-51080690D01*
X129185690Y-50947073D01*
X129296760Y-50794199D01*
X129382547Y-50625832D01*
X129440940Y-50446118D01*
X129470500Y-50259486D01*
X129470500Y-50070513D01*
X145484500Y-50070513D01*
X145484500Y-50259486D01*
X145514059Y-50446118D01*
X145572454Y-50625836D01*
X145658240Y-50794199D01*
X145769310Y-50947073D01*
X145902927Y-51080690D01*
X146055801Y-51191760D01*
X146135347Y-51232290D01*
X146224163Y-51277545D01*
X146224165Y-51277545D01*
X146224168Y-51277547D01*
X146320497Y-51308846D01*
X146403881Y-51335940D01*
X146590514Y-51365500D01*
X146590519Y-51365500D01*
X146779486Y-51365500D01*
X146966118Y-51335940D01*
X147145832Y-51277547D01*
X147314199Y-51191760D01*
X147467073Y-51080690D01*
X147600690Y-50947073D01*
X147711760Y-50794199D01*
X147797547Y-50625832D01*
X147855940Y-50446118D01*
X147885500Y-50259486D01*
X147885500Y-50070513D01*
X147855940Y-49883881D01*
X147797545Y-49704163D01*
X147711759Y-49535800D01*
X147600690Y-49382927D01*
X147467073Y-49249310D01*
X147314199Y-49138240D01*
X147145836Y-49052454D01*
X146966118Y-48994059D01*
X146779486Y-48964500D01*
X146779481Y-48964500D01*
X146590519Y-48964500D01*
X146590514Y-48964500D01*
X146403881Y-48994059D01*
X146224163Y-49052454D01*
X146055800Y-49138240D01*
X145968579Y-49201610D01*
X145902927Y-49249310D01*
X145902925Y-49249312D01*
X145902924Y-49249312D01*
X145769312Y-49382924D01*
X145769312Y-49382925D01*
X145769310Y-49382927D01*
X145721610Y-49448579D01*
X145658240Y-49535800D01*
X145572454Y-49704163D01*
X145514059Y-49883881D01*
X145484500Y-50070513D01*
X129470500Y-50070513D01*
X129440940Y-49883881D01*
X129382545Y-49704163D01*
X129296759Y-49535800D01*
X129185690Y-49382927D01*
X129052073Y-49249310D01*
X128899199Y-49138240D01*
X128730836Y-49052454D01*
X128551118Y-48994059D01*
X128364486Y-48964500D01*
X128364481Y-48964500D01*
X128175519Y-48964500D01*
X128175514Y-48964500D01*
X127988881Y-48994059D01*
X127809163Y-49052454D01*
X127640800Y-49138240D01*
X127553579Y-49201610D01*
X127487927Y-49249310D01*
X127487925Y-49249312D01*
X127487924Y-49249312D01*
X127354312Y-49382924D01*
X127354312Y-49382925D01*
X127354310Y-49382927D01*
X127306610Y-49448579D01*
X127243240Y-49535800D01*
X127157454Y-49704163D01*
X127099059Y-49883881D01*
X127069500Y-50070513D01*
X111055500Y-50070513D01*
X111025940Y-49883881D01*
X110967545Y-49704163D01*
X110881759Y-49535800D01*
X110770690Y-49382927D01*
X110637073Y-49249310D01*
X110484199Y-49138240D01*
X110315836Y-49052454D01*
X110136118Y-48994059D01*
X109949486Y-48964500D01*
X109949481Y-48964500D01*
X109760519Y-48964500D01*
X109760514Y-48964500D01*
X109573881Y-48994059D01*
X109394163Y-49052454D01*
X109225800Y-49138240D01*
X109138579Y-49201610D01*
X109072927Y-49249310D01*
X109072925Y-49249312D01*
X109072924Y-49249312D01*
X108939312Y-49382924D01*
X108939312Y-49382925D01*
X108939310Y-49382927D01*
X108891610Y-49448579D01*
X108828240Y-49535800D01*
X108742454Y-49704163D01*
X108684059Y-49883881D01*
X108654500Y-50070513D01*
X92640500Y-50070513D01*
X92610940Y-49883881D01*
X92552545Y-49704163D01*
X92466759Y-49535800D01*
X92355690Y-49382927D01*
X92222073Y-49249310D01*
X92069199Y-49138240D01*
X91900836Y-49052454D01*
X91721118Y-48994059D01*
X91534486Y-48964500D01*
X91534481Y-48964500D01*
X91345519Y-48964500D01*
X91345514Y-48964500D01*
X91158881Y-48994059D01*
X90979163Y-49052454D01*
X90810800Y-49138240D01*
X90723579Y-49201610D01*
X90657927Y-49249310D01*
X90657925Y-49249312D01*
X90657924Y-49249312D01*
X90524312Y-49382924D01*
X90524312Y-49382925D01*
X90524310Y-49382927D01*
X90476610Y-49448579D01*
X90413240Y-49535800D01*
X90327454Y-49704163D01*
X90269059Y-49883881D01*
X90239500Y-50070513D01*
X75938500Y-50070513D01*
X75938500Y-46669655D01*
X83682500Y-46669655D01*
X83682500Y-47375000D01*
X84535743Y-47375000D01*
X84526229Y-47391479D01*
X84485000Y-47545350D01*
X84485000Y-47704650D01*
X84526229Y-47858521D01*
X84535743Y-47875000D01*
X83682500Y-47875000D01*
X83682500Y-48580344D01*
X83688901Y-48639872D01*
X83688903Y-48639879D01*
X83739145Y-48774586D01*
X83739149Y-48774593D01*
X83825309Y-48889687D01*
X83825312Y-48889690D01*
X83940406Y-48975850D01*
X83940413Y-48975854D01*
X84075120Y-49026096D01*
X84075127Y-49026098D01*
X84134655Y-49032499D01*
X84134672Y-49032500D01*
X84840000Y-49032500D01*
X84840000Y-48179256D01*
X84856479Y-48188771D01*
X85010350Y-48230000D01*
X85169650Y-48230000D01*
X85323521Y-48188771D01*
X85340000Y-48179256D01*
X85340000Y-49032500D01*
X86045328Y-49032500D01*
X86045344Y-49032499D01*
X86104872Y-49026098D01*
X86104879Y-49026096D01*
X86239586Y-48975854D01*
X86239593Y-48975850D01*
X86354687Y-48889690D01*
X86354690Y-48889687D01*
X86440850Y-48774593D01*
X86440853Y-48774588D01*
X86467830Y-48702257D01*
X86509701Y-48646322D01*
X86575165Y-48621904D01*
X86643438Y-48636755D01*
X86671694Y-48657907D01*
X86712749Y-48698962D01*
X86892047Y-48829230D01*
X86985344Y-48876767D01*
X87089511Y-48929843D01*
X87089513Y-48929843D01*
X87089516Y-48929845D01*
X87202496Y-48966554D01*
X87300292Y-48998331D01*
X87519183Y-49033000D01*
X87519188Y-49033000D01*
X87740817Y-49033000D01*
X87959707Y-48998331D01*
X87972855Y-48994059D01*
X88170484Y-48929845D01*
X88367953Y-48829230D01*
X88547251Y-48698962D01*
X88703962Y-48542251D01*
X88834230Y-48362953D01*
X88934845Y-48165484D01*
X89003331Y-47954707D01*
X89027163Y-47804240D01*
X89038000Y-47735817D01*
X89038000Y-47514182D01*
X89003331Y-47295292D01*
X88971554Y-47197496D01*
X88934845Y-47084516D01*
X88934843Y-47084513D01*
X88934843Y-47084511D01*
X88834229Y-46887046D01*
X88726839Y-46739237D01*
X88703962Y-46707749D01*
X88665868Y-46669655D01*
X102097500Y-46669655D01*
X102097500Y-47375000D01*
X102950743Y-47375000D01*
X102941229Y-47391479D01*
X102900000Y-47545350D01*
X102900000Y-47704650D01*
X102941229Y-47858521D01*
X102950743Y-47875000D01*
X102097500Y-47875000D01*
X102097500Y-48580344D01*
X102103901Y-48639872D01*
X102103903Y-48639879D01*
X102154145Y-48774586D01*
X102154149Y-48774593D01*
X102240309Y-48889687D01*
X102240312Y-48889690D01*
X102355406Y-48975850D01*
X102355413Y-48975854D01*
X102490120Y-49026096D01*
X102490127Y-49026098D01*
X102549655Y-49032499D01*
X102549672Y-49032500D01*
X103255000Y-49032500D01*
X103255000Y-48179256D01*
X103271479Y-48188771D01*
X103425350Y-48230000D01*
X103584650Y-48230000D01*
X103738521Y-48188771D01*
X103755000Y-48179256D01*
X103755000Y-49032500D01*
X104460328Y-49032500D01*
X104460344Y-49032499D01*
X104519872Y-49026098D01*
X104519879Y-49026096D01*
X104654586Y-48975854D01*
X104654593Y-48975850D01*
X104769687Y-48889690D01*
X104769690Y-48889687D01*
X104855850Y-48774593D01*
X104855853Y-48774588D01*
X104882830Y-48702257D01*
X104924701Y-48646322D01*
X104990165Y-48621904D01*
X105058438Y-48636755D01*
X105086694Y-48657907D01*
X105127749Y-48698962D01*
X105307047Y-48829230D01*
X105400344Y-48876767D01*
X105504511Y-48929843D01*
X105504513Y-48929843D01*
X105504516Y-48929845D01*
X105617496Y-48966554D01*
X105715292Y-48998331D01*
X105934183Y-49033000D01*
X105934188Y-49033000D01*
X106155817Y-49033000D01*
X106374707Y-48998331D01*
X106387855Y-48994059D01*
X106585484Y-48929845D01*
X106782953Y-48829230D01*
X106962251Y-48698962D01*
X107118962Y-48542251D01*
X107249230Y-48362953D01*
X107349845Y-48165484D01*
X107418331Y-47954707D01*
X107442163Y-47804240D01*
X107453000Y-47735817D01*
X107453000Y-47514182D01*
X107418331Y-47295292D01*
X107386554Y-47197496D01*
X107349845Y-47084516D01*
X107349843Y-47084513D01*
X107349843Y-47084511D01*
X107249229Y-46887046D01*
X107141839Y-46739237D01*
X107118962Y-46707749D01*
X107080868Y-46669655D01*
X120512500Y-46669655D01*
X120512500Y-47375000D01*
X121365743Y-47375000D01*
X121356229Y-47391479D01*
X121315000Y-47545350D01*
X121315000Y-47704650D01*
X121356229Y-47858521D01*
X121365743Y-47875000D01*
X120512500Y-47875000D01*
X120512500Y-48580344D01*
X120518901Y-48639872D01*
X120518903Y-48639879D01*
X120569145Y-48774586D01*
X120569149Y-48774593D01*
X120655309Y-48889687D01*
X120655312Y-48889690D01*
X120770406Y-48975850D01*
X120770413Y-48975854D01*
X120905120Y-49026096D01*
X120905127Y-49026098D01*
X120964655Y-49032499D01*
X120964672Y-49032500D01*
X121670000Y-49032500D01*
X121670000Y-48179256D01*
X121686479Y-48188771D01*
X121840350Y-48230000D01*
X121999650Y-48230000D01*
X122153521Y-48188771D01*
X122170000Y-48179256D01*
X122170000Y-49032500D01*
X122875328Y-49032500D01*
X122875344Y-49032499D01*
X122934872Y-49026098D01*
X122934879Y-49026096D01*
X123069586Y-48975854D01*
X123069593Y-48975850D01*
X123184687Y-48889690D01*
X123184690Y-48889687D01*
X123270850Y-48774593D01*
X123270853Y-48774588D01*
X123297830Y-48702257D01*
X123339701Y-48646322D01*
X123405165Y-48621904D01*
X123473438Y-48636755D01*
X123501694Y-48657907D01*
X123542749Y-48698962D01*
X123722047Y-48829230D01*
X123815344Y-48876767D01*
X123919511Y-48929843D01*
X123919513Y-48929843D01*
X123919516Y-48929845D01*
X124032496Y-48966554D01*
X124130292Y-48998331D01*
X124349183Y-49033000D01*
X124349188Y-49033000D01*
X124570817Y-49033000D01*
X124789707Y-48998331D01*
X124802855Y-48994059D01*
X125000484Y-48929845D01*
X125197953Y-48829230D01*
X125377251Y-48698962D01*
X125533962Y-48542251D01*
X125664230Y-48362953D01*
X125764845Y-48165484D01*
X125833331Y-47954707D01*
X125857163Y-47804240D01*
X125868000Y-47735817D01*
X125868000Y-47514182D01*
X125833331Y-47295292D01*
X125801554Y-47197496D01*
X125764845Y-47084516D01*
X125764843Y-47084513D01*
X125764843Y-47084511D01*
X125664229Y-46887046D01*
X125556839Y-46739237D01*
X125533962Y-46707749D01*
X125495868Y-46669655D01*
X138927500Y-46669655D01*
X138927500Y-47375000D01*
X139780743Y-47375000D01*
X139771229Y-47391479D01*
X139730000Y-47545350D01*
X139730000Y-47704650D01*
X139771229Y-47858521D01*
X139780743Y-47875000D01*
X138927500Y-47875000D01*
X138927500Y-48580344D01*
X138933901Y-48639872D01*
X138933903Y-48639879D01*
X138984145Y-48774586D01*
X138984149Y-48774593D01*
X139070309Y-48889687D01*
X139070312Y-48889690D01*
X139185406Y-48975850D01*
X139185413Y-48975854D01*
X139320120Y-49026096D01*
X139320127Y-49026098D01*
X139379655Y-49032499D01*
X139379672Y-49032500D01*
X140085000Y-49032500D01*
X140085000Y-48179256D01*
X140101479Y-48188771D01*
X140255350Y-48230000D01*
X140414650Y-48230000D01*
X140568521Y-48188771D01*
X140585000Y-48179256D01*
X140585000Y-49032500D01*
X141290328Y-49032500D01*
X141290344Y-49032499D01*
X141349872Y-49026098D01*
X141349879Y-49026096D01*
X141484586Y-48975854D01*
X141484593Y-48975850D01*
X141599687Y-48889690D01*
X141599690Y-48889687D01*
X141685850Y-48774593D01*
X141685853Y-48774588D01*
X141712830Y-48702257D01*
X141754701Y-48646322D01*
X141820165Y-48621904D01*
X141888438Y-48636755D01*
X141916694Y-48657907D01*
X141957749Y-48698962D01*
X142137047Y-48829230D01*
X142230344Y-48876767D01*
X142334511Y-48929843D01*
X142334513Y-48929843D01*
X142334516Y-48929845D01*
X142447496Y-48966554D01*
X142545292Y-48998331D01*
X142764183Y-49033000D01*
X142764188Y-49033000D01*
X142985817Y-49033000D01*
X143204707Y-48998331D01*
X143217855Y-48994059D01*
X143415484Y-48929845D01*
X143612953Y-48829230D01*
X143792251Y-48698962D01*
X143948962Y-48542251D01*
X144079230Y-48362953D01*
X144179845Y-48165484D01*
X144248331Y-47954707D01*
X144263565Y-47858521D01*
X144283000Y-47735817D01*
X144283000Y-47514182D01*
X144248331Y-47295292D01*
X144216554Y-47197496D01*
X144179845Y-47084516D01*
X144179843Y-47084513D01*
X144179843Y-47084511D01*
X144079229Y-46887046D01*
X143948962Y-46707749D01*
X143792251Y-46551038D01*
X143612953Y-46420770D01*
X143415488Y-46320156D01*
X143204707Y-46251668D01*
X142985817Y-46217000D01*
X142985812Y-46217000D01*
X142764188Y-46217000D01*
X142764183Y-46217000D01*
X142545292Y-46251668D01*
X142334511Y-46320156D01*
X142137046Y-46420770D01*
X142061835Y-46475415D01*
X141957749Y-46551038D01*
X141957747Y-46551040D01*
X141957745Y-46551041D01*
X141916693Y-46592093D01*
X141855370Y-46625578D01*
X141785678Y-46620592D01*
X141729745Y-46578720D01*
X141712831Y-46547743D01*
X141685855Y-46475415D01*
X141685850Y-46475406D01*
X141599690Y-46360312D01*
X141599687Y-46360309D01*
X141484593Y-46274149D01*
X141484586Y-46274145D01*
X141349879Y-46223903D01*
X141349872Y-46223901D01*
X141290344Y-46217500D01*
X140585000Y-46217500D01*
X140585000Y-47070743D01*
X140568521Y-47061229D01*
X140414650Y-47020000D01*
X140255350Y-47020000D01*
X140101479Y-47061229D01*
X140085000Y-47070743D01*
X140085000Y-46217500D01*
X139379655Y-46217500D01*
X139320127Y-46223901D01*
X139320120Y-46223903D01*
X139185413Y-46274145D01*
X139185406Y-46274149D01*
X139070312Y-46360309D01*
X139070309Y-46360312D01*
X138984149Y-46475406D01*
X138984145Y-46475413D01*
X138933903Y-46610120D01*
X138933901Y-46610127D01*
X138927500Y-46669655D01*
X125495868Y-46669655D01*
X125377251Y-46551038D01*
X125197953Y-46420770D01*
X125000488Y-46320156D01*
X124789707Y-46251668D01*
X124570817Y-46217000D01*
X124570812Y-46217000D01*
X124349188Y-46217000D01*
X124349183Y-46217000D01*
X124130292Y-46251668D01*
X123919511Y-46320156D01*
X123722046Y-46420770D01*
X123646835Y-46475415D01*
X123542749Y-46551038D01*
X123542747Y-46551040D01*
X123542745Y-46551041D01*
X123501693Y-46592093D01*
X123440370Y-46625578D01*
X123370678Y-46620592D01*
X123314745Y-46578720D01*
X123297831Y-46547743D01*
X123270855Y-46475415D01*
X123270850Y-46475406D01*
X123184690Y-46360312D01*
X123184687Y-46360309D01*
X123069593Y-46274149D01*
X123069586Y-46274145D01*
X122934879Y-46223903D01*
X122934872Y-46223901D01*
X122875344Y-46217500D01*
X122170000Y-46217500D01*
X122170000Y-47070743D01*
X122153521Y-47061229D01*
X121999650Y-47020000D01*
X121840350Y-47020000D01*
X121686479Y-47061229D01*
X121670000Y-47070743D01*
X121670000Y-46217500D01*
X120964655Y-46217500D01*
X120905127Y-46223901D01*
X120905120Y-46223903D01*
X120770413Y-46274145D01*
X120770406Y-46274149D01*
X120655312Y-46360309D01*
X120655309Y-46360312D01*
X120569149Y-46475406D01*
X120569145Y-46475413D01*
X120518903Y-46610120D01*
X120518901Y-46610127D01*
X120512500Y-46669655D01*
X107080868Y-46669655D01*
X106962251Y-46551038D01*
X106782953Y-46420770D01*
X106585488Y-46320156D01*
X106374707Y-46251668D01*
X106155817Y-46217000D01*
X106155812Y-46217000D01*
X105934188Y-46217000D01*
X105934183Y-46217000D01*
X105715292Y-46251668D01*
X105504511Y-46320156D01*
X105307046Y-46420770D01*
X105231835Y-46475415D01*
X105127749Y-46551038D01*
X105127747Y-46551040D01*
X105127745Y-46551041D01*
X105086693Y-46592093D01*
X105025370Y-46625578D01*
X104955678Y-46620592D01*
X104899745Y-46578720D01*
X104882831Y-46547743D01*
X104855855Y-46475415D01*
X104855850Y-46475406D01*
X104769690Y-46360312D01*
X104769687Y-46360309D01*
X104654593Y-46274149D01*
X104654586Y-46274145D01*
X104519879Y-46223903D01*
X104519872Y-46223901D01*
X104460344Y-46217500D01*
X103755000Y-46217500D01*
X103755000Y-47070743D01*
X103738521Y-47061229D01*
X103584650Y-47020000D01*
X103425350Y-47020000D01*
X103271479Y-47061229D01*
X103255000Y-47070743D01*
X103255000Y-46217500D01*
X102549655Y-46217500D01*
X102490127Y-46223901D01*
X102490120Y-46223903D01*
X102355413Y-46274145D01*
X102355406Y-46274149D01*
X102240312Y-46360309D01*
X102240309Y-46360312D01*
X102154149Y-46475406D01*
X102154145Y-46475413D01*
X102103903Y-46610120D01*
X102103901Y-46610127D01*
X102097500Y-46669655D01*
X88665868Y-46669655D01*
X88547251Y-46551038D01*
X88367953Y-46420770D01*
X88170488Y-46320156D01*
X87959707Y-46251668D01*
X87740817Y-46217000D01*
X87740812Y-46217000D01*
X87519188Y-46217000D01*
X87519183Y-46217000D01*
X87300292Y-46251668D01*
X87089511Y-46320156D01*
X86892046Y-46420770D01*
X86816835Y-46475415D01*
X86712749Y-46551038D01*
X86712747Y-46551040D01*
X86712745Y-46551041D01*
X86671693Y-46592093D01*
X86610370Y-46625578D01*
X86540678Y-46620592D01*
X86484745Y-46578720D01*
X86467831Y-46547743D01*
X86440855Y-46475415D01*
X86440850Y-46475406D01*
X86354690Y-46360312D01*
X86354687Y-46360309D01*
X86239593Y-46274149D01*
X86239586Y-46274145D01*
X86104879Y-46223903D01*
X86104872Y-46223901D01*
X86045344Y-46217500D01*
X85340000Y-46217500D01*
X85340000Y-47070743D01*
X85323521Y-47061229D01*
X85169650Y-47020000D01*
X85010350Y-47020000D01*
X84856479Y-47061229D01*
X84840000Y-47070743D01*
X84840000Y-46217500D01*
X84134655Y-46217500D01*
X84075127Y-46223901D01*
X84075120Y-46223903D01*
X83940413Y-46274145D01*
X83940406Y-46274149D01*
X83825312Y-46360309D01*
X83825309Y-46360312D01*
X83739149Y-46475406D01*
X83739145Y-46475413D01*
X83688903Y-46610120D01*
X83688901Y-46610127D01*
X83682500Y-46669655D01*
X75938500Y-46669655D01*
X75938500Y-44990513D01*
X90239500Y-44990513D01*
X90239500Y-45179486D01*
X90269059Y-45366118D01*
X90327454Y-45545836D01*
X90413240Y-45714199D01*
X90524310Y-45867073D01*
X90657927Y-46000690D01*
X90810801Y-46111760D01*
X90890347Y-46152290D01*
X90979163Y-46197545D01*
X90979165Y-46197545D01*
X90979168Y-46197547D01*
X91039038Y-46217000D01*
X91158881Y-46255940D01*
X91345514Y-46285500D01*
X91345519Y-46285500D01*
X91534486Y-46285500D01*
X91721118Y-46255940D01*
X91734266Y-46251668D01*
X91900832Y-46197547D01*
X92069199Y-46111760D01*
X92222073Y-46000690D01*
X92355690Y-45867073D01*
X92466760Y-45714199D01*
X92552547Y-45545832D01*
X92610940Y-45366118D01*
X92640500Y-45179486D01*
X92640500Y-44990513D01*
X108654500Y-44990513D01*
X108654500Y-45179486D01*
X108684059Y-45366118D01*
X108742454Y-45545836D01*
X108828240Y-45714199D01*
X108939310Y-45867073D01*
X109072927Y-46000690D01*
X109225801Y-46111760D01*
X109305347Y-46152290D01*
X109394163Y-46197545D01*
X109394165Y-46197545D01*
X109394168Y-46197547D01*
X109454038Y-46217000D01*
X109573881Y-46255940D01*
X109760514Y-46285500D01*
X109760519Y-46285500D01*
X109949486Y-46285500D01*
X110136118Y-46255940D01*
X110149266Y-46251668D01*
X110315832Y-46197547D01*
X110484199Y-46111760D01*
X110637073Y-46000690D01*
X110770690Y-45867073D01*
X110881760Y-45714199D01*
X110967547Y-45545832D01*
X111025940Y-45366118D01*
X111055500Y-45179486D01*
X111055500Y-44990513D01*
X127069500Y-44990513D01*
X127069500Y-45179486D01*
X127099059Y-45366118D01*
X127157454Y-45545836D01*
X127243240Y-45714199D01*
X127354310Y-45867073D01*
X127487927Y-46000690D01*
X127640801Y-46111760D01*
X127720347Y-46152290D01*
X127809163Y-46197545D01*
X127809165Y-46197545D01*
X127809168Y-46197547D01*
X127869038Y-46217000D01*
X127988881Y-46255940D01*
X128175514Y-46285500D01*
X128175519Y-46285500D01*
X128364486Y-46285500D01*
X128551118Y-46255940D01*
X128564266Y-46251668D01*
X128730832Y-46197547D01*
X128899199Y-46111760D01*
X129052073Y-46000690D01*
X129185690Y-45867073D01*
X129296760Y-45714199D01*
X129382547Y-45545832D01*
X129440940Y-45366118D01*
X129470500Y-45179486D01*
X129470500Y-44990513D01*
X145484500Y-44990513D01*
X145484500Y-45179486D01*
X145514059Y-45366118D01*
X145572454Y-45545836D01*
X145658240Y-45714199D01*
X145769310Y-45867073D01*
X145902927Y-46000690D01*
X146055801Y-46111760D01*
X146135347Y-46152290D01*
X146224163Y-46197545D01*
X146224165Y-46197545D01*
X146224168Y-46197547D01*
X146284038Y-46217000D01*
X146403881Y-46255940D01*
X146590514Y-46285500D01*
X146590519Y-46285500D01*
X146779486Y-46285500D01*
X146966118Y-46255940D01*
X146979266Y-46251668D01*
X147145832Y-46197547D01*
X147314199Y-46111760D01*
X147467073Y-46000690D01*
X147600690Y-45867073D01*
X147711760Y-45714199D01*
X147797547Y-45545832D01*
X147855940Y-45366118D01*
X147885500Y-45179486D01*
X147885500Y-44990513D01*
X147855940Y-44803881D01*
X147797545Y-44624163D01*
X147711759Y-44455800D01*
X147687512Y-44422427D01*
X147600690Y-44302927D01*
X147467073Y-44169310D01*
X147314199Y-44058240D01*
X147145836Y-43972454D01*
X146966118Y-43914059D01*
X146779486Y-43884500D01*
X146779481Y-43884500D01*
X146590519Y-43884500D01*
X146590514Y-43884500D01*
X146403881Y-43914059D01*
X146224163Y-43972454D01*
X146055800Y-44058240D01*
X145968579Y-44121610D01*
X145902927Y-44169310D01*
X145902925Y-44169312D01*
X145902924Y-44169312D01*
X145769312Y-44302924D01*
X145769312Y-44302925D01*
X145769310Y-44302927D01*
X145733578Y-44352108D01*
X145658240Y-44455800D01*
X145572454Y-44624163D01*
X145514059Y-44803881D01*
X145484500Y-44990513D01*
X129470500Y-44990513D01*
X129440940Y-44803881D01*
X129382545Y-44624163D01*
X129296759Y-44455800D01*
X129272512Y-44422427D01*
X129185690Y-44302927D01*
X129052073Y-44169310D01*
X128899199Y-44058240D01*
X128730836Y-43972454D01*
X128551118Y-43914059D01*
X128364486Y-43884500D01*
X128364481Y-43884500D01*
X128175519Y-43884500D01*
X128175514Y-43884500D01*
X127988881Y-43914059D01*
X127809163Y-43972454D01*
X127640800Y-44058240D01*
X127553579Y-44121610D01*
X127487927Y-44169310D01*
X127487925Y-44169312D01*
X127487924Y-44169312D01*
X127354312Y-44302924D01*
X127354312Y-44302925D01*
X127354310Y-44302927D01*
X127318578Y-44352108D01*
X127243240Y-44455800D01*
X127157454Y-44624163D01*
X127099059Y-44803881D01*
X127069500Y-44990513D01*
X111055500Y-44990513D01*
X111025940Y-44803881D01*
X110967545Y-44624163D01*
X110881759Y-44455800D01*
X110857512Y-44422427D01*
X110770690Y-44302927D01*
X110637073Y-44169310D01*
X110484199Y-44058240D01*
X110315836Y-43972454D01*
X110136118Y-43914059D01*
X109949486Y-43884500D01*
X109949481Y-43884500D01*
X109760519Y-43884500D01*
X109760514Y-43884500D01*
X109573881Y-43914059D01*
X109394163Y-43972454D01*
X109225800Y-44058240D01*
X109138579Y-44121610D01*
X109072927Y-44169310D01*
X109072925Y-44169312D01*
X109072924Y-44169312D01*
X108939312Y-44302924D01*
X108939312Y-44302925D01*
X108939310Y-44302927D01*
X108903578Y-44352108D01*
X108828240Y-44455800D01*
X108742454Y-44624163D01*
X108684059Y-44803881D01*
X108654500Y-44990513D01*
X92640500Y-44990513D01*
X92610940Y-44803881D01*
X92552545Y-44624163D01*
X92466759Y-44455800D01*
X92442512Y-44422427D01*
X92355690Y-44302927D01*
X92222073Y-44169310D01*
X92069199Y-44058240D01*
X91900836Y-43972454D01*
X91721118Y-43914059D01*
X91534486Y-43884500D01*
X91534481Y-43884500D01*
X91345519Y-43884500D01*
X91345514Y-43884500D01*
X91158881Y-43914059D01*
X90979163Y-43972454D01*
X90810800Y-44058240D01*
X90723579Y-44121610D01*
X90657927Y-44169310D01*
X90657925Y-44169312D01*
X90657924Y-44169312D01*
X90524312Y-44302924D01*
X90524312Y-44302925D01*
X90524310Y-44302927D01*
X90488578Y-44352108D01*
X90413240Y-44455800D01*
X90327454Y-44624163D01*
X90269059Y-44803881D01*
X90239500Y-44990513D01*
X75938500Y-44990513D01*
X75938500Y-44422427D01*
X75938816Y-44413581D01*
X75946730Y-44302925D01*
X75953131Y-44213434D01*
X75955646Y-44195938D01*
X75997356Y-44004199D01*
X76002333Y-43987248D01*
X76070911Y-43803385D01*
X76078259Y-43787298D01*
X76140815Y-43672734D01*
X76172291Y-43615089D01*
X76181845Y-43600221D01*
X76299448Y-43443123D01*
X76311020Y-43429769D01*
X76449769Y-43291020D01*
X76463123Y-43279448D01*
X76620221Y-43161845D01*
X76635089Y-43152291D01*
X76807298Y-43058258D01*
X76823385Y-43050911D01*
X77007248Y-42982333D01*
X77024199Y-42977356D01*
X77215938Y-42935646D01*
X77233436Y-42933130D01*
X77433582Y-42918816D01*
X77442428Y-42918500D01*
X77503892Y-42918500D01*
X171924108Y-42918500D01*
X171985572Y-42918500D01*
X171994418Y-42918816D01*
G37*
%TD.AperFunction*%
%TD*%
M02*
