M48
; DRILL file {KiCad 9.0.6} date 2025-11-15T14:28:14+0000
; FORMAT={-:-/ absolute / metric / decimal}
; #@! TF.CreationDate,2025-11-15T14:28:14+00:00
; #@! TF.GenerationSoftware,Kicad,Pcbnew,9.0.6
; #@! TF.FileFunction,Plated,1,2,PTH
FMAT,2
METRIC
; #@! TA.AperFunction,Plated,PTH,ComponentDrill
T1C0.700
; #@! TA.AperFunction,Plated,PTH,ComponentDrill
T2C0.889
; #@! TA.AperFunction,Plated,PTH,ComponentDrill
T3C1.210
; #@! TA.AperFunction,Plated,PTH,ComponentDrill
T4C1.500
%
G90
G05
T1
X111.46Y-47.0
X116.54Y-47.0
X129.96Y-47.0
X135.04Y-47.0
X148.46Y-47.0
X153.54Y-47.0
X166.96Y-47.0
X172.04Y-47.0
T2
X172.38Y-52.38
X172.38Y-54.92
X172.38Y-57.46
X172.38Y-60.0
X172.38Y-62.54
X172.38Y-65.08
X172.38Y-67.62
X187.62Y-52.38
X187.62Y-54.92
X187.62Y-57.46
X187.62Y-60.0
X187.62Y-62.54
X187.62Y-65.08
X187.62Y-67.62
T3
X103.23Y-47.0
X105.77Y-47.0
X121.73Y-47.0
X124.27Y-47.0
X140.23Y-47.0
X142.77Y-47.0
X158.73Y-47.0
X161.27Y-47.0
T4
X100.69Y-57.46
X107.04Y-54.92
X119.19Y-57.46
X125.54Y-54.92
X137.69Y-57.46
X144.04Y-54.92
X156.19Y-57.5
X162.54Y-54.96
M30
