%TF.GenerationSoftware,KiCad,Pcbnew,9.0.6*%
%TF.CreationDate,2025-11-15T01:06:24+00:00*%
%TF.ProjectId,keyfrick,6b657966-7269-4636-9b2e-6b696361645f,rev?*%
%TF.SameCoordinates,Original*%
%TF.FileFunction,Copper,L2,Bot*%
%TF.FilePolarity,Positive*%
%FSLAX46Y46*%
G04 Gerber Fmt 4.6, Leading zero omitted, Abs format (unit mm)*
G04 Created by KiCad (PCBNEW 9.0.6) date 2025-11-15 01:06:24*
%MOMM*%
%LPD*%
G01*
G04 APERTURE LIST*
%ADD10C,0.300000*%
%TA.AperFunction,ComponentPad*%
%ADD11C,2.200000*%
%TD*%
%TA.AperFunction,ComponentPad*%
%ADD12C,1.400000*%
%TD*%
%TA.AperFunction,ComponentPad*%
%ADD13C,1.815000*%
%TD*%
%TA.AperFunction,ComponentPad*%
%ADD14R,1.815000X1.815000*%
%TD*%
%TA.AperFunction,ComponentPad*%
%ADD15C,1.524000*%
%TD*%
%TA.AperFunction,Conductor*%
%ADD16C,0.200000*%
%TD*%
G04 APERTURE END LIST*
D10*
G36*
X186246433Y-69836707D02*
G01*
X173933866Y-69836707D01*
X173933866Y-69491804D01*
X174950498Y-69491804D01*
X175173248Y-69491804D01*
X177470498Y-69491804D01*
X177693248Y-69491804D01*
X177693248Y-69391329D01*
X179521552Y-69391329D01*
X179683119Y-69550148D01*
X180100316Y-69043008D01*
X180520628Y-69550148D01*
X180682194Y-69391329D01*
X180401766Y-69057296D01*
X182123618Y-69057296D01*
X182123618Y-69287831D01*
X182522222Y-69287831D01*
X182522222Y-69670040D01*
X182727386Y-69670040D01*
X182727386Y-69287831D01*
X183125990Y-69287831D01*
X183125990Y-69057296D01*
X184643618Y-69057296D01*
X184643618Y-69287831D01*
X185042222Y-69287831D01*
X185042222Y-69670040D01*
X185247386Y-69670040D01*
X185247386Y-69287831D01*
X185645990Y-69287831D01*
X185645990Y-69057296D01*
X185247386Y-69057296D01*
X185247386Y-68675087D01*
X185042222Y-68675087D01*
X185042222Y-69057296D01*
X184643618Y-69057296D01*
X183125990Y-69057296D01*
X182727386Y-69057296D01*
X182727386Y-68675087D01*
X182522222Y-68675087D01*
X182522222Y-69057296D01*
X182123618Y-69057296D01*
X180401766Y-69057296D01*
X180102423Y-68700732D01*
X179521552Y-69391329D01*
X177693248Y-69391329D01*
X177693248Y-68854422D01*
X177470498Y-68854422D01*
X177470498Y-69491804D01*
X175173248Y-69491804D01*
X175173248Y-68854422D01*
X174950498Y-68854422D01*
X174950498Y-69491804D01*
X173933866Y-69491804D01*
X173933866Y-68338490D01*
X174950498Y-68338490D01*
X175173248Y-68338490D01*
X177470498Y-68338490D01*
X177693248Y-68338490D01*
X177693248Y-67903982D01*
X179603618Y-67903982D01*
X179603618Y-68134516D01*
X180002222Y-68134516D01*
X180002222Y-68516726D01*
X180207386Y-68516726D01*
X180207386Y-68284176D01*
X184180533Y-68284176D01*
X186079766Y-68284176D01*
X186079766Y-67745163D01*
X185886325Y-67745163D01*
X185886325Y-68053641D01*
X184373974Y-68053641D01*
X184373974Y-67745163D01*
X184180533Y-67745163D01*
X184180533Y-68284176D01*
X180207386Y-68284176D01*
X180207386Y-68134516D01*
X180605990Y-68134516D01*
X180605990Y-68025981D01*
X182041552Y-68025981D01*
X182045599Y-68065852D01*
X182057581Y-68102826D01*
X182076433Y-68136528D01*
X182100812Y-68165382D01*
X182130352Y-68189047D01*
X182164834Y-68207331D01*
X182202455Y-68218835D01*
X182242778Y-68222718D01*
X182284040Y-68218823D01*
X182322187Y-68207331D01*
X182357116Y-68189010D01*
X182386667Y-68165382D01*
X182411119Y-68136521D01*
X182429990Y-68102826D01*
X182441972Y-68065852D01*
X182446018Y-68025981D01*
X182441943Y-67984151D01*
X182429990Y-67946113D01*
X182411079Y-67911488D01*
X182386667Y-67882091D01*
X182357070Y-67857955D01*
X182322187Y-67839501D01*
X182284040Y-67828010D01*
X182242778Y-67824114D01*
X182202455Y-67827997D01*
X182164834Y-67839501D01*
X182130398Y-67857917D01*
X182100812Y-67882091D01*
X182076472Y-67911481D01*
X182057581Y-67946113D01*
X182045628Y-67984151D01*
X182041552Y-68025981D01*
X180605990Y-68025981D01*
X180605990Y-67903982D01*
X180207386Y-67903982D01*
X180207386Y-67521772D01*
X180002222Y-67521772D01*
X180002222Y-67903982D01*
X179603618Y-67903982D01*
X177693248Y-67903982D01*
X177693248Y-67701107D01*
X177470498Y-67701107D01*
X177470498Y-68338490D01*
X175173248Y-68338490D01*
X175173248Y-67701107D01*
X174950498Y-67701107D01*
X174950498Y-68338490D01*
X173933866Y-68338490D01*
X173933866Y-67084699D01*
X174481552Y-67084699D01*
X174643119Y-67243518D01*
X175060316Y-66736379D01*
X175480628Y-67243518D01*
X175539980Y-67185175D01*
X177470498Y-67185175D01*
X177693248Y-67185175D01*
X177693248Y-66750667D01*
X179603618Y-66750667D01*
X179603618Y-66981202D01*
X180002222Y-66981202D01*
X180002222Y-67363411D01*
X180207386Y-67363411D01*
X180207386Y-67185175D01*
X182510498Y-67185175D01*
X182733248Y-67185175D01*
X185030498Y-67185175D01*
X185253248Y-67185175D01*
X185253248Y-66547793D01*
X185030498Y-66547793D01*
X185030498Y-67185175D01*
X182733248Y-67185175D01*
X182733248Y-66547793D01*
X182510498Y-66547793D01*
X182510498Y-67185175D01*
X180207386Y-67185175D01*
X180207386Y-66981202D01*
X180605990Y-66981202D01*
X180605990Y-66750667D01*
X180207386Y-66750667D01*
X180207386Y-66368457D01*
X180002222Y-66368457D01*
X180002222Y-66750667D01*
X179603618Y-66750667D01*
X177693248Y-66750667D01*
X177693248Y-66547793D01*
X177470498Y-66547793D01*
X177470498Y-67185175D01*
X175539980Y-67185175D01*
X175642194Y-67084699D01*
X175062423Y-66394103D01*
X174481552Y-67084699D01*
X173933866Y-67084699D01*
X173933866Y-65597352D01*
X174563618Y-65597352D01*
X174563618Y-65827887D01*
X174962222Y-65827887D01*
X174962222Y-66210096D01*
X175167386Y-66210096D01*
X175167386Y-66031860D01*
X182510498Y-66031860D01*
X182733248Y-66031860D01*
X185030498Y-66031860D01*
X185253248Y-66031860D01*
X185253248Y-65394478D01*
X185030498Y-65394478D01*
X185030498Y-66031860D01*
X182733248Y-66031860D01*
X182733248Y-65394478D01*
X182510498Y-65394478D01*
X182510498Y-66031860D01*
X175167386Y-66031860D01*
X175167386Y-65977547D01*
X176620533Y-65977547D01*
X178519766Y-65977547D01*
X178519766Y-65719351D01*
X179521552Y-65719351D01*
X179525599Y-65759222D01*
X179537581Y-65796196D01*
X179556433Y-65829898D01*
X179580812Y-65858753D01*
X179610352Y-65882417D01*
X179644834Y-65900702D01*
X179682455Y-65912206D01*
X179722778Y-65916089D01*
X179764040Y-65912193D01*
X179802187Y-65900702D01*
X179837116Y-65882380D01*
X179866667Y-65858753D01*
X179891119Y-65829892D01*
X179909990Y-65796196D01*
X179921972Y-65759222D01*
X179926018Y-65719351D01*
X179921943Y-65677522D01*
X179909990Y-65639484D01*
X179891079Y-65604858D01*
X179866667Y-65575462D01*
X179837070Y-65551325D01*
X179802187Y-65532872D01*
X179764040Y-65521381D01*
X179722778Y-65517485D01*
X179682455Y-65521368D01*
X179644834Y-65532872D01*
X179610398Y-65551288D01*
X179580812Y-65575462D01*
X179556472Y-65604852D01*
X179537581Y-65639484D01*
X179525628Y-65677522D01*
X179521552Y-65719351D01*
X178519766Y-65719351D01*
X178519766Y-65438533D01*
X178326325Y-65438533D01*
X178326325Y-65747012D01*
X176813974Y-65747012D01*
X176813974Y-65438533D01*
X176620533Y-65438533D01*
X176620533Y-65977547D01*
X175167386Y-65977547D01*
X175167386Y-65827887D01*
X175565990Y-65827887D01*
X175565990Y-65597352D01*
X175167386Y-65597352D01*
X175167386Y-65215143D01*
X174962222Y-65215143D01*
X174962222Y-65597352D01*
X174563618Y-65597352D01*
X173933866Y-65597352D01*
X173933866Y-64341547D01*
X174481552Y-64341547D01*
X175062423Y-65032235D01*
X175191432Y-64878545D01*
X177470498Y-64878545D01*
X177693248Y-64878545D01*
X179990498Y-64878545D01*
X180213248Y-64878545D01*
X182510498Y-64878545D01*
X182733248Y-64878545D01*
X185030498Y-64878545D01*
X185253248Y-64878545D01*
X185253248Y-64241163D01*
X185030498Y-64241163D01*
X185030498Y-64878545D01*
X182733248Y-64878545D01*
X182733248Y-64241163D01*
X182510498Y-64241163D01*
X182510498Y-64878545D01*
X180213248Y-64878545D01*
X180213248Y-64241163D01*
X179990498Y-64241163D01*
X179990498Y-64878545D01*
X177693248Y-64878545D01*
X177693248Y-64241163D01*
X177470498Y-64241163D01*
X177470498Y-64878545D01*
X175191432Y-64878545D01*
X175642194Y-64341547D01*
X175480628Y-64181721D01*
X175064438Y-64689959D01*
X174643119Y-64181721D01*
X174481552Y-64341547D01*
X173933866Y-64341547D01*
X173933866Y-63712866D01*
X174100533Y-63712866D01*
X174293974Y-63712866D01*
X174293974Y-63406494D01*
X175806325Y-63406494D01*
X175806325Y-63712866D01*
X175999766Y-63712866D01*
X175999766Y-63624755D01*
X177001552Y-63624755D01*
X177163119Y-63783574D01*
X177580316Y-63276434D01*
X178000628Y-63783574D01*
X178059980Y-63725231D01*
X179990498Y-63725231D01*
X180213248Y-63725231D01*
X182510498Y-63725231D01*
X182733248Y-63725231D01*
X185030498Y-63725231D01*
X185253248Y-63725231D01*
X185253248Y-63087848D01*
X185030498Y-63087848D01*
X185030498Y-63725231D01*
X182733248Y-63725231D01*
X182733248Y-63087848D01*
X182510498Y-63087848D01*
X182510498Y-63725231D01*
X180213248Y-63725231D01*
X180213248Y-63087848D01*
X179990498Y-63087848D01*
X179990498Y-63725231D01*
X178059980Y-63725231D01*
X178162194Y-63624755D01*
X177582423Y-62934159D01*
X177001552Y-63624755D01*
X175999766Y-63624755D01*
X175999766Y-63175959D01*
X174100533Y-63175959D01*
X174100533Y-63712866D01*
X173933866Y-63712866D01*
X173933866Y-62471441D01*
X174481552Y-62471441D01*
X174643119Y-62630259D01*
X175060316Y-62123120D01*
X175480628Y-62630259D01*
X175642194Y-62471441D01*
X175361766Y-62137408D01*
X177083618Y-62137408D01*
X177083618Y-62367943D01*
X177482222Y-62367943D01*
X177482222Y-62750152D01*
X177687386Y-62750152D01*
X177687386Y-62571916D01*
X182510498Y-62571916D01*
X182733248Y-62571916D01*
X185030498Y-62571916D01*
X185253248Y-62571916D01*
X185253248Y-61934534D01*
X185030498Y-61934534D01*
X185030498Y-62571916D01*
X182733248Y-62571916D01*
X182733248Y-61934534D01*
X182510498Y-61934534D01*
X182510498Y-62571916D01*
X177687386Y-62571916D01*
X177687386Y-62517602D01*
X179140533Y-62517602D01*
X181039766Y-62517602D01*
X181039766Y-61978589D01*
X180846325Y-61978589D01*
X180846325Y-62287068D01*
X179333974Y-62287068D01*
X179333974Y-61978589D01*
X179140533Y-61978589D01*
X179140533Y-62517602D01*
X177687386Y-62517602D01*
X177687386Y-62367943D01*
X178085990Y-62367943D01*
X178085990Y-62137408D01*
X177687386Y-62137408D01*
X177687386Y-61755198D01*
X177482222Y-61755198D01*
X177482222Y-62137408D01*
X177083618Y-62137408D01*
X175361766Y-62137408D01*
X175062423Y-61780844D01*
X174481552Y-62471441D01*
X173933866Y-62471441D01*
X173933866Y-61106092D01*
X174481552Y-61106092D01*
X174485599Y-61145963D01*
X174497581Y-61182937D01*
X174516433Y-61216639D01*
X174540812Y-61245494D01*
X174570352Y-61269158D01*
X174604834Y-61287443D01*
X174642455Y-61298947D01*
X174682778Y-61302830D01*
X174724040Y-61298934D01*
X174762187Y-61287443D01*
X174797116Y-61269121D01*
X174826667Y-61245494D01*
X174851119Y-61216633D01*
X174869990Y-61182937D01*
X174881972Y-61145963D01*
X174886018Y-61106092D01*
X174881943Y-61064263D01*
X174869990Y-61026225D01*
X174851079Y-60991599D01*
X174844846Y-60984093D01*
X177083618Y-60984093D01*
X177083618Y-61214628D01*
X177482222Y-61214628D01*
X177482222Y-61596837D01*
X177687386Y-61596837D01*
X177687386Y-61418601D01*
X179990498Y-61418601D01*
X180213248Y-61418601D01*
X182510498Y-61418601D01*
X182733248Y-61418601D01*
X182733248Y-61318126D01*
X184561552Y-61318126D01*
X184723119Y-61476945D01*
X185140316Y-60969805D01*
X185560628Y-61476945D01*
X185722194Y-61318126D01*
X185142423Y-60627529D01*
X184561552Y-61318126D01*
X182733248Y-61318126D01*
X182733248Y-60781219D01*
X182510498Y-60781219D01*
X182510498Y-61418601D01*
X180213248Y-61418601D01*
X180213248Y-60781219D01*
X179990498Y-60781219D01*
X179990498Y-61418601D01*
X177687386Y-61418601D01*
X177687386Y-61214628D01*
X178085990Y-61214628D01*
X178085990Y-60984093D01*
X177687386Y-60984093D01*
X177687386Y-60601884D01*
X177482222Y-60601884D01*
X177482222Y-60984093D01*
X177083618Y-60984093D01*
X174844846Y-60984093D01*
X174826667Y-60962203D01*
X174797070Y-60938066D01*
X174762187Y-60919613D01*
X174724040Y-60908122D01*
X174682778Y-60904226D01*
X174642455Y-60908109D01*
X174604834Y-60919613D01*
X174570398Y-60938029D01*
X174540812Y-60962203D01*
X174516472Y-60991593D01*
X174497581Y-61026225D01*
X174485628Y-61064263D01*
X174481552Y-61106092D01*
X173933866Y-61106092D01*
X173933866Y-59830778D01*
X174563618Y-59830778D01*
X174563618Y-60061313D01*
X174962222Y-60061313D01*
X174962222Y-60443523D01*
X175167386Y-60443523D01*
X175167386Y-60061313D01*
X175565990Y-60061313D01*
X175565990Y-59830778D01*
X177083618Y-59830778D01*
X177083618Y-60061313D01*
X177482222Y-60061313D01*
X177482222Y-60443523D01*
X177687386Y-60443523D01*
X177687386Y-60164811D01*
X179521552Y-60164811D01*
X179683119Y-60323630D01*
X180100316Y-59816490D01*
X180520628Y-60323630D01*
X180682194Y-60164811D01*
X180504188Y-59952778D01*
X182041552Y-59952778D01*
X182045599Y-59992649D01*
X182057581Y-60029623D01*
X182076433Y-60063324D01*
X182100812Y-60092179D01*
X182130352Y-60115844D01*
X182164834Y-60134128D01*
X182202455Y-60145632D01*
X182242778Y-60149515D01*
X182284040Y-60145619D01*
X182322187Y-60134128D01*
X182357116Y-60115807D01*
X182386667Y-60092179D01*
X182411119Y-60063318D01*
X182429990Y-60029623D01*
X182441972Y-59992649D01*
X182446018Y-59952778D01*
X182441943Y-59910948D01*
X182429990Y-59872910D01*
X182411079Y-59838285D01*
X182404845Y-59830778D01*
X184643618Y-59830778D01*
X184643618Y-60061313D01*
X185042222Y-60061313D01*
X185042222Y-60443523D01*
X185247386Y-60443523D01*
X185247386Y-60061313D01*
X185645990Y-60061313D01*
X185645990Y-59830778D01*
X185247386Y-59830778D01*
X185247386Y-59448569D01*
X185042222Y-59448569D01*
X185042222Y-59830778D01*
X184643618Y-59830778D01*
X182404845Y-59830778D01*
X182386667Y-59808888D01*
X182357070Y-59784752D01*
X182322187Y-59766298D01*
X182284040Y-59754807D01*
X182242778Y-59750911D01*
X182202455Y-59754794D01*
X182164834Y-59766298D01*
X182130398Y-59784714D01*
X182100812Y-59808888D01*
X182076472Y-59838278D01*
X182057581Y-59872910D01*
X182045628Y-59910948D01*
X182041552Y-59952778D01*
X180504188Y-59952778D01*
X180102423Y-59474214D01*
X179521552Y-60164811D01*
X177687386Y-60164811D01*
X177687386Y-60061313D01*
X178085990Y-60061313D01*
X178085990Y-59830778D01*
X177687386Y-59830778D01*
X177687386Y-59448569D01*
X177482222Y-59448569D01*
X177482222Y-59830778D01*
X177083618Y-59830778D01*
X175565990Y-59830778D01*
X175167386Y-59830778D01*
X175167386Y-59448569D01*
X174962222Y-59448569D01*
X174962222Y-59830778D01*
X174563618Y-59830778D01*
X173933866Y-59830778D01*
X173933866Y-58677464D01*
X174563618Y-58677464D01*
X174563618Y-58907998D01*
X174962222Y-58907998D01*
X174962222Y-59290208D01*
X175167386Y-59290208D01*
X175167386Y-58907998D01*
X175565990Y-58907998D01*
X175565990Y-58677464D01*
X175167386Y-58677464D01*
X175167386Y-58574973D01*
X177001552Y-58574973D01*
X177582423Y-59265662D01*
X178076162Y-58677464D01*
X179603618Y-58677464D01*
X179603618Y-58907998D01*
X180002222Y-58907998D01*
X180002222Y-59290208D01*
X180207386Y-59290208D01*
X180207386Y-59057658D01*
X181660533Y-59057658D01*
X183559766Y-59057658D01*
X183559766Y-58677464D01*
X184643618Y-58677464D01*
X184643618Y-58907998D01*
X185042222Y-58907998D01*
X185042222Y-59290208D01*
X185247386Y-59290208D01*
X185247386Y-58907998D01*
X185645990Y-58907998D01*
X185645990Y-58677464D01*
X185247386Y-58677464D01*
X185247386Y-58295254D01*
X185042222Y-58295254D01*
X185042222Y-58677464D01*
X184643618Y-58677464D01*
X183559766Y-58677464D01*
X183559766Y-58518645D01*
X183366325Y-58518645D01*
X183366325Y-58827124D01*
X181853974Y-58827124D01*
X181853974Y-58518645D01*
X181660533Y-58518645D01*
X181660533Y-59057658D01*
X180207386Y-59057658D01*
X180207386Y-58907998D01*
X180605990Y-58907998D01*
X180605990Y-58677464D01*
X180207386Y-58677464D01*
X180207386Y-58295254D01*
X180002222Y-58295254D01*
X180002222Y-58677464D01*
X179603618Y-58677464D01*
X178076162Y-58677464D01*
X178162194Y-58574973D01*
X178000628Y-58415147D01*
X177584438Y-58923386D01*
X177163119Y-58415147D01*
X177001552Y-58574973D01*
X175167386Y-58574973D01*
X175167386Y-58295254D01*
X174962222Y-58295254D01*
X174962222Y-58677464D01*
X174563618Y-58677464D01*
X173933866Y-58677464D01*
X173933866Y-57524149D01*
X174563618Y-57524149D01*
X174563618Y-57754684D01*
X174962222Y-57754684D01*
X174962222Y-58136893D01*
X175167386Y-58136893D01*
X175167386Y-57946292D01*
X176620533Y-57946292D01*
X176813974Y-57946292D01*
X176813974Y-57639920D01*
X178326325Y-57639920D01*
X178326325Y-57946292D01*
X178519766Y-57946292D01*
X178519766Y-57524149D01*
X179603618Y-57524149D01*
X179603618Y-57754684D01*
X180002222Y-57754684D01*
X180002222Y-58136893D01*
X180207386Y-58136893D01*
X180207386Y-57958657D01*
X182510498Y-57958657D01*
X182733248Y-57958657D01*
X182733248Y-57524149D01*
X184643618Y-57524149D01*
X184643618Y-57754684D01*
X185042222Y-57754684D01*
X185042222Y-58136893D01*
X185247386Y-58136893D01*
X185247386Y-57754684D01*
X185645990Y-57754684D01*
X185645990Y-57524149D01*
X185247386Y-57524149D01*
X185247386Y-57141939D01*
X185042222Y-57141939D01*
X185042222Y-57524149D01*
X184643618Y-57524149D01*
X182733248Y-57524149D01*
X182733248Y-57321275D01*
X182510498Y-57321275D01*
X182510498Y-57958657D01*
X180207386Y-57958657D01*
X180207386Y-57754684D01*
X180605990Y-57754684D01*
X180605990Y-57524149D01*
X180207386Y-57524149D01*
X180207386Y-57141939D01*
X180002222Y-57141939D01*
X180002222Y-57524149D01*
X179603618Y-57524149D01*
X178519766Y-57524149D01*
X178519766Y-57409385D01*
X176620533Y-57409385D01*
X176620533Y-57946292D01*
X175167386Y-57946292D01*
X175167386Y-57754684D01*
X175565990Y-57754684D01*
X175565990Y-57524149D01*
X175167386Y-57524149D01*
X175167386Y-57141939D01*
X174962222Y-57141939D01*
X174962222Y-57524149D01*
X174563618Y-57524149D01*
X173933866Y-57524149D01*
X173933866Y-56370834D01*
X174563618Y-56370834D01*
X174563618Y-56601369D01*
X174962222Y-56601369D01*
X174962222Y-56983579D01*
X175167386Y-56983579D01*
X175167386Y-56704867D01*
X177001552Y-56704867D01*
X177163119Y-56863686D01*
X177580316Y-56356546D01*
X178000628Y-56863686D01*
X178162194Y-56704867D01*
X177881766Y-56370834D01*
X179603618Y-56370834D01*
X179603618Y-56601369D01*
X180002222Y-56601369D01*
X180002222Y-56983579D01*
X180207386Y-56983579D01*
X180207386Y-56805342D01*
X182510498Y-56805342D01*
X182733248Y-56805342D01*
X182733248Y-56268344D01*
X184561552Y-56268344D01*
X185142423Y-56959032D01*
X185722194Y-56268344D01*
X185560628Y-56108517D01*
X185144438Y-56616756D01*
X184723119Y-56108517D01*
X184561552Y-56268344D01*
X182733248Y-56268344D01*
X182733248Y-56167960D01*
X182510498Y-56167960D01*
X182510498Y-56805342D01*
X180207386Y-56805342D01*
X180207386Y-56601369D01*
X180605990Y-56601369D01*
X180605990Y-56370834D01*
X180207386Y-56370834D01*
X180207386Y-55988625D01*
X180002222Y-55988625D01*
X180002222Y-56370834D01*
X179603618Y-56370834D01*
X177881766Y-56370834D01*
X177582423Y-56014270D01*
X177001552Y-56704867D01*
X175167386Y-56704867D01*
X175167386Y-56601369D01*
X175565990Y-56601369D01*
X175565990Y-56370834D01*
X175167386Y-56370834D01*
X175167386Y-55988625D01*
X174962222Y-55988625D01*
X174962222Y-56370834D01*
X174563618Y-56370834D01*
X173933866Y-56370834D01*
X173933866Y-55217520D01*
X174563618Y-55217520D01*
X174563618Y-55448054D01*
X174962222Y-55448054D01*
X174962222Y-55830264D01*
X175167386Y-55830264D01*
X175167386Y-55448054D01*
X175565990Y-55448054D01*
X175565990Y-55217520D01*
X177083618Y-55217520D01*
X177083618Y-55448054D01*
X177482222Y-55448054D01*
X177482222Y-55830264D01*
X177687386Y-55830264D01*
X177687386Y-55448054D01*
X178085990Y-55448054D01*
X178085990Y-55217520D01*
X177687386Y-55217520D01*
X177687386Y-55115029D01*
X179521552Y-55115029D01*
X180102423Y-55805717D01*
X180231431Y-55652028D01*
X182510498Y-55652028D01*
X182733248Y-55652028D01*
X182733248Y-55639663D01*
X184180533Y-55639663D01*
X184373974Y-55639663D01*
X184373974Y-55333291D01*
X185886325Y-55333291D01*
X185886325Y-55639663D01*
X186079766Y-55639663D01*
X186079766Y-55102756D01*
X184180533Y-55102756D01*
X184180533Y-55639663D01*
X182733248Y-55639663D01*
X182733248Y-55014645D01*
X182510498Y-55014645D01*
X182510498Y-55652028D01*
X180231431Y-55652028D01*
X180682194Y-55115029D01*
X180520628Y-54955203D01*
X180104438Y-55463442D01*
X179683119Y-54955203D01*
X179521552Y-55115029D01*
X177687386Y-55115029D01*
X177687386Y-54835310D01*
X177482222Y-54835310D01*
X177482222Y-55217520D01*
X177083618Y-55217520D01*
X175565990Y-55217520D01*
X175167386Y-55217520D01*
X175167386Y-54835310D01*
X174962222Y-54835310D01*
X174962222Y-55217520D01*
X174563618Y-55217520D01*
X173933866Y-55217520D01*
X173933866Y-54064205D01*
X174563618Y-54064205D01*
X174563618Y-54294740D01*
X174962222Y-54294740D01*
X174962222Y-54676949D01*
X175167386Y-54676949D01*
X175167386Y-54486348D01*
X179140533Y-54486348D01*
X179333974Y-54486348D01*
X179333974Y-54179976D01*
X180846325Y-54179976D01*
X180846325Y-54486348D01*
X181039766Y-54486348D01*
X181039766Y-54398237D01*
X182041552Y-54398237D01*
X182203119Y-54557056D01*
X182620316Y-54049917D01*
X183040628Y-54557056D01*
X183202194Y-54398237D01*
X184561552Y-54398237D01*
X184723119Y-54557056D01*
X185140316Y-54049917D01*
X185560628Y-54557056D01*
X185722194Y-54398237D01*
X185142423Y-53707641D01*
X184561552Y-54398237D01*
X183202194Y-54398237D01*
X182622423Y-53707641D01*
X182041552Y-54398237D01*
X181039766Y-54398237D01*
X181039766Y-53949441D01*
X179140533Y-53949441D01*
X179140533Y-54486348D01*
X175167386Y-54486348D01*
X175167386Y-54294740D01*
X175565990Y-54294740D01*
X175565990Y-54186204D01*
X177001552Y-54186204D01*
X177005599Y-54226075D01*
X177017581Y-54263049D01*
X177036433Y-54296751D01*
X177060812Y-54325606D01*
X177090352Y-54349270D01*
X177124834Y-54367554D01*
X177162455Y-54379059D01*
X177202778Y-54382942D01*
X177244040Y-54379046D01*
X177282187Y-54367554D01*
X177317116Y-54349233D01*
X177346667Y-54325606D01*
X177371119Y-54296744D01*
X177389990Y-54263049D01*
X177401972Y-54226075D01*
X177406018Y-54186204D01*
X177401943Y-54144375D01*
X177389990Y-54106337D01*
X177371079Y-54071711D01*
X177346667Y-54042315D01*
X177317070Y-54018178D01*
X177282187Y-53999725D01*
X177244040Y-53988233D01*
X177202778Y-53984337D01*
X177162455Y-53988221D01*
X177124834Y-53999725D01*
X177090398Y-54018141D01*
X177060812Y-54042315D01*
X177036472Y-54071704D01*
X177017581Y-54106337D01*
X177005628Y-54144375D01*
X177001552Y-54186204D01*
X175565990Y-54186204D01*
X175565990Y-54064205D01*
X175167386Y-54064205D01*
X175167386Y-53681995D01*
X174962222Y-53681995D01*
X174962222Y-54064205D01*
X174563618Y-54064205D01*
X173933866Y-54064205D01*
X173933866Y-52910890D01*
X174563618Y-52910890D01*
X174563618Y-53141425D01*
X174962222Y-53141425D01*
X174962222Y-53523634D01*
X175167386Y-53523634D01*
X175167386Y-53345398D01*
X177470498Y-53345398D01*
X177693248Y-53345398D01*
X177693248Y-53244923D01*
X179521552Y-53244923D01*
X179683119Y-53403742D01*
X180100316Y-52896602D01*
X180520628Y-53403742D01*
X180682194Y-53244923D01*
X180401766Y-52910890D01*
X182123618Y-52910890D01*
X182123618Y-53141425D01*
X182522222Y-53141425D01*
X182522222Y-53523634D01*
X182727386Y-53523634D01*
X182727386Y-53141425D01*
X183125990Y-53141425D01*
X183125990Y-52910890D01*
X184643618Y-52910890D01*
X184643618Y-53141425D01*
X185042222Y-53141425D01*
X185042222Y-53523634D01*
X185247386Y-53523634D01*
X185247386Y-53141425D01*
X185645990Y-53141425D01*
X185645990Y-52910890D01*
X185247386Y-52910890D01*
X185247386Y-52528681D01*
X185042222Y-52528681D01*
X185042222Y-52910890D01*
X184643618Y-52910890D01*
X183125990Y-52910890D01*
X182727386Y-52910890D01*
X182727386Y-52528681D01*
X182522222Y-52528681D01*
X182522222Y-52910890D01*
X182123618Y-52910890D01*
X180401766Y-52910890D01*
X180102423Y-52554326D01*
X179521552Y-53244923D01*
X177693248Y-53244923D01*
X177693248Y-52708016D01*
X177470498Y-52708016D01*
X177470498Y-53345398D01*
X175167386Y-53345398D01*
X175167386Y-53141425D01*
X175565990Y-53141425D01*
X175565990Y-52910890D01*
X175167386Y-52910890D01*
X175167386Y-52528681D01*
X174962222Y-52528681D01*
X174962222Y-52910890D01*
X174563618Y-52910890D01*
X173933866Y-52910890D01*
X173933866Y-51757575D01*
X174563618Y-51757575D01*
X174563618Y-51988110D01*
X174962222Y-51988110D01*
X174962222Y-52370320D01*
X175167386Y-52370320D01*
X175167386Y-52137770D01*
X176620533Y-52137770D01*
X178519766Y-52137770D01*
X178519766Y-51757575D01*
X179603618Y-51757575D01*
X179603618Y-51988110D01*
X180002222Y-51988110D01*
X180002222Y-52370320D01*
X180207386Y-52370320D01*
X180207386Y-51988110D01*
X180605990Y-51988110D01*
X180605990Y-51757575D01*
X180207386Y-51757575D01*
X180207386Y-51655085D01*
X182041552Y-51655085D01*
X182622423Y-52345773D01*
X183116163Y-51757575D01*
X184643618Y-51757575D01*
X184643618Y-51988110D01*
X185042222Y-51988110D01*
X185042222Y-52370320D01*
X185247386Y-52370320D01*
X185247386Y-51988110D01*
X185645990Y-51988110D01*
X185645990Y-51757575D01*
X185247386Y-51757575D01*
X185247386Y-51375366D01*
X185042222Y-51375366D01*
X185042222Y-51757575D01*
X184643618Y-51757575D01*
X183116163Y-51757575D01*
X183202194Y-51655085D01*
X183040628Y-51495259D01*
X182624438Y-52003497D01*
X182203119Y-51495259D01*
X182041552Y-51655085D01*
X180207386Y-51655085D01*
X180207386Y-51375366D01*
X180002222Y-51375366D01*
X180002222Y-51757575D01*
X179603618Y-51757575D01*
X178519766Y-51757575D01*
X178519766Y-51598756D01*
X178326325Y-51598756D01*
X178326325Y-51907235D01*
X176813974Y-51907235D01*
X176813974Y-51598756D01*
X176620533Y-51598756D01*
X176620533Y-52137770D01*
X175167386Y-52137770D01*
X175167386Y-51988110D01*
X175565990Y-51988110D01*
X175565990Y-51757575D01*
X175167386Y-51757575D01*
X175167386Y-51375366D01*
X174962222Y-51375366D01*
X174962222Y-51757575D01*
X174563618Y-51757575D01*
X173933866Y-51757575D01*
X173933866Y-51038769D01*
X177470498Y-51038769D01*
X177693248Y-51038769D01*
X177693248Y-51026404D01*
X181660533Y-51026404D01*
X181853974Y-51026404D01*
X181853974Y-50720032D01*
X183366325Y-50720032D01*
X183366325Y-51026404D01*
X183559766Y-51026404D01*
X183559766Y-50604261D01*
X184643618Y-50604261D01*
X184643618Y-50834795D01*
X185042222Y-50834795D01*
X185042222Y-51217005D01*
X185247386Y-51217005D01*
X185247386Y-50834795D01*
X185645990Y-50834795D01*
X185645990Y-50604261D01*
X185247386Y-50604261D01*
X185247386Y-50222051D01*
X185042222Y-50222051D01*
X185042222Y-50604261D01*
X184643618Y-50604261D01*
X183559766Y-50604261D01*
X183559766Y-50489497D01*
X181660533Y-50489497D01*
X181660533Y-51026404D01*
X177693248Y-51026404D01*
X177693248Y-50726260D01*
X179521552Y-50726260D01*
X179525599Y-50766131D01*
X179537581Y-50803105D01*
X179556433Y-50836807D01*
X179580812Y-50865662D01*
X179610352Y-50889326D01*
X179644834Y-50907610D01*
X179682455Y-50919114D01*
X179722778Y-50922998D01*
X179764040Y-50919102D01*
X179802187Y-50907610D01*
X179837116Y-50889289D01*
X179866667Y-50865662D01*
X179891119Y-50836800D01*
X179909990Y-50803105D01*
X179921972Y-50766131D01*
X179926018Y-50726260D01*
X179921943Y-50684431D01*
X179909990Y-50646393D01*
X179891079Y-50611767D01*
X179866667Y-50582370D01*
X179837070Y-50558234D01*
X179802187Y-50539781D01*
X179764040Y-50528289D01*
X179722778Y-50524393D01*
X179682455Y-50528276D01*
X179644834Y-50539781D01*
X179610398Y-50558197D01*
X179580812Y-50582370D01*
X179556472Y-50611760D01*
X179537581Y-50646393D01*
X179525628Y-50684431D01*
X179521552Y-50726260D01*
X177693248Y-50726260D01*
X177693248Y-50401386D01*
X177470498Y-50401386D01*
X177470498Y-51038769D01*
X173933866Y-51038769D01*
X173933866Y-50726260D01*
X174481552Y-50726260D01*
X174485599Y-50766131D01*
X174497581Y-50803105D01*
X174516433Y-50836807D01*
X174540812Y-50865662D01*
X174570352Y-50889326D01*
X174604834Y-50907610D01*
X174642455Y-50919114D01*
X174682778Y-50922998D01*
X174724040Y-50919102D01*
X174762187Y-50907610D01*
X174797116Y-50889289D01*
X174826667Y-50865662D01*
X174851119Y-50836800D01*
X174869990Y-50803105D01*
X174881972Y-50766131D01*
X174886018Y-50726260D01*
X174881943Y-50684431D01*
X174869990Y-50646393D01*
X174851079Y-50611767D01*
X174826667Y-50582370D01*
X174797070Y-50558234D01*
X174762187Y-50539781D01*
X174724040Y-50528289D01*
X174682778Y-50524393D01*
X174642455Y-50528276D01*
X174604834Y-50539781D01*
X174570398Y-50558197D01*
X174540812Y-50582370D01*
X174516472Y-50611760D01*
X174497581Y-50646393D01*
X174485628Y-50684431D01*
X174481552Y-50726260D01*
X173933866Y-50726260D01*
X173933866Y-50055384D01*
X186246433Y-50055384D01*
X186246433Y-69836707D01*
G37*
D11*
%TO.P,SW3,1,1*%
%TO.N,sw3*%
X144040000Y-54920000D03*
%TO.P,SW3,2,2*%
%TO.N,GND*%
X137690000Y-57460000D03*
%TD*%
D12*
%TO.P,R3,1*%
%TO.N,Net-(D3-PadA)*%
X148460000Y-47000000D03*
%TO.P,R3,2*%
%TO.N,d3*%
X153540000Y-47000000D03*
%TD*%
D13*
%TO.P,D3,A*%
%TO.N,Net-(D3-PadA)*%
X142770000Y-47000000D03*
D14*
%TO.P,D3,C*%
%TO.N,GND*%
X140230000Y-47000000D03*
%TD*%
D11*
%TO.P,SW2,1,1*%
%TO.N,sw2*%
X125540000Y-54920000D03*
%TO.P,SW2,2,2*%
%TO.N,GND*%
X119190000Y-57460000D03*
%TD*%
D12*
%TO.P,R2,1*%
%TO.N,Net-(D2-PadA)*%
X129960000Y-47000000D03*
%TO.P,R2,2*%
%TO.N,d2*%
X135040000Y-47000000D03*
%TD*%
D11*
%TO.P,SW1,1,1*%
%TO.N,sw1*%
X107040000Y-54920000D03*
%TO.P,SW1,2,2*%
%TO.N,GND*%
X100690000Y-57460000D03*
%TD*%
D12*
%TO.P,R1,1*%
%TO.N,Net-(D1-PadA)*%
X111460000Y-47000000D03*
%TO.P,R1,2*%
%TO.N,d1*%
X116540000Y-47000000D03*
%TD*%
D13*
%TO.P,D1,A*%
%TO.N,Net-(D1-PadA)*%
X105770000Y-47000000D03*
D14*
%TO.P,D1,C*%
%TO.N,GND*%
X103230000Y-47000000D03*
%TD*%
D13*
%TO.P,D2,A*%
%TO.N,Net-(D2-PadA)*%
X124270000Y-47000000D03*
D14*
%TO.P,D2,C*%
%TO.N,GND*%
X121730000Y-47000000D03*
%TD*%
D15*
%TO.P,U1,1,GPIO26/ADC0/A0*%
%TO.N,unconnected-(U1-GPIO26{slash}ADC0{slash}A0-Pad1)*%
X172380000Y-52380000D03*
%TO.P,U1,2,GPIO27/ADC1/A1*%
%TO.N,unconnected-(U1-GPIO27{slash}ADC1{slash}A1-Pad2)*%
X172380000Y-54920000D03*
%TO.P,U1,3,GPIO28/ADC2/A2*%
%TO.N,unconnected-(U1-GPIO28{slash}ADC2{slash}A2-Pad3)*%
X172380000Y-57460000D03*
%TO.P,U1,4,GPIO29/ADC3/A3*%
%TO.N,sw1*%
X172380000Y-60000000D03*
%TO.P,U1,5,GPIO6/SDA*%
%TO.N,sw2*%
X172380000Y-62540000D03*
%TO.P,U1,6,GPIO7/SCL*%
%TO.N,sw3*%
X172380000Y-65080000D03*
%TO.P,U1,7,GPIO0/TX*%
%TO.N,sw4*%
X172380000Y-67620000D03*
%TO.P,U1,8,GPIO1/RX*%
%TO.N,d4*%
X187620000Y-67620000D03*
%TO.P,U1,9,GPIO2/SCK*%
%TO.N,d3*%
X187620000Y-65080000D03*
%TO.P,U1,10,GPIO4/MISO*%
%TO.N,d2*%
X187620000Y-62540000D03*
%TO.P,U1,11,GPIO3/MOSI*%
%TO.N,d1*%
X187620000Y-60000000D03*
%TO.P,U1,12,3V3*%
%TO.N,unconnected-(U1-3V3-Pad12)*%
X187620000Y-57460000D03*
%TO.P,U1,13,GND*%
%TO.N,GND*%
X187620000Y-54920000D03*
%TO.P,U1,14,VBUS*%
%TO.N,unconnected-(U1-VBUS-Pad14)*%
X187620000Y-52380000D03*
%TD*%
D12*
%TO.P,R4,1*%
%TO.N,Net-(D4-PadA)*%
X166960000Y-47000000D03*
%TO.P,R4,2*%
%TO.N,d4*%
X172040000Y-47000000D03*
%TD*%
D13*
%TO.P,D4,A*%
%TO.N,Net-(D4-PadA)*%
X161270000Y-47000000D03*
D14*
%TO.P,D4,C*%
%TO.N,GND*%
X158730000Y-47000000D03*
%TD*%
D11*
%TO.P,SW4,1,1*%
%TO.N,sw4*%
X162540000Y-54960000D03*
%TO.P,SW4,2,2*%
%TO.N,GND*%
X156190000Y-57500000D03*
%TD*%
D16*
%TO.N,GND*%
X156150000Y-57460000D02*
X156190000Y-57500000D01*
%TO.N,Net-(D1-PadA)*%
X105770000Y-47000000D02*
X111460000Y-47000000D01*
%TO.N,Net-(D2-PadA)*%
X129960000Y-47000000D02*
X124270000Y-47000000D01*
%TO.N,Net-(D3-PadA)*%
X142770000Y-47000000D02*
X148460000Y-47000000D01*
%TO.N,Net-(D4-PadA)*%
X161270000Y-47000000D02*
X166960000Y-47000000D01*
%TD*%
%TA.AperFunction,Conductor*%
%TO.N,GND*%
G36*
X187503244Y-43500670D02*
G01*
X187807046Y-43516592D01*
X187819953Y-43517949D01*
X187951089Y-43538718D01*
X188117209Y-43565028D01*
X188129896Y-43567724D01*
X188420625Y-43645625D01*
X188432965Y-43649635D01*
X188713938Y-43757490D01*
X188725790Y-43762767D01*
X188993968Y-43899411D01*
X189005199Y-43905896D01*
X189257608Y-44069812D01*
X189268109Y-44077441D01*
X189502010Y-44266850D01*
X189511655Y-44275535D01*
X189724464Y-44488344D01*
X189733149Y-44497989D01*
X189922558Y-44731890D01*
X189930187Y-44742391D01*
X190094101Y-44994796D01*
X190100591Y-45006036D01*
X190237231Y-45274206D01*
X190242510Y-45286064D01*
X190350363Y-45567033D01*
X190354374Y-45579376D01*
X190432273Y-45870097D01*
X190434971Y-45882794D01*
X190482050Y-46180046D01*
X190483407Y-46192953D01*
X190499330Y-46496756D01*
X190499500Y-46503246D01*
X190499500Y-73496753D01*
X190499330Y-73503243D01*
X190483407Y-73807046D01*
X190482050Y-73819953D01*
X190434971Y-74117205D01*
X190432273Y-74129902D01*
X190354374Y-74420623D01*
X190350363Y-74432966D01*
X190242510Y-74713935D01*
X190237231Y-74725793D01*
X190100591Y-74993963D01*
X190094101Y-75005203D01*
X189930187Y-75257608D01*
X189922558Y-75268109D01*
X189733149Y-75502010D01*
X189724464Y-75511655D01*
X189511655Y-75724464D01*
X189502010Y-75733149D01*
X189268109Y-75922558D01*
X189257608Y-75930187D01*
X189005203Y-76094101D01*
X188993963Y-76100591D01*
X188725793Y-76237231D01*
X188713935Y-76242510D01*
X188432966Y-76350363D01*
X188420623Y-76354374D01*
X188129902Y-76432273D01*
X188117205Y-76434971D01*
X187819953Y-76482050D01*
X187807046Y-76483407D01*
X187503244Y-76499330D01*
X187496754Y-76499500D01*
X98503246Y-76499500D01*
X98496756Y-76499330D01*
X98192953Y-76483407D01*
X98180046Y-76482050D01*
X97882794Y-76434971D01*
X97870097Y-76432273D01*
X97579376Y-76354374D01*
X97567033Y-76350363D01*
X97286064Y-76242510D01*
X97274206Y-76237231D01*
X97006036Y-76100591D01*
X96994796Y-76094101D01*
X96742391Y-75930187D01*
X96731890Y-75922558D01*
X96497989Y-75733149D01*
X96488344Y-75724464D01*
X96275535Y-75511655D01*
X96266850Y-75502010D01*
X96077441Y-75268109D01*
X96069812Y-75257608D01*
X96065033Y-75250249D01*
X95905896Y-75005199D01*
X95899408Y-74993963D01*
X95845380Y-74887928D01*
X95762767Y-74725790D01*
X95757489Y-74713935D01*
X95649636Y-74432966D01*
X95645625Y-74420623D01*
X95622968Y-74336066D01*
X95567724Y-74129896D01*
X95565028Y-74117205D01*
X95517949Y-73819953D01*
X95516592Y-73807046D01*
X95500670Y-73503243D01*
X95500500Y-73496753D01*
X95500500Y-73362332D01*
X96399500Y-73362332D01*
X96399500Y-73637667D01*
X96399501Y-73637684D01*
X96435438Y-73910655D01*
X96435439Y-73910660D01*
X96435440Y-73910666D01*
X96435441Y-73910668D01*
X96506704Y-74176630D01*
X96612075Y-74431017D01*
X96612080Y-74431028D01*
X96691809Y-74569121D01*
X96749751Y-74669479D01*
X96749753Y-74669482D01*
X96749754Y-74669483D01*
X96917370Y-74887926D01*
X96917376Y-74887933D01*
X97112066Y-75082623D01*
X97112072Y-75082628D01*
X97330521Y-75250249D01*
X97483778Y-75338732D01*
X97568971Y-75387919D01*
X97568976Y-75387921D01*
X97568979Y-75387923D01*
X97823368Y-75493295D01*
X98089334Y-75564560D01*
X98362326Y-75600500D01*
X98362333Y-75600500D01*
X98637667Y-75600500D01*
X98637674Y-75600500D01*
X98910666Y-75564560D01*
X99176632Y-75493295D01*
X99431021Y-75387923D01*
X99669479Y-75250249D01*
X99887928Y-75082628D01*
X100082628Y-74887928D01*
X100250249Y-74669479D01*
X100387923Y-74431021D01*
X100493295Y-74176632D01*
X100564560Y-73910666D01*
X100600500Y-73637674D01*
X100600500Y-73362332D01*
X185399500Y-73362332D01*
X185399500Y-73637667D01*
X185399501Y-73637684D01*
X185435438Y-73910655D01*
X185435439Y-73910660D01*
X185435440Y-73910666D01*
X185435441Y-73910668D01*
X185506704Y-74176630D01*
X185612075Y-74431017D01*
X185612080Y-74431028D01*
X185691809Y-74569121D01*
X185749751Y-74669479D01*
X185749753Y-74669482D01*
X185749754Y-74669483D01*
X185917370Y-74887926D01*
X185917376Y-74887933D01*
X186112066Y-75082623D01*
X186112072Y-75082628D01*
X186330521Y-75250249D01*
X186483778Y-75338732D01*
X186568971Y-75387919D01*
X186568976Y-75387921D01*
X186568979Y-75387923D01*
X186823368Y-75493295D01*
X187089334Y-75564560D01*
X187362326Y-75600500D01*
X187362333Y-75600500D01*
X187637667Y-75600500D01*
X187637674Y-75600500D01*
X187910666Y-75564560D01*
X188176632Y-75493295D01*
X188431021Y-75387923D01*
X188669479Y-75250249D01*
X188887928Y-75082628D01*
X189082628Y-74887928D01*
X189250249Y-74669479D01*
X189387923Y-74431021D01*
X189493295Y-74176632D01*
X189564560Y-73910666D01*
X189600500Y-73637674D01*
X189600500Y-73362326D01*
X189564560Y-73089334D01*
X189493295Y-72823368D01*
X189387923Y-72568979D01*
X189387921Y-72568976D01*
X189387919Y-72568971D01*
X189338732Y-72483778D01*
X189250249Y-72330521D01*
X189082628Y-72112072D01*
X189082623Y-72112066D01*
X188887933Y-71917376D01*
X188887926Y-71917370D01*
X188669483Y-71749754D01*
X188669482Y-71749753D01*
X188669479Y-71749751D01*
X188574407Y-71694861D01*
X188431028Y-71612080D01*
X188431017Y-71612075D01*
X188176630Y-71506704D01*
X188043649Y-71471072D01*
X187910666Y-71435440D01*
X187910660Y-71435439D01*
X187910655Y-71435438D01*
X187637684Y-71399501D01*
X187637679Y-71399500D01*
X187637674Y-71399500D01*
X187362326Y-71399500D01*
X187362320Y-71399500D01*
X187362315Y-71399501D01*
X187089344Y-71435438D01*
X187089337Y-71435439D01*
X187089334Y-71435440D01*
X187033125Y-71450500D01*
X186823369Y-71506704D01*
X186568982Y-71612075D01*
X186568971Y-71612080D01*
X186330516Y-71749754D01*
X186112073Y-71917370D01*
X186112066Y-71917376D01*
X185917376Y-72112066D01*
X185917370Y-72112073D01*
X185749754Y-72330516D01*
X185612080Y-72568971D01*
X185612075Y-72568982D01*
X185506704Y-72823369D01*
X185435441Y-73089331D01*
X185435438Y-73089344D01*
X185399501Y-73362315D01*
X185399500Y-73362332D01*
X100600500Y-73362332D01*
X100600500Y-73362326D01*
X100564560Y-73089334D01*
X100493295Y-72823368D01*
X100387923Y-72568979D01*
X100387921Y-72568976D01*
X100387919Y-72568971D01*
X100338732Y-72483778D01*
X100250249Y-72330521D01*
X100082628Y-72112072D01*
X100082623Y-72112066D01*
X99887933Y-71917376D01*
X99887926Y-71917370D01*
X99669483Y-71749754D01*
X99669482Y-71749753D01*
X99669479Y-71749751D01*
X99574407Y-71694861D01*
X99431028Y-71612080D01*
X99431017Y-71612075D01*
X99176630Y-71506704D01*
X99043649Y-71471072D01*
X98910666Y-71435440D01*
X98910660Y-71435439D01*
X98910655Y-71435438D01*
X98637684Y-71399501D01*
X98637679Y-71399500D01*
X98637674Y-71399500D01*
X98362326Y-71399500D01*
X98362320Y-71399500D01*
X98362315Y-71399501D01*
X98089344Y-71435438D01*
X98089337Y-71435439D01*
X98089334Y-71435440D01*
X98033125Y-71450500D01*
X97823369Y-71506704D01*
X97568982Y-71612075D01*
X97568971Y-71612080D01*
X97330516Y-71749754D01*
X97112073Y-71917370D01*
X97112066Y-71917376D01*
X96917376Y-72112066D01*
X96917370Y-72112073D01*
X96749754Y-72330516D01*
X96612080Y-72568971D01*
X96612075Y-72568982D01*
X96506704Y-72823369D01*
X96435441Y-73089331D01*
X96435438Y-73089344D01*
X96399501Y-73362315D01*
X96399500Y-73362332D01*
X95500500Y-73362332D01*
X95500500Y-69675040D01*
X174095533Y-69675040D01*
X186084766Y-69675040D01*
X186084766Y-52280639D01*
X186357500Y-52280639D01*
X186357500Y-52479360D01*
X186388587Y-52675637D01*
X186449993Y-52864629D01*
X186449994Y-52864632D01*
X186540213Y-53041694D01*
X186657019Y-53202464D01*
X186797536Y-53342981D01*
X186958306Y-53459787D01*
X187115332Y-53539796D01*
X187166127Y-53587769D01*
X187182922Y-53655590D01*
X187160385Y-53721725D01*
X187115332Y-53760764D01*
X186958566Y-53840641D01*
X186921283Y-53867729D01*
X186921282Y-53867730D01*
X187535906Y-54482352D01*
X187448429Y-54505792D01*
X187347070Y-54564311D01*
X187264311Y-54647070D01*
X187205792Y-54748429D01*
X187182352Y-54835905D01*
X186567730Y-54221282D01*
X186567729Y-54221283D01*
X186540643Y-54258564D01*
X186450457Y-54435562D01*
X186389075Y-54624476D01*
X186389075Y-54624479D01*
X186358000Y-54820678D01*
X186358000Y-55019321D01*
X186389075Y-55215520D01*
X186389075Y-55215523D01*
X186450457Y-55404437D01*
X186540641Y-55581432D01*
X186567730Y-55618715D01*
X186567731Y-55618716D01*
X187182352Y-55004094D01*
X187205792Y-55091571D01*
X187264311Y-55192930D01*
X187347070Y-55275689D01*
X187448429Y-55334208D01*
X187535905Y-55357647D01*
X186921283Y-55972268D01*
X186921283Y-55972269D01*
X186958567Y-55999358D01*
X187115331Y-56079234D01*
X187166127Y-56127209D01*
X187182922Y-56195030D01*
X187160384Y-56261165D01*
X187115331Y-56300204D01*
X186958305Y-56380213D01*
X186797533Y-56497021D01*
X186657021Y-56637533D01*
X186540213Y-56798305D01*
X186449994Y-56975367D01*
X186449993Y-56975370D01*
X186388587Y-57164362D01*
X186357500Y-57360639D01*
X186357500Y-57559360D01*
X186388587Y-57755637D01*
X186449993Y-57944629D01*
X186449994Y-57944632D01*
X186536386Y-58114184D01*
X186540213Y-58121694D01*
X186657019Y-58282464D01*
X186797536Y-58422981D01*
X186958306Y-58539787D01*
X187076832Y-58600179D01*
X187114780Y-58619515D01*
X187165576Y-58667490D01*
X187182371Y-58735311D01*
X187159833Y-58801446D01*
X187114780Y-58840485D01*
X186958305Y-58920213D01*
X186797533Y-59037021D01*
X186657021Y-59177533D01*
X186540213Y-59338305D01*
X186449994Y-59515367D01*
X186449993Y-59515370D01*
X186388587Y-59704362D01*
X186382578Y-59742302D01*
X186357500Y-59900639D01*
X186357500Y-60099361D01*
X186365127Y-60147513D01*
X186388587Y-60295637D01*
X186449993Y-60484629D01*
X186449994Y-60484632D01*
X186496951Y-60576788D01*
X186540213Y-60661694D01*
X186657019Y-60822464D01*
X186797536Y-60962981D01*
X186958306Y-61079787D01*
X187024279Y-61113402D01*
X187114780Y-61159515D01*
X187165576Y-61207490D01*
X187182371Y-61275311D01*
X187159833Y-61341446D01*
X187114780Y-61380485D01*
X186958305Y-61460213D01*
X186797533Y-61577021D01*
X186657021Y-61717533D01*
X186540213Y-61878305D01*
X186449994Y-62055367D01*
X186449993Y-62055370D01*
X186388587Y-62244362D01*
X186357500Y-62440639D01*
X186357500Y-62639360D01*
X186388587Y-62835637D01*
X186449993Y-63024629D01*
X186449994Y-63024632D01*
X186540213Y-63201694D01*
X186657019Y-63362464D01*
X186797536Y-63502981D01*
X186958306Y-63619787D01*
X187076832Y-63680179D01*
X187114780Y-63699515D01*
X187165576Y-63747490D01*
X187182371Y-63815311D01*
X187159833Y-63881446D01*
X187114780Y-63920485D01*
X186958305Y-64000213D01*
X186797533Y-64117021D01*
X186657021Y-64257533D01*
X186540213Y-64418305D01*
X186449994Y-64595367D01*
X186449993Y-64595370D01*
X186388587Y-64784362D01*
X186357500Y-64980639D01*
X186357500Y-65179360D01*
X186388587Y-65375637D01*
X186449993Y-65564629D01*
X186449994Y-65564632D01*
X186540213Y-65741694D01*
X186657019Y-65902464D01*
X186797536Y-66042981D01*
X186958306Y-66159787D01*
X187076832Y-66220179D01*
X187114780Y-66239515D01*
X187165576Y-66287490D01*
X187182371Y-66355311D01*
X187159833Y-66421446D01*
X187114780Y-66460485D01*
X186958305Y-66540213D01*
X186797533Y-66657021D01*
X186657021Y-66797533D01*
X186540213Y-66958305D01*
X186449994Y-67135367D01*
X186449993Y-67135370D01*
X186388587Y-67324362D01*
X186357500Y-67520639D01*
X186357500Y-67719360D01*
X186388587Y-67915637D01*
X186449993Y-68104629D01*
X186449994Y-68104632D01*
X186540213Y-68281694D01*
X186657019Y-68442464D01*
X186797536Y-68582981D01*
X186958306Y-68699787D01*
X187045149Y-68744035D01*
X187135367Y-68790005D01*
X187135370Y-68790006D01*
X187229866Y-68820709D01*
X187324364Y-68851413D01*
X187520639Y-68882500D01*
X187520640Y-68882500D01*
X187719360Y-68882500D01*
X187719361Y-68882500D01*
X187915636Y-68851413D01*
X188104632Y-68790005D01*
X188281694Y-68699787D01*
X188442464Y-68582981D01*
X188582981Y-68442464D01*
X188699787Y-68281694D01*
X188790005Y-68104632D01*
X188851413Y-67915636D01*
X188882500Y-67719361D01*
X188882500Y-67520639D01*
X188851413Y-67324364D01*
X188790005Y-67135368D01*
X188790005Y-67135367D01*
X188699786Y-66958305D01*
X188582981Y-66797536D01*
X188442464Y-66657019D01*
X188281694Y-66540213D01*
X188125218Y-66460484D01*
X188074423Y-66412510D01*
X188057628Y-66344689D01*
X188080165Y-66278554D01*
X188125218Y-66239515D01*
X188281694Y-66159787D01*
X188442464Y-66042981D01*
X188582981Y-65902464D01*
X188699787Y-65741694D01*
X188790005Y-65564632D01*
X188851413Y-65375636D01*
X188882500Y-65179361D01*
X188882500Y-64980639D01*
X188851413Y-64784364D01*
X188790005Y-64595368D01*
X188790005Y-64595367D01*
X188699786Y-64418305D01*
X188582981Y-64257536D01*
X188442464Y-64117019D01*
X188281694Y-64000213D01*
X188125218Y-63920484D01*
X188074423Y-63872510D01*
X188057628Y-63804689D01*
X188080165Y-63738554D01*
X188125218Y-63699515D01*
X188281694Y-63619787D01*
X188442464Y-63502981D01*
X188582981Y-63362464D01*
X188699787Y-63201694D01*
X188790005Y-63024632D01*
X188851413Y-62835636D01*
X188882500Y-62639361D01*
X188882500Y-62440639D01*
X188851413Y-62244364D01*
X188792402Y-62062745D01*
X188790006Y-62055370D01*
X188790005Y-62055367D01*
X188699786Y-61878305D01*
X188596139Y-61735647D01*
X188582981Y-61717536D01*
X188442464Y-61577019D01*
X188281694Y-61460213D01*
X188125218Y-61380484D01*
X188074423Y-61332510D01*
X188057628Y-61264689D01*
X188080165Y-61198554D01*
X188125218Y-61159515D01*
X188281694Y-61079787D01*
X188442464Y-60962981D01*
X188582981Y-60822464D01*
X188699787Y-60661694D01*
X188790005Y-60484632D01*
X188851413Y-60295636D01*
X188882500Y-60099361D01*
X188882500Y-59900639D01*
X188851413Y-59704364D01*
X188790005Y-59515368D01*
X188790005Y-59515367D01*
X188699786Y-59338305D01*
X188688717Y-59323070D01*
X188582981Y-59177536D01*
X188442464Y-59037019D01*
X188281694Y-58920213D01*
X188125218Y-58840484D01*
X188074423Y-58792510D01*
X188057628Y-58724689D01*
X188080165Y-58658554D01*
X188125218Y-58619515D01*
X188281694Y-58539787D01*
X188442464Y-58422981D01*
X188582981Y-58282464D01*
X188699787Y-58121694D01*
X188790005Y-57944632D01*
X188851413Y-57755636D01*
X188882500Y-57559361D01*
X188882500Y-57360639D01*
X188851413Y-57164364D01*
X188805125Y-57021903D01*
X188790006Y-56975370D01*
X188790005Y-56975367D01*
X188723994Y-56845815D01*
X188699787Y-56798306D01*
X188582981Y-56637536D01*
X188442464Y-56497019D01*
X188281694Y-56380213D01*
X188124667Y-56300203D01*
X188073872Y-56252229D01*
X188057077Y-56184408D01*
X188079614Y-56118273D01*
X188124669Y-56079234D01*
X188281422Y-55999364D01*
X188318716Y-55972268D01*
X187704095Y-55357647D01*
X187791571Y-55334208D01*
X187892930Y-55275689D01*
X187975689Y-55192930D01*
X188034208Y-55091571D01*
X188057647Y-55004094D01*
X188672268Y-55618715D01*
X188699362Y-55581425D01*
X188789542Y-55404437D01*
X188850924Y-55215523D01*
X188850924Y-55215520D01*
X188882000Y-55019321D01*
X188882000Y-54820678D01*
X188850924Y-54624479D01*
X188850924Y-54624476D01*
X188789542Y-54435562D01*
X188699358Y-54258567D01*
X188672268Y-54221283D01*
X188057647Y-54835904D01*
X188034208Y-54748429D01*
X187975689Y-54647070D01*
X187892930Y-54564311D01*
X187791571Y-54505792D01*
X187704094Y-54482352D01*
X188318716Y-53867731D01*
X188318715Y-53867730D01*
X188281432Y-53840641D01*
X188124668Y-53760765D01*
X188073872Y-53712790D01*
X188057077Y-53644969D01*
X188079615Y-53578834D01*
X188124667Y-53539796D01*
X188281694Y-53459787D01*
X188442464Y-53342981D01*
X188582981Y-53202464D01*
X188699787Y-53041694D01*
X188790005Y-52864632D01*
X188851413Y-52675636D01*
X188882500Y-52479361D01*
X188882500Y-52280639D01*
X188851413Y-52084364D01*
X188790005Y-51895368D01*
X188790005Y-51895367D01*
X188699786Y-51718305D01*
X188582981Y-51557536D01*
X188442464Y-51417019D01*
X188281694Y-51300213D01*
X188104632Y-51209994D01*
X188104629Y-51209993D01*
X187915637Y-51148587D01*
X187817498Y-51133043D01*
X187719361Y-51117500D01*
X187520639Y-51117500D01*
X187455214Y-51127862D01*
X187324362Y-51148587D01*
X187135370Y-51209993D01*
X187135367Y-51209994D01*
X186958305Y-51300213D01*
X186797533Y-51417021D01*
X186657021Y-51557533D01*
X186540213Y-51718305D01*
X186449994Y-51895367D01*
X186449993Y-51895370D01*
X186388587Y-52084362D01*
X186357500Y-52280639D01*
X186084766Y-52280639D01*
X186084766Y-50217051D01*
X174095533Y-50217051D01*
X174095533Y-69675040D01*
X95500500Y-69675040D01*
X95500500Y-59913389D01*
X98319500Y-59913389D01*
X98319500Y-60086611D01*
X98346598Y-60257701D01*
X98400127Y-60422445D01*
X98478768Y-60576788D01*
X98580586Y-60716928D01*
X98703072Y-60839414D01*
X98843212Y-60941232D01*
X98997555Y-61019873D01*
X99162299Y-61073402D01*
X99333389Y-61100500D01*
X99333390Y-61100500D01*
X99506610Y-61100500D01*
X99506611Y-61100500D01*
X99677701Y-61073402D01*
X99842445Y-61019873D01*
X99996788Y-60941232D01*
X100136928Y-60839414D01*
X100259414Y-60716928D01*
X100361232Y-60576788D01*
X100439873Y-60422445D01*
X100493402Y-60257701D01*
X100520500Y-60086611D01*
X100520500Y-59913389D01*
X100510854Y-59852486D01*
X102249500Y-59852486D01*
X102249500Y-60147513D01*
X102281571Y-60391113D01*
X102288007Y-60439993D01*
X102362212Y-60716930D01*
X102364361Y-60724951D01*
X102364364Y-60724961D01*
X102477254Y-60997500D01*
X102477258Y-60997510D01*
X102624761Y-61252993D01*
X102804352Y-61487040D01*
X102804358Y-61487047D01*
X103012952Y-61695641D01*
X103012959Y-61695647D01*
X103247006Y-61875238D01*
X103502489Y-62022741D01*
X103502490Y-62022741D01*
X103502493Y-62022743D01*
X103775048Y-62135639D01*
X104060007Y-62211993D01*
X104352494Y-62250500D01*
X104352501Y-62250500D01*
X104647499Y-62250500D01*
X104647506Y-62250500D01*
X104939993Y-62211993D01*
X105224952Y-62135639D01*
X105497507Y-62022743D01*
X105752994Y-61875238D01*
X105987042Y-61695646D01*
X106195646Y-61487042D01*
X106375238Y-61252994D01*
X106522743Y-60997507D01*
X106635639Y-60724952D01*
X106711993Y-60439993D01*
X106750500Y-60147506D01*
X106750500Y-59913389D01*
X108479500Y-59913389D01*
X108479500Y-60086611D01*
X108506598Y-60257701D01*
X108560127Y-60422445D01*
X108638768Y-60576788D01*
X108740586Y-60716928D01*
X108863072Y-60839414D01*
X109003212Y-60941232D01*
X109157555Y-61019873D01*
X109322299Y-61073402D01*
X109493389Y-61100500D01*
X109493390Y-61100500D01*
X109666610Y-61100500D01*
X109666611Y-61100500D01*
X109837701Y-61073402D01*
X110002445Y-61019873D01*
X110156788Y-60941232D01*
X110296928Y-60839414D01*
X110419414Y-60716928D01*
X110521232Y-60576788D01*
X110599873Y-60422445D01*
X110653402Y-60257701D01*
X110680500Y-60086611D01*
X110680500Y-59913389D01*
X116819500Y-59913389D01*
X116819500Y-60086611D01*
X116846598Y-60257701D01*
X116900127Y-60422445D01*
X116978768Y-60576788D01*
X117080586Y-60716928D01*
X117203072Y-60839414D01*
X117343212Y-60941232D01*
X117497555Y-61019873D01*
X117662299Y-61073402D01*
X117833389Y-61100500D01*
X117833390Y-61100500D01*
X118006610Y-61100500D01*
X118006611Y-61100500D01*
X118177701Y-61073402D01*
X118342445Y-61019873D01*
X118496788Y-60941232D01*
X118636928Y-60839414D01*
X118759414Y-60716928D01*
X118861232Y-60576788D01*
X118939873Y-60422445D01*
X118993402Y-60257701D01*
X119020500Y-60086611D01*
X119020500Y-59913389D01*
X119010854Y-59852486D01*
X120749500Y-59852486D01*
X120749500Y-60147513D01*
X120781571Y-60391113D01*
X120788007Y-60439993D01*
X120862212Y-60716930D01*
X120864361Y-60724951D01*
X120864364Y-60724961D01*
X120977254Y-60997500D01*
X120977258Y-60997510D01*
X121124761Y-61252993D01*
X121304352Y-61487040D01*
X121304358Y-61487047D01*
X121512952Y-61695641D01*
X121512959Y-61695647D01*
X121747006Y-61875238D01*
X122002489Y-62022741D01*
X122002490Y-62022741D01*
X122002493Y-62022743D01*
X122275048Y-62135639D01*
X122560007Y-62211993D01*
X122852494Y-62250500D01*
X122852501Y-62250500D01*
X123147499Y-62250500D01*
X123147506Y-62250500D01*
X123439993Y-62211993D01*
X123724952Y-62135639D01*
X123997507Y-62022743D01*
X124252994Y-61875238D01*
X124487042Y-61695646D01*
X124695646Y-61487042D01*
X124875238Y-61252994D01*
X125022743Y-60997507D01*
X125135639Y-60724952D01*
X125211993Y-60439993D01*
X125250500Y-60147506D01*
X125250500Y-59913389D01*
X126979500Y-59913389D01*
X126979500Y-60086611D01*
X127006598Y-60257701D01*
X127060127Y-60422445D01*
X127138768Y-60576788D01*
X127240586Y-60716928D01*
X127363072Y-60839414D01*
X127503212Y-60941232D01*
X127657555Y-61019873D01*
X127822299Y-61073402D01*
X127993389Y-61100500D01*
X127993390Y-61100500D01*
X128166610Y-61100500D01*
X128166611Y-61100500D01*
X128337701Y-61073402D01*
X128502445Y-61019873D01*
X128656788Y-60941232D01*
X128796928Y-60839414D01*
X128919414Y-60716928D01*
X129021232Y-60576788D01*
X129099873Y-60422445D01*
X129153402Y-60257701D01*
X129180500Y-60086611D01*
X129180500Y-59913389D01*
X135319500Y-59913389D01*
X135319500Y-60086611D01*
X135346598Y-60257701D01*
X135400127Y-60422445D01*
X135478768Y-60576788D01*
X135580586Y-60716928D01*
X135703072Y-60839414D01*
X135843212Y-60941232D01*
X135997555Y-61019873D01*
X136162299Y-61073402D01*
X136333389Y-61100500D01*
X136333390Y-61100500D01*
X136506610Y-61100500D01*
X136506611Y-61100500D01*
X136677701Y-61073402D01*
X136842445Y-61019873D01*
X136996788Y-60941232D01*
X137136928Y-60839414D01*
X137259414Y-60716928D01*
X137361232Y-60576788D01*
X137439873Y-60422445D01*
X137493402Y-60257701D01*
X137520500Y-60086611D01*
X137520500Y-59913389D01*
X137510854Y-59852486D01*
X139249500Y-59852486D01*
X139249500Y-60147513D01*
X139281571Y-60391113D01*
X139288007Y-60439993D01*
X139362212Y-60716930D01*
X139364361Y-60724951D01*
X139364364Y-60724961D01*
X139477254Y-60997500D01*
X139477258Y-60997510D01*
X139624761Y-61252993D01*
X139804352Y-61487040D01*
X139804358Y-61487047D01*
X140012952Y-61695641D01*
X140012959Y-61695647D01*
X140247006Y-61875238D01*
X140502489Y-62022741D01*
X140502490Y-62022741D01*
X140502493Y-62022743D01*
X140775048Y-62135639D01*
X141060007Y-62211993D01*
X141352494Y-62250500D01*
X141352501Y-62250500D01*
X141647499Y-62250500D01*
X141647506Y-62250500D01*
X141939993Y-62211993D01*
X142224952Y-62135639D01*
X142497507Y-62022743D01*
X142752994Y-61875238D01*
X142987042Y-61695646D01*
X143195646Y-61487042D01*
X143375238Y-61252994D01*
X143522743Y-60997507D01*
X143635639Y-60724952D01*
X143711993Y-60439993D01*
X143750500Y-60147506D01*
X143750500Y-59913389D01*
X145479500Y-59913389D01*
X145479500Y-60086611D01*
X145506598Y-60257701D01*
X145560127Y-60422445D01*
X145638768Y-60576788D01*
X145740586Y-60716928D01*
X145863072Y-60839414D01*
X146003212Y-60941232D01*
X146157555Y-61019873D01*
X146322299Y-61073402D01*
X146493389Y-61100500D01*
X146493390Y-61100500D01*
X146666610Y-61100500D01*
X146666611Y-61100500D01*
X146837701Y-61073402D01*
X147002445Y-61019873D01*
X147156788Y-60941232D01*
X147296928Y-60839414D01*
X147419414Y-60716928D01*
X147521232Y-60576788D01*
X147599873Y-60422445D01*
X147653402Y-60257701D01*
X147680500Y-60086611D01*
X147680500Y-59953389D01*
X153819500Y-59953389D01*
X153819500Y-60126611D01*
X153822811Y-60147513D01*
X153840262Y-60257701D01*
X153846598Y-60297701D01*
X153900127Y-60462445D01*
X153978768Y-60616788D01*
X154080586Y-60756928D01*
X154203072Y-60879414D01*
X154343212Y-60981232D01*
X154497555Y-61059873D01*
X154662299Y-61113402D01*
X154833389Y-61140500D01*
X154833390Y-61140500D01*
X155006610Y-61140500D01*
X155006611Y-61140500D01*
X155177701Y-61113402D01*
X155342445Y-61059873D01*
X155496788Y-60981232D01*
X155636928Y-60879414D01*
X155759414Y-60756928D01*
X155861232Y-60616788D01*
X155939873Y-60462445D01*
X155993402Y-60297701D01*
X156020500Y-60126611D01*
X156020500Y-59953389D01*
X156010854Y-59892486D01*
X157749500Y-59892486D01*
X157749500Y-60187513D01*
X157780431Y-60422445D01*
X157788007Y-60479993D01*
X157862212Y-60756930D01*
X157864361Y-60764951D01*
X157864364Y-60764961D01*
X157977254Y-61037500D01*
X157977258Y-61037510D01*
X158124761Y-61292993D01*
X158304352Y-61527040D01*
X158304358Y-61527047D01*
X158512952Y-61735641D01*
X158512959Y-61735647D01*
X158747006Y-61915238D01*
X159002489Y-62062741D01*
X159002490Y-62062741D01*
X159002493Y-62062743D01*
X159275048Y-62175639D01*
X159560007Y-62251993D01*
X159852494Y-62290500D01*
X159852501Y-62290500D01*
X160147499Y-62290500D01*
X160147506Y-62290500D01*
X160439993Y-62251993D01*
X160724952Y-62175639D01*
X160997507Y-62062743D01*
X161252994Y-61915238D01*
X161487042Y-61735646D01*
X161695646Y-61527042D01*
X161875238Y-61292994D01*
X162022743Y-61037507D01*
X162135639Y-60764952D01*
X162211993Y-60479993D01*
X162250500Y-60187506D01*
X162250500Y-59953389D01*
X163979500Y-59953389D01*
X163979500Y-60126611D01*
X163982811Y-60147513D01*
X164000262Y-60257701D01*
X164006598Y-60297701D01*
X164060127Y-60462445D01*
X164138768Y-60616788D01*
X164240586Y-60756928D01*
X164363072Y-60879414D01*
X164503212Y-60981232D01*
X164657555Y-61059873D01*
X164822299Y-61113402D01*
X164993389Y-61140500D01*
X164993390Y-61140500D01*
X165166610Y-61140500D01*
X165166611Y-61140500D01*
X165337701Y-61113402D01*
X165502445Y-61059873D01*
X165656788Y-60981232D01*
X165796928Y-60879414D01*
X165919414Y-60756928D01*
X166021232Y-60616788D01*
X166099873Y-60462445D01*
X166153402Y-60297701D01*
X166180500Y-60126611D01*
X166180500Y-59953389D01*
X166153402Y-59782299D01*
X166099873Y-59617555D01*
X166021232Y-59463212D01*
X165919414Y-59323072D01*
X165796928Y-59200586D01*
X165656788Y-59098768D01*
X165502445Y-59020127D01*
X165337701Y-58966598D01*
X165337699Y-58966597D01*
X165337698Y-58966597D01*
X165187320Y-58942780D01*
X165166611Y-58939500D01*
X164993389Y-58939500D01*
X164972680Y-58942780D01*
X164822302Y-58966597D01*
X164657552Y-59020128D01*
X164503211Y-59098768D01*
X164447115Y-59139525D01*
X164363072Y-59200586D01*
X164363070Y-59200588D01*
X164363069Y-59200588D01*
X164240588Y-59323069D01*
X164240588Y-59323070D01*
X164240586Y-59323072D01*
X164229519Y-59338305D01*
X164138768Y-59463211D01*
X164060128Y-59617552D01*
X164006597Y-59782302D01*
X163979500Y-59953389D01*
X162250500Y-59953389D01*
X162250500Y-59892494D01*
X162211993Y-59600007D01*
X162135639Y-59315048D01*
X162119070Y-59275048D01*
X162088227Y-59200586D01*
X162022743Y-59042493D01*
X162010104Y-59020602D01*
X161875238Y-58787006D01*
X161695647Y-58552959D01*
X161695641Y-58552952D01*
X161487047Y-58344358D01*
X161487040Y-58344352D01*
X161252993Y-58164761D01*
X160997510Y-58017258D01*
X160997500Y-58017254D01*
X160724961Y-57904364D01*
X160724954Y-57904362D01*
X160724952Y-57904361D01*
X160439993Y-57828007D01*
X160391113Y-57821571D01*
X160147513Y-57789500D01*
X160147506Y-57789500D01*
X159852494Y-57789500D01*
X159852486Y-57789500D01*
X159574085Y-57826153D01*
X159560007Y-57828007D01*
X159424331Y-57864361D01*
X159275048Y-57904361D01*
X159275038Y-57904364D01*
X159002499Y-58017254D01*
X159002489Y-58017258D01*
X158747006Y-58164761D01*
X158512959Y-58344352D01*
X158512952Y-58344358D01*
X158304358Y-58552952D01*
X158304352Y-58552959D01*
X158124761Y-58787006D01*
X157977258Y-59042489D01*
X157977254Y-59042499D01*
X157864364Y-59315038D01*
X157864361Y-59315048D01*
X157788008Y-59600004D01*
X157788006Y-59600015D01*
X157749500Y-59892486D01*
X156010854Y-59892486D01*
X155993402Y-59782299D01*
X155939873Y-59617555D01*
X155861232Y-59463212D01*
X155759414Y-59323072D01*
X155706882Y-59270540D01*
X155673397Y-59209217D01*
X155678381Y-59139525D01*
X155720253Y-59083592D01*
X155785717Y-59059175D01*
X155813961Y-59060386D01*
X156064072Y-59100000D01*
X156315928Y-59100000D01*
X156564669Y-59060602D01*
X156804184Y-58982780D01*
X157028575Y-58868446D01*
X157028581Y-58868442D01*
X157130697Y-58794250D01*
X157130698Y-58794250D01*
X156514025Y-58177578D01*
X156545258Y-58164641D01*
X156668097Y-58082563D01*
X156772563Y-57978097D01*
X156854641Y-57855258D01*
X156867578Y-57824025D01*
X157484250Y-58440698D01*
X157484250Y-58440697D01*
X157558442Y-58338581D01*
X157558446Y-58338575D01*
X157672780Y-58114184D01*
X157750602Y-57874669D01*
X157790000Y-57625928D01*
X157790000Y-57374071D01*
X157750602Y-57125330D01*
X157672780Y-56885815D01*
X157558442Y-56661416D01*
X157484250Y-56559301D01*
X157484250Y-56559300D01*
X156867577Y-57175973D01*
X156854641Y-57144742D01*
X156772563Y-57021903D01*
X156668097Y-56917437D01*
X156545258Y-56835359D01*
X156514024Y-56822421D01*
X157130698Y-56205748D01*
X157028583Y-56131557D01*
X156804184Y-56017219D01*
X156564669Y-55939397D01*
X156315928Y-55900000D01*
X156064072Y-55900000D01*
X155815330Y-55939397D01*
X155575815Y-56017219D01*
X155351413Y-56131559D01*
X155249301Y-56205747D01*
X155249300Y-56205748D01*
X155865974Y-56822421D01*
X155834742Y-56835359D01*
X155711903Y-56917437D01*
X155607437Y-57021903D01*
X155525359Y-57144742D01*
X155512421Y-57175974D01*
X154895748Y-56559300D01*
X154895747Y-56559301D01*
X154821559Y-56661413D01*
X154707219Y-56885815D01*
X154629397Y-57125330D01*
X154590000Y-57374071D01*
X154590000Y-57625928D01*
X154629397Y-57874669D01*
X154707219Y-58114184D01*
X154821557Y-58338583D01*
X154895748Y-58440697D01*
X154895748Y-58440698D01*
X155512421Y-57824024D01*
X155525359Y-57855258D01*
X155607437Y-57978097D01*
X155711903Y-58082563D01*
X155834742Y-58164641D01*
X155865974Y-58177577D01*
X155249300Y-58794250D01*
X155251598Y-58823449D01*
X155237233Y-58891827D01*
X155188181Y-58941583D01*
X155120016Y-58956921D01*
X155108583Y-58955650D01*
X155006611Y-58939500D01*
X154833389Y-58939500D01*
X154812680Y-58942780D01*
X154662302Y-58966597D01*
X154497552Y-59020128D01*
X154343211Y-59098768D01*
X154287115Y-59139525D01*
X154203072Y-59200586D01*
X154203070Y-59200588D01*
X154203069Y-59200588D01*
X154080588Y-59323069D01*
X154080588Y-59323070D01*
X154080586Y-59323072D01*
X154069519Y-59338305D01*
X153978768Y-59463211D01*
X153900128Y-59617552D01*
X153846597Y-59782302D01*
X153819500Y-59953389D01*
X147680500Y-59953389D01*
X147680500Y-59913389D01*
X147653402Y-59742299D01*
X147599873Y-59577555D01*
X147521232Y-59423212D01*
X147419414Y-59283072D01*
X147296928Y-59160586D01*
X147156788Y-59058768D01*
X147002445Y-58980127D01*
X146837701Y-58926598D01*
X146837699Y-58926597D01*
X146837698Y-58926597D01*
X146706271Y-58905781D01*
X146666611Y-58899500D01*
X146493389Y-58899500D01*
X146453728Y-58905781D01*
X146322302Y-58926597D01*
X146157552Y-58980128D01*
X146003211Y-59058768D01*
X145948157Y-59098768D01*
X145863072Y-59160586D01*
X145863070Y-59160588D01*
X145863069Y-59160588D01*
X145740588Y-59283069D01*
X145740588Y-59283070D01*
X145740586Y-59283072D01*
X145711526Y-59323070D01*
X145638768Y-59423211D01*
X145560128Y-59577552D01*
X145506597Y-59742302D01*
X145482811Y-59892486D01*
X145479500Y-59913389D01*
X143750500Y-59913389D01*
X143750500Y-59852494D01*
X143711993Y-59560007D01*
X143635639Y-59275048D01*
X143522743Y-59002493D01*
X143495698Y-58955650D01*
X143375238Y-58747006D01*
X143195647Y-58512959D01*
X143195641Y-58512952D01*
X142987047Y-58304358D01*
X142987040Y-58304352D01*
X142752993Y-58124761D01*
X142497510Y-57977258D01*
X142497500Y-57977254D01*
X142224961Y-57864364D01*
X142224954Y-57864362D01*
X142224952Y-57864361D01*
X141939993Y-57788007D01*
X141891113Y-57781571D01*
X141647513Y-57749500D01*
X141647506Y-57749500D01*
X141352494Y-57749500D01*
X141352486Y-57749500D01*
X141074085Y-57786153D01*
X141060007Y-57788007D01*
X140885861Y-57834669D01*
X140775048Y-57864361D01*
X140775038Y-57864364D01*
X140502499Y-57977254D01*
X140502489Y-57977258D01*
X140247006Y-58124761D01*
X140012959Y-58304352D01*
X140012952Y-58304358D01*
X139804358Y-58512952D01*
X139804352Y-58512959D01*
X139624761Y-58747006D01*
X139477258Y-59002489D01*
X139477254Y-59002499D01*
X139364364Y-59275038D01*
X139364361Y-59275048D01*
X139299968Y-59515370D01*
X139288008Y-59560004D01*
X139288006Y-59560015D01*
X139249500Y-59852486D01*
X137510854Y-59852486D01*
X137493402Y-59742299D01*
X137439873Y-59577555D01*
X137361232Y-59423212D01*
X137259414Y-59283072D01*
X137206882Y-59230540D01*
X137173397Y-59169217D01*
X137178381Y-59099525D01*
X137220253Y-59043592D01*
X137285717Y-59019175D01*
X137313961Y-59020386D01*
X137564072Y-59060000D01*
X137815928Y-59060000D01*
X138064669Y-59020602D01*
X138304184Y-58942780D01*
X138528575Y-58828446D01*
X138528581Y-58828442D01*
X138630697Y-58754250D01*
X138630698Y-58754250D01*
X138014025Y-58137578D01*
X138045258Y-58124641D01*
X138168097Y-58042563D01*
X138272563Y-57938097D01*
X138354641Y-57815258D01*
X138367578Y-57784025D01*
X138984250Y-58400698D01*
X138984250Y-58400697D01*
X139058442Y-58298581D01*
X139058446Y-58298575D01*
X139172780Y-58074184D01*
X139250602Y-57834669D01*
X139290000Y-57585928D01*
X139290000Y-57334071D01*
X139250602Y-57085330D01*
X139172780Y-56845815D01*
X139058442Y-56621416D01*
X138984250Y-56519301D01*
X138984250Y-56519300D01*
X138367577Y-57135973D01*
X138354641Y-57104742D01*
X138272563Y-56981903D01*
X138168097Y-56877437D01*
X138045258Y-56795359D01*
X138014024Y-56782421D01*
X138630698Y-56165748D01*
X138528583Y-56091557D01*
X138304184Y-55977219D01*
X138064669Y-55899397D01*
X137815928Y-55860000D01*
X137564072Y-55860000D01*
X137315330Y-55899397D01*
X137075815Y-55977219D01*
X136851413Y-56091559D01*
X136749301Y-56165747D01*
X136749300Y-56165748D01*
X137365974Y-56782421D01*
X137334742Y-56795359D01*
X137211903Y-56877437D01*
X137107437Y-56981903D01*
X137025359Y-57104742D01*
X137012421Y-57135974D01*
X136395748Y-56519300D01*
X136395747Y-56519301D01*
X136321559Y-56621413D01*
X136207219Y-56845815D01*
X136129397Y-57085330D01*
X136090000Y-57334071D01*
X136090000Y-57585928D01*
X136129397Y-57834669D01*
X136207219Y-58074184D01*
X136321557Y-58298583D01*
X136395748Y-58400697D01*
X136395748Y-58400698D01*
X137012421Y-57784024D01*
X137025359Y-57815258D01*
X137107437Y-57938097D01*
X137211903Y-58042563D01*
X137334742Y-58124641D01*
X137365974Y-58137577D01*
X136749300Y-58754250D01*
X136751598Y-58783449D01*
X136737233Y-58851827D01*
X136688181Y-58901583D01*
X136620016Y-58916921D01*
X136608583Y-58915650D01*
X136506611Y-58899500D01*
X136333389Y-58899500D01*
X136293728Y-58905781D01*
X136162302Y-58926597D01*
X135997552Y-58980128D01*
X135843211Y-59058768D01*
X135788157Y-59098768D01*
X135703072Y-59160586D01*
X135703070Y-59160588D01*
X135703069Y-59160588D01*
X135580588Y-59283069D01*
X135580588Y-59283070D01*
X135580586Y-59283072D01*
X135551526Y-59323070D01*
X135478768Y-59423211D01*
X135400128Y-59577552D01*
X135346597Y-59742302D01*
X135322811Y-59892486D01*
X135319500Y-59913389D01*
X129180500Y-59913389D01*
X129153402Y-59742299D01*
X129099873Y-59577555D01*
X129021232Y-59423212D01*
X128919414Y-59283072D01*
X128796928Y-59160586D01*
X128656788Y-59058768D01*
X128502445Y-58980127D01*
X128337701Y-58926598D01*
X128337699Y-58926597D01*
X128337698Y-58926597D01*
X128206271Y-58905781D01*
X128166611Y-58899500D01*
X127993389Y-58899500D01*
X127953728Y-58905781D01*
X127822302Y-58926597D01*
X127657552Y-58980128D01*
X127503211Y-59058768D01*
X127448157Y-59098768D01*
X127363072Y-59160586D01*
X127363070Y-59160588D01*
X127363069Y-59160588D01*
X127240588Y-59283069D01*
X127240588Y-59283070D01*
X127240586Y-59283072D01*
X127211526Y-59323070D01*
X127138768Y-59423211D01*
X127060128Y-59577552D01*
X127006597Y-59742302D01*
X126982811Y-59892486D01*
X126979500Y-59913389D01*
X125250500Y-59913389D01*
X125250500Y-59852494D01*
X125211993Y-59560007D01*
X125135639Y-59275048D01*
X125022743Y-59002493D01*
X124995698Y-58955650D01*
X124875238Y-58747006D01*
X124695647Y-58512959D01*
X124695641Y-58512952D01*
X124487047Y-58304358D01*
X124487040Y-58304352D01*
X124252993Y-58124761D01*
X123997510Y-57977258D01*
X123997500Y-57977254D01*
X123724961Y-57864364D01*
X123724954Y-57864362D01*
X123724952Y-57864361D01*
X123439993Y-57788007D01*
X123391113Y-57781571D01*
X123147513Y-57749500D01*
X123147506Y-57749500D01*
X122852494Y-57749500D01*
X122852486Y-57749500D01*
X122574085Y-57786153D01*
X122560007Y-57788007D01*
X122385861Y-57834669D01*
X122275048Y-57864361D01*
X122275038Y-57864364D01*
X122002499Y-57977254D01*
X122002489Y-57977258D01*
X121747006Y-58124761D01*
X121512959Y-58304352D01*
X121512952Y-58304358D01*
X121304358Y-58512952D01*
X121304352Y-58512959D01*
X121124761Y-58747006D01*
X120977258Y-59002489D01*
X120977254Y-59002499D01*
X120864364Y-59275038D01*
X120864361Y-59275048D01*
X120799968Y-59515370D01*
X120788008Y-59560004D01*
X120788006Y-59560015D01*
X120749500Y-59852486D01*
X119010854Y-59852486D01*
X118993402Y-59742299D01*
X118939873Y-59577555D01*
X118861232Y-59423212D01*
X118759414Y-59283072D01*
X118706882Y-59230540D01*
X118673397Y-59169217D01*
X118678381Y-59099525D01*
X118720253Y-59043592D01*
X118785717Y-59019175D01*
X118813961Y-59020386D01*
X119064072Y-59060000D01*
X119315928Y-59060000D01*
X119564669Y-59020602D01*
X119804184Y-58942780D01*
X120028575Y-58828446D01*
X120028581Y-58828442D01*
X120130697Y-58754250D01*
X120130698Y-58754250D01*
X119514025Y-58137578D01*
X119545258Y-58124641D01*
X119668097Y-58042563D01*
X119772563Y-57938097D01*
X119854641Y-57815258D01*
X119867577Y-57784025D01*
X120484250Y-58400698D01*
X120484250Y-58400697D01*
X120558442Y-58298581D01*
X120558446Y-58298575D01*
X120672780Y-58074184D01*
X120750602Y-57834669D01*
X120790000Y-57585928D01*
X120790000Y-57334071D01*
X120750602Y-57085330D01*
X120672780Y-56845815D01*
X120558442Y-56621416D01*
X120484250Y-56519301D01*
X120484250Y-56519300D01*
X119867577Y-57135973D01*
X119854641Y-57104742D01*
X119772563Y-56981903D01*
X119668097Y-56877437D01*
X119545258Y-56795359D01*
X119514024Y-56782421D01*
X120130698Y-56165748D01*
X120028583Y-56091557D01*
X119804184Y-55977219D01*
X119564669Y-55899397D01*
X119315928Y-55860000D01*
X119064072Y-55860000D01*
X118815330Y-55899397D01*
X118575815Y-55977219D01*
X118351413Y-56091559D01*
X118249301Y-56165747D01*
X118249300Y-56165748D01*
X118865974Y-56782421D01*
X118834742Y-56795359D01*
X118711903Y-56877437D01*
X118607437Y-56981903D01*
X118525359Y-57104742D01*
X118512421Y-57135974D01*
X117895748Y-56519300D01*
X117895747Y-56519301D01*
X117821559Y-56621413D01*
X117707219Y-56845815D01*
X117629397Y-57085330D01*
X117590000Y-57334071D01*
X117590000Y-57585928D01*
X117629397Y-57834669D01*
X117707219Y-58074184D01*
X117821557Y-58298583D01*
X117895748Y-58400697D01*
X117895748Y-58400698D01*
X118512421Y-57784024D01*
X118525359Y-57815258D01*
X118607437Y-57938097D01*
X118711903Y-58042563D01*
X118834742Y-58124641D01*
X118865974Y-58137577D01*
X118249300Y-58754250D01*
X118251598Y-58783449D01*
X118237233Y-58851827D01*
X118188181Y-58901583D01*
X118120016Y-58916921D01*
X118108583Y-58915650D01*
X118006611Y-58899500D01*
X117833389Y-58899500D01*
X117793728Y-58905781D01*
X117662302Y-58926597D01*
X117497552Y-58980128D01*
X117343211Y-59058768D01*
X117288157Y-59098768D01*
X117203072Y-59160586D01*
X117203070Y-59160588D01*
X117203069Y-59160588D01*
X117080588Y-59283069D01*
X117080588Y-59283070D01*
X117080586Y-59283072D01*
X117051526Y-59323070D01*
X116978768Y-59423211D01*
X116900128Y-59577552D01*
X116846597Y-59742302D01*
X116822811Y-59892486D01*
X116819500Y-59913389D01*
X110680500Y-59913389D01*
X110653402Y-59742299D01*
X110599873Y-59577555D01*
X110521232Y-59423212D01*
X110419414Y-59283072D01*
X110296928Y-59160586D01*
X110156788Y-59058768D01*
X110002445Y-58980127D01*
X109837701Y-58926598D01*
X109837699Y-58926597D01*
X109837698Y-58926597D01*
X109706271Y-58905781D01*
X109666611Y-58899500D01*
X109493389Y-58899500D01*
X109453728Y-58905781D01*
X109322302Y-58926597D01*
X109157552Y-58980128D01*
X109003211Y-59058768D01*
X108948157Y-59098768D01*
X108863072Y-59160586D01*
X108863070Y-59160588D01*
X108863069Y-59160588D01*
X108740588Y-59283069D01*
X108740588Y-59283070D01*
X108740586Y-59283072D01*
X108711526Y-59323070D01*
X108638768Y-59423211D01*
X108560128Y-59577552D01*
X108506597Y-59742302D01*
X108482811Y-59892486D01*
X108479500Y-59913389D01*
X106750500Y-59913389D01*
X106750500Y-59852494D01*
X106711993Y-59560007D01*
X106635639Y-59275048D01*
X106522743Y-59002493D01*
X106495698Y-58955650D01*
X106375238Y-58747006D01*
X106195647Y-58512959D01*
X106195641Y-58512952D01*
X105987047Y-58304358D01*
X105987040Y-58304352D01*
X105752993Y-58124761D01*
X105497510Y-57977258D01*
X105497500Y-57977254D01*
X105224961Y-57864364D01*
X105224954Y-57864362D01*
X105224952Y-57864361D01*
X104939993Y-57788007D01*
X104891113Y-57781571D01*
X104647513Y-57749500D01*
X104647506Y-57749500D01*
X104352494Y-57749500D01*
X104352486Y-57749500D01*
X104074085Y-57786153D01*
X104060007Y-57788007D01*
X103885861Y-57834669D01*
X103775048Y-57864361D01*
X103775038Y-57864364D01*
X103502499Y-57977254D01*
X103502489Y-57977258D01*
X103247006Y-58124761D01*
X103012959Y-58304352D01*
X103012952Y-58304358D01*
X102804358Y-58512952D01*
X102804352Y-58512959D01*
X102624761Y-58747006D01*
X102477258Y-59002489D01*
X102477254Y-59002499D01*
X102364364Y-59275038D01*
X102364361Y-59275048D01*
X102299968Y-59515370D01*
X102288008Y-59560004D01*
X102288006Y-59560015D01*
X102249500Y-59852486D01*
X100510854Y-59852486D01*
X100493402Y-59742299D01*
X100439873Y-59577555D01*
X100361232Y-59423212D01*
X100259414Y-59283072D01*
X100206882Y-59230540D01*
X100173397Y-59169217D01*
X100178381Y-59099525D01*
X100220253Y-59043592D01*
X100285717Y-59019175D01*
X100313961Y-59020386D01*
X100564072Y-59060000D01*
X100815928Y-59060000D01*
X101064669Y-59020602D01*
X101304184Y-58942780D01*
X101528575Y-58828446D01*
X101528581Y-58828442D01*
X101630697Y-58754250D01*
X101630698Y-58754250D01*
X101014025Y-58137578D01*
X101045258Y-58124641D01*
X101168097Y-58042563D01*
X101272563Y-57938097D01*
X101354641Y-57815258D01*
X101367577Y-57784025D01*
X101984250Y-58400698D01*
X101984250Y-58400697D01*
X102058442Y-58298581D01*
X102058446Y-58298575D01*
X102172780Y-58074184D01*
X102250602Y-57834669D01*
X102290000Y-57585928D01*
X102290000Y-57334071D01*
X102250602Y-57085330D01*
X102172780Y-56845815D01*
X102058442Y-56621416D01*
X101984250Y-56519301D01*
X101984250Y-56519300D01*
X101367577Y-57135973D01*
X101354641Y-57104742D01*
X101272563Y-56981903D01*
X101168097Y-56877437D01*
X101045258Y-56795359D01*
X101014024Y-56782421D01*
X101630698Y-56165748D01*
X101528583Y-56091557D01*
X101304184Y-55977219D01*
X101064669Y-55899397D01*
X100815928Y-55860000D01*
X100564072Y-55860000D01*
X100315330Y-55899397D01*
X100075815Y-55977219D01*
X99851413Y-56091559D01*
X99749301Y-56165747D01*
X99749300Y-56165748D01*
X100365974Y-56782421D01*
X100334742Y-56795359D01*
X100211903Y-56877437D01*
X100107437Y-56981903D01*
X100025359Y-57104742D01*
X100012421Y-57135974D01*
X99395748Y-56519300D01*
X99395747Y-56519301D01*
X99321559Y-56621413D01*
X99207219Y-56845815D01*
X99129397Y-57085330D01*
X99090000Y-57334071D01*
X99090000Y-57585928D01*
X99129397Y-57834669D01*
X99207219Y-58074184D01*
X99321557Y-58298583D01*
X99395748Y-58400697D01*
X99395748Y-58400698D01*
X100012421Y-57784024D01*
X100025359Y-57815258D01*
X100107437Y-57938097D01*
X100211903Y-58042563D01*
X100334742Y-58124641D01*
X100365974Y-58137577D01*
X99749300Y-58754250D01*
X99751598Y-58783449D01*
X99737233Y-58851827D01*
X99688181Y-58901583D01*
X99620016Y-58916921D01*
X99608583Y-58915650D01*
X99506611Y-58899500D01*
X99333389Y-58899500D01*
X99293728Y-58905781D01*
X99162302Y-58926597D01*
X98997552Y-58980128D01*
X98843211Y-59058768D01*
X98788157Y-59098768D01*
X98703072Y-59160586D01*
X98703070Y-59160588D01*
X98703069Y-59160588D01*
X98580588Y-59283069D01*
X98580588Y-59283070D01*
X98580586Y-59283072D01*
X98551526Y-59323070D01*
X98478768Y-59423211D01*
X98400128Y-59577552D01*
X98346597Y-59742302D01*
X98322811Y-59892486D01*
X98319500Y-59913389D01*
X95500500Y-59913389D01*
X95500500Y-54794038D01*
X105439500Y-54794038D01*
X105439500Y-55045962D01*
X105446724Y-55091571D01*
X105478910Y-55294785D01*
X105556760Y-55534383D01*
X105635413Y-55688747D01*
X105662784Y-55742466D01*
X105671132Y-55758848D01*
X105819201Y-55962649D01*
X105819205Y-55962654D01*
X105997345Y-56140794D01*
X105997350Y-56140798D01*
X106086747Y-56205748D01*
X106201155Y-56288870D01*
X106279654Y-56328867D01*
X106425616Y-56403239D01*
X106425618Y-56403239D01*
X106425621Y-56403241D01*
X106665215Y-56481090D01*
X106914038Y-56520500D01*
X106914039Y-56520500D01*
X107165961Y-56520500D01*
X107165962Y-56520500D01*
X107414785Y-56481090D01*
X107654379Y-56403241D01*
X107878845Y-56288870D01*
X108082656Y-56140793D01*
X108260793Y-55962656D01*
X108408870Y-55758845D01*
X108523241Y-55534379D01*
X108601090Y-55294785D01*
X108640500Y-55045962D01*
X108640500Y-54794038D01*
X123939500Y-54794038D01*
X123939500Y-55045962D01*
X123946724Y-55091571D01*
X123978910Y-55294785D01*
X124056760Y-55534383D01*
X124135413Y-55688747D01*
X124162784Y-55742466D01*
X124171132Y-55758848D01*
X124319201Y-55962649D01*
X124319205Y-55962654D01*
X124497345Y-56140794D01*
X124497350Y-56140798D01*
X124586747Y-56205748D01*
X124701155Y-56288870D01*
X124779654Y-56328867D01*
X124925616Y-56403239D01*
X124925618Y-56403239D01*
X124925621Y-56403241D01*
X125165215Y-56481090D01*
X125414038Y-56520500D01*
X125414039Y-56520500D01*
X125665961Y-56520500D01*
X125665962Y-56520500D01*
X125914785Y-56481090D01*
X126154379Y-56403241D01*
X126378845Y-56288870D01*
X126582656Y-56140793D01*
X126760793Y-55962656D01*
X126908870Y-55758845D01*
X127023241Y-55534379D01*
X127101090Y-55294785D01*
X127140500Y-55045962D01*
X127140500Y-54794038D01*
X142439500Y-54794038D01*
X142439500Y-55045962D01*
X142446724Y-55091571D01*
X142478910Y-55294785D01*
X142556760Y-55534383D01*
X142635413Y-55688747D01*
X142662784Y-55742466D01*
X142671132Y-55758848D01*
X142819201Y-55962649D01*
X142819205Y-55962654D01*
X142997345Y-56140794D01*
X142997350Y-56140798D01*
X143086747Y-56205748D01*
X143201155Y-56288870D01*
X143279654Y-56328867D01*
X143425616Y-56403239D01*
X143425618Y-56403239D01*
X143425621Y-56403241D01*
X143665215Y-56481090D01*
X143914038Y-56520500D01*
X143914039Y-56520500D01*
X144165961Y-56520500D01*
X144165962Y-56520500D01*
X144414785Y-56481090D01*
X144654379Y-56403241D01*
X144878845Y-56288870D01*
X144961818Y-56228587D01*
X145066283Y-56152690D01*
X145066283Y-56152689D01*
X145082647Y-56140800D01*
X145082650Y-56140796D01*
X145082656Y-56140793D01*
X145260793Y-55962656D01*
X145408870Y-55758845D01*
X145523241Y-55534379D01*
X145601090Y-55294785D01*
X145640500Y-55045962D01*
X145640500Y-54834038D01*
X160939500Y-54834038D01*
X160939500Y-55085962D01*
X160956442Y-55192930D01*
X160978910Y-55334785D01*
X161056760Y-55574383D01*
X161135413Y-55728747D01*
X161142403Y-55742466D01*
X161171132Y-55798848D01*
X161319201Y-56002649D01*
X161319202Y-56002651D01*
X161497345Y-56180794D01*
X161497350Y-56180798D01*
X161662086Y-56300485D01*
X161701155Y-56328870D01*
X161844184Y-56401747D01*
X161925616Y-56443239D01*
X161925618Y-56443239D01*
X161925621Y-56443241D01*
X162165215Y-56521090D01*
X162414038Y-56560500D01*
X162414039Y-56560500D01*
X162665961Y-56560500D01*
X162665962Y-56560500D01*
X162914785Y-56521090D01*
X163154379Y-56443241D01*
X163378845Y-56328870D01*
X163582656Y-56180793D01*
X163760793Y-56002656D01*
X163760793Y-56002655D01*
X163760798Y-56002651D01*
X163760798Y-56002649D01*
X163782871Y-55972268D01*
X163908870Y-55798845D01*
X164023241Y-55574379D01*
X164101090Y-55334785D01*
X164140500Y-55085962D01*
X164140500Y-54834038D01*
X164101090Y-54585215D01*
X164023241Y-54345621D01*
X164023239Y-54345618D01*
X164023239Y-54345616D01*
X163978751Y-54258305D01*
X163908870Y-54121155D01*
X163879808Y-54081155D01*
X163760798Y-53917350D01*
X163760794Y-53917345D01*
X163582654Y-53739205D01*
X163582649Y-53739201D01*
X163378848Y-53591132D01*
X163378847Y-53591131D01*
X163378845Y-53591130D01*
X163308747Y-53555413D01*
X163154383Y-53476760D01*
X162914785Y-53398910D01*
X162665962Y-53359500D01*
X162414038Y-53359500D01*
X162289626Y-53379205D01*
X162165214Y-53398910D01*
X161925616Y-53476760D01*
X161701151Y-53591132D01*
X161497350Y-53739201D01*
X161497345Y-53739205D01*
X161319205Y-53917345D01*
X161319201Y-53917350D01*
X161171132Y-54121151D01*
X161056760Y-54345616D01*
X160978910Y-54585214D01*
X160972691Y-54624479D01*
X160939500Y-54834038D01*
X145640500Y-54834038D01*
X145640500Y-54794038D01*
X145601090Y-54545215D01*
X145523241Y-54305621D01*
X145523239Y-54305618D01*
X145523239Y-54305616D01*
X145480268Y-54221282D01*
X145408870Y-54081155D01*
X145289859Y-53917350D01*
X145260798Y-53877350D01*
X145260794Y-53877345D01*
X145082654Y-53699205D01*
X145082649Y-53699201D01*
X144878848Y-53551132D01*
X144878847Y-53551131D01*
X144878845Y-53551130D01*
X144808747Y-53515413D01*
X144654383Y-53436760D01*
X144414785Y-53358910D01*
X144314195Y-53342978D01*
X144165962Y-53319500D01*
X143914038Y-53319500D01*
X143789626Y-53339205D01*
X143665214Y-53358910D01*
X143425616Y-53436760D01*
X143201151Y-53551132D01*
X142997350Y-53699201D01*
X142997345Y-53699205D01*
X142819205Y-53877345D01*
X142819201Y-53877350D01*
X142671132Y-54081151D01*
X142556760Y-54305616D01*
X142478910Y-54545214D01*
X142466374Y-54624362D01*
X142439500Y-54794038D01*
X127140500Y-54794038D01*
X127101090Y-54545215D01*
X127023241Y-54305621D01*
X127023239Y-54305618D01*
X127023239Y-54305616D01*
X126980268Y-54221282D01*
X126908870Y-54081155D01*
X126789859Y-53917350D01*
X126760798Y-53877350D01*
X126760794Y-53877345D01*
X126582654Y-53699205D01*
X126582649Y-53699201D01*
X126378848Y-53551132D01*
X126378847Y-53551131D01*
X126378845Y-53551130D01*
X126308747Y-53515413D01*
X126154383Y-53436760D01*
X125914785Y-53358910D01*
X125814195Y-53342978D01*
X125665962Y-53319500D01*
X125414038Y-53319500D01*
X125289626Y-53339205D01*
X125165214Y-53358910D01*
X124925616Y-53436760D01*
X124701151Y-53551132D01*
X124497350Y-53699201D01*
X124497345Y-53699205D01*
X124319205Y-53877345D01*
X124319201Y-53877350D01*
X124171132Y-54081151D01*
X124056760Y-54305616D01*
X123978910Y-54545214D01*
X123966374Y-54624362D01*
X123939500Y-54794038D01*
X108640500Y-54794038D01*
X108601090Y-54545215D01*
X108523241Y-54305621D01*
X108523239Y-54305618D01*
X108523239Y-54305616D01*
X108480268Y-54221282D01*
X108408870Y-54081155D01*
X108289859Y-53917350D01*
X108260798Y-53877350D01*
X108260794Y-53877345D01*
X108082654Y-53699205D01*
X108082649Y-53699201D01*
X107878848Y-53551132D01*
X107878847Y-53551131D01*
X107878845Y-53551130D01*
X107808747Y-53515413D01*
X107654383Y-53436760D01*
X107414785Y-53358910D01*
X107314195Y-53342978D01*
X107165962Y-53319500D01*
X106914038Y-53319500D01*
X106789626Y-53339205D01*
X106665214Y-53358910D01*
X106425616Y-53436760D01*
X106201151Y-53551132D01*
X105997350Y-53699201D01*
X105997345Y-53699205D01*
X105819205Y-53877345D01*
X105819201Y-53877350D01*
X105671132Y-54081151D01*
X105556760Y-54305616D01*
X105478910Y-54545214D01*
X105466374Y-54624362D01*
X105439500Y-54794038D01*
X95500500Y-54794038D01*
X95500500Y-52280639D01*
X171117500Y-52280639D01*
X171117500Y-52479360D01*
X171148587Y-52675637D01*
X171209993Y-52864629D01*
X171209994Y-52864632D01*
X171300213Y-53041694D01*
X171417019Y-53202464D01*
X171557536Y-53342981D01*
X171718306Y-53459787D01*
X171836832Y-53520179D01*
X171874780Y-53539515D01*
X171925576Y-53587490D01*
X171942371Y-53655311D01*
X171919833Y-53721446D01*
X171874780Y-53760485D01*
X171718305Y-53840213D01*
X171557533Y-53957021D01*
X171417021Y-54097533D01*
X171300213Y-54258305D01*
X171209994Y-54435367D01*
X171209993Y-54435370D01*
X171148587Y-54624362D01*
X171117500Y-54820639D01*
X171117500Y-55019360D01*
X171148587Y-55215637D01*
X171209993Y-55404629D01*
X171209994Y-55404632D01*
X171296486Y-55574379D01*
X171300213Y-55581694D01*
X171417019Y-55742464D01*
X171557536Y-55882981D01*
X171718306Y-55999787D01*
X171836832Y-56060179D01*
X171874780Y-56079515D01*
X171925576Y-56127490D01*
X171942371Y-56195311D01*
X171919833Y-56261446D01*
X171874780Y-56300485D01*
X171718305Y-56380213D01*
X171557533Y-56497021D01*
X171417021Y-56637533D01*
X171300213Y-56798305D01*
X171209994Y-56975367D01*
X171209993Y-56975370D01*
X171148587Y-57164362D01*
X171117500Y-57360639D01*
X171117500Y-57559360D01*
X171148587Y-57755637D01*
X171209993Y-57944629D01*
X171209994Y-57944632D01*
X171296386Y-58114184D01*
X171300213Y-58121694D01*
X171417019Y-58282464D01*
X171557536Y-58422981D01*
X171718306Y-58539787D01*
X171836832Y-58600179D01*
X171874780Y-58619515D01*
X171925576Y-58667490D01*
X171942371Y-58735311D01*
X171919833Y-58801446D01*
X171874780Y-58840485D01*
X171718305Y-58920213D01*
X171557533Y-59037021D01*
X171417021Y-59177533D01*
X171300213Y-59338305D01*
X171209994Y-59515367D01*
X171209993Y-59515370D01*
X171148587Y-59704362D01*
X171142578Y-59742302D01*
X171117500Y-59900639D01*
X171117500Y-60099361D01*
X171125127Y-60147513D01*
X171148587Y-60295637D01*
X171209993Y-60484629D01*
X171209994Y-60484632D01*
X171256951Y-60576788D01*
X171300213Y-60661694D01*
X171417019Y-60822464D01*
X171557536Y-60962981D01*
X171718306Y-61079787D01*
X171784279Y-61113402D01*
X171874780Y-61159515D01*
X171925576Y-61207490D01*
X171942371Y-61275311D01*
X171919833Y-61341446D01*
X171874780Y-61380485D01*
X171718305Y-61460213D01*
X171557533Y-61577021D01*
X171417021Y-61717533D01*
X171300213Y-61878305D01*
X171209994Y-62055367D01*
X171209993Y-62055370D01*
X171148587Y-62244362D01*
X171117500Y-62440639D01*
X171117500Y-62639360D01*
X171148587Y-62835637D01*
X171209993Y-63024629D01*
X171209994Y-63024632D01*
X171300213Y-63201694D01*
X171417019Y-63362464D01*
X171557536Y-63502981D01*
X171718306Y-63619787D01*
X171836832Y-63680179D01*
X171874780Y-63699515D01*
X171925576Y-63747490D01*
X171942371Y-63815311D01*
X171919833Y-63881446D01*
X171874780Y-63920485D01*
X171718305Y-64000213D01*
X171557533Y-64117021D01*
X171417021Y-64257533D01*
X171300213Y-64418305D01*
X171209994Y-64595367D01*
X171209993Y-64595370D01*
X171148587Y-64784362D01*
X171117500Y-64980639D01*
X171117500Y-65179360D01*
X171148587Y-65375637D01*
X171209993Y-65564629D01*
X171209994Y-65564632D01*
X171300213Y-65741694D01*
X171417019Y-65902464D01*
X171557536Y-66042981D01*
X171718306Y-66159787D01*
X171836832Y-66220179D01*
X171874780Y-66239515D01*
X171925576Y-66287490D01*
X171942371Y-66355311D01*
X171919833Y-66421446D01*
X171874780Y-66460485D01*
X171718305Y-66540213D01*
X171557533Y-66657021D01*
X171417021Y-66797533D01*
X171300213Y-66958305D01*
X171209994Y-67135367D01*
X171209993Y-67135370D01*
X171148587Y-67324362D01*
X171117500Y-67520639D01*
X171117500Y-67719360D01*
X171148587Y-67915637D01*
X171209993Y-68104629D01*
X171209994Y-68104632D01*
X171300213Y-68281694D01*
X171417019Y-68442464D01*
X171557536Y-68582981D01*
X171718306Y-68699787D01*
X171805149Y-68744035D01*
X171895367Y-68790005D01*
X171895370Y-68790006D01*
X171989866Y-68820709D01*
X172084364Y-68851413D01*
X172280639Y-68882500D01*
X172280640Y-68882500D01*
X172479360Y-68882500D01*
X172479361Y-68882500D01*
X172675636Y-68851413D01*
X172864632Y-68790005D01*
X173041694Y-68699787D01*
X173202464Y-68582981D01*
X173342981Y-68442464D01*
X173459787Y-68281694D01*
X173550005Y-68104632D01*
X173611413Y-67915636D01*
X173642500Y-67719361D01*
X173642500Y-67520639D01*
X173611413Y-67324364D01*
X173550005Y-67135368D01*
X173550005Y-67135367D01*
X173459786Y-66958305D01*
X173342981Y-66797536D01*
X173202464Y-66657019D01*
X173041694Y-66540213D01*
X172885218Y-66460484D01*
X172834423Y-66412510D01*
X172817628Y-66344689D01*
X172840165Y-66278554D01*
X172885218Y-66239515D01*
X173041694Y-66159787D01*
X173202464Y-66042981D01*
X173342981Y-65902464D01*
X173459787Y-65741694D01*
X173550005Y-65564632D01*
X173611413Y-65375636D01*
X173642500Y-65179361D01*
X173642500Y-64980639D01*
X173611413Y-64784364D01*
X173550005Y-64595368D01*
X173550005Y-64595367D01*
X173459786Y-64418305D01*
X173342981Y-64257536D01*
X173202464Y-64117019D01*
X173041694Y-64000213D01*
X172885218Y-63920484D01*
X172834423Y-63872510D01*
X172817628Y-63804689D01*
X172840165Y-63738554D01*
X172885218Y-63699515D01*
X173041694Y-63619787D01*
X173202464Y-63502981D01*
X173342981Y-63362464D01*
X173459787Y-63201694D01*
X173550005Y-63024632D01*
X173611413Y-62835636D01*
X173642500Y-62639361D01*
X173642500Y-62440639D01*
X173611413Y-62244364D01*
X173552402Y-62062745D01*
X173550006Y-62055370D01*
X173550005Y-62055367D01*
X173459786Y-61878305D01*
X173356139Y-61735647D01*
X173342981Y-61717536D01*
X173202464Y-61577019D01*
X173041694Y-61460213D01*
X172885218Y-61380484D01*
X172834423Y-61332510D01*
X172817628Y-61264689D01*
X172840165Y-61198554D01*
X172885218Y-61159515D01*
X173041694Y-61079787D01*
X173202464Y-60962981D01*
X173342981Y-60822464D01*
X173459787Y-60661694D01*
X173550005Y-60484632D01*
X173611413Y-60295636D01*
X173642500Y-60099361D01*
X173642500Y-59900639D01*
X173611413Y-59704364D01*
X173550005Y-59515368D01*
X173550005Y-59515367D01*
X173459786Y-59338305D01*
X173448717Y-59323070D01*
X173342981Y-59177536D01*
X173202464Y-59037019D01*
X173041694Y-58920213D01*
X172885218Y-58840484D01*
X172834423Y-58792510D01*
X172817628Y-58724689D01*
X172840165Y-58658554D01*
X172885218Y-58619515D01*
X173041694Y-58539787D01*
X173202464Y-58422981D01*
X173342981Y-58282464D01*
X173459787Y-58121694D01*
X173550005Y-57944632D01*
X173611413Y-57755636D01*
X173642500Y-57559361D01*
X173642500Y-57360639D01*
X173611413Y-57164364D01*
X173565125Y-57021903D01*
X173550006Y-56975370D01*
X173550005Y-56975367D01*
X173483994Y-56845815D01*
X173459787Y-56798306D01*
X173342981Y-56637536D01*
X173202464Y-56497019D01*
X173041694Y-56380213D01*
X172885218Y-56300484D01*
X172834423Y-56252510D01*
X172817628Y-56184689D01*
X172840165Y-56118554D01*
X172885218Y-56079515D01*
X173041694Y-55999787D01*
X173202464Y-55882981D01*
X173342981Y-55742464D01*
X173459787Y-55581694D01*
X173550005Y-55404632D01*
X173611413Y-55215636D01*
X173642500Y-55019361D01*
X173642500Y-54820639D01*
X173611413Y-54624364D01*
X173550005Y-54435368D01*
X173550005Y-54435367D01*
X173483893Y-54305616D01*
X173459787Y-54258306D01*
X173342981Y-54097536D01*
X173202464Y-53957019D01*
X173041694Y-53840213D01*
X172885218Y-53760484D01*
X172834423Y-53712510D01*
X172817628Y-53644689D01*
X172840165Y-53578554D01*
X172885218Y-53539515D01*
X173041694Y-53459787D01*
X173202464Y-53342981D01*
X173342981Y-53202464D01*
X173459787Y-53041694D01*
X173550005Y-52864632D01*
X173611413Y-52675636D01*
X173642500Y-52479361D01*
X173642500Y-52280639D01*
X173611413Y-52084364D01*
X173550005Y-51895368D01*
X173550005Y-51895367D01*
X173459786Y-51718305D01*
X173342981Y-51557536D01*
X173202464Y-51417019D01*
X173041694Y-51300213D01*
X172864632Y-51209994D01*
X172864629Y-51209993D01*
X172675637Y-51148587D01*
X172577498Y-51133043D01*
X172479361Y-51117500D01*
X172280639Y-51117500D01*
X172215214Y-51127862D01*
X172084362Y-51148587D01*
X171895370Y-51209993D01*
X171895367Y-51209994D01*
X171718305Y-51300213D01*
X171557533Y-51417021D01*
X171417021Y-51557533D01*
X171300213Y-51718305D01*
X171209994Y-51895367D01*
X171209993Y-51895370D01*
X171148587Y-52084362D01*
X171117500Y-52280639D01*
X95500500Y-52280639D01*
X95500500Y-46503246D01*
X95500670Y-46496756D01*
X95507715Y-46362332D01*
X96399500Y-46362332D01*
X96399500Y-46637667D01*
X96399501Y-46637684D01*
X96435438Y-46910655D01*
X96435439Y-46910660D01*
X96435440Y-46910666D01*
X96435441Y-46910668D01*
X96506704Y-47176630D01*
X96612075Y-47431017D01*
X96612080Y-47431028D01*
X96688720Y-47563771D01*
X96749751Y-47669479D01*
X96749753Y-47669482D01*
X96749754Y-47669483D01*
X96917370Y-47887926D01*
X96917376Y-47887933D01*
X97112066Y-48082623D01*
X97112072Y-48082628D01*
X97330521Y-48250249D01*
X97483778Y-48338732D01*
X97568971Y-48387919D01*
X97568976Y-48387921D01*
X97568979Y-48387923D01*
X97823368Y-48493295D01*
X98089334Y-48564560D01*
X98362326Y-48600500D01*
X98362333Y-48600500D01*
X98637667Y-48600500D01*
X98637674Y-48600500D01*
X98910666Y-48564560D01*
X99176632Y-48493295D01*
X99431021Y-48387923D01*
X99669479Y-48250249D01*
X99887928Y-48082628D01*
X100082628Y-47887928D01*
X100250249Y-47669479D01*
X100387923Y-47431021D01*
X100493295Y-47176632D01*
X100564560Y-46910666D01*
X100600500Y-46637674D01*
X100600500Y-46362326D01*
X100564560Y-46089334D01*
X100552588Y-46044655D01*
X101822500Y-46044655D01*
X101822500Y-46750000D01*
X102675743Y-46750000D01*
X102666229Y-46766479D01*
X102625000Y-46920350D01*
X102625000Y-47079650D01*
X102666229Y-47233521D01*
X102675743Y-47250000D01*
X101822500Y-47250000D01*
X101822500Y-47955344D01*
X101828901Y-48014872D01*
X101828903Y-48014879D01*
X101879145Y-48149586D01*
X101879149Y-48149593D01*
X101965309Y-48264687D01*
X101965312Y-48264690D01*
X102080406Y-48350850D01*
X102080413Y-48350854D01*
X102215120Y-48401096D01*
X102215127Y-48401098D01*
X102274655Y-48407499D01*
X102274672Y-48407500D01*
X102980000Y-48407500D01*
X102980000Y-47554256D01*
X102996479Y-47563771D01*
X103150350Y-47605000D01*
X103309650Y-47605000D01*
X103463521Y-47563771D01*
X103480000Y-47554256D01*
X103480000Y-48407500D01*
X104185328Y-48407500D01*
X104185344Y-48407499D01*
X104244872Y-48401098D01*
X104244879Y-48401096D01*
X104379586Y-48350854D01*
X104379593Y-48350850D01*
X104494687Y-48264690D01*
X104494690Y-48264687D01*
X104580850Y-48149593D01*
X104580853Y-48149588D01*
X104607830Y-48077257D01*
X104649701Y-48021322D01*
X104715165Y-47996904D01*
X104783438Y-48011755D01*
X104811694Y-48032907D01*
X104852749Y-48073962D01*
X105032047Y-48204230D01*
X105122357Y-48250245D01*
X105229511Y-48304843D01*
X105229513Y-48304843D01*
X105229516Y-48304845D01*
X105342496Y-48341554D01*
X105440292Y-48373331D01*
X105659183Y-48408000D01*
X105659188Y-48408000D01*
X105880817Y-48408000D01*
X106099707Y-48373331D01*
X106310484Y-48304845D01*
X106507953Y-48204230D01*
X106687251Y-48073962D01*
X106843962Y-47917251D01*
X106974230Y-47737953D01*
X107009768Y-47668204D01*
X107057741Y-47617410D01*
X107120252Y-47600500D01*
X110349208Y-47600500D01*
X110416247Y-47620185D01*
X110449524Y-47651612D01*
X110544310Y-47782073D01*
X110677927Y-47915690D01*
X110830801Y-48026760D01*
X110910347Y-48067290D01*
X110999163Y-48112545D01*
X110999165Y-48112545D01*
X110999168Y-48112547D01*
X111095497Y-48143846D01*
X111178881Y-48170940D01*
X111365514Y-48200500D01*
X111365519Y-48200500D01*
X111554486Y-48200500D01*
X111741118Y-48170940D01*
X111920832Y-48112547D01*
X112089199Y-48026760D01*
X112242073Y-47915690D01*
X112375690Y-47782073D01*
X112486760Y-47629199D01*
X112572547Y-47460832D01*
X112630940Y-47281118D01*
X112647489Y-47176630D01*
X112660500Y-47094486D01*
X112660500Y-46905513D01*
X115339500Y-46905513D01*
X115339500Y-47094486D01*
X115369059Y-47281118D01*
X115427454Y-47460836D01*
X115496381Y-47596111D01*
X115513240Y-47629199D01*
X115624310Y-47782073D01*
X115757927Y-47915690D01*
X115910801Y-48026760D01*
X115990347Y-48067290D01*
X116079163Y-48112545D01*
X116079165Y-48112545D01*
X116079168Y-48112547D01*
X116175497Y-48143846D01*
X116258881Y-48170940D01*
X116445514Y-48200500D01*
X116445519Y-48200500D01*
X116634486Y-48200500D01*
X116821118Y-48170940D01*
X117000832Y-48112547D01*
X117169199Y-48026760D01*
X117322073Y-47915690D01*
X117455690Y-47782073D01*
X117566760Y-47629199D01*
X117652547Y-47460832D01*
X117710940Y-47281118D01*
X117727489Y-47176630D01*
X117740500Y-47094486D01*
X117740500Y-46905513D01*
X117710940Y-46718881D01*
X117652545Y-46539163D01*
X117579090Y-46395000D01*
X117566760Y-46370801D01*
X117455690Y-46217927D01*
X117322073Y-46084310D01*
X117267493Y-46044655D01*
X120322500Y-46044655D01*
X120322500Y-46750000D01*
X121175743Y-46750000D01*
X121166229Y-46766479D01*
X121125000Y-46920350D01*
X121125000Y-47079650D01*
X121166229Y-47233521D01*
X121175743Y-47250000D01*
X120322500Y-47250000D01*
X120322500Y-47955344D01*
X120328901Y-48014872D01*
X120328903Y-48014879D01*
X120379145Y-48149586D01*
X120379149Y-48149593D01*
X120465309Y-48264687D01*
X120465312Y-48264690D01*
X120580406Y-48350850D01*
X120580413Y-48350854D01*
X120715120Y-48401096D01*
X120715127Y-48401098D01*
X120774655Y-48407499D01*
X120774672Y-48407500D01*
X121480000Y-48407500D01*
X121480000Y-47554256D01*
X121496479Y-47563771D01*
X121650350Y-47605000D01*
X121809650Y-47605000D01*
X121963521Y-47563771D01*
X121980000Y-47554256D01*
X121980000Y-48407500D01*
X122685328Y-48407500D01*
X122685344Y-48407499D01*
X122744872Y-48401098D01*
X122744879Y-48401096D01*
X122879586Y-48350854D01*
X122879593Y-48350850D01*
X122994687Y-48264690D01*
X122994690Y-48264687D01*
X123080850Y-48149593D01*
X123080853Y-48149588D01*
X123107830Y-48077257D01*
X123149701Y-48021322D01*
X123215165Y-47996904D01*
X123283438Y-48011755D01*
X123311694Y-48032907D01*
X123352749Y-48073962D01*
X123532047Y-48204230D01*
X123622357Y-48250245D01*
X123729511Y-48304843D01*
X123729513Y-48304843D01*
X123729516Y-48304845D01*
X123842496Y-48341554D01*
X123940292Y-48373331D01*
X124159183Y-48408000D01*
X124159188Y-48408000D01*
X124380817Y-48408000D01*
X124599707Y-48373331D01*
X124810484Y-48304845D01*
X125007953Y-48204230D01*
X125187251Y-48073962D01*
X125343962Y-47917251D01*
X125474230Y-47737953D01*
X125509768Y-47668204D01*
X125557741Y-47617410D01*
X125620252Y-47600500D01*
X128849208Y-47600500D01*
X128916247Y-47620185D01*
X128949524Y-47651612D01*
X129044310Y-47782073D01*
X129177927Y-47915690D01*
X129330801Y-48026760D01*
X129410347Y-48067290D01*
X129499163Y-48112545D01*
X129499165Y-48112545D01*
X129499168Y-48112547D01*
X129595497Y-48143846D01*
X129678881Y-48170940D01*
X129865514Y-48200500D01*
X129865519Y-48200500D01*
X130054486Y-48200500D01*
X130241118Y-48170940D01*
X130420832Y-48112547D01*
X130589199Y-48026760D01*
X130742073Y-47915690D01*
X130875690Y-47782073D01*
X130986760Y-47629199D01*
X131072547Y-47460832D01*
X131130940Y-47281118D01*
X131147489Y-47176630D01*
X131160500Y-47094486D01*
X131160500Y-46905513D01*
X133839500Y-46905513D01*
X133839500Y-47094486D01*
X133869059Y-47281118D01*
X133927454Y-47460836D01*
X133996381Y-47596111D01*
X134013240Y-47629199D01*
X134124310Y-47782073D01*
X134257927Y-47915690D01*
X134410801Y-48026760D01*
X134490347Y-48067290D01*
X134579163Y-48112545D01*
X134579165Y-48112545D01*
X134579168Y-48112547D01*
X134675497Y-48143846D01*
X134758881Y-48170940D01*
X134945514Y-48200500D01*
X134945519Y-48200500D01*
X135134486Y-48200500D01*
X135321118Y-48170940D01*
X135500832Y-48112547D01*
X135669199Y-48026760D01*
X135822073Y-47915690D01*
X135955690Y-47782073D01*
X136066760Y-47629199D01*
X136152547Y-47460832D01*
X136210940Y-47281118D01*
X136227489Y-47176630D01*
X136240500Y-47094486D01*
X136240500Y-46905513D01*
X136210940Y-46718881D01*
X136152545Y-46539163D01*
X136079090Y-46395000D01*
X136066760Y-46370801D01*
X135955690Y-46217927D01*
X135822073Y-46084310D01*
X135767493Y-46044655D01*
X138822500Y-46044655D01*
X138822500Y-46750000D01*
X139675743Y-46750000D01*
X139666229Y-46766479D01*
X139625000Y-46920350D01*
X139625000Y-47079650D01*
X139666229Y-47233521D01*
X139675743Y-47250000D01*
X138822500Y-47250000D01*
X138822500Y-47955344D01*
X138828901Y-48014872D01*
X138828903Y-48014879D01*
X138879145Y-48149586D01*
X138879149Y-48149593D01*
X138965309Y-48264687D01*
X138965312Y-48264690D01*
X139080406Y-48350850D01*
X139080413Y-48350854D01*
X139215120Y-48401096D01*
X139215127Y-48401098D01*
X139274655Y-48407499D01*
X139274672Y-48407500D01*
X139980000Y-48407500D01*
X139980000Y-47554256D01*
X139996479Y-47563771D01*
X140150350Y-47605000D01*
X140309650Y-47605000D01*
X140463521Y-47563771D01*
X140480000Y-47554256D01*
X140480000Y-48407500D01*
X141185328Y-48407500D01*
X141185344Y-48407499D01*
X141244872Y-48401098D01*
X141244879Y-48401096D01*
X141379586Y-48350854D01*
X141379593Y-48350850D01*
X141494687Y-48264690D01*
X141494690Y-48264687D01*
X141580850Y-48149593D01*
X141580853Y-48149588D01*
X141607830Y-48077257D01*
X141649701Y-48021322D01*
X141715165Y-47996904D01*
X141783438Y-48011755D01*
X141811694Y-48032907D01*
X141852749Y-48073962D01*
X142032047Y-48204230D01*
X142122357Y-48250245D01*
X142229511Y-48304843D01*
X142229513Y-48304843D01*
X142229516Y-48304845D01*
X142342496Y-48341554D01*
X142440292Y-48373331D01*
X142659183Y-48408000D01*
X142659188Y-48408000D01*
X142880817Y-48408000D01*
X143099707Y-48373331D01*
X143310484Y-48304845D01*
X143507953Y-48204230D01*
X143687251Y-48073962D01*
X143843962Y-47917251D01*
X143974230Y-47737953D01*
X144009768Y-47668204D01*
X144057741Y-47617410D01*
X144120252Y-47600500D01*
X147349208Y-47600500D01*
X147416247Y-47620185D01*
X147449524Y-47651612D01*
X147544310Y-47782073D01*
X147677927Y-47915690D01*
X147830801Y-48026760D01*
X147910347Y-48067290D01*
X147999163Y-48112545D01*
X147999165Y-48112545D01*
X147999168Y-48112547D01*
X148095497Y-48143846D01*
X148178881Y-48170940D01*
X148365514Y-48200500D01*
X148365519Y-48200500D01*
X148554486Y-48200500D01*
X148741118Y-48170940D01*
X148920832Y-48112547D01*
X149089199Y-48026760D01*
X149242073Y-47915690D01*
X149375690Y-47782073D01*
X149486760Y-47629199D01*
X149572547Y-47460832D01*
X149630940Y-47281118D01*
X149647489Y-47176630D01*
X149660500Y-47094486D01*
X149660500Y-46905513D01*
X152339500Y-46905513D01*
X152339500Y-47094486D01*
X152369059Y-47281118D01*
X152427454Y-47460836D01*
X152496381Y-47596111D01*
X152513240Y-47629199D01*
X152624310Y-47782073D01*
X152757927Y-47915690D01*
X152910801Y-48026760D01*
X152990347Y-48067290D01*
X153079163Y-48112545D01*
X153079165Y-48112545D01*
X153079168Y-48112547D01*
X153175497Y-48143846D01*
X153258881Y-48170940D01*
X153445514Y-48200500D01*
X153445519Y-48200500D01*
X153634486Y-48200500D01*
X153821118Y-48170940D01*
X154000832Y-48112547D01*
X154169199Y-48026760D01*
X154322073Y-47915690D01*
X154455690Y-47782073D01*
X154566760Y-47629199D01*
X154652547Y-47460832D01*
X154710940Y-47281118D01*
X154727489Y-47176630D01*
X154740500Y-47094486D01*
X154740500Y-46905513D01*
X154710940Y-46718881D01*
X154652545Y-46539163D01*
X154579090Y-46395000D01*
X154566760Y-46370801D01*
X154455690Y-46217927D01*
X154322073Y-46084310D01*
X154267493Y-46044655D01*
X157322500Y-46044655D01*
X157322500Y-46750000D01*
X158175743Y-46750000D01*
X158166229Y-46766479D01*
X158125000Y-46920350D01*
X158125000Y-47079650D01*
X158166229Y-47233521D01*
X158175743Y-47250000D01*
X157322500Y-47250000D01*
X157322500Y-47955344D01*
X157328901Y-48014872D01*
X157328903Y-48014879D01*
X157379145Y-48149586D01*
X157379149Y-48149593D01*
X157465309Y-48264687D01*
X157465312Y-48264690D01*
X157580406Y-48350850D01*
X157580413Y-48350854D01*
X157715120Y-48401096D01*
X157715127Y-48401098D01*
X157774655Y-48407499D01*
X157774672Y-48407500D01*
X158480000Y-48407500D01*
X158480000Y-47554256D01*
X158496479Y-47563771D01*
X158650350Y-47605000D01*
X158809650Y-47605000D01*
X158963521Y-47563771D01*
X158980000Y-47554256D01*
X158980000Y-48407500D01*
X159685328Y-48407500D01*
X159685344Y-48407499D01*
X159744872Y-48401098D01*
X159744879Y-48401096D01*
X159879586Y-48350854D01*
X159879593Y-48350850D01*
X159994687Y-48264690D01*
X159994690Y-48264687D01*
X160080850Y-48149593D01*
X160080853Y-48149588D01*
X160107830Y-48077257D01*
X160149701Y-48021322D01*
X160215165Y-47996904D01*
X160283438Y-48011755D01*
X160311694Y-48032907D01*
X160352749Y-48073962D01*
X160532047Y-48204230D01*
X160622357Y-48250245D01*
X160729511Y-48304843D01*
X160729513Y-48304843D01*
X160729516Y-48304845D01*
X160842496Y-48341554D01*
X160940292Y-48373331D01*
X161159183Y-48408000D01*
X161159188Y-48408000D01*
X161380817Y-48408000D01*
X161599707Y-48373331D01*
X161810484Y-48304845D01*
X162007953Y-48204230D01*
X162187251Y-48073962D01*
X162343962Y-47917251D01*
X162474230Y-47737953D01*
X162509768Y-47668204D01*
X162557741Y-47617410D01*
X162620252Y-47600500D01*
X165849208Y-47600500D01*
X165916247Y-47620185D01*
X165949524Y-47651612D01*
X166044310Y-47782073D01*
X166177927Y-47915690D01*
X166330801Y-48026760D01*
X166410347Y-48067290D01*
X166499163Y-48112545D01*
X166499165Y-48112545D01*
X166499168Y-48112547D01*
X166595497Y-48143846D01*
X166678881Y-48170940D01*
X166865514Y-48200500D01*
X166865519Y-48200500D01*
X167054486Y-48200500D01*
X167241118Y-48170940D01*
X167420832Y-48112547D01*
X167589199Y-48026760D01*
X167742073Y-47915690D01*
X167875690Y-47782073D01*
X167986760Y-47629199D01*
X168072547Y-47460832D01*
X168130940Y-47281118D01*
X168147489Y-47176630D01*
X168160500Y-47094486D01*
X168160500Y-46905513D01*
X170839500Y-46905513D01*
X170839500Y-47094486D01*
X170869059Y-47281118D01*
X170927454Y-47460836D01*
X170996381Y-47596111D01*
X171013240Y-47629199D01*
X171124310Y-47782073D01*
X171257927Y-47915690D01*
X171410801Y-48026760D01*
X171490347Y-48067290D01*
X171579163Y-48112545D01*
X171579165Y-48112545D01*
X171579168Y-48112547D01*
X171675497Y-48143846D01*
X171758881Y-48170940D01*
X171945514Y-48200500D01*
X171945519Y-48200500D01*
X172134486Y-48200500D01*
X172321118Y-48170940D01*
X172500832Y-48112547D01*
X172669199Y-48026760D01*
X172822073Y-47915690D01*
X172955690Y-47782073D01*
X173066760Y-47629199D01*
X173152547Y-47460832D01*
X173210940Y-47281118D01*
X173227489Y-47176630D01*
X173240500Y-47094486D01*
X173240500Y-46905513D01*
X173210940Y-46718881D01*
X173152545Y-46539163D01*
X173089057Y-46414562D01*
X173089056Y-46414560D01*
X173066761Y-46370802D01*
X173060607Y-46362332D01*
X185399500Y-46362332D01*
X185399500Y-46637667D01*
X185399501Y-46637684D01*
X185435438Y-46910655D01*
X185435439Y-46910660D01*
X185435440Y-46910666D01*
X185435441Y-46910668D01*
X185506704Y-47176630D01*
X185612075Y-47431017D01*
X185612080Y-47431028D01*
X185688720Y-47563771D01*
X185749751Y-47669479D01*
X185749753Y-47669482D01*
X185749754Y-47669483D01*
X185917370Y-47887926D01*
X185917376Y-47887933D01*
X186112066Y-48082623D01*
X186112072Y-48082628D01*
X186330521Y-48250249D01*
X186483778Y-48338732D01*
X186568971Y-48387919D01*
X186568976Y-48387921D01*
X186568979Y-48387923D01*
X186823368Y-48493295D01*
X187089334Y-48564560D01*
X187362326Y-48600500D01*
X187362333Y-48600500D01*
X187637667Y-48600500D01*
X187637674Y-48600500D01*
X187910666Y-48564560D01*
X188176632Y-48493295D01*
X188431021Y-48387923D01*
X188669479Y-48250249D01*
X188887928Y-48082628D01*
X189082628Y-47887928D01*
X189250249Y-47669479D01*
X189387923Y-47431021D01*
X189493295Y-47176632D01*
X189564560Y-46910666D01*
X189600500Y-46637674D01*
X189600500Y-46362326D01*
X189564560Y-46089334D01*
X189493295Y-45823368D01*
X189387923Y-45568979D01*
X189387921Y-45568976D01*
X189387919Y-45568971D01*
X189338732Y-45483778D01*
X189250249Y-45330521D01*
X189082628Y-45112072D01*
X189082623Y-45112066D01*
X188887933Y-44917376D01*
X188887926Y-44917370D01*
X188669483Y-44749754D01*
X188669482Y-44749753D01*
X188669479Y-44749751D01*
X188574407Y-44694861D01*
X188431028Y-44612080D01*
X188431017Y-44612075D01*
X188176630Y-44506704D01*
X188043649Y-44471072D01*
X187910666Y-44435440D01*
X187910660Y-44435439D01*
X187910655Y-44435438D01*
X187637684Y-44399501D01*
X187637679Y-44399500D01*
X187637674Y-44399500D01*
X187362326Y-44399500D01*
X187362320Y-44399500D01*
X187362315Y-44399501D01*
X187089344Y-44435438D01*
X187089337Y-44435439D01*
X187089334Y-44435440D01*
X187033125Y-44450500D01*
X186823369Y-44506704D01*
X186568982Y-44612075D01*
X186568971Y-44612080D01*
X186330516Y-44749754D01*
X186112073Y-44917370D01*
X186112066Y-44917376D01*
X185917376Y-45112066D01*
X185917370Y-45112073D01*
X185749754Y-45330516D01*
X185612080Y-45568971D01*
X185612075Y-45568982D01*
X185506704Y-45823369D01*
X185479194Y-45926040D01*
X185437205Y-46082749D01*
X185435441Y-46089331D01*
X185435438Y-46089344D01*
X185399501Y-46362315D01*
X185399500Y-46362332D01*
X173060607Y-46362332D01*
X173050075Y-46347836D01*
X172955690Y-46217927D01*
X172822073Y-46084310D01*
X172669199Y-45973240D01*
X172617141Y-45946715D01*
X172500836Y-45887454D01*
X172321118Y-45829059D01*
X172134486Y-45799500D01*
X172134481Y-45799500D01*
X171945519Y-45799500D01*
X171945514Y-45799500D01*
X171758881Y-45829059D01*
X171579163Y-45887454D01*
X171410800Y-45973240D01*
X171323579Y-46036610D01*
X171257927Y-46084310D01*
X171257925Y-46084312D01*
X171257924Y-46084312D01*
X171124312Y-46217924D01*
X171124312Y-46217925D01*
X171124310Y-46217927D01*
X171092255Y-46262047D01*
X171013240Y-46370800D01*
X170927454Y-46539163D01*
X170869059Y-46718881D01*
X170839500Y-46905513D01*
X168160500Y-46905513D01*
X168130940Y-46718881D01*
X168072545Y-46539163D01*
X167999090Y-46395000D01*
X167986760Y-46370801D01*
X167875690Y-46217927D01*
X167742073Y-46084310D01*
X167589199Y-45973240D01*
X167537141Y-45946715D01*
X167420836Y-45887454D01*
X167241118Y-45829059D01*
X167054486Y-45799500D01*
X167054481Y-45799500D01*
X166865519Y-45799500D01*
X166865514Y-45799500D01*
X166678881Y-45829059D01*
X166499163Y-45887454D01*
X166330800Y-45973240D01*
X166243579Y-46036610D01*
X166177927Y-46084310D01*
X166177925Y-46084312D01*
X166177924Y-46084312D01*
X166044312Y-46217924D01*
X166044312Y-46217925D01*
X166044310Y-46217927D01*
X165949526Y-46348386D01*
X165894196Y-46391051D01*
X165849208Y-46399500D01*
X162620252Y-46399500D01*
X162553213Y-46379815D01*
X162509767Y-46331794D01*
X162501234Y-46315046D01*
X162474230Y-46262047D01*
X162343962Y-46082749D01*
X162187251Y-45926038D01*
X162007953Y-45795770D01*
X161988645Y-45785932D01*
X161810488Y-45695156D01*
X161599707Y-45626668D01*
X161380817Y-45592000D01*
X161380812Y-45592000D01*
X161159188Y-45592000D01*
X161159183Y-45592000D01*
X160940292Y-45626668D01*
X160729511Y-45695156D01*
X160532046Y-45795770D01*
X160456835Y-45850415D01*
X160352749Y-45926038D01*
X160352747Y-45926040D01*
X160352745Y-45926041D01*
X160311693Y-45967093D01*
X160250370Y-46000578D01*
X160180678Y-45995592D01*
X160124745Y-45953720D01*
X160107831Y-45922743D01*
X160080855Y-45850415D01*
X160080850Y-45850406D01*
X159994690Y-45735312D01*
X159994687Y-45735309D01*
X159879593Y-45649149D01*
X159879586Y-45649145D01*
X159744879Y-45598903D01*
X159744872Y-45598901D01*
X159685344Y-45592500D01*
X158980000Y-45592500D01*
X158980000Y-46445743D01*
X158963521Y-46436229D01*
X158809650Y-46395000D01*
X158650350Y-46395000D01*
X158496479Y-46436229D01*
X158480000Y-46445743D01*
X158480000Y-45592500D01*
X157774655Y-45592500D01*
X157715127Y-45598901D01*
X157715120Y-45598903D01*
X157580413Y-45649145D01*
X157580406Y-45649149D01*
X157465312Y-45735309D01*
X157465309Y-45735312D01*
X157379149Y-45850406D01*
X157379145Y-45850413D01*
X157328903Y-45985120D01*
X157328901Y-45985127D01*
X157322500Y-46044655D01*
X154267493Y-46044655D01*
X154169199Y-45973240D01*
X154117141Y-45946715D01*
X154000836Y-45887454D01*
X153821118Y-45829059D01*
X153634486Y-45799500D01*
X153634481Y-45799500D01*
X153445519Y-45799500D01*
X153445514Y-45799500D01*
X153258881Y-45829059D01*
X153079163Y-45887454D01*
X152910800Y-45973240D01*
X152823579Y-46036610D01*
X152757927Y-46084310D01*
X152757925Y-46084312D01*
X152757924Y-46084312D01*
X152624312Y-46217924D01*
X152624312Y-46217925D01*
X152624310Y-46217927D01*
X152592255Y-46262047D01*
X152513240Y-46370800D01*
X152427454Y-46539163D01*
X152369059Y-46718881D01*
X152339500Y-46905513D01*
X149660500Y-46905513D01*
X149630940Y-46718881D01*
X149572545Y-46539163D01*
X149499090Y-46395000D01*
X149486760Y-46370801D01*
X149375690Y-46217927D01*
X149242073Y-46084310D01*
X149089199Y-45973240D01*
X149037141Y-45946715D01*
X148920836Y-45887454D01*
X148741118Y-45829059D01*
X148554486Y-45799500D01*
X148554481Y-45799500D01*
X148365519Y-45799500D01*
X148365514Y-45799500D01*
X148178881Y-45829059D01*
X147999163Y-45887454D01*
X147830800Y-45973240D01*
X147743579Y-46036610D01*
X147677927Y-46084310D01*
X147677925Y-46084312D01*
X147677924Y-46084312D01*
X147544312Y-46217924D01*
X147544312Y-46217925D01*
X147544310Y-46217927D01*
X147449526Y-46348386D01*
X147394196Y-46391051D01*
X147349208Y-46399500D01*
X144120252Y-46399500D01*
X144053213Y-46379815D01*
X144009767Y-46331794D01*
X144001234Y-46315046D01*
X143974230Y-46262047D01*
X143843962Y-46082749D01*
X143687251Y-45926038D01*
X143507953Y-45795770D01*
X143488645Y-45785932D01*
X143310488Y-45695156D01*
X143099707Y-45626668D01*
X142880817Y-45592000D01*
X142880812Y-45592000D01*
X142659188Y-45592000D01*
X142659183Y-45592000D01*
X142440292Y-45626668D01*
X142229511Y-45695156D01*
X142032046Y-45795770D01*
X141956835Y-45850415D01*
X141852749Y-45926038D01*
X141852747Y-45926040D01*
X141852745Y-45926041D01*
X141811693Y-45967093D01*
X141750370Y-46000578D01*
X141680678Y-45995592D01*
X141624745Y-45953720D01*
X141607831Y-45922743D01*
X141580855Y-45850415D01*
X141580850Y-45850406D01*
X141494690Y-45735312D01*
X141494687Y-45735309D01*
X141379593Y-45649149D01*
X141379586Y-45649145D01*
X141244879Y-45598903D01*
X141244872Y-45598901D01*
X141185344Y-45592500D01*
X140480000Y-45592500D01*
X140480000Y-46445743D01*
X140463521Y-46436229D01*
X140309650Y-46395000D01*
X140150350Y-46395000D01*
X139996479Y-46436229D01*
X139980000Y-46445743D01*
X139980000Y-45592500D01*
X139274655Y-45592500D01*
X139215127Y-45598901D01*
X139215120Y-45598903D01*
X139080413Y-45649145D01*
X139080406Y-45649149D01*
X138965312Y-45735309D01*
X138965309Y-45735312D01*
X138879149Y-45850406D01*
X138879145Y-45850413D01*
X138828903Y-45985120D01*
X138828901Y-45985127D01*
X138822500Y-46044655D01*
X135767493Y-46044655D01*
X135669199Y-45973240D01*
X135617141Y-45946715D01*
X135500836Y-45887454D01*
X135321118Y-45829059D01*
X135134486Y-45799500D01*
X135134481Y-45799500D01*
X134945519Y-45799500D01*
X134945514Y-45799500D01*
X134758881Y-45829059D01*
X134579163Y-45887454D01*
X134410800Y-45973240D01*
X134323579Y-46036610D01*
X134257927Y-46084310D01*
X134257925Y-46084312D01*
X134257924Y-46084312D01*
X134124312Y-46217924D01*
X134124312Y-46217925D01*
X134124310Y-46217927D01*
X134092255Y-46262047D01*
X134013240Y-46370800D01*
X133927454Y-46539163D01*
X133869059Y-46718881D01*
X133839500Y-46905513D01*
X131160500Y-46905513D01*
X131130940Y-46718881D01*
X131072545Y-46539163D01*
X130999090Y-46395000D01*
X130986760Y-46370801D01*
X130875690Y-46217927D01*
X130742073Y-46084310D01*
X130589199Y-45973240D01*
X130537141Y-45946715D01*
X130420836Y-45887454D01*
X130241118Y-45829059D01*
X130054486Y-45799500D01*
X130054481Y-45799500D01*
X129865519Y-45799500D01*
X129865514Y-45799500D01*
X129678881Y-45829059D01*
X129499163Y-45887454D01*
X129330800Y-45973240D01*
X129243579Y-46036610D01*
X129177927Y-46084310D01*
X129177925Y-46084312D01*
X129177924Y-46084312D01*
X129044312Y-46217924D01*
X129044312Y-46217925D01*
X129044310Y-46217927D01*
X128949526Y-46348386D01*
X128894196Y-46391051D01*
X128849208Y-46399500D01*
X125620252Y-46399500D01*
X125553213Y-46379815D01*
X125509767Y-46331794D01*
X125501234Y-46315046D01*
X125474230Y-46262047D01*
X125343962Y-46082749D01*
X125187251Y-45926038D01*
X125007953Y-45795770D01*
X124988645Y-45785932D01*
X124810488Y-45695156D01*
X124599707Y-45626668D01*
X124380817Y-45592000D01*
X124380812Y-45592000D01*
X124159188Y-45592000D01*
X124159183Y-45592000D01*
X123940292Y-45626668D01*
X123729511Y-45695156D01*
X123532046Y-45795770D01*
X123456835Y-45850415D01*
X123352749Y-45926038D01*
X123352747Y-45926040D01*
X123352745Y-45926041D01*
X123311693Y-45967093D01*
X123250370Y-46000578D01*
X123180678Y-45995592D01*
X123124745Y-45953720D01*
X123107831Y-45922743D01*
X123080855Y-45850415D01*
X123080850Y-45850406D01*
X122994690Y-45735312D01*
X122994687Y-45735309D01*
X122879593Y-45649149D01*
X122879586Y-45649145D01*
X122744879Y-45598903D01*
X122744872Y-45598901D01*
X122685344Y-45592500D01*
X121980000Y-45592500D01*
X121980000Y-46445743D01*
X121963521Y-46436229D01*
X121809650Y-46395000D01*
X121650350Y-46395000D01*
X121496479Y-46436229D01*
X121480000Y-46445743D01*
X121480000Y-45592500D01*
X120774655Y-45592500D01*
X120715127Y-45598901D01*
X120715120Y-45598903D01*
X120580413Y-45649145D01*
X120580406Y-45649149D01*
X120465312Y-45735309D01*
X120465309Y-45735312D01*
X120379149Y-45850406D01*
X120379145Y-45850413D01*
X120328903Y-45985120D01*
X120328901Y-45985127D01*
X120322500Y-46044655D01*
X117267493Y-46044655D01*
X117169199Y-45973240D01*
X117117141Y-45946715D01*
X117000836Y-45887454D01*
X116821118Y-45829059D01*
X116634486Y-45799500D01*
X116634481Y-45799500D01*
X116445519Y-45799500D01*
X116445514Y-45799500D01*
X116258881Y-45829059D01*
X116079163Y-45887454D01*
X115910800Y-45973240D01*
X115823579Y-46036610D01*
X115757927Y-46084310D01*
X115757925Y-46084312D01*
X115757924Y-46084312D01*
X115624312Y-46217924D01*
X115624312Y-46217925D01*
X115624310Y-46217927D01*
X115592255Y-46262047D01*
X115513240Y-46370800D01*
X115427454Y-46539163D01*
X115369059Y-46718881D01*
X115339500Y-46905513D01*
X112660500Y-46905513D01*
X112630940Y-46718881D01*
X112572545Y-46539163D01*
X112499090Y-46395000D01*
X112486760Y-46370801D01*
X112375690Y-46217927D01*
X112242073Y-46084310D01*
X112089199Y-45973240D01*
X112037141Y-45946715D01*
X111920836Y-45887454D01*
X111741118Y-45829059D01*
X111554486Y-45799500D01*
X111554481Y-45799500D01*
X111365519Y-45799500D01*
X111365514Y-45799500D01*
X111178881Y-45829059D01*
X110999163Y-45887454D01*
X110830800Y-45973240D01*
X110743579Y-46036610D01*
X110677927Y-46084310D01*
X110677925Y-46084312D01*
X110677924Y-46084312D01*
X110544312Y-46217924D01*
X110544312Y-46217925D01*
X110544310Y-46217927D01*
X110449526Y-46348386D01*
X110394196Y-46391051D01*
X110349208Y-46399500D01*
X107120252Y-46399500D01*
X107053213Y-46379815D01*
X107009767Y-46331794D01*
X107001234Y-46315046D01*
X106974230Y-46262047D01*
X106843962Y-46082749D01*
X106687251Y-45926038D01*
X106507953Y-45795770D01*
X106488645Y-45785932D01*
X106310488Y-45695156D01*
X106099707Y-45626668D01*
X105880817Y-45592000D01*
X105880812Y-45592000D01*
X105659188Y-45592000D01*
X105659183Y-45592000D01*
X105440292Y-45626668D01*
X105229511Y-45695156D01*
X105032046Y-45795770D01*
X104956835Y-45850415D01*
X104852749Y-45926038D01*
X104852747Y-45926040D01*
X104852745Y-45926041D01*
X104811693Y-45967093D01*
X104750370Y-46000578D01*
X104680678Y-45995592D01*
X104624745Y-45953720D01*
X104607831Y-45922743D01*
X104580855Y-45850415D01*
X104580850Y-45850406D01*
X104494690Y-45735312D01*
X104494687Y-45735309D01*
X104379593Y-45649149D01*
X104379586Y-45649145D01*
X104244879Y-45598903D01*
X104244872Y-45598901D01*
X104185344Y-45592500D01*
X103480000Y-45592500D01*
X103480000Y-46445743D01*
X103463521Y-46436229D01*
X103309650Y-46395000D01*
X103150350Y-46395000D01*
X102996479Y-46436229D01*
X102980000Y-46445743D01*
X102980000Y-45592500D01*
X102274655Y-45592500D01*
X102215127Y-45598901D01*
X102215120Y-45598903D01*
X102080413Y-45649145D01*
X102080406Y-45649149D01*
X101965312Y-45735309D01*
X101965309Y-45735312D01*
X101879149Y-45850406D01*
X101879145Y-45850413D01*
X101828903Y-45985120D01*
X101828901Y-45985127D01*
X101822500Y-46044655D01*
X100552588Y-46044655D01*
X100493295Y-45823368D01*
X100387923Y-45568979D01*
X100387921Y-45568976D01*
X100387919Y-45568971D01*
X100338732Y-45483778D01*
X100250249Y-45330521D01*
X100082628Y-45112072D01*
X100082623Y-45112066D01*
X99887933Y-44917376D01*
X99887926Y-44917370D01*
X99669483Y-44749754D01*
X99669482Y-44749753D01*
X99669479Y-44749751D01*
X99574407Y-44694861D01*
X99431028Y-44612080D01*
X99431017Y-44612075D01*
X99176630Y-44506704D01*
X99043649Y-44471072D01*
X98910666Y-44435440D01*
X98910660Y-44435439D01*
X98910655Y-44435438D01*
X98637684Y-44399501D01*
X98637679Y-44399500D01*
X98637674Y-44399500D01*
X98362326Y-44399500D01*
X98362320Y-44399500D01*
X98362315Y-44399501D01*
X98089344Y-44435438D01*
X98089337Y-44435439D01*
X98089334Y-44435440D01*
X98033125Y-44450500D01*
X97823369Y-44506704D01*
X97568982Y-44612075D01*
X97568971Y-44612080D01*
X97330516Y-44749754D01*
X97112073Y-44917370D01*
X97112066Y-44917376D01*
X96917376Y-45112066D01*
X96917370Y-45112073D01*
X96749754Y-45330516D01*
X96612080Y-45568971D01*
X96612075Y-45568982D01*
X96506704Y-45823369D01*
X96479194Y-45926040D01*
X96437205Y-46082749D01*
X96435441Y-46089331D01*
X96435438Y-46089344D01*
X96399501Y-46362315D01*
X96399500Y-46362332D01*
X95507715Y-46362332D01*
X95508268Y-46351777D01*
X95509316Y-46331794D01*
X95516592Y-46192951D01*
X95517949Y-46180046D01*
X95521065Y-46160366D01*
X95565029Y-45882786D01*
X95567723Y-45870107D01*
X95645627Y-45579368D01*
X95649636Y-45567033D01*
X95681435Y-45484194D01*
X95757493Y-45286054D01*
X95762763Y-45274215D01*
X95899415Y-45006023D01*
X95905891Y-44994808D01*
X96069819Y-44742380D01*
X96077434Y-44731899D01*
X96266858Y-44497979D01*
X96275525Y-44488354D01*
X96488354Y-44275525D01*
X96497979Y-44266858D01*
X96731899Y-44077434D01*
X96742380Y-44069819D01*
X96994808Y-43905891D01*
X97006023Y-43899415D01*
X97274215Y-43762763D01*
X97286054Y-43757493D01*
X97567040Y-43649633D01*
X97579368Y-43645627D01*
X97870107Y-43567723D01*
X97882786Y-43565029D01*
X98180046Y-43517949D01*
X98192951Y-43516592D01*
X98496756Y-43500669D01*
X98503246Y-43500500D01*
X98565892Y-43500500D01*
X187434108Y-43500500D01*
X187496754Y-43500500D01*
X187503244Y-43500670D01*
G37*
%TD.AperFunction*%
%TD*%
M02*
