%TF.GenerationSoftware,KiCad,Pcbnew,9.0.6*%
%TF.CreationDate,2025-11-15T14:14:04+00:00*%
%TF.ProjectId,keyfrick,6b657966-7269-4636-9b2e-6b696361645f,rev?*%
%TF.SameCoordinates,Original*%
%TF.FileFunction,Legend,Bot*%
%TF.FilePolarity,Positive*%
%FSLAX46Y46*%
G04 Gerber Fmt 4.6, Leading zero omitted, Abs format (unit mm)*
G04 Created by KiCad (PCBNEW 9.0.6) date 2025-11-15 14:14:04*
%MOMM*%
%LPD*%
G01*
G04 APERTURE LIST*
G04 Aperture macros list*
%AMRoundRect*
0 Rectangle with rounded corners*
0 $1 Rounding radius*
0 $2 $3 $4 $5 $6 $7 $8 $9 X,Y pos of 4 corners*
0 Add a 4 corners polygon primitive as box body*
4,1,4,$2,$3,$4,$5,$6,$7,$8,$9,$2,$3,0*
0 Add four circle primitives for the rounded corners*
1,1,$1+$1,$2,$3*
1,1,$1+$1,$4,$5*
1,1,$1+$1,$6,$7*
1,1,$1+$1,$8,$9*
0 Add four rect primitives between the rounded corners*
20,1,$1+$1,$2,$3,$4,$5,0*
20,1,$1+$1,$4,$5,$6,$7,0*
20,1,$1+$1,$6,$7,$8,$9,0*
20,1,$1+$1,$8,$9,$2,$3,0*%
G04 Aperture macros list end*
%ADD10C,1.700000*%
%ADD11C,4.000000*%
%ADD12C,2.200000*%
%ADD13C,1.400000*%
%ADD14C,2.019000*%
%ADD15RoundRect,0.102000X-0.907500X-0.907500X0.907500X-0.907500X0.907500X0.907500X-0.907500X0.907500X0*%
%ADD16C,1.524000*%
G04 APERTURE END LIST*
%LPC*%
D10*
%TO.C,SW3*%
X136420000Y-60000000D03*
D11*
X141500000Y-60000000D03*
D10*
X146580000Y-60000000D03*
D12*
X144040000Y-54920000D03*
X137690000Y-57460000D03*
%TD*%
D13*
%TO.C,R3*%
X148460000Y-47000000D03*
X153540000Y-47000000D03*
%TD*%
D14*
%TO.C,D3*%
X142770000Y-47000000D03*
D15*
X140230000Y-47000000D03*
%TD*%
D10*
%TO.C,SW2*%
X117920000Y-60000000D03*
D11*
X123000000Y-60000000D03*
D10*
X128080000Y-60000000D03*
D12*
X125540000Y-54920000D03*
X119190000Y-57460000D03*
%TD*%
D13*
%TO.C,R2*%
X129960000Y-47000000D03*
X135040000Y-47000000D03*
%TD*%
D10*
%TO.C,SW1*%
X99420000Y-60000000D03*
D11*
X104500000Y-60000000D03*
D10*
X109580000Y-60000000D03*
D12*
X107040000Y-54920000D03*
X100690000Y-57460000D03*
%TD*%
D13*
%TO.C,R1*%
X111460000Y-47000000D03*
X116540000Y-47000000D03*
%TD*%
D14*
%TO.C,D1*%
X105770000Y-47000000D03*
D15*
X103230000Y-47000000D03*
%TD*%
D14*
%TO.C,D2*%
X124270000Y-47000000D03*
D15*
X121730000Y-47000000D03*
%TD*%
D16*
%TO.C,U1*%
X172380000Y-52380000D03*
X172380000Y-54920000D03*
X172380000Y-57460000D03*
X172380000Y-60000000D03*
X172380000Y-62540000D03*
X172380000Y-65080000D03*
X172380000Y-67620000D03*
X187620000Y-67620000D03*
X187620000Y-65080000D03*
X187620000Y-62540000D03*
X187620000Y-60000000D03*
X187620000Y-57460000D03*
X187620000Y-54920000D03*
X187620000Y-52380000D03*
%TD*%
D13*
%TO.C,R4*%
X166960000Y-47000000D03*
X172040000Y-47000000D03*
%TD*%
D14*
%TO.C,D4*%
X161270000Y-47000000D03*
D15*
X158730000Y-47000000D03*
%TD*%
D10*
%TO.C,SW4*%
X154920000Y-60040000D03*
D11*
X160000000Y-60040000D03*
D10*
X165080000Y-60040000D03*
D12*
X162540000Y-54960000D03*
X156190000Y-57500000D03*
%TD*%
%LPD*%
M02*
