%TF.GenerationSoftware,KiCad,Pcbnew,9.0.6*%
%TF.CreationDate,2025-11-15T14:14:04+00:00*%
%TF.ProjectId,keyfrick,6b657966-7269-4636-9b2e-6b696361645f,rev?*%
%TF.SameCoordinates,Original*%
%TF.FileFunction,Copper,L1,Top*%
%TF.FilePolarity,Positive*%
%FSLAX46Y46*%
G04 Gerber Fmt 4.6, Leading zero omitted, Abs format (unit mm)*
G04 Created by KiCad (PCBNEW 9.0.6) date 2025-11-15 14:14:04*
%MOMM*%
%LPD*%
G01*
G04 APERTURE LIST*
G04 Aperture macros list*
%AMRoundRect*
0 Rectangle with rounded corners*
0 $1 Rounding radius*
0 $2 $3 $4 $5 $6 $7 $8 $9 X,Y pos of 4 corners*
0 Add a 4 corners polygon primitive as box body*
4,1,4,$2,$3,$4,$5,$6,$7,$8,$9,$2,$3,0*
0 Add four circle primitives for the rounded corners*
1,1,$1+$1,$2,$3*
1,1,$1+$1,$4,$5*
1,1,$1+$1,$6,$7*
1,1,$1+$1,$8,$9*
0 Add four rect primitives between the rounded corners*
20,1,$1+$1,$2,$3,$4,$5,0*
20,1,$1+$1,$4,$5,$6,$7,0*
20,1,$1+$1,$6,$7,$8,$9,0*
20,1,$1+$1,$8,$9,$2,$3,0*%
G04 Aperture macros list end*
%TA.AperFunction,ComponentPad*%
%ADD10C,2.200000*%
%TD*%
%TA.AperFunction,ComponentPad*%
%ADD11C,1.400000*%
%TD*%
%TA.AperFunction,ComponentPad*%
%ADD12C,1.815000*%
%TD*%
%TA.AperFunction,ComponentPad*%
%ADD13R,1.815000X1.815000*%
%TD*%
%TA.AperFunction,SMDPad,CuDef*%
%ADD14RoundRect,0.152400X1.063600X0.609600X-1.063600X0.609600X-1.063600X-0.609600X1.063600X-0.609600X0*%
%TD*%
%TA.AperFunction,ComponentPad*%
%ADD15C,1.524000*%
%TD*%
%TA.AperFunction,SMDPad,CuDef*%
%ADD16RoundRect,0.152400X-1.063600X-0.609600X1.063600X-0.609600X1.063600X0.609600X-1.063600X0.609600X0*%
%TD*%
%TA.AperFunction,Conductor*%
%ADD17C,0.200000*%
%TD*%
G04 APERTURE END LIST*
D10*
%TO.P,SW3,1,1*%
%TO.N,sw3*%
X144040000Y-54920000D03*
%TO.P,SW3,2,2*%
%TO.N,GND*%
X137690000Y-57460000D03*
%TD*%
D11*
%TO.P,R3,1*%
%TO.N,Net-(D3-PadA)*%
X148460000Y-47000000D03*
%TO.P,R3,2*%
%TO.N,d3*%
X153540000Y-47000000D03*
%TD*%
D12*
%TO.P,D3,A*%
%TO.N,Net-(D3-PadA)*%
X142770000Y-47000000D03*
D13*
%TO.P,D3,C*%
%TO.N,GND*%
X140230000Y-47000000D03*
%TD*%
D10*
%TO.P,SW2,1,1*%
%TO.N,sw2*%
X125540000Y-54920000D03*
%TO.P,SW2,2,2*%
%TO.N,GND*%
X119190000Y-57460000D03*
%TD*%
D11*
%TO.P,R2,1*%
%TO.N,Net-(D2-PadA)*%
X129960000Y-47000000D03*
%TO.P,R2,2*%
%TO.N,d2*%
X135040000Y-47000000D03*
%TD*%
D10*
%TO.P,SW1,1,1*%
%TO.N,sw1*%
X107040000Y-54920000D03*
%TO.P,SW1,2,2*%
%TO.N,GND*%
X100690000Y-57460000D03*
%TD*%
D11*
%TO.P,R1,1*%
%TO.N,Net-(D1-PadA)*%
X111460000Y-47000000D03*
%TO.P,R1,2*%
%TO.N,d1*%
X116540000Y-47000000D03*
%TD*%
D12*
%TO.P,D1,A*%
%TO.N,Net-(D1-PadA)*%
X105770000Y-47000000D03*
D13*
%TO.P,D1,C*%
%TO.N,GND*%
X103230000Y-47000000D03*
%TD*%
D12*
%TO.P,D2,A*%
%TO.N,Net-(D2-PadA)*%
X124270000Y-47000000D03*
D13*
%TO.P,D2,C*%
%TO.N,GND*%
X121730000Y-47000000D03*
%TD*%
D14*
%TO.P,U1,1,GPIO26/ADC0/A0*%
%TO.N,unconnected-(U1-GPIO26{slash}ADC0{slash}A0-Pad1)*%
X171545000Y-52380000D03*
D15*
X172380000Y-52380000D03*
D14*
%TO.P,U1,2,GPIO27/ADC1/A1*%
%TO.N,unconnected-(U1-GPIO27{slash}ADC1{slash}A1-Pad2)*%
X171545000Y-54920000D03*
D15*
X172380000Y-54920000D03*
D14*
%TO.P,U1,3,GPIO28/ADC2/A2*%
%TO.N,unconnected-(U1-GPIO28{slash}ADC2{slash}A2-Pad3)*%
X171545000Y-57460000D03*
D15*
X172380000Y-57460000D03*
D14*
%TO.P,U1,4,GPIO29/ADC3/A3*%
%TO.N,sw1*%
X171545000Y-60000000D03*
D15*
X172380000Y-60000000D03*
D14*
%TO.P,U1,5,GPIO6/SDA*%
%TO.N,sw2*%
X171545000Y-62540000D03*
D15*
X172380000Y-62540000D03*
D14*
%TO.P,U1,6,GPIO7/SCL*%
%TO.N,sw3*%
X171545000Y-65080000D03*
D15*
X172380000Y-65080000D03*
D14*
%TO.P,U1,7,GPIO0/TX*%
%TO.N,sw4*%
X171545000Y-67620000D03*
D15*
X172380000Y-67620000D03*
%TO.P,U1,8,GPIO1/RX*%
%TO.N,d4*%
X187620000Y-67620000D03*
D16*
X188455000Y-67620000D03*
D15*
%TO.P,U1,9,GPIO2/SCK*%
%TO.N,d3*%
X187620000Y-65080000D03*
D16*
X188455000Y-65080000D03*
D15*
%TO.P,U1,10,GPIO4/MISO*%
%TO.N,d2*%
X187620000Y-62540000D03*
D16*
X188455000Y-62540000D03*
D15*
%TO.P,U1,11,GPIO3/MOSI*%
%TO.N,d1*%
X187620000Y-60000000D03*
D16*
X188455000Y-60000000D03*
D15*
%TO.P,U1,12,3V3*%
%TO.N,unconnected-(U1-3V3-Pad12)*%
X187620000Y-57460000D03*
D16*
X188455000Y-57460000D03*
D15*
%TO.P,U1,13,GND*%
%TO.N,GND*%
X187620000Y-54920000D03*
D16*
X188455000Y-54920000D03*
D15*
%TO.P,U1,14,VBUS*%
%TO.N,unconnected-(U1-VBUS-Pad14)*%
X187620000Y-52380000D03*
D16*
X188455000Y-52380000D03*
%TD*%
D11*
%TO.P,R4,1*%
%TO.N,Net-(D4-PadA)*%
X166960000Y-47000000D03*
%TO.P,R4,2*%
%TO.N,d4*%
X172040000Y-47000000D03*
%TD*%
D12*
%TO.P,D4,A*%
%TO.N,Net-(D4-PadA)*%
X161270000Y-47000000D03*
D13*
%TO.P,D4,C*%
%TO.N,GND*%
X158730000Y-47000000D03*
%TD*%
D10*
%TO.P,SW4,1,1*%
%TO.N,sw4*%
X162540000Y-54960000D03*
%TO.P,SW4,2,2*%
%TO.N,GND*%
X156190000Y-57500000D03*
%TD*%
D17*
%TO.N,d1*%
X172594000Y-44844000D02*
X118696000Y-44844000D01*
X187620000Y-60000000D02*
X187620000Y-59870000D01*
X118696000Y-44844000D02*
X116540000Y-47000000D01*
X187620000Y-59870000D02*
X172594000Y-44844000D01*
%TO.N,d2*%
X176250000Y-48963862D02*
X172458138Y-45172000D01*
X136868000Y-45172000D02*
X135040000Y-47000000D01*
X172458138Y-45172000D02*
X136868000Y-45172000D01*
X188455000Y-62540000D02*
X187790000Y-62540000D01*
X187790000Y-62540000D02*
X176250000Y-51000000D01*
X176250000Y-51000000D02*
X176250000Y-48963862D01*
%TO.N,d3*%
X175750000Y-48927724D02*
X175750000Y-53000000D01*
X187830000Y-65080000D02*
X188455000Y-65080000D01*
X175750000Y-53000000D02*
X187830000Y-65080000D01*
X155040000Y-45500000D02*
X172322276Y-45500000D01*
X172322276Y-45500000D02*
X175750000Y-48927724D01*
X153540000Y-47000000D02*
X155040000Y-45500000D01*
%TO.N,d4*%
X175250000Y-55125000D02*
X175250000Y-48891586D01*
X187620000Y-67495000D02*
X175250000Y-55125000D01*
X172040000Y-47000000D02*
X172040000Y-46460000D01*
X175250000Y-48891586D02*
X173358414Y-47000000D01*
X187620000Y-67620000D02*
X187620000Y-67495000D01*
X173358414Y-47000000D02*
X172040000Y-47000000D01*
%TO.N,sw1*%
X174099000Y-68332034D02*
X173092034Y-69339000D01*
X174099000Y-61719000D02*
X174099000Y-68332034D01*
X107040000Y-62290000D02*
X107040000Y-54920000D01*
X173092034Y-69339000D02*
X114089000Y-69339000D01*
X172380000Y-60000000D02*
X174099000Y-61719000D01*
X114089000Y-69339000D02*
X107040000Y-62290000D01*
%TO.N,sw2*%
X132511000Y-69011000D02*
X125540000Y-62040000D01*
X125540000Y-62040000D02*
X125540000Y-54920000D01*
X173771000Y-68196172D02*
X172956172Y-69011000D01*
X172380000Y-62540000D02*
X173771000Y-63931000D01*
X172956172Y-69011000D02*
X132511000Y-69011000D01*
X173771000Y-63931000D02*
X173771000Y-68196172D01*
%TO.N,sw3*%
X173443000Y-66143000D02*
X172380000Y-65080000D01*
X144040000Y-62040000D02*
X150683000Y-68683000D01*
X172820310Y-68683000D02*
X173443000Y-68060310D01*
X173443000Y-68060310D02*
X173443000Y-66143000D01*
X144040000Y-54920000D02*
X144040000Y-62040000D01*
X150683000Y-68683000D02*
X172820310Y-68683000D01*
%TO.N,sw4*%
X162540000Y-60040000D02*
X170120000Y-67620000D01*
X170120000Y-67620000D02*
X171545000Y-67620000D01*
X162540000Y-54960000D02*
X162540000Y-60040000D01*
%TD*%
%TA.AperFunction,NonConductor*%
G36*
X187503244Y-43500670D02*
G01*
X187807046Y-43516592D01*
X187819953Y-43517949D01*
X187951089Y-43538718D01*
X188117209Y-43565028D01*
X188129896Y-43567724D01*
X188420625Y-43645625D01*
X188432965Y-43649635D01*
X188713938Y-43757490D01*
X188725790Y-43762767D01*
X188993968Y-43899411D01*
X189005199Y-43905896D01*
X189257608Y-44069812D01*
X189268109Y-44077441D01*
X189502010Y-44266850D01*
X189511655Y-44275535D01*
X189724464Y-44488344D01*
X189733149Y-44497989D01*
X189922558Y-44731890D01*
X189930187Y-44742391D01*
X190094101Y-44994796D01*
X190100591Y-45006036D01*
X190237231Y-45274206D01*
X190242510Y-45286064D01*
X190350363Y-45567033D01*
X190354374Y-45579376D01*
X190432273Y-45870097D01*
X190434971Y-45882794D01*
X190482050Y-46180046D01*
X190483407Y-46192953D01*
X190499330Y-46496756D01*
X190499500Y-46503246D01*
X190499500Y-73496753D01*
X190499330Y-73503243D01*
X190483407Y-73807046D01*
X190482050Y-73819953D01*
X190434971Y-74117205D01*
X190432273Y-74129902D01*
X190354374Y-74420623D01*
X190350363Y-74432966D01*
X190242510Y-74713935D01*
X190237231Y-74725793D01*
X190100591Y-74993963D01*
X190094101Y-75005203D01*
X189930187Y-75257608D01*
X189922558Y-75268109D01*
X189733149Y-75502010D01*
X189724464Y-75511655D01*
X189511655Y-75724464D01*
X189502010Y-75733149D01*
X189268109Y-75922558D01*
X189257608Y-75930187D01*
X189005203Y-76094101D01*
X188993963Y-76100591D01*
X188725793Y-76237231D01*
X188713935Y-76242510D01*
X188432966Y-76350363D01*
X188420623Y-76354374D01*
X188129902Y-76432273D01*
X188117205Y-76434971D01*
X187819953Y-76482050D01*
X187807046Y-76483407D01*
X187503244Y-76499330D01*
X187496754Y-76499500D01*
X98503246Y-76499500D01*
X98496756Y-76499330D01*
X98192953Y-76483407D01*
X98180046Y-76482050D01*
X97882794Y-76434971D01*
X97870097Y-76432273D01*
X97579376Y-76354374D01*
X97567033Y-76350363D01*
X97286064Y-76242510D01*
X97274206Y-76237231D01*
X97006036Y-76100591D01*
X96994796Y-76094101D01*
X96742391Y-75930187D01*
X96731890Y-75922558D01*
X96497989Y-75733149D01*
X96488344Y-75724464D01*
X96275535Y-75511655D01*
X96266850Y-75502010D01*
X96077441Y-75268109D01*
X96069812Y-75257608D01*
X96065033Y-75250249D01*
X95905896Y-75005199D01*
X95899408Y-74993963D01*
X95845380Y-74887928D01*
X95762767Y-74725790D01*
X95757489Y-74713935D01*
X95649636Y-74432966D01*
X95645625Y-74420623D01*
X95622968Y-74336066D01*
X95567724Y-74129896D01*
X95565028Y-74117205D01*
X95517949Y-73819953D01*
X95516592Y-73807046D01*
X95500670Y-73503243D01*
X95500500Y-73496753D01*
X95500500Y-73362332D01*
X96399500Y-73362332D01*
X96399500Y-73637667D01*
X96399501Y-73637684D01*
X96435438Y-73910655D01*
X96435439Y-73910660D01*
X96435440Y-73910666D01*
X96435441Y-73910668D01*
X96506704Y-74176630D01*
X96612075Y-74431017D01*
X96612080Y-74431028D01*
X96691809Y-74569121D01*
X96749751Y-74669479D01*
X96749753Y-74669482D01*
X96749754Y-74669483D01*
X96917370Y-74887926D01*
X96917376Y-74887933D01*
X97112066Y-75082623D01*
X97112072Y-75082628D01*
X97330521Y-75250249D01*
X97483778Y-75338732D01*
X97568971Y-75387919D01*
X97568976Y-75387921D01*
X97568979Y-75387923D01*
X97823368Y-75493295D01*
X98089334Y-75564560D01*
X98362326Y-75600500D01*
X98362333Y-75600500D01*
X98637667Y-75600500D01*
X98637674Y-75600500D01*
X98910666Y-75564560D01*
X99176632Y-75493295D01*
X99431021Y-75387923D01*
X99669479Y-75250249D01*
X99887928Y-75082628D01*
X100082628Y-74887928D01*
X100250249Y-74669479D01*
X100387923Y-74431021D01*
X100493295Y-74176632D01*
X100564560Y-73910666D01*
X100600500Y-73637674D01*
X100600500Y-73362332D01*
X185399500Y-73362332D01*
X185399500Y-73637667D01*
X185399501Y-73637684D01*
X185435438Y-73910655D01*
X185435439Y-73910660D01*
X185435440Y-73910666D01*
X185435441Y-73910668D01*
X185506704Y-74176630D01*
X185612075Y-74431017D01*
X185612080Y-74431028D01*
X185691809Y-74569121D01*
X185749751Y-74669479D01*
X185749753Y-74669482D01*
X185749754Y-74669483D01*
X185917370Y-74887926D01*
X185917376Y-74887933D01*
X186112066Y-75082623D01*
X186112072Y-75082628D01*
X186330521Y-75250249D01*
X186483778Y-75338732D01*
X186568971Y-75387919D01*
X186568976Y-75387921D01*
X186568979Y-75387923D01*
X186823368Y-75493295D01*
X187089334Y-75564560D01*
X187362326Y-75600500D01*
X187362333Y-75600500D01*
X187637667Y-75600500D01*
X187637674Y-75600500D01*
X187910666Y-75564560D01*
X188176632Y-75493295D01*
X188431021Y-75387923D01*
X188669479Y-75250249D01*
X188887928Y-75082628D01*
X189082628Y-74887928D01*
X189250249Y-74669479D01*
X189387923Y-74431021D01*
X189493295Y-74176632D01*
X189564560Y-73910666D01*
X189600500Y-73637674D01*
X189600500Y-73362326D01*
X189564560Y-73089334D01*
X189493295Y-72823368D01*
X189387923Y-72568979D01*
X189387921Y-72568976D01*
X189387919Y-72568971D01*
X189338732Y-72483778D01*
X189250249Y-72330521D01*
X189082628Y-72112072D01*
X189082623Y-72112066D01*
X188887933Y-71917376D01*
X188887926Y-71917370D01*
X188669483Y-71749754D01*
X188669482Y-71749753D01*
X188669479Y-71749751D01*
X188574407Y-71694861D01*
X188431028Y-71612080D01*
X188431017Y-71612075D01*
X188176630Y-71506704D01*
X188043649Y-71471072D01*
X187910666Y-71435440D01*
X187910660Y-71435439D01*
X187910655Y-71435438D01*
X187637684Y-71399501D01*
X187637679Y-71399500D01*
X187637674Y-71399500D01*
X187362326Y-71399500D01*
X187362320Y-71399500D01*
X187362315Y-71399501D01*
X187089344Y-71435438D01*
X187089337Y-71435439D01*
X187089334Y-71435440D01*
X187033125Y-71450500D01*
X186823369Y-71506704D01*
X186568982Y-71612075D01*
X186568971Y-71612080D01*
X186330516Y-71749754D01*
X186112073Y-71917370D01*
X186112066Y-71917376D01*
X185917376Y-72112066D01*
X185917370Y-72112073D01*
X185749754Y-72330516D01*
X185612080Y-72568971D01*
X185612075Y-72568982D01*
X185506704Y-72823369D01*
X185435441Y-73089331D01*
X185435438Y-73089344D01*
X185399501Y-73362315D01*
X185399500Y-73362332D01*
X100600500Y-73362332D01*
X100600500Y-73362326D01*
X100564560Y-73089334D01*
X100493295Y-72823368D01*
X100387923Y-72568979D01*
X100387921Y-72568976D01*
X100387919Y-72568971D01*
X100338732Y-72483778D01*
X100250249Y-72330521D01*
X100082628Y-72112072D01*
X100082623Y-72112066D01*
X99887933Y-71917376D01*
X99887926Y-71917370D01*
X99669483Y-71749754D01*
X99669482Y-71749753D01*
X99669479Y-71749751D01*
X99574407Y-71694861D01*
X99431028Y-71612080D01*
X99431017Y-71612075D01*
X99176630Y-71506704D01*
X99043649Y-71471072D01*
X98910666Y-71435440D01*
X98910660Y-71435439D01*
X98910655Y-71435438D01*
X98637684Y-71399501D01*
X98637679Y-71399500D01*
X98637674Y-71399500D01*
X98362326Y-71399500D01*
X98362320Y-71399500D01*
X98362315Y-71399501D01*
X98089344Y-71435438D01*
X98089337Y-71435439D01*
X98089334Y-71435440D01*
X98033125Y-71450500D01*
X97823369Y-71506704D01*
X97568982Y-71612075D01*
X97568971Y-71612080D01*
X97330516Y-71749754D01*
X97112073Y-71917370D01*
X97112066Y-71917376D01*
X96917376Y-72112066D01*
X96917370Y-72112073D01*
X96749754Y-72330516D01*
X96612080Y-72568971D01*
X96612075Y-72568982D01*
X96506704Y-72823369D01*
X96435441Y-73089331D01*
X96435438Y-73089344D01*
X96399501Y-73362315D01*
X96399500Y-73362332D01*
X95500500Y-73362332D01*
X95500500Y-59913389D01*
X98319500Y-59913389D01*
X98319500Y-60086611D01*
X98346598Y-60257701D01*
X98400127Y-60422445D01*
X98478768Y-60576788D01*
X98580586Y-60716928D01*
X98703072Y-60839414D01*
X98843212Y-60941232D01*
X98997555Y-61019873D01*
X99162299Y-61073402D01*
X99333389Y-61100500D01*
X99333390Y-61100500D01*
X99506610Y-61100500D01*
X99506611Y-61100500D01*
X99677701Y-61073402D01*
X99842445Y-61019873D01*
X99996788Y-60941232D01*
X100136928Y-60839414D01*
X100259414Y-60716928D01*
X100361232Y-60576788D01*
X100439873Y-60422445D01*
X100493402Y-60257701D01*
X100520500Y-60086611D01*
X100520500Y-59913389D01*
X100510854Y-59852486D01*
X102249500Y-59852486D01*
X102249500Y-60147513D01*
X102269635Y-60300448D01*
X102288007Y-60439993D01*
X102362212Y-60716930D01*
X102364361Y-60724951D01*
X102364364Y-60724961D01*
X102477254Y-60997500D01*
X102477258Y-60997510D01*
X102624761Y-61252993D01*
X102804352Y-61487040D01*
X102804358Y-61487047D01*
X103012952Y-61695641D01*
X103012959Y-61695647D01*
X103247006Y-61875238D01*
X103502489Y-62022741D01*
X103502490Y-62022741D01*
X103502493Y-62022743D01*
X103634891Y-62077584D01*
X103744539Y-62123002D01*
X103775048Y-62135639D01*
X104060007Y-62211993D01*
X104352494Y-62250500D01*
X104352501Y-62250500D01*
X104647499Y-62250500D01*
X104647506Y-62250500D01*
X104939993Y-62211993D01*
X105224952Y-62135639D01*
X105497507Y-62022743D01*
X105752994Y-61875238D01*
X105987042Y-61695646D01*
X106195646Y-61487042D01*
X106217124Y-61459052D01*
X106273552Y-61417849D01*
X106343298Y-61413694D01*
X106404218Y-61447906D01*
X106436971Y-61509624D01*
X106439500Y-61534538D01*
X106439500Y-62203330D01*
X106439499Y-62203348D01*
X106439499Y-62369054D01*
X106439498Y-62369054D01*
X106480084Y-62520520D01*
X106480423Y-62521785D01*
X106509240Y-62571697D01*
X106509358Y-62571900D01*
X106509359Y-62571904D01*
X106509360Y-62571904D01*
X106559479Y-62658714D01*
X106559481Y-62658717D01*
X106678349Y-62777585D01*
X106678355Y-62777590D01*
X113604139Y-69703374D01*
X113604149Y-69703385D01*
X113608479Y-69707715D01*
X113608480Y-69707716D01*
X113720284Y-69819520D01*
X113720286Y-69819521D01*
X113720290Y-69819524D01*
X113857209Y-69898573D01*
X113857216Y-69898577D01*
X113969019Y-69928534D01*
X114009942Y-69939500D01*
X114009943Y-69939500D01*
X173005365Y-69939500D01*
X173005381Y-69939501D01*
X173012977Y-69939501D01*
X173171088Y-69939501D01*
X173171091Y-69939501D01*
X173323819Y-69898577D01*
X173373938Y-69869639D01*
X173460750Y-69819520D01*
X173572554Y-69707716D01*
X173572554Y-69707714D01*
X173582762Y-69697507D01*
X173582764Y-69697504D01*
X174457506Y-68822762D01*
X174457511Y-68822758D01*
X174467714Y-68812554D01*
X174467716Y-68812554D01*
X174579520Y-68700750D01*
X174635411Y-68603943D01*
X174658577Y-68563819D01*
X174699501Y-68411091D01*
X174699501Y-68252977D01*
X174699501Y-68245382D01*
X174699500Y-68245364D01*
X174699500Y-61639945D01*
X174699500Y-61639943D01*
X174669251Y-61527053D01*
X174658577Y-61487215D01*
X174614232Y-61410408D01*
X174579520Y-61350284D01*
X174467716Y-61238480D01*
X174467715Y-61238479D01*
X174463385Y-61234149D01*
X174463374Y-61234139D01*
X173643762Y-60414527D01*
X173610277Y-60353204D01*
X173610843Y-60300478D01*
X173610651Y-60300448D01*
X173610857Y-60299143D01*
X173610871Y-60297891D01*
X173611409Y-60295646D01*
X173611413Y-60295636D01*
X173642500Y-60099361D01*
X173642500Y-59900639D01*
X173611413Y-59704364D01*
X173550005Y-59515368D01*
X173550005Y-59515367D01*
X173459786Y-59338305D01*
X173342981Y-59177536D01*
X173202464Y-59037019D01*
X173180396Y-59020986D01*
X173122938Y-58979240D01*
X173116175Y-58973960D01*
X173112000Y-58970461D01*
X173011947Y-58870408D01*
X172946259Y-58831560D01*
X172938477Y-58825038D01*
X172924510Y-58804073D01*
X172907321Y-58785663D01*
X172905471Y-58775492D01*
X172899740Y-58766890D01*
X172899324Y-58741702D01*
X172894817Y-58716921D01*
X172898758Y-58707366D01*
X172898588Y-58697030D01*
X172911856Y-58675616D01*
X172921462Y-58652332D01*
X172931874Y-58643309D01*
X172935389Y-58637638D01*
X172942127Y-58634425D01*
X172955004Y-58623268D01*
X173011947Y-58589592D01*
X173108148Y-58493389D01*
X173122939Y-58480758D01*
X173202464Y-58422981D01*
X173342981Y-58282464D01*
X173459787Y-58121694D01*
X173550005Y-57944632D01*
X173611413Y-57755636D01*
X173642500Y-57559361D01*
X173642500Y-57360639D01*
X173611413Y-57164364D01*
X173550005Y-56975368D01*
X173550005Y-56975367D01*
X173459786Y-56798305D01*
X173342981Y-56637536D01*
X173202464Y-56497019D01*
X173122937Y-56439239D01*
X173116175Y-56433960D01*
X173112000Y-56430461D01*
X173011947Y-56330408D01*
X172946259Y-56291560D01*
X172938477Y-56285038D01*
X172924510Y-56264073D01*
X172907321Y-56245663D01*
X172905471Y-56235492D01*
X172899740Y-56226890D01*
X172899324Y-56201702D01*
X172894817Y-56176921D01*
X172898758Y-56167366D01*
X172898588Y-56157030D01*
X172911856Y-56135616D01*
X172921462Y-56112332D01*
X172931874Y-56103309D01*
X172935389Y-56097638D01*
X172942127Y-56094425D01*
X172955004Y-56083268D01*
X173011947Y-56049592D01*
X173108148Y-55953389D01*
X173122939Y-55940758D01*
X173125483Y-55938910D01*
X173202464Y-55882981D01*
X173342981Y-55742464D01*
X173459787Y-55581694D01*
X173550005Y-55404632D01*
X173611413Y-55215636D01*
X173642500Y-55019361D01*
X173642500Y-54820639D01*
X173611413Y-54624364D01*
X173550005Y-54435368D01*
X173550005Y-54435367D01*
X173459786Y-54258305D01*
X173453096Y-54249097D01*
X173342981Y-54097536D01*
X173202464Y-53957019D01*
X173192438Y-53949735D01*
X173122938Y-53899240D01*
X173116175Y-53893960D01*
X173112000Y-53890461D01*
X173011947Y-53790408D01*
X172946259Y-53751560D01*
X172938477Y-53745038D01*
X172924510Y-53724073D01*
X172907321Y-53705663D01*
X172905471Y-53695492D01*
X172899740Y-53686890D01*
X172899324Y-53661702D01*
X172894817Y-53636921D01*
X172898758Y-53627366D01*
X172898588Y-53617030D01*
X172911856Y-53595616D01*
X172921462Y-53572332D01*
X172931874Y-53563309D01*
X172935389Y-53557638D01*
X172942127Y-53554425D01*
X172955004Y-53543268D01*
X173011947Y-53509592D01*
X173108148Y-53413389D01*
X173122939Y-53400758D01*
X173125483Y-53398910D01*
X173202464Y-53342981D01*
X173342981Y-53202464D01*
X173459787Y-53041694D01*
X173550005Y-52864632D01*
X173611413Y-52675636D01*
X173642500Y-52479361D01*
X173642500Y-52280639D01*
X173611413Y-52084364D01*
X173550005Y-51895368D01*
X173550005Y-51895367D01*
X173459786Y-51718305D01*
X173342981Y-51557536D01*
X173202464Y-51417019D01*
X173122937Y-51359239D01*
X173108147Y-51346608D01*
X173011947Y-51250408D01*
X173011946Y-51250407D01*
X173011943Y-51250405D01*
X172869957Y-51166435D01*
X172869954Y-51166434D01*
X172711552Y-51120413D01*
X172711546Y-51120412D01*
X172674541Y-51117500D01*
X172674534Y-51117500D01*
X170415466Y-51117500D01*
X170415458Y-51117500D01*
X170378453Y-51120412D01*
X170378447Y-51120413D01*
X170220045Y-51166434D01*
X170220042Y-51166435D01*
X170078056Y-51250405D01*
X170078047Y-51250412D01*
X169961412Y-51367047D01*
X169961405Y-51367056D01*
X169877435Y-51509042D01*
X169877434Y-51509045D01*
X169831413Y-51667447D01*
X169831412Y-51667453D01*
X169828500Y-51704458D01*
X169828500Y-53055541D01*
X169831412Y-53092546D01*
X169831413Y-53092552D01*
X169877434Y-53250954D01*
X169877435Y-53250957D01*
X169961405Y-53392943D01*
X169961412Y-53392952D01*
X170078047Y-53509587D01*
X170078050Y-53509589D01*
X170078053Y-53509592D01*
X170134996Y-53543268D01*
X170182679Y-53594338D01*
X170195182Y-53663079D01*
X170168536Y-53727669D01*
X170134996Y-53756732D01*
X170078053Y-53790408D01*
X170078047Y-53790412D01*
X169961412Y-53907047D01*
X169961405Y-53907056D01*
X169877435Y-54049042D01*
X169877434Y-54049045D01*
X169831413Y-54207447D01*
X169831412Y-54207453D01*
X169828500Y-54244458D01*
X169828500Y-55595541D01*
X169831412Y-55632546D01*
X169831413Y-55632552D01*
X169877434Y-55790954D01*
X169877435Y-55790957D01*
X169961405Y-55932943D01*
X169961412Y-55932952D01*
X170078047Y-56049587D01*
X170078050Y-56049589D01*
X170078053Y-56049592D01*
X170134996Y-56083268D01*
X170182679Y-56134338D01*
X170195182Y-56203079D01*
X170168536Y-56267669D01*
X170134996Y-56296732D01*
X170078053Y-56330408D01*
X170078047Y-56330412D01*
X169961412Y-56447047D01*
X169961405Y-56447056D01*
X169877435Y-56589042D01*
X169877434Y-56589045D01*
X169831413Y-56747447D01*
X169831412Y-56747453D01*
X169828500Y-56784458D01*
X169828500Y-58135541D01*
X169831412Y-58172546D01*
X169831413Y-58172552D01*
X169877434Y-58330954D01*
X169877435Y-58330957D01*
X169961405Y-58472943D01*
X169961412Y-58472952D01*
X170078047Y-58589587D01*
X170078050Y-58589589D01*
X170078053Y-58589592D01*
X170134996Y-58623268D01*
X170182679Y-58674338D01*
X170195182Y-58743079D01*
X170168536Y-58807669D01*
X170134996Y-58836732D01*
X170078053Y-58870408D01*
X170078047Y-58870412D01*
X169961412Y-58987047D01*
X169961405Y-58987056D01*
X169877435Y-59129042D01*
X169877434Y-59129045D01*
X169831413Y-59287447D01*
X169831412Y-59287453D01*
X169828500Y-59324458D01*
X169828500Y-60675541D01*
X169831412Y-60712546D01*
X169831413Y-60712552D01*
X169877434Y-60870954D01*
X169877435Y-60870957D01*
X169961405Y-61012943D01*
X169961412Y-61012952D01*
X170078047Y-61129587D01*
X170078050Y-61129589D01*
X170078053Y-61129592D01*
X170134996Y-61163268D01*
X170182679Y-61214338D01*
X170195182Y-61283079D01*
X170168536Y-61347669D01*
X170134996Y-61376731D01*
X170078056Y-61410406D01*
X170078053Y-61410408D01*
X170078047Y-61410412D01*
X169961412Y-61527047D01*
X169961405Y-61527056D01*
X169877435Y-61669042D01*
X169877434Y-61669045D01*
X169831413Y-61827447D01*
X169831412Y-61827453D01*
X169828500Y-61864458D01*
X169828500Y-63215541D01*
X169831412Y-63252546D01*
X169831413Y-63252552D01*
X169877434Y-63410954D01*
X169877435Y-63410957D01*
X169961405Y-63552943D01*
X169961412Y-63552952D01*
X170078047Y-63669587D01*
X170078050Y-63669589D01*
X170078053Y-63669592D01*
X170134996Y-63703268D01*
X170182679Y-63754338D01*
X170195182Y-63823079D01*
X170168536Y-63887669D01*
X170134996Y-63916732D01*
X170078053Y-63950408D01*
X170078047Y-63950412D01*
X169961412Y-64067047D01*
X169961405Y-64067056D01*
X169877435Y-64209042D01*
X169877434Y-64209045D01*
X169831413Y-64367447D01*
X169831412Y-64367453D01*
X169828500Y-64404458D01*
X169828500Y-65755541D01*
X169831412Y-65792546D01*
X169831413Y-65792552D01*
X169877434Y-65950954D01*
X169877435Y-65950957D01*
X169961405Y-66092943D01*
X169961412Y-66092952D01*
X170078047Y-66209587D01*
X170078050Y-66209589D01*
X170078053Y-66209592D01*
X170134996Y-66243268D01*
X170157535Y-66267408D01*
X170180828Y-66290796D01*
X170181264Y-66292823D01*
X170182679Y-66294338D01*
X170188585Y-66326810D01*
X170195540Y-66359099D01*
X170194811Y-66361040D01*
X170195182Y-66363079D01*
X170182594Y-66393591D01*
X170170989Y-66424513D01*
X170169164Y-66426146D01*
X170168536Y-66427669D01*
X170145981Y-66449419D01*
X170140680Y-66453369D01*
X170078053Y-66490408D01*
X170040170Y-66528290D01*
X170032955Y-66533669D01*
X170008289Y-66542811D01*
X169985206Y-66555416D01*
X169976049Y-66554761D01*
X169967441Y-66557952D01*
X169941751Y-66552308D01*
X169915514Y-66550432D01*
X169906322Y-66544525D01*
X169899199Y-66542960D01*
X169890860Y-66534587D01*
X169871167Y-66521931D01*
X164654748Y-61305512D01*
X164621263Y-61244189D01*
X164626247Y-61174497D01*
X164668119Y-61118564D01*
X164733583Y-61094147D01*
X164780742Y-61099899D01*
X164822299Y-61113402D01*
X164993389Y-61140500D01*
X164993390Y-61140500D01*
X165166610Y-61140500D01*
X165166611Y-61140500D01*
X165337701Y-61113402D01*
X165502445Y-61059873D01*
X165656788Y-60981232D01*
X165796928Y-60879414D01*
X165919414Y-60756928D01*
X166021232Y-60616788D01*
X166099873Y-60462445D01*
X166153402Y-60297701D01*
X166180500Y-60126611D01*
X166180500Y-59953389D01*
X166153402Y-59782299D01*
X166099873Y-59617555D01*
X166021232Y-59463212D01*
X165919414Y-59323072D01*
X165796928Y-59200586D01*
X165656788Y-59098768D01*
X165502445Y-59020127D01*
X165337701Y-58966598D01*
X165337699Y-58966597D01*
X165337698Y-58966597D01*
X165206271Y-58945781D01*
X165166611Y-58939500D01*
X164993389Y-58939500D01*
X164953728Y-58945781D01*
X164822302Y-58966597D01*
X164657552Y-59020128D01*
X164503211Y-59098768D01*
X164461539Y-59129045D01*
X164363072Y-59200586D01*
X164363070Y-59200588D01*
X164363069Y-59200588D01*
X164240588Y-59323069D01*
X164240588Y-59323070D01*
X164240586Y-59323072D01*
X164229519Y-59338305D01*
X164138768Y-59463211D01*
X164060128Y-59617552D01*
X164006597Y-59782302D01*
X163979500Y-59953389D01*
X163979500Y-60126611D01*
X163982811Y-60147513D01*
X164006597Y-60297698D01*
X164020099Y-60339252D01*
X164022094Y-60409093D01*
X163986014Y-60468926D01*
X163923313Y-60499754D01*
X163853898Y-60491789D01*
X163814487Y-60465251D01*
X163176819Y-59827583D01*
X163143334Y-59766260D01*
X163140500Y-59739902D01*
X163140500Y-56526300D01*
X163160185Y-56459261D01*
X163208204Y-56415815D01*
X163378845Y-56328870D01*
X163582656Y-56180793D01*
X163760793Y-56002656D01*
X163908870Y-55798845D01*
X164023241Y-55574379D01*
X164101090Y-55334785D01*
X164140500Y-55085962D01*
X164140500Y-54834038D01*
X164101090Y-54585215D01*
X164023241Y-54345621D01*
X164023239Y-54345618D01*
X164023239Y-54345616D01*
X163974060Y-54249097D01*
X163908870Y-54121155D01*
X163879808Y-54081155D01*
X163760798Y-53917350D01*
X163760794Y-53917345D01*
X163582654Y-53739205D01*
X163582649Y-53739201D01*
X163378848Y-53591132D01*
X163378847Y-53591131D01*
X163378845Y-53591130D01*
X163306807Y-53554425D01*
X163154383Y-53476760D01*
X162914785Y-53398910D01*
X162877111Y-53392943D01*
X162665962Y-53359500D01*
X162414038Y-53359500D01*
X162289626Y-53379205D01*
X162165214Y-53398910D01*
X161925616Y-53476760D01*
X161701151Y-53591132D01*
X161497350Y-53739201D01*
X161497345Y-53739205D01*
X161319205Y-53917345D01*
X161319201Y-53917350D01*
X161171132Y-54121151D01*
X161056760Y-54345616D01*
X160978910Y-54585214D01*
X160939500Y-54834038D01*
X160939500Y-55085961D01*
X160978910Y-55334785D01*
X161056760Y-55574383D01*
X161135413Y-55728747D01*
X161167109Y-55790954D01*
X161171132Y-55798848D01*
X161319201Y-56002649D01*
X161319205Y-56002654D01*
X161497345Y-56180794D01*
X161497350Y-56180798D01*
X161656921Y-56296732D01*
X161701155Y-56328870D01*
X161871795Y-56415815D01*
X161922591Y-56463789D01*
X161939500Y-56526300D01*
X161939500Y-58505461D01*
X161919815Y-58572500D01*
X161867011Y-58618255D01*
X161797853Y-58628199D01*
X161734297Y-58599174D01*
X161717125Y-58580949D01*
X161695644Y-58552955D01*
X161487047Y-58344358D01*
X161487040Y-58344352D01*
X161252993Y-58164761D01*
X160997510Y-58017258D01*
X160997500Y-58017254D01*
X160724961Y-57904364D01*
X160724954Y-57904362D01*
X160724952Y-57904361D01*
X160439993Y-57828007D01*
X160391113Y-57821571D01*
X160147513Y-57789500D01*
X160147506Y-57789500D01*
X159852494Y-57789500D01*
X159852486Y-57789500D01*
X159574085Y-57826153D01*
X159560007Y-57828007D01*
X159424331Y-57864361D01*
X159275048Y-57904361D01*
X159275038Y-57904364D01*
X159002499Y-58017254D01*
X159002489Y-58017258D01*
X158747006Y-58164761D01*
X158512959Y-58344352D01*
X158512952Y-58344358D01*
X158304358Y-58552952D01*
X158304352Y-58552959D01*
X158124761Y-58787006D01*
X157977258Y-59042489D01*
X157977254Y-59042499D01*
X157864364Y-59315038D01*
X157864361Y-59315048D01*
X157788008Y-59600004D01*
X157788006Y-59600015D01*
X157749500Y-59892486D01*
X157749500Y-60187513D01*
X157772335Y-60360954D01*
X157788007Y-60479993D01*
X157862212Y-60756930D01*
X157864361Y-60764951D01*
X157864364Y-60764961D01*
X157977254Y-61037500D01*
X157977258Y-61037510D01*
X158124761Y-61292993D01*
X158304352Y-61527040D01*
X158304358Y-61527047D01*
X158512952Y-61735641D01*
X158512959Y-61735647D01*
X158747006Y-61915238D01*
X159002489Y-62062741D01*
X159002490Y-62062741D01*
X159002493Y-62062743D01*
X159275048Y-62175639D01*
X159560007Y-62251993D01*
X159852494Y-62290500D01*
X159852501Y-62290500D01*
X160147499Y-62290500D01*
X160147506Y-62290500D01*
X160439993Y-62251993D01*
X160724952Y-62175639D01*
X160997507Y-62062743D01*
X161252994Y-61915238D01*
X161487042Y-61735646D01*
X161695646Y-61527042D01*
X161875238Y-61292994D01*
X162022743Y-61037507D01*
X162135639Y-60764952D01*
X162139238Y-60751516D01*
X162175601Y-60691858D01*
X162238447Y-60661327D01*
X162307822Y-60669620D01*
X162346694Y-60695929D01*
X169521583Y-67870819D01*
X169555068Y-67932142D01*
X169550084Y-68001834D01*
X169508212Y-68057767D01*
X169442748Y-68082184D01*
X169433902Y-68082500D01*
X150983098Y-68082500D01*
X150916059Y-68062815D01*
X150895417Y-68046181D01*
X144676819Y-61827583D01*
X144643334Y-61766260D01*
X144640500Y-61739902D01*
X144640500Y-59913389D01*
X145479500Y-59913389D01*
X145479500Y-60086611D01*
X145506598Y-60257701D01*
X145560127Y-60422445D01*
X145638768Y-60576788D01*
X145740586Y-60716928D01*
X145863072Y-60839414D01*
X146003212Y-60941232D01*
X146157555Y-61019873D01*
X146322299Y-61073402D01*
X146493389Y-61100500D01*
X146493390Y-61100500D01*
X146666610Y-61100500D01*
X146666611Y-61100500D01*
X146837701Y-61073402D01*
X147002445Y-61019873D01*
X147156788Y-60941232D01*
X147296928Y-60839414D01*
X147419414Y-60716928D01*
X147521232Y-60576788D01*
X147599873Y-60422445D01*
X147653402Y-60257701D01*
X147680500Y-60086611D01*
X147680500Y-59953389D01*
X153819500Y-59953389D01*
X153819500Y-60126611D01*
X153822811Y-60147513D01*
X153846597Y-60297697D01*
X153846597Y-60297699D01*
X153846598Y-60297701D01*
X153900127Y-60462445D01*
X153978768Y-60616788D01*
X154080586Y-60756928D01*
X154203072Y-60879414D01*
X154343212Y-60981232D01*
X154497555Y-61059873D01*
X154662299Y-61113402D01*
X154833389Y-61140500D01*
X154833390Y-61140500D01*
X155006610Y-61140500D01*
X155006611Y-61140500D01*
X155177701Y-61113402D01*
X155342445Y-61059873D01*
X155496788Y-60981232D01*
X155636928Y-60879414D01*
X155759414Y-60756928D01*
X155861232Y-60616788D01*
X155939873Y-60462445D01*
X155993402Y-60297701D01*
X156020500Y-60126611D01*
X156020500Y-59953389D01*
X155993402Y-59782299D01*
X155939873Y-59617555D01*
X155861232Y-59463212D01*
X155759414Y-59323072D01*
X155707482Y-59271140D01*
X155673997Y-59209817D01*
X155678981Y-59140125D01*
X155720853Y-59084192D01*
X155786317Y-59059775D01*
X155814561Y-59060986D01*
X155815212Y-59061089D01*
X155815215Y-59061090D01*
X156064038Y-59100500D01*
X156064039Y-59100500D01*
X156315961Y-59100500D01*
X156315962Y-59100500D01*
X156564785Y-59061090D01*
X156804379Y-58983241D01*
X157028845Y-58868870D01*
X157232656Y-58720793D01*
X157410793Y-58542656D01*
X157558870Y-58338845D01*
X157673241Y-58114379D01*
X157751090Y-57874785D01*
X157790500Y-57625962D01*
X157790500Y-57374038D01*
X157751090Y-57125215D01*
X157673241Y-56885621D01*
X157673239Y-56885618D01*
X157673239Y-56885616D01*
X157628751Y-56798305D01*
X157558870Y-56661155D01*
X157529808Y-56621155D01*
X157410798Y-56457350D01*
X157410794Y-56457345D01*
X157232654Y-56279205D01*
X157232649Y-56279201D01*
X157028848Y-56131132D01*
X157028847Y-56131131D01*
X157028845Y-56131130D01*
X156956807Y-56094425D01*
X156804383Y-56016760D01*
X156564785Y-55938910D01*
X156527111Y-55932943D01*
X156315962Y-55899500D01*
X156064038Y-55899500D01*
X155939626Y-55919205D01*
X155815214Y-55938910D01*
X155575616Y-56016760D01*
X155351151Y-56131132D01*
X155147350Y-56279201D01*
X155147345Y-56279205D01*
X154969205Y-56457345D01*
X154969201Y-56457350D01*
X154821132Y-56661151D01*
X154706760Y-56885616D01*
X154628910Y-57125214D01*
X154628910Y-57125215D01*
X154589500Y-57374038D01*
X154589500Y-57625962D01*
X154615166Y-57788007D01*
X154628910Y-57874785D01*
X154706760Y-58114383D01*
X154785413Y-58268747D01*
X154817109Y-58330954D01*
X154821132Y-58338848D01*
X154969201Y-58542649D01*
X154969205Y-58542654D01*
X154969207Y-58542656D01*
X155147344Y-58720793D01*
X155147345Y-58720794D01*
X155147344Y-58720794D01*
X155153661Y-58725383D01*
X155196327Y-58780714D01*
X155202305Y-58850327D01*
X155169699Y-58912122D01*
X155108860Y-58946479D01*
X155061378Y-58948174D01*
X155006611Y-58939500D01*
X154833389Y-58939500D01*
X154793728Y-58945781D01*
X154662302Y-58966597D01*
X154497552Y-59020128D01*
X154343211Y-59098768D01*
X154301539Y-59129045D01*
X154203072Y-59200586D01*
X154203070Y-59200588D01*
X154203069Y-59200588D01*
X154080588Y-59323069D01*
X154080588Y-59323070D01*
X154080586Y-59323072D01*
X154069519Y-59338305D01*
X153978768Y-59463211D01*
X153900128Y-59617552D01*
X153846597Y-59782302D01*
X153819500Y-59953389D01*
X147680500Y-59953389D01*
X147680500Y-59913389D01*
X147653402Y-59742299D01*
X147599873Y-59577555D01*
X147521232Y-59423212D01*
X147419414Y-59283072D01*
X147296928Y-59160586D01*
X147156788Y-59058768D01*
X147002445Y-58980127D01*
X146837701Y-58926598D01*
X146837699Y-58926597D01*
X146837698Y-58926597D01*
X146706271Y-58905781D01*
X146666611Y-58899500D01*
X146493389Y-58899500D01*
X146453728Y-58905781D01*
X146322302Y-58926597D01*
X146157552Y-58980128D01*
X146003211Y-59058768D01*
X145948157Y-59098768D01*
X145863072Y-59160586D01*
X145863070Y-59160588D01*
X145863069Y-59160588D01*
X145740588Y-59283069D01*
X145740588Y-59283070D01*
X145740586Y-59283072D01*
X145710506Y-59324473D01*
X145638768Y-59423211D01*
X145560128Y-59577552D01*
X145506597Y-59742302D01*
X145482811Y-59892486D01*
X145479500Y-59913389D01*
X144640500Y-59913389D01*
X144640500Y-56486300D01*
X144660185Y-56419261D01*
X144708204Y-56375815D01*
X144878845Y-56288870D01*
X145082656Y-56140793D01*
X145260793Y-55962656D01*
X145408870Y-55758845D01*
X145523241Y-55534379D01*
X145601090Y-55294785D01*
X145640500Y-55045962D01*
X145640500Y-54794038D01*
X145601090Y-54545215D01*
X145523241Y-54305621D01*
X145523239Y-54305618D01*
X145523239Y-54305616D01*
X145473219Y-54207447D01*
X145408870Y-54081155D01*
X145318680Y-53957019D01*
X145260798Y-53877350D01*
X145260794Y-53877345D01*
X145082654Y-53699205D01*
X145082649Y-53699201D01*
X144878848Y-53551132D01*
X144878847Y-53551131D01*
X144878845Y-53551130D01*
X144797312Y-53509587D01*
X144654383Y-53436760D01*
X144414785Y-53358910D01*
X144314201Y-53342979D01*
X144165962Y-53319500D01*
X143914038Y-53319500D01*
X143789626Y-53339205D01*
X143665214Y-53358910D01*
X143425616Y-53436760D01*
X143201151Y-53551132D01*
X142997350Y-53699201D01*
X142997345Y-53699205D01*
X142819205Y-53877345D01*
X142819201Y-53877350D01*
X142671132Y-54081151D01*
X142556760Y-54305616D01*
X142478910Y-54545214D01*
X142466374Y-54624362D01*
X142439500Y-54794038D01*
X142439500Y-55045962D01*
X142464540Y-55204054D01*
X142478910Y-55294785D01*
X142556760Y-55534383D01*
X142635413Y-55688747D01*
X142662784Y-55742466D01*
X142671132Y-55758848D01*
X142819201Y-55962649D01*
X142819205Y-55962654D01*
X142997345Y-56140794D01*
X142997350Y-56140798D01*
X143142749Y-56246436D01*
X143201155Y-56288870D01*
X143371795Y-56375815D01*
X143422591Y-56423789D01*
X143439500Y-56486300D01*
X143439500Y-58465461D01*
X143419815Y-58532500D01*
X143367011Y-58578255D01*
X143297853Y-58588199D01*
X143234297Y-58559174D01*
X143217125Y-58540949D01*
X143195644Y-58512955D01*
X142987047Y-58304358D01*
X142987040Y-58304352D01*
X142752993Y-58124761D01*
X142497510Y-57977258D01*
X142497500Y-57977254D01*
X142224961Y-57864364D01*
X142224954Y-57864362D01*
X142224952Y-57864361D01*
X141939993Y-57788007D01*
X141891113Y-57781571D01*
X141647513Y-57749500D01*
X141647506Y-57749500D01*
X141352494Y-57749500D01*
X141352486Y-57749500D01*
X141074085Y-57786153D01*
X141060007Y-57788007D01*
X140885428Y-57834785D01*
X140775048Y-57864361D01*
X140775038Y-57864364D01*
X140502499Y-57977254D01*
X140502489Y-57977258D01*
X140247006Y-58124761D01*
X140012959Y-58304352D01*
X140012952Y-58304358D01*
X139804358Y-58512952D01*
X139804352Y-58512959D01*
X139624761Y-58747006D01*
X139477258Y-59002489D01*
X139477254Y-59002499D01*
X139364364Y-59275038D01*
X139364361Y-59275048D01*
X139299968Y-59515370D01*
X139288008Y-59560004D01*
X139288006Y-59560015D01*
X139249500Y-59852486D01*
X139249500Y-60147513D01*
X139269635Y-60300448D01*
X139288007Y-60439993D01*
X139362212Y-60716930D01*
X139364361Y-60724951D01*
X139364364Y-60724961D01*
X139477254Y-60997500D01*
X139477258Y-60997510D01*
X139624761Y-61252993D01*
X139804352Y-61487040D01*
X139804358Y-61487047D01*
X140012952Y-61695641D01*
X140012959Y-61695647D01*
X140247006Y-61875238D01*
X140502489Y-62022741D01*
X140502490Y-62022741D01*
X140502493Y-62022743D01*
X140634891Y-62077584D01*
X140744539Y-62123002D01*
X140775048Y-62135639D01*
X141060007Y-62211993D01*
X141352494Y-62250500D01*
X141352501Y-62250500D01*
X141647499Y-62250500D01*
X141647506Y-62250500D01*
X141939993Y-62211993D01*
X142224952Y-62135639D01*
X142497507Y-62022743D01*
X142752994Y-61875238D01*
X142987042Y-61695646D01*
X143195646Y-61487042D01*
X143217124Y-61459052D01*
X143273552Y-61417849D01*
X143343298Y-61413694D01*
X143404218Y-61447906D01*
X143436971Y-61509624D01*
X143439500Y-61534538D01*
X143439500Y-61953330D01*
X143439499Y-61953348D01*
X143439499Y-62119054D01*
X143439498Y-62119054D01*
X143480424Y-62271789D01*
X143480425Y-62271790D01*
X143501455Y-62308214D01*
X143501456Y-62308216D01*
X143559475Y-62408709D01*
X143559481Y-62408717D01*
X143678349Y-62527585D01*
X143678355Y-62527590D01*
X149349583Y-68198819D01*
X149383068Y-68260142D01*
X149378084Y-68329834D01*
X149336212Y-68385767D01*
X149270748Y-68410184D01*
X149261902Y-68410500D01*
X132811098Y-68410500D01*
X132744059Y-68390815D01*
X132723417Y-68374181D01*
X126176819Y-61827583D01*
X126143334Y-61766260D01*
X126140500Y-61739902D01*
X126140500Y-59913389D01*
X126979500Y-59913389D01*
X126979500Y-60086611D01*
X127006598Y-60257701D01*
X127060127Y-60422445D01*
X127138768Y-60576788D01*
X127240586Y-60716928D01*
X127363072Y-60839414D01*
X127503212Y-60941232D01*
X127657555Y-61019873D01*
X127822299Y-61073402D01*
X127993389Y-61100500D01*
X127993390Y-61100500D01*
X128166610Y-61100500D01*
X128166611Y-61100500D01*
X128337701Y-61073402D01*
X128502445Y-61019873D01*
X128656788Y-60941232D01*
X128796928Y-60839414D01*
X128919414Y-60716928D01*
X129021232Y-60576788D01*
X129099873Y-60422445D01*
X129153402Y-60257701D01*
X129180500Y-60086611D01*
X129180500Y-59913389D01*
X135319500Y-59913389D01*
X135319500Y-60086611D01*
X135346598Y-60257701D01*
X135400127Y-60422445D01*
X135478768Y-60576788D01*
X135580586Y-60716928D01*
X135703072Y-60839414D01*
X135843212Y-60941232D01*
X135997555Y-61019873D01*
X136162299Y-61073402D01*
X136333389Y-61100500D01*
X136333390Y-61100500D01*
X136506610Y-61100500D01*
X136506611Y-61100500D01*
X136677701Y-61073402D01*
X136842445Y-61019873D01*
X136996788Y-60941232D01*
X137136928Y-60839414D01*
X137259414Y-60716928D01*
X137361232Y-60576788D01*
X137439873Y-60422445D01*
X137493402Y-60257701D01*
X137520500Y-60086611D01*
X137520500Y-59913389D01*
X137493402Y-59742299D01*
X137439873Y-59577555D01*
X137361232Y-59423212D01*
X137259414Y-59283072D01*
X137207482Y-59231140D01*
X137173997Y-59169817D01*
X137178981Y-59100125D01*
X137220853Y-59044192D01*
X137286317Y-59019775D01*
X137314561Y-59020986D01*
X137315212Y-59021089D01*
X137315215Y-59021090D01*
X137564038Y-59060500D01*
X137564039Y-59060500D01*
X137815961Y-59060500D01*
X137815962Y-59060500D01*
X138064785Y-59021090D01*
X138304379Y-58943241D01*
X138528845Y-58828870D01*
X138732656Y-58680793D01*
X138910793Y-58502656D01*
X139058870Y-58298845D01*
X139173241Y-58074379D01*
X139251090Y-57834785D01*
X139290500Y-57585962D01*
X139290500Y-57334038D01*
X139251090Y-57085215D01*
X139173241Y-56845621D01*
X139173239Y-56845618D01*
X139173239Y-56845616D01*
X139123219Y-56747447D01*
X139058870Y-56621155D01*
X138968680Y-56497019D01*
X138910798Y-56417350D01*
X138910794Y-56417345D01*
X138732654Y-56239205D01*
X138732649Y-56239201D01*
X138528848Y-56091132D01*
X138528847Y-56091131D01*
X138528845Y-56091130D01*
X138447312Y-56049587D01*
X138304383Y-55976760D01*
X138064785Y-55898910D01*
X137964201Y-55882979D01*
X137815962Y-55859500D01*
X137564038Y-55859500D01*
X137439626Y-55879205D01*
X137315214Y-55898910D01*
X137075616Y-55976760D01*
X136851151Y-56091132D01*
X136647350Y-56239201D01*
X136647345Y-56239205D01*
X136469205Y-56417345D01*
X136469201Y-56417350D01*
X136321132Y-56621151D01*
X136206760Y-56845616D01*
X136128910Y-57085214D01*
X136116374Y-57164362D01*
X136089500Y-57334038D01*
X136089500Y-57585962D01*
X136115402Y-57749500D01*
X136128910Y-57834785D01*
X136206760Y-58074383D01*
X136285413Y-58228747D01*
X136312784Y-58282466D01*
X136321132Y-58298848D01*
X136469201Y-58502649D01*
X136469205Y-58502654D01*
X136469207Y-58502656D01*
X136647344Y-58680793D01*
X136647345Y-58680794D01*
X136647344Y-58680794D01*
X136653661Y-58685383D01*
X136696327Y-58740714D01*
X136702305Y-58810327D01*
X136669699Y-58872122D01*
X136608860Y-58906479D01*
X136561378Y-58908174D01*
X136506611Y-58899500D01*
X136333389Y-58899500D01*
X136293728Y-58905781D01*
X136162302Y-58926597D01*
X135997552Y-58980128D01*
X135843211Y-59058768D01*
X135788157Y-59098768D01*
X135703072Y-59160586D01*
X135703070Y-59160588D01*
X135703069Y-59160588D01*
X135580588Y-59283069D01*
X135580588Y-59283070D01*
X135580586Y-59283072D01*
X135550506Y-59324473D01*
X135478768Y-59423211D01*
X135400128Y-59577552D01*
X135346597Y-59742302D01*
X135322811Y-59892486D01*
X135319500Y-59913389D01*
X129180500Y-59913389D01*
X129153402Y-59742299D01*
X129099873Y-59577555D01*
X129021232Y-59423212D01*
X128919414Y-59283072D01*
X128796928Y-59160586D01*
X128656788Y-59058768D01*
X128502445Y-58980127D01*
X128337701Y-58926598D01*
X128337699Y-58926597D01*
X128337698Y-58926597D01*
X128206271Y-58905781D01*
X128166611Y-58899500D01*
X127993389Y-58899500D01*
X127953728Y-58905781D01*
X127822302Y-58926597D01*
X127657552Y-58980128D01*
X127503211Y-59058768D01*
X127448157Y-59098768D01*
X127363072Y-59160586D01*
X127363070Y-59160588D01*
X127363069Y-59160588D01*
X127240588Y-59283069D01*
X127240588Y-59283070D01*
X127240586Y-59283072D01*
X127210506Y-59324473D01*
X127138768Y-59423211D01*
X127060128Y-59577552D01*
X127006597Y-59742302D01*
X126982811Y-59892486D01*
X126979500Y-59913389D01*
X126140500Y-59913389D01*
X126140500Y-56486300D01*
X126160185Y-56419261D01*
X126208204Y-56375815D01*
X126378845Y-56288870D01*
X126582656Y-56140793D01*
X126760793Y-55962656D01*
X126908870Y-55758845D01*
X127023241Y-55534379D01*
X127101090Y-55294785D01*
X127140500Y-55045962D01*
X127140500Y-54794038D01*
X127101090Y-54545215D01*
X127023241Y-54305621D01*
X127023239Y-54305618D01*
X127023239Y-54305616D01*
X126973219Y-54207447D01*
X126908870Y-54081155D01*
X126818680Y-53957019D01*
X126760798Y-53877350D01*
X126760794Y-53877345D01*
X126582654Y-53699205D01*
X126582649Y-53699201D01*
X126378848Y-53551132D01*
X126378847Y-53551131D01*
X126378845Y-53551130D01*
X126297312Y-53509587D01*
X126154383Y-53436760D01*
X125914785Y-53358910D01*
X125814201Y-53342979D01*
X125665962Y-53319500D01*
X125414038Y-53319500D01*
X125289626Y-53339205D01*
X125165214Y-53358910D01*
X124925616Y-53436760D01*
X124701151Y-53551132D01*
X124497350Y-53699201D01*
X124497345Y-53699205D01*
X124319205Y-53877345D01*
X124319201Y-53877350D01*
X124171132Y-54081151D01*
X124056760Y-54305616D01*
X123978910Y-54545214D01*
X123966374Y-54624362D01*
X123939500Y-54794038D01*
X123939500Y-55045962D01*
X123964540Y-55204054D01*
X123978910Y-55294785D01*
X124056760Y-55534383D01*
X124135413Y-55688747D01*
X124162784Y-55742466D01*
X124171132Y-55758848D01*
X124319201Y-55962649D01*
X124319205Y-55962654D01*
X124497345Y-56140794D01*
X124497350Y-56140798D01*
X124642749Y-56246436D01*
X124701155Y-56288870D01*
X124871795Y-56375815D01*
X124922591Y-56423789D01*
X124939500Y-56486300D01*
X124939500Y-58465461D01*
X124919815Y-58532500D01*
X124867011Y-58578255D01*
X124797853Y-58588199D01*
X124734297Y-58559174D01*
X124717125Y-58540949D01*
X124695644Y-58512955D01*
X124487047Y-58304358D01*
X124487040Y-58304352D01*
X124252993Y-58124761D01*
X123997510Y-57977258D01*
X123997500Y-57977254D01*
X123724961Y-57864364D01*
X123724954Y-57864362D01*
X123724952Y-57864361D01*
X123439993Y-57788007D01*
X123391113Y-57781571D01*
X123147513Y-57749500D01*
X123147506Y-57749500D01*
X122852494Y-57749500D01*
X122852486Y-57749500D01*
X122574085Y-57786153D01*
X122560007Y-57788007D01*
X122385428Y-57834785D01*
X122275048Y-57864361D01*
X122275038Y-57864364D01*
X122002499Y-57977254D01*
X122002489Y-57977258D01*
X121747006Y-58124761D01*
X121512959Y-58304352D01*
X121512952Y-58304358D01*
X121304358Y-58512952D01*
X121304352Y-58512959D01*
X121124761Y-58747006D01*
X120977258Y-59002489D01*
X120977254Y-59002499D01*
X120864364Y-59275038D01*
X120864361Y-59275048D01*
X120799968Y-59515370D01*
X120788008Y-59560004D01*
X120788006Y-59560015D01*
X120749500Y-59852486D01*
X120749500Y-60147513D01*
X120769635Y-60300448D01*
X120788007Y-60439993D01*
X120862212Y-60716930D01*
X120864361Y-60724951D01*
X120864364Y-60724961D01*
X120977254Y-60997500D01*
X120977258Y-60997510D01*
X121124761Y-61252993D01*
X121304352Y-61487040D01*
X121304358Y-61487047D01*
X121512952Y-61695641D01*
X121512959Y-61695647D01*
X121747006Y-61875238D01*
X122002489Y-62022741D01*
X122002490Y-62022741D01*
X122002493Y-62022743D01*
X122134891Y-62077584D01*
X122244539Y-62123002D01*
X122275048Y-62135639D01*
X122560007Y-62211993D01*
X122852494Y-62250500D01*
X122852501Y-62250500D01*
X123147499Y-62250500D01*
X123147506Y-62250500D01*
X123439993Y-62211993D01*
X123724952Y-62135639D01*
X123997507Y-62022743D01*
X124252994Y-61875238D01*
X124487042Y-61695646D01*
X124695646Y-61487042D01*
X124717124Y-61459052D01*
X124773552Y-61417849D01*
X124843298Y-61413694D01*
X124904218Y-61447906D01*
X124936971Y-61509624D01*
X124939500Y-61534538D01*
X124939500Y-61953330D01*
X124939499Y-61953348D01*
X124939499Y-62119054D01*
X124939498Y-62119054D01*
X124980424Y-62271789D01*
X124980425Y-62271790D01*
X125001455Y-62308214D01*
X125001456Y-62308216D01*
X125059475Y-62408709D01*
X125059481Y-62408717D01*
X125178349Y-62527585D01*
X125178355Y-62527590D01*
X131177583Y-68526819D01*
X131211068Y-68588142D01*
X131206084Y-68657834D01*
X131164212Y-68713767D01*
X131098748Y-68738184D01*
X131089902Y-68738500D01*
X114389097Y-68738500D01*
X114322058Y-68718815D01*
X114301416Y-68702181D01*
X107676819Y-62077584D01*
X107643334Y-62016261D01*
X107640500Y-61989903D01*
X107640500Y-59913389D01*
X108479500Y-59913389D01*
X108479500Y-60086611D01*
X108506598Y-60257701D01*
X108560127Y-60422445D01*
X108638768Y-60576788D01*
X108740586Y-60716928D01*
X108863072Y-60839414D01*
X109003212Y-60941232D01*
X109157555Y-61019873D01*
X109322299Y-61073402D01*
X109493389Y-61100500D01*
X109493390Y-61100500D01*
X109666610Y-61100500D01*
X109666611Y-61100500D01*
X109837701Y-61073402D01*
X110002445Y-61019873D01*
X110156788Y-60941232D01*
X110296928Y-60839414D01*
X110419414Y-60716928D01*
X110521232Y-60576788D01*
X110599873Y-60422445D01*
X110653402Y-60257701D01*
X110680500Y-60086611D01*
X110680500Y-59913389D01*
X116819500Y-59913389D01*
X116819500Y-60086611D01*
X116846598Y-60257701D01*
X116900127Y-60422445D01*
X116978768Y-60576788D01*
X117080586Y-60716928D01*
X117203072Y-60839414D01*
X117343212Y-60941232D01*
X117497555Y-61019873D01*
X117662299Y-61073402D01*
X117833389Y-61100500D01*
X117833390Y-61100500D01*
X118006610Y-61100500D01*
X118006611Y-61100500D01*
X118177701Y-61073402D01*
X118342445Y-61019873D01*
X118496788Y-60941232D01*
X118636928Y-60839414D01*
X118759414Y-60716928D01*
X118861232Y-60576788D01*
X118939873Y-60422445D01*
X118993402Y-60257701D01*
X119020500Y-60086611D01*
X119020500Y-59913389D01*
X118993402Y-59742299D01*
X118939873Y-59577555D01*
X118861232Y-59423212D01*
X118759414Y-59283072D01*
X118707482Y-59231140D01*
X118673997Y-59169817D01*
X118678981Y-59100125D01*
X118720853Y-59044192D01*
X118786317Y-59019775D01*
X118814561Y-59020986D01*
X118815212Y-59021089D01*
X118815215Y-59021090D01*
X119064038Y-59060500D01*
X119064039Y-59060500D01*
X119315961Y-59060500D01*
X119315962Y-59060500D01*
X119564785Y-59021090D01*
X119804379Y-58943241D01*
X120028845Y-58828870D01*
X120232656Y-58680793D01*
X120410793Y-58502656D01*
X120558870Y-58298845D01*
X120673241Y-58074379D01*
X120751090Y-57834785D01*
X120790500Y-57585962D01*
X120790500Y-57334038D01*
X120751090Y-57085215D01*
X120673241Y-56845621D01*
X120673239Y-56845618D01*
X120673239Y-56845616D01*
X120623219Y-56747447D01*
X120558870Y-56621155D01*
X120468680Y-56497019D01*
X120410798Y-56417350D01*
X120410794Y-56417345D01*
X120232654Y-56239205D01*
X120232649Y-56239201D01*
X120028848Y-56091132D01*
X120028847Y-56091131D01*
X120028845Y-56091130D01*
X119947312Y-56049587D01*
X119804383Y-55976760D01*
X119564785Y-55898910D01*
X119464201Y-55882979D01*
X119315962Y-55859500D01*
X119064038Y-55859500D01*
X118939626Y-55879205D01*
X118815214Y-55898910D01*
X118575616Y-55976760D01*
X118351151Y-56091132D01*
X118147350Y-56239201D01*
X118147345Y-56239205D01*
X117969205Y-56417345D01*
X117969201Y-56417350D01*
X117821132Y-56621151D01*
X117706760Y-56845616D01*
X117628910Y-57085214D01*
X117616374Y-57164362D01*
X117589500Y-57334038D01*
X117589500Y-57585962D01*
X117615402Y-57749500D01*
X117628910Y-57834785D01*
X117706760Y-58074383D01*
X117785413Y-58228747D01*
X117812784Y-58282466D01*
X117821132Y-58298848D01*
X117969201Y-58502649D01*
X117969205Y-58502654D01*
X117969207Y-58502656D01*
X118147344Y-58680793D01*
X118147345Y-58680794D01*
X118147344Y-58680794D01*
X118153661Y-58685383D01*
X118196327Y-58740714D01*
X118202305Y-58810327D01*
X118169699Y-58872122D01*
X118108860Y-58906479D01*
X118061378Y-58908174D01*
X118006611Y-58899500D01*
X117833389Y-58899500D01*
X117793728Y-58905781D01*
X117662302Y-58926597D01*
X117497552Y-58980128D01*
X117343211Y-59058768D01*
X117288157Y-59098768D01*
X117203072Y-59160586D01*
X117203070Y-59160588D01*
X117203069Y-59160588D01*
X117080588Y-59283069D01*
X117080588Y-59283070D01*
X117080586Y-59283072D01*
X117050506Y-59324473D01*
X116978768Y-59423211D01*
X116900128Y-59577552D01*
X116846597Y-59742302D01*
X116822811Y-59892486D01*
X116819500Y-59913389D01*
X110680500Y-59913389D01*
X110653402Y-59742299D01*
X110599873Y-59577555D01*
X110521232Y-59423212D01*
X110419414Y-59283072D01*
X110296928Y-59160586D01*
X110156788Y-59058768D01*
X110002445Y-58980127D01*
X109837701Y-58926598D01*
X109837699Y-58926597D01*
X109837698Y-58926597D01*
X109706271Y-58905781D01*
X109666611Y-58899500D01*
X109493389Y-58899500D01*
X109453728Y-58905781D01*
X109322302Y-58926597D01*
X109157552Y-58980128D01*
X109003211Y-59058768D01*
X108948157Y-59098768D01*
X108863072Y-59160586D01*
X108863070Y-59160588D01*
X108863069Y-59160588D01*
X108740588Y-59283069D01*
X108740588Y-59283070D01*
X108740586Y-59283072D01*
X108710506Y-59324473D01*
X108638768Y-59423211D01*
X108560128Y-59577552D01*
X108506597Y-59742302D01*
X108482811Y-59892486D01*
X108479500Y-59913389D01*
X107640500Y-59913389D01*
X107640500Y-56486300D01*
X107660185Y-56419261D01*
X107708204Y-56375815D01*
X107878845Y-56288870D01*
X108082656Y-56140793D01*
X108260793Y-55962656D01*
X108408870Y-55758845D01*
X108523241Y-55534379D01*
X108601090Y-55294785D01*
X108640500Y-55045962D01*
X108640500Y-54794038D01*
X108601090Y-54545215D01*
X108523241Y-54305621D01*
X108523239Y-54305618D01*
X108523239Y-54305616D01*
X108473219Y-54207447D01*
X108408870Y-54081155D01*
X108318680Y-53957019D01*
X108260798Y-53877350D01*
X108260794Y-53877345D01*
X108082654Y-53699205D01*
X108082649Y-53699201D01*
X107878848Y-53551132D01*
X107878847Y-53551131D01*
X107878845Y-53551130D01*
X107797312Y-53509587D01*
X107654383Y-53436760D01*
X107414785Y-53358910D01*
X107314201Y-53342979D01*
X107165962Y-53319500D01*
X106914038Y-53319500D01*
X106789626Y-53339205D01*
X106665214Y-53358910D01*
X106425616Y-53436760D01*
X106201151Y-53551132D01*
X105997350Y-53699201D01*
X105997345Y-53699205D01*
X105819205Y-53877345D01*
X105819201Y-53877350D01*
X105671132Y-54081151D01*
X105556760Y-54305616D01*
X105478910Y-54545214D01*
X105466374Y-54624362D01*
X105439500Y-54794038D01*
X105439500Y-55045962D01*
X105464540Y-55204054D01*
X105478910Y-55294785D01*
X105556760Y-55534383D01*
X105635413Y-55688747D01*
X105662784Y-55742466D01*
X105671132Y-55758848D01*
X105819201Y-55962649D01*
X105819205Y-55962654D01*
X105997345Y-56140794D01*
X105997350Y-56140798D01*
X106142749Y-56246436D01*
X106201155Y-56288870D01*
X106371795Y-56375815D01*
X106422591Y-56423789D01*
X106439500Y-56486300D01*
X106439500Y-58465461D01*
X106419815Y-58532500D01*
X106367011Y-58578255D01*
X106297853Y-58588199D01*
X106234297Y-58559174D01*
X106217125Y-58540949D01*
X106195644Y-58512955D01*
X105987047Y-58304358D01*
X105987040Y-58304352D01*
X105752993Y-58124761D01*
X105497510Y-57977258D01*
X105497500Y-57977254D01*
X105224961Y-57864364D01*
X105224954Y-57864362D01*
X105224952Y-57864361D01*
X104939993Y-57788007D01*
X104891113Y-57781571D01*
X104647513Y-57749500D01*
X104647506Y-57749500D01*
X104352494Y-57749500D01*
X104352486Y-57749500D01*
X104074085Y-57786153D01*
X104060007Y-57788007D01*
X103885428Y-57834785D01*
X103775048Y-57864361D01*
X103775038Y-57864364D01*
X103502499Y-57977254D01*
X103502489Y-57977258D01*
X103247006Y-58124761D01*
X103012959Y-58304352D01*
X103012952Y-58304358D01*
X102804358Y-58512952D01*
X102804352Y-58512959D01*
X102624761Y-58747006D01*
X102477258Y-59002489D01*
X102477254Y-59002499D01*
X102364364Y-59275038D01*
X102364361Y-59275048D01*
X102299968Y-59515370D01*
X102288008Y-59560004D01*
X102288006Y-59560015D01*
X102249500Y-59852486D01*
X100510854Y-59852486D01*
X100493402Y-59742299D01*
X100439873Y-59577555D01*
X100361232Y-59423212D01*
X100259414Y-59283072D01*
X100207482Y-59231140D01*
X100173997Y-59169817D01*
X100178981Y-59100125D01*
X100220853Y-59044192D01*
X100286317Y-59019775D01*
X100314561Y-59020986D01*
X100315212Y-59021089D01*
X100315215Y-59021090D01*
X100564038Y-59060500D01*
X100564039Y-59060500D01*
X100815961Y-59060500D01*
X100815962Y-59060500D01*
X101064785Y-59021090D01*
X101304379Y-58943241D01*
X101528845Y-58828870D01*
X101732656Y-58680793D01*
X101910793Y-58502656D01*
X102058870Y-58298845D01*
X102173241Y-58074379D01*
X102251090Y-57834785D01*
X102290500Y-57585962D01*
X102290500Y-57334038D01*
X102251090Y-57085215D01*
X102173241Y-56845621D01*
X102173239Y-56845618D01*
X102173239Y-56845616D01*
X102123219Y-56747447D01*
X102058870Y-56621155D01*
X101968680Y-56497019D01*
X101910798Y-56417350D01*
X101910794Y-56417345D01*
X101732654Y-56239205D01*
X101732649Y-56239201D01*
X101528848Y-56091132D01*
X101528847Y-56091131D01*
X101528845Y-56091130D01*
X101447312Y-56049587D01*
X101304383Y-55976760D01*
X101064785Y-55898910D01*
X100964201Y-55882979D01*
X100815962Y-55859500D01*
X100564038Y-55859500D01*
X100439626Y-55879205D01*
X100315214Y-55898910D01*
X100075616Y-55976760D01*
X99851151Y-56091132D01*
X99647350Y-56239201D01*
X99647345Y-56239205D01*
X99469205Y-56417345D01*
X99469201Y-56417350D01*
X99321132Y-56621151D01*
X99206760Y-56845616D01*
X99128910Y-57085214D01*
X99116374Y-57164362D01*
X99089500Y-57334038D01*
X99089500Y-57585962D01*
X99115402Y-57749500D01*
X99128910Y-57834785D01*
X99206760Y-58074383D01*
X99285413Y-58228747D01*
X99312784Y-58282466D01*
X99321132Y-58298848D01*
X99469201Y-58502649D01*
X99469205Y-58502654D01*
X99469207Y-58502656D01*
X99647344Y-58680793D01*
X99647345Y-58680794D01*
X99647344Y-58680794D01*
X99653661Y-58685383D01*
X99696327Y-58740714D01*
X99702305Y-58810327D01*
X99669699Y-58872122D01*
X99608860Y-58906479D01*
X99561378Y-58908174D01*
X99506611Y-58899500D01*
X99333389Y-58899500D01*
X99293728Y-58905781D01*
X99162302Y-58926597D01*
X98997552Y-58980128D01*
X98843211Y-59058768D01*
X98788157Y-59098768D01*
X98703072Y-59160586D01*
X98703070Y-59160588D01*
X98703069Y-59160588D01*
X98580588Y-59283069D01*
X98580588Y-59283070D01*
X98580586Y-59283072D01*
X98550506Y-59324473D01*
X98478768Y-59423211D01*
X98400128Y-59577552D01*
X98346597Y-59742302D01*
X98322811Y-59892486D01*
X98319500Y-59913389D01*
X95500500Y-59913389D01*
X95500500Y-46503246D01*
X95500670Y-46496756D01*
X95507715Y-46362332D01*
X96399500Y-46362332D01*
X96399500Y-46637667D01*
X96399501Y-46637684D01*
X96435438Y-46910655D01*
X96435439Y-46910660D01*
X96435440Y-46910666D01*
X96435441Y-46910668D01*
X96506704Y-47176630D01*
X96612075Y-47431017D01*
X96612080Y-47431028D01*
X96675278Y-47540488D01*
X96749751Y-47669479D01*
X96749753Y-47669482D01*
X96749754Y-47669483D01*
X96917370Y-47887926D01*
X96917376Y-47887933D01*
X97112066Y-48082623D01*
X97112072Y-48082628D01*
X97330521Y-48250249D01*
X97483778Y-48338732D01*
X97568971Y-48387919D01*
X97568976Y-48387921D01*
X97568979Y-48387923D01*
X97823368Y-48493295D01*
X98089334Y-48564560D01*
X98362326Y-48600500D01*
X98362333Y-48600500D01*
X98637667Y-48600500D01*
X98637674Y-48600500D01*
X98910666Y-48564560D01*
X99176632Y-48493295D01*
X99431021Y-48387923D01*
X99669479Y-48250249D01*
X99887928Y-48082628D01*
X100082628Y-47887928D01*
X100250249Y-47669479D01*
X100387923Y-47431021D01*
X100493295Y-47176632D01*
X100564560Y-46910666D01*
X100600500Y-46637674D01*
X100600500Y-46362326D01*
X100564560Y-46089334D01*
X100552583Y-46044635D01*
X101822000Y-46044635D01*
X101822000Y-47955370D01*
X101822001Y-47955376D01*
X101828408Y-48014983D01*
X101878702Y-48149828D01*
X101878706Y-48149835D01*
X101964952Y-48265044D01*
X101964955Y-48265047D01*
X102080164Y-48351293D01*
X102080171Y-48351297D01*
X102215017Y-48401591D01*
X102215016Y-48401591D01*
X102221944Y-48402335D01*
X102274627Y-48408000D01*
X104185372Y-48407999D01*
X104244983Y-48401591D01*
X104379831Y-48351296D01*
X104495046Y-48265046D01*
X104581296Y-48149831D01*
X104608220Y-48077644D01*
X104650091Y-48021711D01*
X104715555Y-47997293D01*
X104783828Y-48012144D01*
X104812083Y-48033296D01*
X104852749Y-48073962D01*
X105032047Y-48204230D01*
X105122357Y-48250245D01*
X105229511Y-48304843D01*
X105229513Y-48304843D01*
X105229516Y-48304845D01*
X105342496Y-48341554D01*
X105440292Y-48373331D01*
X105659183Y-48408000D01*
X105659188Y-48408000D01*
X105880817Y-48408000D01*
X106099707Y-48373331D01*
X106167523Y-48351296D01*
X106310484Y-48304845D01*
X106507953Y-48204230D01*
X106687251Y-48073962D01*
X106843962Y-47917251D01*
X106974230Y-47737953D01*
X107074845Y-47540484D01*
X107143331Y-47329707D01*
X107151027Y-47281118D01*
X107178000Y-47110817D01*
X107178000Y-46905513D01*
X110259500Y-46905513D01*
X110259500Y-47094486D01*
X110289059Y-47281118D01*
X110347454Y-47460836D01*
X110416381Y-47596111D01*
X110433240Y-47629199D01*
X110544310Y-47782073D01*
X110677927Y-47915690D01*
X110830801Y-48026760D01*
X110843629Y-48033296D01*
X110999163Y-48112545D01*
X110999165Y-48112545D01*
X110999168Y-48112547D01*
X111095497Y-48143846D01*
X111178881Y-48170940D01*
X111365514Y-48200500D01*
X111365519Y-48200500D01*
X111554486Y-48200500D01*
X111741118Y-48170940D01*
X111920832Y-48112547D01*
X112089199Y-48026760D01*
X112242073Y-47915690D01*
X112375690Y-47782073D01*
X112486760Y-47629199D01*
X112572547Y-47460832D01*
X112630940Y-47281118D01*
X112657913Y-47110817D01*
X112660500Y-47094486D01*
X112660500Y-46905513D01*
X115339500Y-46905513D01*
X115339500Y-47094486D01*
X115369059Y-47281118D01*
X115427454Y-47460836D01*
X115496381Y-47596111D01*
X115513240Y-47629199D01*
X115624310Y-47782073D01*
X115757927Y-47915690D01*
X115910801Y-48026760D01*
X115923629Y-48033296D01*
X116079163Y-48112545D01*
X116079165Y-48112545D01*
X116079168Y-48112547D01*
X116175497Y-48143846D01*
X116258881Y-48170940D01*
X116445514Y-48200500D01*
X116445519Y-48200500D01*
X116634486Y-48200500D01*
X116821118Y-48170940D01*
X117000832Y-48112547D01*
X117169199Y-48026760D01*
X117322073Y-47915690D01*
X117455690Y-47782073D01*
X117566760Y-47629199D01*
X117652547Y-47460832D01*
X117710940Y-47281118D01*
X117737913Y-47110817D01*
X117740500Y-47094486D01*
X117740500Y-46905513D01*
X117715274Y-46746246D01*
X117724228Y-46676953D01*
X117750063Y-46639170D01*
X118908416Y-45480819D01*
X118969739Y-45447334D01*
X118996097Y-45444500D01*
X120480393Y-45444500D01*
X120547432Y-45464185D01*
X120593187Y-45516989D01*
X120603131Y-45586147D01*
X120574106Y-45649703D01*
X120554705Y-45667766D01*
X120464952Y-45734955D01*
X120378706Y-45850164D01*
X120378702Y-45850171D01*
X120328408Y-45985017D01*
X120322001Y-46044616D01*
X120322000Y-46044635D01*
X120322000Y-47955370D01*
X120322001Y-47955376D01*
X120328408Y-48014983D01*
X120378702Y-48149828D01*
X120378706Y-48149835D01*
X120464952Y-48265044D01*
X120464955Y-48265047D01*
X120580164Y-48351293D01*
X120580171Y-48351297D01*
X120715017Y-48401591D01*
X120715016Y-48401591D01*
X120721944Y-48402335D01*
X120774627Y-48408000D01*
X122685372Y-48407999D01*
X122744983Y-48401591D01*
X122879831Y-48351296D01*
X122995046Y-48265046D01*
X123081296Y-48149831D01*
X123108220Y-48077644D01*
X123150091Y-48021711D01*
X123215555Y-47997293D01*
X123283828Y-48012144D01*
X123312083Y-48033296D01*
X123352749Y-48073962D01*
X123532047Y-48204230D01*
X123622357Y-48250245D01*
X123729511Y-48304843D01*
X123729513Y-48304843D01*
X123729516Y-48304845D01*
X123842496Y-48341554D01*
X123940292Y-48373331D01*
X124159183Y-48408000D01*
X124159188Y-48408000D01*
X124380817Y-48408000D01*
X124599707Y-48373331D01*
X124667523Y-48351296D01*
X124810484Y-48304845D01*
X125007953Y-48204230D01*
X125187251Y-48073962D01*
X125343962Y-47917251D01*
X125474230Y-47737953D01*
X125574845Y-47540484D01*
X125643331Y-47329707D01*
X125651027Y-47281118D01*
X125678000Y-47110817D01*
X125678000Y-46905513D01*
X128759500Y-46905513D01*
X128759500Y-47094486D01*
X128789059Y-47281118D01*
X128847454Y-47460836D01*
X128916381Y-47596111D01*
X128933240Y-47629199D01*
X129044310Y-47782073D01*
X129177927Y-47915690D01*
X129330801Y-48026760D01*
X129343629Y-48033296D01*
X129499163Y-48112545D01*
X129499165Y-48112545D01*
X129499168Y-48112547D01*
X129595497Y-48143846D01*
X129678881Y-48170940D01*
X129865514Y-48200500D01*
X129865519Y-48200500D01*
X130054486Y-48200500D01*
X130241118Y-48170940D01*
X130420832Y-48112547D01*
X130589199Y-48026760D01*
X130742073Y-47915690D01*
X130875690Y-47782073D01*
X130986760Y-47629199D01*
X131072547Y-47460832D01*
X131130940Y-47281118D01*
X131157913Y-47110817D01*
X131160500Y-47094486D01*
X131160500Y-46905513D01*
X131130940Y-46718881D01*
X131072545Y-46539163D01*
X130986759Y-46370800D01*
X130980607Y-46362332D01*
X130875690Y-46217927D01*
X130742073Y-46084310D01*
X130589199Y-45973240D01*
X130576371Y-45966704D01*
X130420836Y-45887454D01*
X130241118Y-45829059D01*
X130054486Y-45799500D01*
X130054481Y-45799500D01*
X129865519Y-45799500D01*
X129865514Y-45799500D01*
X129678881Y-45829059D01*
X129499163Y-45887454D01*
X129330800Y-45973240D01*
X129243579Y-46036610D01*
X129177927Y-46084310D01*
X129177925Y-46084312D01*
X129177924Y-46084312D01*
X129044312Y-46217924D01*
X129044312Y-46217925D01*
X129044310Y-46217927D01*
X129026713Y-46242147D01*
X128933240Y-46370800D01*
X128847454Y-46539163D01*
X128789059Y-46718881D01*
X128759500Y-46905513D01*
X125678000Y-46905513D01*
X125678000Y-46889182D01*
X125643331Y-46670292D01*
X125574843Y-46459511D01*
X125521767Y-46355344D01*
X125474230Y-46262047D01*
X125343962Y-46082749D01*
X125187251Y-45926038D01*
X125007953Y-45795770D01*
X124988645Y-45785932D01*
X124810488Y-45695156D01*
X124800029Y-45691758D01*
X124783631Y-45686430D01*
X124725958Y-45646993D01*
X124698760Y-45582634D01*
X124710675Y-45513788D01*
X124757919Y-45462312D01*
X124821952Y-45444500D01*
X135446902Y-45444500D01*
X135513941Y-45464185D01*
X135559696Y-45516989D01*
X135569640Y-45586147D01*
X135540615Y-45649703D01*
X135534590Y-45656174D01*
X135455812Y-45734952D01*
X135400830Y-45789934D01*
X135339507Y-45823418D01*
X135293751Y-45824725D01*
X135134486Y-45799500D01*
X135134481Y-45799500D01*
X134945519Y-45799500D01*
X134945514Y-45799500D01*
X134758881Y-45829059D01*
X134579163Y-45887454D01*
X134410800Y-45973240D01*
X134323579Y-46036610D01*
X134257927Y-46084310D01*
X134257925Y-46084312D01*
X134257924Y-46084312D01*
X134124312Y-46217924D01*
X134124312Y-46217925D01*
X134124310Y-46217927D01*
X134106713Y-46242147D01*
X134013240Y-46370800D01*
X133927454Y-46539163D01*
X133869059Y-46718881D01*
X133839500Y-46905513D01*
X133839500Y-47094486D01*
X133869059Y-47281118D01*
X133927454Y-47460836D01*
X133996381Y-47596111D01*
X134013240Y-47629199D01*
X134124310Y-47782073D01*
X134257927Y-47915690D01*
X134410801Y-48026760D01*
X134423629Y-48033296D01*
X134579163Y-48112545D01*
X134579165Y-48112545D01*
X134579168Y-48112547D01*
X134675497Y-48143846D01*
X134758881Y-48170940D01*
X134945514Y-48200500D01*
X134945519Y-48200500D01*
X135134486Y-48200500D01*
X135321118Y-48170940D01*
X135500832Y-48112547D01*
X135669199Y-48026760D01*
X135822073Y-47915690D01*
X135955690Y-47782073D01*
X136066760Y-47629199D01*
X136152547Y-47460832D01*
X136210940Y-47281118D01*
X136237913Y-47110817D01*
X136240500Y-47094486D01*
X136240500Y-46905513D01*
X136215274Y-46746246D01*
X136224228Y-46676953D01*
X136250063Y-46639170D01*
X137080416Y-45808819D01*
X137141739Y-45775334D01*
X137168097Y-45772500D01*
X138729079Y-45772500D01*
X138796118Y-45792185D01*
X138841873Y-45844989D01*
X138851817Y-45914147D01*
X138845261Y-45939832D01*
X138828409Y-45985014D01*
X138828408Y-45985016D01*
X138822001Y-46044616D01*
X138822000Y-46044635D01*
X138822000Y-47955370D01*
X138822001Y-47955376D01*
X138828408Y-48014983D01*
X138878702Y-48149828D01*
X138878706Y-48149835D01*
X138964952Y-48265044D01*
X138964955Y-48265047D01*
X139080164Y-48351293D01*
X139080171Y-48351297D01*
X139215017Y-48401591D01*
X139215016Y-48401591D01*
X139221944Y-48402335D01*
X139274627Y-48408000D01*
X141185372Y-48407999D01*
X141244983Y-48401591D01*
X141379831Y-48351296D01*
X141495046Y-48265046D01*
X141581296Y-48149831D01*
X141608220Y-48077644D01*
X141650091Y-48021711D01*
X141715555Y-47997293D01*
X141783828Y-48012144D01*
X141812083Y-48033296D01*
X141852749Y-48073962D01*
X142032047Y-48204230D01*
X142122357Y-48250245D01*
X142229511Y-48304843D01*
X142229513Y-48304843D01*
X142229516Y-48304845D01*
X142342496Y-48341554D01*
X142440292Y-48373331D01*
X142659183Y-48408000D01*
X142659188Y-48408000D01*
X142880817Y-48408000D01*
X143099707Y-48373331D01*
X143167523Y-48351296D01*
X143310484Y-48304845D01*
X143507953Y-48204230D01*
X143687251Y-48073962D01*
X143843962Y-47917251D01*
X143974230Y-47737953D01*
X144074845Y-47540484D01*
X144143331Y-47329707D01*
X144151027Y-47281118D01*
X144178000Y-47110817D01*
X144178000Y-46889182D01*
X144143331Y-46670292D01*
X144074843Y-46459511D01*
X144021767Y-46355344D01*
X143974230Y-46262047D01*
X143843962Y-46082749D01*
X143745394Y-45984181D01*
X143711909Y-45922858D01*
X143716893Y-45853166D01*
X143758765Y-45797233D01*
X143824229Y-45772816D01*
X143833075Y-45772500D01*
X147725463Y-45772500D01*
X147792502Y-45792185D01*
X147838257Y-45844989D01*
X147848201Y-45914147D01*
X147819176Y-45977703D01*
X147798349Y-45996817D01*
X147677927Y-46084310D01*
X147677925Y-46084312D01*
X147677924Y-46084312D01*
X147544312Y-46217924D01*
X147544312Y-46217925D01*
X147544310Y-46217927D01*
X147526713Y-46242147D01*
X147433240Y-46370800D01*
X147347454Y-46539163D01*
X147289059Y-46718881D01*
X147259500Y-46905513D01*
X147259500Y-47094486D01*
X147289059Y-47281118D01*
X147347454Y-47460836D01*
X147416381Y-47596111D01*
X147433240Y-47629199D01*
X147544310Y-47782073D01*
X147677927Y-47915690D01*
X147830801Y-48026760D01*
X147843629Y-48033296D01*
X147999163Y-48112545D01*
X147999165Y-48112545D01*
X147999168Y-48112547D01*
X148095497Y-48143846D01*
X148178881Y-48170940D01*
X148365514Y-48200500D01*
X148365519Y-48200500D01*
X148554486Y-48200500D01*
X148741118Y-48170940D01*
X148920832Y-48112547D01*
X149089199Y-48026760D01*
X149242073Y-47915690D01*
X149375690Y-47782073D01*
X149486760Y-47629199D01*
X149572547Y-47460832D01*
X149630940Y-47281118D01*
X149657913Y-47110817D01*
X149660500Y-47094486D01*
X149660500Y-46905513D01*
X149630940Y-46718881D01*
X149572545Y-46539163D01*
X149486759Y-46370800D01*
X149480607Y-46362332D01*
X149375690Y-46217927D01*
X149242073Y-46084310D01*
X149121650Y-45996817D01*
X149078986Y-45941488D01*
X149073007Y-45871874D01*
X149105613Y-45810079D01*
X149166452Y-45775722D01*
X149194537Y-45772500D01*
X152805463Y-45772500D01*
X152872502Y-45792185D01*
X152918257Y-45844989D01*
X152928201Y-45914147D01*
X152899176Y-45977703D01*
X152878349Y-45996817D01*
X152757927Y-46084310D01*
X152757925Y-46084312D01*
X152757924Y-46084312D01*
X152624312Y-46217924D01*
X152624312Y-46217925D01*
X152624310Y-46217927D01*
X152606713Y-46242147D01*
X152513240Y-46370800D01*
X152427454Y-46539163D01*
X152369059Y-46718881D01*
X152339500Y-46905513D01*
X152339500Y-47094486D01*
X152369059Y-47281118D01*
X152427454Y-47460836D01*
X152496381Y-47596111D01*
X152513240Y-47629199D01*
X152624310Y-47782073D01*
X152757927Y-47915690D01*
X152910801Y-48026760D01*
X152923629Y-48033296D01*
X153079163Y-48112545D01*
X153079165Y-48112545D01*
X153079168Y-48112547D01*
X153175497Y-48143846D01*
X153258881Y-48170940D01*
X153445514Y-48200500D01*
X153445519Y-48200500D01*
X153634486Y-48200500D01*
X153821118Y-48170940D01*
X154000832Y-48112547D01*
X154169199Y-48026760D01*
X154322073Y-47915690D01*
X154455690Y-47782073D01*
X154566760Y-47629199D01*
X154652547Y-47460832D01*
X154710940Y-47281118D01*
X154737913Y-47110817D01*
X154740500Y-47094486D01*
X154740500Y-46905513D01*
X154715274Y-46746246D01*
X154724228Y-46676953D01*
X154750063Y-46639170D01*
X155252416Y-46136819D01*
X155313739Y-46103334D01*
X155340097Y-46100500D01*
X157198000Y-46100500D01*
X157265039Y-46120185D01*
X157310794Y-46172989D01*
X157322000Y-46224500D01*
X157322000Y-47955370D01*
X157322001Y-47955376D01*
X157328408Y-48014983D01*
X157378702Y-48149828D01*
X157378706Y-48149835D01*
X157464952Y-48265044D01*
X157464955Y-48265047D01*
X157580164Y-48351293D01*
X157580171Y-48351297D01*
X157715017Y-48401591D01*
X157715016Y-48401591D01*
X157721944Y-48402335D01*
X157774627Y-48408000D01*
X159685372Y-48407999D01*
X159744983Y-48401591D01*
X159879831Y-48351296D01*
X159995046Y-48265046D01*
X160081296Y-48149831D01*
X160108220Y-48077644D01*
X160150091Y-48021711D01*
X160215555Y-47997293D01*
X160283828Y-48012144D01*
X160312083Y-48033296D01*
X160352749Y-48073962D01*
X160532047Y-48204230D01*
X160622357Y-48250245D01*
X160729511Y-48304843D01*
X160729513Y-48304843D01*
X160729516Y-48304845D01*
X160842496Y-48341554D01*
X160940292Y-48373331D01*
X161159183Y-48408000D01*
X161159188Y-48408000D01*
X161380817Y-48408000D01*
X161599707Y-48373331D01*
X161667523Y-48351296D01*
X161810484Y-48304845D01*
X162007953Y-48204230D01*
X162187251Y-48073962D01*
X162343962Y-47917251D01*
X162474230Y-47737953D01*
X162574845Y-47540484D01*
X162643331Y-47329707D01*
X162651027Y-47281118D01*
X162678000Y-47110817D01*
X162678000Y-46889182D01*
X162643331Y-46670292D01*
X162574843Y-46459511D01*
X162528886Y-46369316D01*
X162483781Y-46280793D01*
X162470886Y-46212126D01*
X162497162Y-46147385D01*
X162554269Y-46107128D01*
X162594267Y-46100500D01*
X165886262Y-46100500D01*
X165953301Y-46120185D01*
X165999056Y-46172989D01*
X166009000Y-46242147D01*
X165986580Y-46297384D01*
X165973749Y-46315046D01*
X165933240Y-46370800D01*
X165847454Y-46539163D01*
X165789059Y-46718881D01*
X165759500Y-46905513D01*
X165759500Y-47094486D01*
X165789059Y-47281118D01*
X165847454Y-47460836D01*
X165916381Y-47596111D01*
X165933240Y-47629199D01*
X166044310Y-47782073D01*
X166177927Y-47915690D01*
X166330801Y-48026760D01*
X166343629Y-48033296D01*
X166499163Y-48112545D01*
X166499165Y-48112545D01*
X166499168Y-48112547D01*
X166595497Y-48143846D01*
X166678881Y-48170940D01*
X166865514Y-48200500D01*
X166865519Y-48200500D01*
X167054486Y-48200500D01*
X167241118Y-48170940D01*
X167420832Y-48112547D01*
X167589199Y-48026760D01*
X167742073Y-47915690D01*
X167875690Y-47782073D01*
X167986760Y-47629199D01*
X168072547Y-47460832D01*
X168130940Y-47281118D01*
X168157913Y-47110817D01*
X168160500Y-47094486D01*
X168160500Y-46905513D01*
X168130940Y-46718881D01*
X168072545Y-46539163D01*
X167986759Y-46370800D01*
X167980607Y-46362332D01*
X167933419Y-46297384D01*
X167909940Y-46231580D01*
X167925765Y-46163526D01*
X167975870Y-46114831D01*
X168033738Y-46100500D01*
X170966262Y-46100500D01*
X171033301Y-46120185D01*
X171079056Y-46172989D01*
X171089000Y-46242147D01*
X171066580Y-46297384D01*
X171053749Y-46315046D01*
X171013240Y-46370800D01*
X170927454Y-46539163D01*
X170869059Y-46718881D01*
X170839500Y-46905513D01*
X170839500Y-47094486D01*
X170869059Y-47281118D01*
X170927454Y-47460836D01*
X170996381Y-47596111D01*
X171013240Y-47629199D01*
X171124310Y-47782073D01*
X171257927Y-47915690D01*
X171410801Y-48026760D01*
X171423629Y-48033296D01*
X171579163Y-48112545D01*
X171579165Y-48112545D01*
X171579168Y-48112547D01*
X171675497Y-48143846D01*
X171758881Y-48170940D01*
X171945514Y-48200500D01*
X171945519Y-48200500D01*
X172134486Y-48200500D01*
X172321118Y-48170940D01*
X172500832Y-48112547D01*
X172669199Y-48026760D01*
X172822073Y-47915690D01*
X172955690Y-47782073D01*
X173011562Y-47705171D01*
X173066888Y-47662509D01*
X173136502Y-47656530D01*
X173198297Y-47689135D01*
X173199558Y-47690379D01*
X174613181Y-49104002D01*
X174646666Y-49165325D01*
X174649500Y-49191683D01*
X174649500Y-55038330D01*
X174649499Y-55038348D01*
X174649499Y-55204054D01*
X174649498Y-55204054D01*
X174690423Y-55356784D01*
X174690424Y-55356787D01*
X174696683Y-55367627D01*
X174696684Y-55367629D01*
X174769477Y-55493712D01*
X174769481Y-55493717D01*
X174888349Y-55612585D01*
X174888355Y-55612590D01*
X186386733Y-67110969D01*
X186420218Y-67172292D01*
X186416983Y-67236968D01*
X186388587Y-67324362D01*
X186357500Y-67520639D01*
X186357500Y-67719360D01*
X186388587Y-67915637D01*
X186449993Y-68104629D01*
X186449994Y-68104632D01*
X186521702Y-68245364D01*
X186540213Y-68281694D01*
X186657019Y-68442464D01*
X186657021Y-68442466D01*
X186797539Y-68582984D01*
X186877060Y-68640758D01*
X186891851Y-68653390D01*
X186988053Y-68749592D01*
X187130041Y-68833564D01*
X187171816Y-68845701D01*
X187288447Y-68879586D01*
X187288450Y-68879586D01*
X187288452Y-68879587D01*
X187325466Y-68882500D01*
X187325474Y-68882500D01*
X189584526Y-68882500D01*
X189584534Y-68882500D01*
X189621548Y-68879587D01*
X189621550Y-68879586D01*
X189621552Y-68879586D01*
X189663323Y-68867449D01*
X189779959Y-68833564D01*
X189921947Y-68749592D01*
X190038592Y-68632947D01*
X190122564Y-68490959D01*
X190168587Y-68332548D01*
X190171500Y-68295534D01*
X190171500Y-66944466D01*
X190168587Y-66907452D01*
X190122564Y-66749041D01*
X190038592Y-66607053D01*
X190038590Y-66607051D01*
X190038587Y-66607047D01*
X189921952Y-66490412D01*
X189921944Y-66490406D01*
X189865004Y-66456732D01*
X189817321Y-66405663D01*
X189804817Y-66336921D01*
X189831462Y-66272332D01*
X189865004Y-66243268D01*
X189921947Y-66209592D01*
X190038592Y-66092947D01*
X190122564Y-65950959D01*
X190168587Y-65792548D01*
X190171500Y-65755534D01*
X190171500Y-64404466D01*
X190168587Y-64367452D01*
X190122564Y-64209041D01*
X190038592Y-64067053D01*
X190038590Y-64067051D01*
X190038587Y-64067047D01*
X189921952Y-63950412D01*
X189921944Y-63950406D01*
X189865004Y-63916732D01*
X189817321Y-63865663D01*
X189804817Y-63796921D01*
X189831462Y-63732332D01*
X189865004Y-63703268D01*
X189921947Y-63669592D01*
X190038592Y-63552947D01*
X190122564Y-63410959D01*
X190168587Y-63252548D01*
X190171500Y-63215534D01*
X190171500Y-61864466D01*
X190168587Y-61827452D01*
X190158073Y-61791264D01*
X190130294Y-61695647D01*
X190122564Y-61669041D01*
X190061795Y-61566287D01*
X190038594Y-61527056D01*
X190038587Y-61527047D01*
X189921952Y-61410412D01*
X189921944Y-61410406D01*
X189865004Y-61376732D01*
X189817321Y-61325663D01*
X189804817Y-61256921D01*
X189831462Y-61192332D01*
X189865004Y-61163268D01*
X189921947Y-61129592D01*
X190038592Y-61012947D01*
X190122564Y-60870959D01*
X190167314Y-60716929D01*
X190168586Y-60712552D01*
X190168587Y-60712546D01*
X190171499Y-60675541D01*
X190171500Y-60675534D01*
X190171500Y-59324466D01*
X190168587Y-59287452D01*
X190167314Y-59283072D01*
X190122565Y-59129045D01*
X190122564Y-59129042D01*
X190122564Y-59129041D01*
X190038592Y-58987053D01*
X190038590Y-58987051D01*
X190038587Y-58987047D01*
X189921952Y-58870412D01*
X189921944Y-58870406D01*
X189865004Y-58836732D01*
X189817321Y-58785663D01*
X189804817Y-58716921D01*
X189831462Y-58652332D01*
X189865004Y-58623268D01*
X189921947Y-58589592D01*
X190038592Y-58472947D01*
X190122564Y-58330959D01*
X190168587Y-58172548D01*
X190171500Y-58135534D01*
X190171500Y-56784466D01*
X190168587Y-56747452D01*
X190122564Y-56589041D01*
X190038592Y-56447053D01*
X190038590Y-56447051D01*
X190038587Y-56447047D01*
X189921952Y-56330412D01*
X189921944Y-56330406D01*
X189865004Y-56296732D01*
X189817321Y-56245663D01*
X189804817Y-56176921D01*
X189831462Y-56112332D01*
X189865004Y-56083268D01*
X189921947Y-56049592D01*
X190038592Y-55932947D01*
X190122564Y-55790959D01*
X190168587Y-55632548D01*
X190171500Y-55595534D01*
X190171500Y-54244466D01*
X190168587Y-54207452D01*
X190161209Y-54182058D01*
X190122565Y-54049045D01*
X190122564Y-54049042D01*
X190122564Y-54049041D01*
X190038592Y-53907053D01*
X190038590Y-53907051D01*
X190038587Y-53907047D01*
X189921952Y-53790412D01*
X189921944Y-53790406D01*
X189865004Y-53756732D01*
X189817321Y-53705663D01*
X189804817Y-53636921D01*
X189831462Y-53572332D01*
X189865004Y-53543268D01*
X189921947Y-53509592D01*
X190038592Y-53392947D01*
X190122564Y-53250959D01*
X190168587Y-53092548D01*
X190171500Y-53055534D01*
X190171500Y-51704466D01*
X190168587Y-51667452D01*
X190122564Y-51509041D01*
X190038592Y-51367053D01*
X190038590Y-51367051D01*
X190038587Y-51367047D01*
X189921952Y-51250412D01*
X189921943Y-51250405D01*
X189779957Y-51166435D01*
X189779954Y-51166434D01*
X189621552Y-51120413D01*
X189621546Y-51120412D01*
X189584541Y-51117500D01*
X189584534Y-51117500D01*
X187325466Y-51117500D01*
X187325458Y-51117500D01*
X187288453Y-51120412D01*
X187288447Y-51120413D01*
X187130045Y-51166434D01*
X187130042Y-51166435D01*
X186988056Y-51250405D01*
X186988046Y-51250413D01*
X186891854Y-51346604D01*
X186877061Y-51359239D01*
X186797536Y-51417018D01*
X186657021Y-51557533D01*
X186540213Y-51718305D01*
X186449994Y-51895367D01*
X186449993Y-51895370D01*
X186388587Y-52084362D01*
X186357500Y-52280639D01*
X186357500Y-52479360D01*
X186388587Y-52675637D01*
X186449993Y-52864629D01*
X186449994Y-52864632D01*
X186540213Y-53041694D01*
X186657019Y-53202464D01*
X186657021Y-53202466D01*
X186797539Y-53342984D01*
X186877060Y-53400758D01*
X186883824Y-53406039D01*
X186887998Y-53409537D01*
X186988053Y-53509592D01*
X187053737Y-53548437D01*
X187061522Y-53554962D01*
X187075488Y-53575926D01*
X187092679Y-53594338D01*
X187094528Y-53604506D01*
X187100260Y-53613110D01*
X187100674Y-53638297D01*
X187105182Y-53663079D01*
X187101239Y-53672634D01*
X187101410Y-53682970D01*
X187088143Y-53704381D01*
X187078536Y-53727669D01*
X187068122Y-53736692D01*
X187064609Y-53742363D01*
X187057871Y-53745575D01*
X187044996Y-53756732D01*
X186988053Y-53790408D01*
X186988046Y-53790413D01*
X186891854Y-53886604D01*
X186877061Y-53899239D01*
X186797536Y-53957018D01*
X186657021Y-54097533D01*
X186540213Y-54258305D01*
X186449994Y-54435367D01*
X186449993Y-54435370D01*
X186388587Y-54624362D01*
X186388587Y-54624364D01*
X186357500Y-54820639D01*
X186357500Y-55019361D01*
X186360507Y-55038348D01*
X186388587Y-55215637D01*
X186449993Y-55404629D01*
X186449994Y-55404632D01*
X186536486Y-55574379D01*
X186540213Y-55581694D01*
X186657019Y-55742464D01*
X186657021Y-55742466D01*
X186797539Y-55882984D01*
X186877060Y-55940758D01*
X186883824Y-55946039D01*
X186887998Y-55949537D01*
X186988053Y-56049592D01*
X187053737Y-56088437D01*
X187061522Y-56094962D01*
X187075488Y-56115926D01*
X187092679Y-56134338D01*
X187094528Y-56144506D01*
X187100260Y-56153110D01*
X187100674Y-56178297D01*
X187105182Y-56203079D01*
X187101239Y-56212634D01*
X187101410Y-56222970D01*
X187088143Y-56244381D01*
X187078536Y-56267669D01*
X187068122Y-56276692D01*
X187064609Y-56282363D01*
X187057871Y-56285575D01*
X187044996Y-56296732D01*
X186988053Y-56330408D01*
X186988046Y-56330413D01*
X186891854Y-56426604D01*
X186877061Y-56439239D01*
X186797536Y-56497018D01*
X186657021Y-56637533D01*
X186540213Y-56798305D01*
X186449994Y-56975367D01*
X186449993Y-56975370D01*
X186388587Y-57164362D01*
X186357500Y-57360639D01*
X186357500Y-57458903D01*
X186337815Y-57525942D01*
X186285011Y-57571697D01*
X186215853Y-57581641D01*
X186152297Y-57552616D01*
X186145819Y-57546584D01*
X174961567Y-46362332D01*
X185399500Y-46362332D01*
X185399500Y-46637667D01*
X185399501Y-46637684D01*
X185435438Y-46910655D01*
X185435439Y-46910660D01*
X185435440Y-46910666D01*
X185435441Y-46910668D01*
X185506704Y-47176630D01*
X185612075Y-47431017D01*
X185612080Y-47431028D01*
X185675278Y-47540488D01*
X185749751Y-47669479D01*
X185749753Y-47669482D01*
X185749754Y-47669483D01*
X185917370Y-47887926D01*
X185917376Y-47887933D01*
X186112066Y-48082623D01*
X186112072Y-48082628D01*
X186330521Y-48250249D01*
X186483778Y-48338732D01*
X186568971Y-48387919D01*
X186568976Y-48387921D01*
X186568979Y-48387923D01*
X186823368Y-48493295D01*
X187089334Y-48564560D01*
X187362326Y-48600500D01*
X187362333Y-48600500D01*
X187637667Y-48600500D01*
X187637674Y-48600500D01*
X187910666Y-48564560D01*
X188176632Y-48493295D01*
X188431021Y-48387923D01*
X188669479Y-48250249D01*
X188887928Y-48082628D01*
X189082628Y-47887928D01*
X189250249Y-47669479D01*
X189387923Y-47431021D01*
X189493295Y-47176632D01*
X189564560Y-46910666D01*
X189600500Y-46637674D01*
X189600500Y-46362326D01*
X189564560Y-46089334D01*
X189493295Y-45823368D01*
X189387923Y-45568979D01*
X189387921Y-45568976D01*
X189387919Y-45568971D01*
X189317691Y-45447334D01*
X189250249Y-45330521D01*
X189082628Y-45112072D01*
X189082623Y-45112066D01*
X188887933Y-44917376D01*
X188887926Y-44917370D01*
X188669483Y-44749754D01*
X188669482Y-44749753D01*
X188669479Y-44749751D01*
X188574407Y-44694861D01*
X188431028Y-44612080D01*
X188431017Y-44612075D01*
X188176630Y-44506704D01*
X188043649Y-44471072D01*
X187910666Y-44435440D01*
X187910660Y-44435439D01*
X187910655Y-44435438D01*
X187637684Y-44399501D01*
X187637679Y-44399500D01*
X187637674Y-44399500D01*
X187362326Y-44399500D01*
X187362320Y-44399500D01*
X187362315Y-44399501D01*
X187089344Y-44435438D01*
X187089337Y-44435439D01*
X187089334Y-44435440D01*
X187033125Y-44450500D01*
X186823369Y-44506704D01*
X186568982Y-44612075D01*
X186568971Y-44612080D01*
X186330516Y-44749754D01*
X186112073Y-44917370D01*
X186112066Y-44917376D01*
X185917376Y-45112066D01*
X185917370Y-45112073D01*
X185749754Y-45330516D01*
X185612080Y-45568971D01*
X185612075Y-45568982D01*
X185506704Y-45823369D01*
X185460662Y-45995203D01*
X185437205Y-46082749D01*
X185435441Y-46089331D01*
X185435438Y-46089344D01*
X185399501Y-46362315D01*
X185399500Y-46362332D01*
X174961567Y-46362332D01*
X173081590Y-44482355D01*
X173081588Y-44482352D01*
X172962717Y-44363481D01*
X172962716Y-44363480D01*
X172875904Y-44313360D01*
X172875904Y-44313359D01*
X172875900Y-44313358D01*
X172825785Y-44284423D01*
X172673057Y-44243499D01*
X172514943Y-44243499D01*
X172507347Y-44243499D01*
X172507331Y-44243500D01*
X118616940Y-44243500D01*
X118576019Y-44254464D01*
X118576019Y-44254465D01*
X118538751Y-44264451D01*
X118464214Y-44284423D01*
X118464209Y-44284426D01*
X118327290Y-44363475D01*
X118327282Y-44363481D01*
X118215478Y-44475286D01*
X116900830Y-45789933D01*
X116839507Y-45823418D01*
X116793751Y-45824725D01*
X116634486Y-45799500D01*
X116634481Y-45799500D01*
X116445519Y-45799500D01*
X116445514Y-45799500D01*
X116258881Y-45829059D01*
X116079163Y-45887454D01*
X115910800Y-45973240D01*
X115823579Y-46036610D01*
X115757927Y-46084310D01*
X115757925Y-46084312D01*
X115757924Y-46084312D01*
X115624312Y-46217924D01*
X115624312Y-46217925D01*
X115624310Y-46217927D01*
X115606713Y-46242147D01*
X115513240Y-46370800D01*
X115427454Y-46539163D01*
X115369059Y-46718881D01*
X115339500Y-46905513D01*
X112660500Y-46905513D01*
X112630940Y-46718881D01*
X112572545Y-46539163D01*
X112486759Y-46370800D01*
X112480607Y-46362332D01*
X112375690Y-46217927D01*
X112242073Y-46084310D01*
X112089199Y-45973240D01*
X112076371Y-45966704D01*
X111920836Y-45887454D01*
X111741118Y-45829059D01*
X111554486Y-45799500D01*
X111554481Y-45799500D01*
X111365519Y-45799500D01*
X111365514Y-45799500D01*
X111178881Y-45829059D01*
X110999163Y-45887454D01*
X110830800Y-45973240D01*
X110743579Y-46036610D01*
X110677927Y-46084310D01*
X110677925Y-46084312D01*
X110677924Y-46084312D01*
X110544312Y-46217924D01*
X110544312Y-46217925D01*
X110544310Y-46217927D01*
X110526713Y-46242147D01*
X110433240Y-46370800D01*
X110347454Y-46539163D01*
X110289059Y-46718881D01*
X110259500Y-46905513D01*
X107178000Y-46905513D01*
X107178000Y-46889182D01*
X107143331Y-46670292D01*
X107074843Y-46459511D01*
X107021767Y-46355344D01*
X106974230Y-46262047D01*
X106843962Y-46082749D01*
X106687251Y-45926038D01*
X106507953Y-45795770D01*
X106488645Y-45785932D01*
X106310488Y-45695156D01*
X106099707Y-45626668D01*
X105880817Y-45592000D01*
X105880812Y-45592000D01*
X105659188Y-45592000D01*
X105659183Y-45592000D01*
X105440292Y-45626668D01*
X105229511Y-45695156D01*
X105032046Y-45795770D01*
X104953048Y-45853166D01*
X104852749Y-45926038D01*
X104852747Y-45926040D01*
X104852745Y-45926041D01*
X104812082Y-45966704D01*
X104750759Y-46000189D01*
X104681067Y-45995203D01*
X104625134Y-45953331D01*
X104608220Y-45922355D01*
X104581297Y-45850171D01*
X104581293Y-45850164D01*
X104495047Y-45734955D01*
X104495044Y-45734952D01*
X104379835Y-45648706D01*
X104379828Y-45648702D01*
X104244982Y-45598408D01*
X104244983Y-45598408D01*
X104185383Y-45592001D01*
X104185381Y-45592000D01*
X104185373Y-45592000D01*
X104185364Y-45592000D01*
X102274629Y-45592000D01*
X102274623Y-45592001D01*
X102215016Y-45598408D01*
X102080171Y-45648702D01*
X102080164Y-45648706D01*
X101964955Y-45734952D01*
X101964952Y-45734955D01*
X101878706Y-45850164D01*
X101878702Y-45850171D01*
X101828408Y-45985017D01*
X101822001Y-46044616D01*
X101822000Y-46044635D01*
X100552583Y-46044635D01*
X100493295Y-45823368D01*
X100387923Y-45568979D01*
X100387921Y-45568976D01*
X100387919Y-45568971D01*
X100317691Y-45447334D01*
X100250249Y-45330521D01*
X100082628Y-45112072D01*
X100082623Y-45112066D01*
X99887933Y-44917376D01*
X99887926Y-44917370D01*
X99669483Y-44749754D01*
X99669482Y-44749753D01*
X99669479Y-44749751D01*
X99574407Y-44694861D01*
X99431028Y-44612080D01*
X99431017Y-44612075D01*
X99176630Y-44506704D01*
X99043649Y-44471072D01*
X98910666Y-44435440D01*
X98910660Y-44435439D01*
X98910655Y-44435438D01*
X98637684Y-44399501D01*
X98637679Y-44399500D01*
X98637674Y-44399500D01*
X98362326Y-44399500D01*
X98362320Y-44399500D01*
X98362315Y-44399501D01*
X98089344Y-44435438D01*
X98089337Y-44435439D01*
X98089334Y-44435440D01*
X98033125Y-44450500D01*
X97823369Y-44506704D01*
X97568982Y-44612075D01*
X97568971Y-44612080D01*
X97330516Y-44749754D01*
X97112073Y-44917370D01*
X97112066Y-44917376D01*
X96917376Y-45112066D01*
X96917370Y-45112073D01*
X96749754Y-45330516D01*
X96612080Y-45568971D01*
X96612075Y-45568982D01*
X96506704Y-45823369D01*
X96460662Y-45995203D01*
X96437205Y-46082749D01*
X96435441Y-46089331D01*
X96435438Y-46089344D01*
X96399501Y-46362315D01*
X96399500Y-46362332D01*
X95507715Y-46362332D01*
X95508268Y-46351777D01*
X95516592Y-46192953D01*
X95517949Y-46180046D01*
X95530548Y-46100500D01*
X95565029Y-45882786D01*
X95567723Y-45870107D01*
X95645627Y-45579368D01*
X95649636Y-45567033D01*
X95651368Y-45562522D01*
X95757493Y-45286054D01*
X95762763Y-45274215D01*
X95899415Y-45006023D01*
X95905891Y-44994808D01*
X96069819Y-44742380D01*
X96077434Y-44731899D01*
X96266858Y-44497979D01*
X96275525Y-44488354D01*
X96488354Y-44275525D01*
X96497979Y-44266858D01*
X96731899Y-44077434D01*
X96742380Y-44069819D01*
X96994808Y-43905891D01*
X97006023Y-43899415D01*
X97274215Y-43762763D01*
X97286054Y-43757493D01*
X97567040Y-43649633D01*
X97579368Y-43645627D01*
X97870107Y-43567723D01*
X97882786Y-43565029D01*
X98180046Y-43517949D01*
X98192951Y-43516592D01*
X98496756Y-43500669D01*
X98503246Y-43500500D01*
X98565892Y-43500500D01*
X187434108Y-43500500D01*
X187496754Y-43500500D01*
X187503244Y-43500670D01*
G37*
%TD.AperFunction*%
%TA.AperFunction,NonConductor*%
G36*
X123785087Y-45464185D02*
G01*
X123830842Y-45516989D01*
X123840786Y-45586147D01*
X123811761Y-45649703D01*
X123756368Y-45686430D01*
X123744837Y-45690176D01*
X123729511Y-45695156D01*
X123532046Y-45795770D01*
X123453048Y-45853166D01*
X123352749Y-45926038D01*
X123352747Y-45926040D01*
X123352745Y-45926041D01*
X123312082Y-45966704D01*
X123250759Y-46000189D01*
X123181067Y-45995203D01*
X123125134Y-45953331D01*
X123108220Y-45922355D01*
X123081297Y-45850171D01*
X123081293Y-45850164D01*
X122995047Y-45734955D01*
X122905295Y-45667766D01*
X122863425Y-45611832D01*
X122858441Y-45542141D01*
X122891927Y-45480818D01*
X122953250Y-45447333D01*
X122979607Y-45444500D01*
X123718048Y-45444500D01*
X123785087Y-45464185D01*
G37*
%TD.AperFunction*%
%TA.AperFunction,NonConductor*%
G36*
X177055703Y-50155384D02*
G01*
X177062181Y-50161416D01*
X186387959Y-59487194D01*
X186421444Y-59548517D01*
X186418209Y-59613192D01*
X186388587Y-59704360D01*
X186357500Y-59900639D01*
X186357500Y-59958902D01*
X186337815Y-60025941D01*
X186285011Y-60071696D01*
X186215853Y-60081640D01*
X186152297Y-60052615D01*
X186145819Y-60046583D01*
X176886819Y-50787583D01*
X176853334Y-50726260D01*
X176850500Y-50699902D01*
X176850500Y-50249097D01*
X176870185Y-50182058D01*
X176922989Y-50136303D01*
X176992147Y-50126359D01*
X177055703Y-50155384D01*
G37*
%TD.AperFunction*%
%TA.AperFunction,NonConductor*%
G36*
X176555703Y-52155384D02*
G01*
X176562181Y-52161416D01*
X186397768Y-61997004D01*
X186431253Y-62058327D01*
X186428018Y-62123002D01*
X186388587Y-62244360D01*
X186357500Y-62440639D01*
X186357500Y-62458903D01*
X186337815Y-62525942D01*
X186285011Y-62571697D01*
X186215853Y-62581641D01*
X186152297Y-62552616D01*
X186145819Y-62546584D01*
X176386819Y-52787584D01*
X176353334Y-52726261D01*
X176350500Y-52699903D01*
X176350500Y-52249097D01*
X176370185Y-52182058D01*
X176422989Y-52136303D01*
X176492147Y-52126359D01*
X176555703Y-52155384D01*
G37*
%TD.AperFunction*%
%TA.AperFunction,NonConductor*%
G36*
X176055703Y-54155384D02*
G01*
X176062181Y-54161416D01*
X186407578Y-64506813D01*
X186441063Y-64568136D01*
X186437828Y-64632811D01*
X186388587Y-64784360D01*
X186357500Y-64980639D01*
X186357500Y-65083902D01*
X186337815Y-65150941D01*
X186285011Y-65196696D01*
X186215853Y-65206640D01*
X186152297Y-65177615D01*
X186145819Y-65171583D01*
X175886819Y-54912583D01*
X175853334Y-54851260D01*
X175850500Y-54824902D01*
X175850500Y-54249097D01*
X175870185Y-54182058D01*
X175922989Y-54136303D01*
X175992147Y-54126359D01*
X176055703Y-54155384D01*
G37*
%TD.AperFunction*%
M02*
